%TF.GenerationSoftware,KiCad,Pcbnew,8.0.8*%
%TF.CreationDate,2025-04-07T15:46:08+05:30*%
%TF.ProjectId,current sensor_NEW,63757272-656e-4742-9073-656e736f725f,rev?*%
%TF.SameCoordinates,Original*%
%TF.FileFunction,Profile,NP*%
%FSLAX46Y46*%
G04 Gerber Fmt 4.6, Leading zero omitted, Abs format (unit mm)*
G04 Created by KiCad (PCBNEW 8.0.8) date 2025-04-07 15:46:08*
%MOMM*%
%LPD*%
G01*
G04 APERTURE LIST*
%TA.AperFunction,Profile*%
%ADD10C,0.100000*%
%TD*%
%TA.AperFunction,Profile*%
%ADD11C,0.150000*%
%TD*%
G04 APERTURE END LIST*
D10*
X152074845Y-218934591D02*
G75*
G02*
X148044337Y-218934591I-2015254J0D01*
G01*
X148044337Y-218934591D02*
G75*
G02*
X152074845Y-218934591I2015254J0D01*
G01*
X59315254Y-219050000D02*
G75*
G02*
X55284746Y-219050000I-2015254J0D01*
G01*
X55284746Y-219050000D02*
G75*
G02*
X59315254Y-219050000I2015254J0D01*
G01*
X59690254Y-20362896D02*
G75*
G02*
X55659746Y-20362896I-2015254J0D01*
G01*
X55659746Y-20362896D02*
G75*
G02*
X59690254Y-20362896I2015254J0D01*
G01*
X151565254Y-20575000D02*
G75*
G02*
X147534746Y-20575000I-2015254J0D01*
G01*
X147534746Y-20575000D02*
G75*
G02*
X151565254Y-20575000I2015254J0D01*
G01*
D11*
X81125000Y-117025000D02*
X81100000Y-122550000D01*
X81100000Y-122550000D02*
X58100000Y-122525000D01*
X58100000Y-117025000D02*
X81125000Y-117025000D01*
X58100000Y-122525000D02*
X58100000Y-117025000D01*
X81120000Y-167405000D02*
X81095000Y-172930000D01*
X81095000Y-172930000D02*
X58095000Y-172905000D01*
X58095000Y-167405000D02*
X81120000Y-167405000D01*
X58095000Y-172905000D02*
X58095000Y-167405000D01*
D10*
X54670000Y-17560000D02*
X152420000Y-17560000D01*
X152420000Y-221485000D01*
X54670000Y-221485000D01*
X54670000Y-17560000D01*
D11*
X58045000Y-71910000D02*
X58045000Y-66410000D01*
X58045000Y-66410000D02*
X81070000Y-66410000D01*
X81045000Y-71935000D02*
X58045000Y-71910000D01*
X81070000Y-66410000D02*
X81045000Y-71935000D01*
M02*
