%TF.GenerationSoftware,KiCad,Pcbnew,8.0.8*%
%TF.CreationDate,2025-04-07T15:46:08+05:30*%
%TF.ProjectId,current sensor_NEW,63757272-656e-4742-9073-656e736f725f,rev?*%
%TF.SameCoordinates,Original*%
%TF.FileFunction,Copper,L2,Bot*%
%TF.FilePolarity,Positive*%
%FSLAX46Y46*%
G04 Gerber Fmt 4.6, Leading zero omitted, Abs format (unit mm)*
G04 Created by KiCad (PCBNEW 8.0.8) date 2025-04-07 15:46:08*
%MOMM*%
%LPD*%
G01*
G04 APERTURE LIST*
G04 Aperture macros list*
%AMRoundRect*
0 Rectangle with rounded corners*
0 $1 Rounding radius*
0 $2 $3 $4 $5 $6 $7 $8 $9 X,Y pos of 4 corners*
0 Add a 4 corners polygon primitive as box body*
4,1,4,$2,$3,$4,$5,$6,$7,$8,$9,$2,$3,0*
0 Add four circle primitives for the rounded corners*
1,1,$1+$1,$2,$3*
1,1,$1+$1,$4,$5*
1,1,$1+$1,$6,$7*
1,1,$1+$1,$8,$9*
0 Add four rect primitives between the rounded corners*
20,1,$1+$1,$2,$3,$4,$5,0*
20,1,$1+$1,$4,$5,$6,$7,0*
20,1,$1+$1,$6,$7,$8,$9,0*
20,1,$1+$1,$8,$9,$2,$3,0*%
%AMHorizOval*
0 Thick line with rounded ends*
0 $1 width*
0 $2 $3 position (X,Y) of the first rounded end (center of the circle)*
0 $4 $5 position (X,Y) of the second rounded end (center of the circle)*
0 Add line between two ends*
20,1,$1,$2,$3,$4,$5,0*
0 Add two circle primitives to create the rounded ends*
1,1,$1,$2,$3*
1,1,$1,$4,$5*%
G04 Aperture macros list end*
%TA.AperFunction,ComponentPad*%
%ADD10C,1.600000*%
%TD*%
%TA.AperFunction,ComponentPad*%
%ADD11HorizOval,1.600000X0.000000X0.000000X0.000000X0.000000X0*%
%TD*%
%TA.AperFunction,ComponentPad*%
%ADD12R,2.600000X2.600000*%
%TD*%
%TA.AperFunction,ComponentPad*%
%ADD13O,2.600000X2.600000*%
%TD*%
%TA.AperFunction,ComponentPad*%
%ADD14C,2.400000*%
%TD*%
%TA.AperFunction,ComponentPad*%
%ADD15O,2.400000X2.400000*%
%TD*%
%TA.AperFunction,ComponentPad*%
%ADD16C,5.000000*%
%TD*%
%TA.AperFunction,ComponentPad*%
%ADD17R,1.700000X1.700000*%
%TD*%
%TA.AperFunction,ComponentPad*%
%ADD18O,1.700000X1.700000*%
%TD*%
%TA.AperFunction,ComponentPad*%
%ADD19O,1.600000X1.600000*%
%TD*%
%TA.AperFunction,ComponentPad*%
%ADD20R,2.200000X2.200000*%
%TD*%
%TA.AperFunction,ComponentPad*%
%ADD21C,2.200000*%
%TD*%
%TA.AperFunction,ComponentPad*%
%ADD22R,1.800000X1.800000*%
%TD*%
%TA.AperFunction,ComponentPad*%
%ADD23C,1.800000*%
%TD*%
%TA.AperFunction,ComponentPad*%
%ADD24C,10.000000*%
%TD*%
%TA.AperFunction,ComponentPad*%
%ADD25R,1.130000X1.130000*%
%TD*%
%TA.AperFunction,ComponentPad*%
%ADD26C,1.130000*%
%TD*%
%TA.AperFunction,ComponentPad*%
%ADD27RoundRect,0.250000X1.330000X1.800000X-1.330000X1.800000X-1.330000X-1.800000X1.330000X-1.800000X0*%
%TD*%
%TA.AperFunction,ComponentPad*%
%ADD28O,3.160000X4.100000*%
%TD*%
%TA.AperFunction,ComponentPad*%
%ADD29R,1.650000X1.650000*%
%TD*%
%TA.AperFunction,ComponentPad*%
%ADD30C,1.650000*%
%TD*%
%TA.AperFunction,ViaPad*%
%ADD31C,0.800000*%
%TD*%
%TA.AperFunction,ViaPad*%
%ADD32C,1.000000*%
%TD*%
%TA.AperFunction,Conductor*%
%ADD33C,1.200000*%
%TD*%
%TA.AperFunction,Conductor*%
%ADD34C,2.000000*%
%TD*%
%TA.AperFunction,Conductor*%
%ADD35C,3.000000*%
%TD*%
%TA.AperFunction,Conductor*%
%ADD36C,2.500000*%
%TD*%
G04 APERTURE END LIST*
D10*
%TO.P,R7,1*%
%TO.N,Net-(R7-Pad1)*%
X129812743Y-196351956D03*
D11*
%TO.P,R7,2*%
%TO.N,Vout_A*%
X141487260Y-206148039D03*
%TD*%
D12*
%TO.P,D5,1,K*%
%TO.N,Vout_A*%
X123340000Y-157080000D03*
D13*
%TO.P,D5,2,A*%
%TO.N,Net-(D5-Pad2)*%
X136040000Y-157080000D03*
%TD*%
D14*
%TO.P,R2,1*%
%TO.N,+15Volt_1*%
X90375005Y-175649996D03*
D15*
%TO.P,R2,2*%
%TO.N,Net-(D2-Pad2)*%
X105615005Y-175649996D03*
%TD*%
D10*
%TO.P,C11,1*%
%TO.N,Vout_A*%
X139865000Y-157790000D03*
%TO.P,C11,2*%
%TO.N,Gnd*%
X139865000Y-162790000D03*
%TD*%
%TO.P,C11,1*%
%TO.N,Vout_A*%
X139705002Y-209489998D03*
%TO.P,C11,2*%
%TO.N,Gnd*%
X139705002Y-214489998D03*
%TD*%
D14*
%TO.P,R2,1*%
%TO.N,+15Volt_1*%
X90535003Y-123949998D03*
D15*
%TO.P,R2,2*%
%TO.N,Net-(D2-Pad2)*%
X105775003Y-123949998D03*
%TD*%
D16*
%TO.P,H4,1,1*%
%TO.N,Net-(H3-Pad1)*%
X104595000Y-145105000D03*
%TD*%
%TO.P,H4,1,1*%
%TO.N,Net-(H3-Pad1)*%
X104435002Y-196804998D03*
%TD*%
D17*
%TO.P,J4,1,Pin_1*%
%TO.N,Vout_A*%
X144929998Y-159835003D03*
D18*
%TO.P,J4,2,Pin_2*%
%TO.N,unconnected-(J4-Pad2)*%
X144929998Y-162375003D03*
%TO.P,J4,3,Pin_3*%
%TO.N,Gnd*%
X144929998Y-164915003D03*
%TD*%
D10*
%TO.P,C1,1*%
%TO.N,+15Volt_1*%
X134370002Y-179969998D03*
%TO.P,C1,2*%
%TO.N,Gnd*%
X134370002Y-174969998D03*
%TD*%
D17*
%TO.P,J3,1,Pin_1*%
%TO.N,sensor_IA*%
X113765000Y-157850000D03*
D18*
%TO.P,J3,2,Pin_2*%
%TO.N,unconnected-(J3-Pad2)*%
X116305000Y-157850000D03*
%TO.P,J3,3,Pin_3*%
%TO.N,Gnd*%
X118845000Y-157850000D03*
%TD*%
D10*
%TO.P,C2,1*%
%TO.N,Gnd*%
X115750000Y-128800000D03*
%TO.P,C2,2*%
%TO.N,-15Volt_1*%
X115750000Y-123800000D03*
%TD*%
%TO.P,R5,1*%
%TO.N,voff_1*%
X119515002Y-192239998D03*
D19*
%TO.P,R5,2*%
%TO.N,Net-(R4-Pad2)*%
X134755002Y-192239998D03*
%TD*%
D12*
%TO.P,D5,1,K*%
%TO.N,Vout_A*%
X123180002Y-208779998D03*
D13*
%TO.P,D5,2,A*%
%TO.N,Net-(D5-Pad2)*%
X135880002Y-208779998D03*
%TD*%
D10*
%TO.P,Rmeasuring1,1*%
%TO.N,sensor_IA*%
X98510002Y-214399998D03*
D19*
%TO.P,Rmeasuring1,2*%
%TO.N,Gnd*%
X113750002Y-214399998D03*
%TD*%
D20*
%TO.P,U1,1,M*%
%TO.N,sensor_IA*%
X88237502Y-210347498D03*
D21*
%TO.P,U1,2,-*%
%TO.N,-15Volt_1*%
X88237502Y-205267498D03*
%TO.P,U1,3,+*%
%TO.N,+15Volt_1*%
X88237502Y-182407498D03*
%TD*%
D22*
%TO.P,D2,1,K*%
%TO.N,Gnd*%
X111540000Y-123920000D03*
D23*
%TO.P,D2,2,A*%
%TO.N,Net-(D2-Pad2)*%
X109000000Y-123920000D03*
%TD*%
D10*
%TO.P,Rmeasuring1,1*%
%TO.N,sensor_IA*%
X98670000Y-162700000D03*
D19*
%TO.P,Rmeasuring1,2*%
%TO.N,Gnd*%
X113910000Y-162700000D03*
%TD*%
D17*
%TO.P,J4,1,Pin_1*%
%TO.N,Vout_A*%
X144770000Y-211535001D03*
D18*
%TO.P,J4,2,Pin_2*%
%TO.N,unconnected-(J4-Pad2)*%
X144770000Y-214075001D03*
%TO.P,J4,3,Pin_3*%
%TO.N,Gnd*%
X144770000Y-216615001D03*
%TD*%
D10*
%TO.P,R1,1*%
%TO.N,sensor_IA*%
X99610000Y-154050000D03*
D19*
%TO.P,R1,2*%
%TO.N,Net-(R1-Pad2)*%
X114850000Y-154050000D03*
%TD*%
D10*
%TO.P,R5,1*%
%TO.N,voff_1*%
X119675000Y-140540000D03*
D19*
%TO.P,R5,2*%
%TO.N,Net-(R4-Pad2)*%
X134915000Y-140540000D03*
%TD*%
D22*
%TO.P,D2,1,K*%
%TO.N,Gnd*%
X111380002Y-175619998D03*
D23*
%TO.P,D2,2,A*%
%TO.N,Net-(D2-Pad2)*%
X108840002Y-175619998D03*
%TD*%
D24*
%TO.P,H3,1,1*%
%TO.N,Net-(H3-Pad1)*%
X65130002Y-211319998D03*
%TD*%
D17*
%TO.P,J3,1,Pin_1*%
%TO.N,sensor_IA*%
X113605002Y-209549998D03*
D18*
%TO.P,J3,2,Pin_2*%
%TO.N,unconnected-(J3-Pad2)*%
X116145002Y-209549998D03*
%TO.P,J3,3,Pin_3*%
%TO.N,Gnd*%
X118685002Y-209549998D03*
%TD*%
D10*
%TO.P,C1,1*%
%TO.N,+15Volt_1*%
X134530000Y-128270000D03*
%TO.P,C1,2*%
%TO.N,Gnd*%
X134530000Y-123270000D03*
%TD*%
D25*
%TO.P,U4,1*%
%TO.N,Net-(R4-Pad1)*%
X118855000Y-144310000D03*
D26*
%TO.P,U4,2,-*%
X118855000Y-146850000D03*
%TO.P,U4,3,+*%
%TO.N,Net-(R1-Pad2)*%
X118855000Y-149390000D03*
%TO.P,U4,4,V-*%
%TO.N,-15Volt_1*%
X118855000Y-151930000D03*
%TO.P,U4,5,+*%
%TO.N,Net-(R4-Pad2)*%
X126795000Y-151930000D03*
%TO.P,U4,6,-*%
%TO.N,Net-(R7-Pad1)*%
X126795000Y-149390000D03*
%TO.P,U4,7*%
X126795000Y-146850000D03*
%TO.P,U4,8,V+*%
%TO.N,+15Volt_1*%
X126795000Y-144310000D03*
%TD*%
D10*
%TO.P,R4,1*%
%TO.N,Net-(R4-Pad1)*%
X119685002Y-185849998D03*
D19*
%TO.P,R4,2*%
%TO.N,Net-(R4-Pad2)*%
X134925002Y-185849998D03*
%TD*%
D12*
%TO.P,D6,1,K*%
%TO.N,Gnd*%
X123470000Y-163410000D03*
D13*
%TO.P,D6,2,A*%
%TO.N,Net-(D5-Pad2)*%
X136170000Y-163410000D03*
%TD*%
D10*
%TO.P,R4,1*%
%TO.N,Net-(R4-Pad1)*%
X119845000Y-134150000D03*
D19*
%TO.P,R4,2*%
%TO.N,Net-(R4-Pad2)*%
X135085000Y-134150000D03*
%TD*%
D25*
%TO.P,U4,1*%
%TO.N,Net-(R4-Pad1)*%
X118695002Y-196009998D03*
D26*
%TO.P,U4,2,-*%
X118695002Y-198549998D03*
%TO.P,U4,3,+*%
%TO.N,Net-(R1-Pad2)*%
X118695002Y-201089998D03*
%TO.P,U4,4,V-*%
%TO.N,-15Volt_1*%
X118695002Y-203629998D03*
%TO.P,U4,5,+*%
%TO.N,Net-(R4-Pad2)*%
X126635002Y-203629998D03*
%TO.P,U4,6,-*%
%TO.N,Net-(R7-Pad1)*%
X126635002Y-201089998D03*
%TO.P,U4,7*%
X126635002Y-198549998D03*
%TO.P,U4,8,V+*%
%TO.N,+15Volt_1*%
X126635002Y-196009998D03*
%TD*%
D27*
%TO.P,power_supply,1,Pin_1*%
%TO.N,+15Volt_1*%
X128540000Y-125620000D03*
D28*
%TO.P,power_supply,2,Pin_2*%
%TO.N,Gnd*%
X124580000Y-125620000D03*
%TO.P,power_supply,3,Pin_3*%
%TO.N,-15Volt_1*%
X120620000Y-125620000D03*
%TD*%
D24*
%TO.P,H2,1,1*%
%TO.N,Net-(H1-Pad1)*%
X65290000Y-129850000D03*
%TD*%
D10*
%TO.P,R1,1*%
%TO.N,sensor_IA*%
X99450002Y-205749998D03*
D19*
%TO.P,R1,2*%
%TO.N,Net-(R1-Pad2)*%
X114690002Y-205749998D03*
%TD*%
D10*
%TO.P,R7,1*%
%TO.N,Net-(R7-Pad1)*%
X129972741Y-144651958D03*
D11*
%TO.P,R7,2*%
%TO.N,Vout_A*%
X141647258Y-154448041D03*
%TD*%
D16*
%TO.P,H1,1,1*%
%TO.N,Net-(H1-Pad1)*%
X74585002Y-196454998D03*
%TD*%
D20*
%TO.P,U1,1,M*%
%TO.N,sensor_IA*%
X88397500Y-158647500D03*
D21*
%TO.P,U1,2,-*%
%TO.N,-15Volt_1*%
X88397500Y-153567500D03*
%TO.P,U1,3,+*%
%TO.N,+15Volt_1*%
X88397500Y-130707500D03*
%TD*%
D10*
%TO.P,C2,1*%
%TO.N,Gnd*%
X115590002Y-180499998D03*
%TO.P,C2,2*%
%TO.N,-15Volt_1*%
X115590002Y-175499998D03*
%TD*%
D12*
%TO.P,D6,1,K*%
%TO.N,Gnd*%
X123310002Y-215109998D03*
D13*
%TO.P,D6,2,A*%
%TO.N,Net-(D5-Pad2)*%
X136010002Y-215109998D03*
%TD*%
D27*
%TO.P,power_supply,1,Pin_1*%
%TO.N,+15Volt_1*%
X128380002Y-177319998D03*
D28*
%TO.P,power_supply,2,Pin_2*%
%TO.N,Gnd*%
X124420002Y-177319998D03*
%TO.P,power_supply,3,Pin_3*%
%TO.N,-15Volt_1*%
X120460002Y-177319998D03*
%TD*%
D16*
%TO.P,H1,1,1*%
%TO.N,Net-(H1-Pad1)*%
X74745000Y-144755000D03*
%TD*%
D24*
%TO.P,H3,1,1*%
%TO.N,Net-(H3-Pad1)*%
X65290000Y-159620000D03*
%TD*%
%TO.P,H2,1,1*%
%TO.N,Net-(H1-Pad1)*%
X65130002Y-181549998D03*
%TD*%
D29*
%TO.P,DC_offset(1.5V),1,1*%
%TO.N,Gnd*%
X142370000Y-40200000D03*
D30*
%TO.P,DC_offset(1.5V),2,2*%
%TO.N,voff_1*%
X142370000Y-35120000D03*
%TD*%
D24*
%TO.P,H2,1,1*%
%TO.N,Net-(H1-Pad1)*%
X65080002Y-80554998D03*
%TD*%
D12*
%TO.P,D6,1,K*%
%TO.N,Gnd*%
X123260002Y-114114998D03*
D13*
%TO.P,D6,2,A*%
%TO.N,Net-(D5-Pad2)*%
X135960002Y-114114998D03*
%TD*%
D16*
%TO.P,H1,1,1*%
%TO.N,Net-(H1-Pad1)*%
X74695000Y-43760000D03*
%TD*%
D27*
%TO.P,power_supply,1,Pin_1*%
%TO.N,+15Volt_1*%
X128330002Y-76324998D03*
D28*
%TO.P,power_supply,2,Pin_2*%
%TO.N,Gnd*%
X124370002Y-76324998D03*
%TO.P,power_supply,3,Pin_3*%
%TO.N,-15Volt_1*%
X120410002Y-76324998D03*
%TD*%
D24*
%TO.P,H3,1,1*%
%TO.N,Net-(H3-Pad1)*%
X65240000Y-58625000D03*
%TD*%
D10*
%TO.P,C2,1*%
%TO.N,Gnd*%
X115540002Y-79504998D03*
%TO.P,C2,2*%
%TO.N,-15Volt_1*%
X115540002Y-74504998D03*
%TD*%
D22*
%TO.P,D2,1,K*%
%TO.N,Gnd*%
X111330002Y-74624998D03*
D23*
%TO.P,D2,2,A*%
%TO.N,Net-(D2-Pad2)*%
X108790002Y-74624998D03*
%TD*%
D17*
%TO.P,J3,1,Pin_1*%
%TO.N,sensor_IA*%
X113555002Y-108554998D03*
D18*
%TO.P,J3,2,Pin_2*%
%TO.N,unconnected-(J3-Pad2)*%
X116095002Y-108554998D03*
%TO.P,J3,3,Pin_3*%
%TO.N,Gnd*%
X118635002Y-108554998D03*
%TD*%
D20*
%TO.P,U1,1,M*%
%TO.N,sensor_IA*%
X88347500Y-57652500D03*
D21*
%TO.P,U1,2,-*%
%TO.N,-15Volt_1*%
X88347500Y-52572500D03*
%TO.P,U1,3,+*%
%TO.N,+15Volt_1*%
X88347500Y-29712500D03*
%TD*%
D10*
%TO.P,R5,1*%
%TO.N,voff_1*%
X119625000Y-39545000D03*
D19*
%TO.P,R5,2*%
%TO.N,Net-(R4-Pad2)*%
X134865000Y-39545000D03*
%TD*%
D10*
%TO.P,C1,1*%
%TO.N,+15Volt_1*%
X134480000Y-27275000D03*
%TO.P,C1,2*%
%TO.N,Gnd*%
X134480000Y-22275000D03*
%TD*%
%TO.P,R1,1*%
%TO.N,sensor_IA*%
X99400002Y-104754998D03*
D19*
%TO.P,R1,2*%
%TO.N,Net-(R1-Pad2)*%
X114640002Y-104754998D03*
%TD*%
D24*
%TO.P,H2,1,1*%
%TO.N,Net-(H1-Pad1)*%
X65240000Y-28855000D03*
%TD*%
D10*
%TO.P,R4,1*%
%TO.N,Net-(R4-Pad1)*%
X119635002Y-84854998D03*
D19*
%TO.P,R4,2*%
%TO.N,Net-(R4-Pad2)*%
X134875002Y-84854998D03*
%TD*%
D27*
%TO.P,power_supply,1,Pin_1*%
%TO.N,+15Volt_1*%
X128490000Y-24625000D03*
D28*
%TO.P,power_supply,2,Pin_2*%
%TO.N,Gnd*%
X124530000Y-24625000D03*
%TO.P,power_supply,3,Pin_3*%
%TO.N,-15Volt_1*%
X120570000Y-24625000D03*
%TD*%
D25*
%TO.P,U4,1*%
%TO.N,Net-(R4-Pad1)*%
X118645002Y-95014998D03*
D26*
%TO.P,U4,2,-*%
X118645002Y-97554998D03*
%TO.P,U4,3,+*%
%TO.N,Net-(R1-Pad2)*%
X118645002Y-100094998D03*
%TO.P,U4,4,V-*%
%TO.N,-15Volt_1*%
X118645002Y-102634998D03*
%TO.P,U4,5,+*%
%TO.N,Net-(R4-Pad2)*%
X126585002Y-102634998D03*
%TO.P,U4,6,-*%
%TO.N,Net-(R7-Pad1)*%
X126585002Y-100094998D03*
%TO.P,U4,7*%
X126585002Y-97554998D03*
%TO.P,U4,8,V+*%
%TO.N,+15Volt_1*%
X126585002Y-95014998D03*
%TD*%
D10*
%TO.P,R7,1*%
%TO.N,Net-(R7-Pad1)*%
X129922741Y-43656958D03*
D11*
%TO.P,R7,2*%
%TO.N,Vout_A*%
X141597258Y-53453041D03*
%TD*%
D10*
%TO.P,R1,1*%
%TO.N,sensor_IA*%
X99560000Y-53055000D03*
D19*
%TO.P,R1,2*%
%TO.N,Net-(R1-Pad2)*%
X114800000Y-53055000D03*
%TD*%
D10*
%TO.P,R4,1*%
%TO.N,Net-(R4-Pad1)*%
X119795000Y-33155000D03*
D19*
%TO.P,R4,2*%
%TO.N,Net-(R4-Pad2)*%
X135035000Y-33155000D03*
%TD*%
D12*
%TO.P,D6,1,K*%
%TO.N,Gnd*%
X123420000Y-62415000D03*
D13*
%TO.P,D6,2,A*%
%TO.N,Net-(D5-Pad2)*%
X136120000Y-62415000D03*
%TD*%
D25*
%TO.P,U4,1*%
%TO.N,Net-(R4-Pad1)*%
X118805000Y-43315000D03*
D26*
%TO.P,U4,2,-*%
X118805000Y-45855000D03*
%TO.P,U4,3,+*%
%TO.N,Net-(R1-Pad2)*%
X118805000Y-48395000D03*
%TO.P,U4,4,V-*%
%TO.N,-15Volt_1*%
X118805000Y-50935000D03*
%TO.P,U4,5,+*%
%TO.N,Net-(R4-Pad2)*%
X126745000Y-50935000D03*
%TO.P,U4,6,-*%
%TO.N,Net-(R7-Pad1)*%
X126745000Y-48395000D03*
%TO.P,U4,7*%
X126745000Y-45855000D03*
%TO.P,U4,8,V+*%
%TO.N,+15Volt_1*%
X126745000Y-43315000D03*
%TD*%
D24*
%TO.P,H3,1,1*%
%TO.N,Net-(H3-Pad1)*%
X65080002Y-110324998D03*
%TD*%
D17*
%TO.P,J4,1,Pin_1*%
%TO.N,Vout_A*%
X144720000Y-110540001D03*
D18*
%TO.P,J4,2,Pin_2*%
%TO.N,unconnected-(J4-Pad2)*%
X144720000Y-113080001D03*
%TO.P,J4,3,Pin_3*%
%TO.N,Gnd*%
X144720000Y-115620001D03*
%TD*%
D16*
%TO.P,H1,1,1*%
%TO.N,Net-(H1-Pad1)*%
X74535002Y-95459998D03*
%TD*%
D20*
%TO.P,U1,1,M*%
%TO.N,sensor_IA*%
X88187502Y-109352498D03*
D21*
%TO.P,U1,2,-*%
%TO.N,-15Volt_1*%
X88187502Y-104272498D03*
%TO.P,U1,3,+*%
%TO.N,+15Volt_1*%
X88187502Y-81412498D03*
%TD*%
D16*
%TO.P,H4,1,1*%
%TO.N,Net-(H3-Pad1)*%
X104385002Y-95809998D03*
%TD*%
D14*
%TO.P,R2,1*%
%TO.N,+15Volt_1*%
X90485003Y-22954998D03*
D15*
%TO.P,R2,2*%
%TO.N,Net-(D2-Pad2)*%
X105725003Y-22954998D03*
%TD*%
D10*
%TO.P,C11,1*%
%TO.N,Vout_A*%
X139655002Y-108494998D03*
%TO.P,C11,2*%
%TO.N,Gnd*%
X139655002Y-113494998D03*
%TD*%
D16*
%TO.P,H4,1,1*%
%TO.N,Net-(H3-Pad1)*%
X104545000Y-44110000D03*
%TD*%
D17*
%TO.P,J3,1,Pin_1*%
%TO.N,sensor_IA*%
X113715000Y-56855000D03*
D18*
%TO.P,J3,2,Pin_2*%
%TO.N,unconnected-(J3-Pad2)*%
X116255000Y-56855000D03*
%TO.P,J3,3,Pin_3*%
%TO.N,Gnd*%
X118795000Y-56855000D03*
%TD*%
D10*
%TO.P,Rmeasuring1,1*%
%TO.N,sensor_IA*%
X98460002Y-113404998D03*
D19*
%TO.P,Rmeasuring1,2*%
%TO.N,Gnd*%
X113700002Y-113404998D03*
%TD*%
D10*
%TO.P,C11,1*%
%TO.N,Vout_A*%
X139815000Y-56795000D03*
%TO.P,C11,2*%
%TO.N,Gnd*%
X139815000Y-61795000D03*
%TD*%
%TO.P,C2,1*%
%TO.N,Gnd*%
X115700000Y-27805000D03*
%TO.P,C2,2*%
%TO.N,-15Volt_1*%
X115700000Y-22805000D03*
%TD*%
%TO.P,Rmeasuring1,1*%
%TO.N,sensor_IA*%
X98620000Y-61705000D03*
D19*
%TO.P,Rmeasuring1,2*%
%TO.N,Gnd*%
X113860000Y-61705000D03*
%TD*%
D22*
%TO.P,D2,1,K*%
%TO.N,Gnd*%
X111490000Y-22925000D03*
D23*
%TO.P,D2,2,A*%
%TO.N,Net-(D2-Pad2)*%
X108950000Y-22925000D03*
%TD*%
D10*
%TO.P,C1,1*%
%TO.N,+15Volt_1*%
X134320002Y-78974998D03*
%TO.P,C1,2*%
%TO.N,Gnd*%
X134320002Y-73974998D03*
%TD*%
D17*
%TO.P,J4,1,Pin_1*%
%TO.N,Vout_A*%
X144879998Y-58840003D03*
D18*
%TO.P,J4,2,Pin_2*%
%TO.N,unconnected-(J4-Pad2)*%
X144879998Y-61380003D03*
%TO.P,J4,3,Pin_3*%
%TO.N,Gnd*%
X144879998Y-63920003D03*
%TD*%
D12*
%TO.P,D5,1,K*%
%TO.N,Vout_A*%
X123290000Y-56085000D03*
D13*
%TO.P,D5,2,A*%
%TO.N,Net-(D5-Pad2)*%
X135990000Y-56085000D03*
%TD*%
D12*
%TO.P,D5,1,K*%
%TO.N,Vout_A*%
X123130002Y-107784998D03*
D13*
%TO.P,D5,2,A*%
%TO.N,Net-(D5-Pad2)*%
X135830002Y-107784998D03*
%TD*%
D10*
%TO.P,R7,1*%
%TO.N,Net-(R7-Pad1)*%
X129762743Y-95356956D03*
D11*
%TO.P,R7,2*%
%TO.N,Vout_A*%
X141437260Y-105153039D03*
%TD*%
D10*
%TO.P,R5,1*%
%TO.N,voff_1*%
X119465002Y-91244998D03*
D19*
%TO.P,R5,2*%
%TO.N,Net-(R4-Pad2)*%
X134705002Y-91244998D03*
%TD*%
D14*
%TO.P,R2,1*%
%TO.N,+15Volt_1*%
X90325005Y-74654996D03*
D15*
%TO.P,R2,2*%
%TO.N,Net-(D2-Pad2)*%
X105565005Y-74654996D03*
%TD*%
D31*
%TO.N,voff_1*%
X139135000Y-82535000D03*
X142000000Y-112425000D03*
X144000000Y-122100000D03*
X140570000Y-138075000D03*
D32*
%TO.N,Gnd*%
X143760000Y-129080000D03*
D31*
X122610000Y-168530000D03*
%TO.N,+15Volt_1*%
X145460000Y-180050000D03*
X139530000Y-130630000D03*
%TO.N,voff_1*%
X142820000Y-163205000D03*
X142770000Y-62210000D03*
%TO.N,+15Volt_1*%
X145410000Y-79055000D03*
X139480000Y-29635000D03*
D32*
%TO.N,Gnd*%
X143710000Y-28085000D03*
D31*
X122560000Y-67535000D03*
%TD*%
D33*
%TO.N,*%
X122612086Y-26542914D02*
X123544172Y-27475000D01*
X121680000Y-27475000D02*
X122612086Y-26542914D01*
X126718148Y-27475000D02*
X126179074Y-26935926D01*
X119584172Y-27475000D02*
X121680000Y-27475000D01*
X123544172Y-27475000D02*
X128490000Y-27475000D01*
X117650000Y-25540828D02*
X119584172Y-27475000D01*
X128490000Y-27475000D02*
X126718148Y-27475000D01*
X117650000Y-25250000D02*
X117650000Y-25540828D01*
%TO.N,Gnd*%
X139704999Y-115620001D02*
X144720000Y-115620001D01*
X139655002Y-115669998D02*
X139704999Y-115620001D01*
X139655002Y-113494998D02*
X139655002Y-115669998D01*
%TO.N,voff_1*%
X140500000Y-83900000D02*
X139135000Y-82535000D01*
X144525000Y-86975000D02*
X141450000Y-83900000D01*
X141450000Y-83900000D02*
X140500000Y-83900000D01*
X142275000Y-107550000D02*
X144525000Y-105300000D01*
X144525000Y-105300000D02*
X144525000Y-86975000D01*
X142000000Y-112425000D02*
X142275000Y-112150000D01*
X142275000Y-112150000D02*
X142275000Y-107550000D01*
X144000000Y-122100000D02*
X144025000Y-122075000D01*
X141500000Y-132550000D02*
X141460000Y-132510000D01*
X141460000Y-124640000D02*
X144000000Y-122100000D01*
X141460000Y-132510000D02*
X141460000Y-124640000D01*
X140570000Y-133480000D02*
X141500000Y-132550000D01*
X140570000Y-138075000D02*
X140570000Y-133480000D01*
X140570000Y-138075000D02*
X140570000Y-137965000D01*
X119675000Y-140550000D02*
X119850000Y-140725000D01*
X119675000Y-140540000D02*
X119675000Y-140550000D01*
D34*
%TO.N,Gnd*%
X149175000Y-69740000D02*
X147040000Y-67605000D01*
X149175000Y-116775000D02*
X149175000Y-69740000D01*
X146225000Y-119725000D02*
X149175000Y-116775000D01*
X127365000Y-119725000D02*
X146225000Y-119725000D01*
X124580000Y-122510000D02*
X127365000Y-119725000D01*
X124580000Y-125620000D02*
X124580000Y-122510000D01*
D33*
X117825000Y-115465000D02*
X114090000Y-115465000D01*
X122320000Y-115465000D02*
X117825000Y-115465000D01*
%TO.N,-15Volt_1*%
X82870000Y-89079998D02*
X82790002Y-89000000D01*
X82790002Y-89000000D02*
X82790002Y-89704998D01*
X82790002Y-69085002D02*
X82790002Y-89000000D01*
X82870000Y-122575000D02*
X82870000Y-121605000D01*
X82870000Y-122575000D02*
X82870000Y-89079998D01*
X82870000Y-138870000D02*
X82870000Y-122575000D01*
%TO.N,voff_1*%
X142820000Y-163205000D02*
X143247258Y-162777742D01*
X140570000Y-144605000D02*
X140570000Y-138075000D01*
X143247258Y-162777742D02*
X143247258Y-147282258D01*
X143247258Y-147282258D02*
X140570000Y-144605000D01*
%TO.N,-15Volt_1*%
X113995000Y-195930000D02*
X113995000Y-201355000D01*
X82840002Y-190699998D02*
X82940002Y-190799998D01*
X82940002Y-190799998D02*
X108864998Y-190799998D01*
X82840002Y-170080002D02*
X82840002Y-190699998D01*
X116269998Y-203629998D02*
X118695002Y-203629998D01*
X113995000Y-201355000D02*
X116269998Y-203629998D01*
X108864998Y-190799998D02*
X113995000Y-195930000D01*
%TO.N,Gnd*%
X148045000Y-169555000D02*
X147090000Y-168600000D01*
%TO.N,-15Volt_1*%
X112820000Y-142255000D02*
X109665000Y-139100000D01*
X109665000Y-139100000D02*
X83100000Y-139100000D01*
X83100000Y-139100000D02*
X83000000Y-139000000D01*
X112820000Y-148705000D02*
X112820000Y-142255000D01*
X116045000Y-151930000D02*
X112820000Y-148705000D01*
X118855000Y-151930000D02*
X116045000Y-151930000D01*
D35*
%TO.N,Gnd*%
X147695000Y-138330000D02*
X147695000Y-148925000D01*
D33*
X144830000Y-141195000D02*
X147695000Y-138330000D01*
D35*
X147695000Y-133015000D02*
X147695000Y-138330000D01*
D33*
X142420000Y-141195000D02*
X144830000Y-141195000D01*
X142850000Y-165920000D02*
X140110000Y-165920000D01*
X141160002Y-215789998D02*
X140720002Y-215789998D01*
X144929998Y-164915003D02*
X144929998Y-167149998D01*
X144929998Y-164915003D02*
X146915003Y-164915003D01*
X145950000Y-165935005D02*
X145950000Y-166810000D01*
X126820000Y-163020000D02*
X127180000Y-163380000D01*
X124170000Y-167520000D02*
X124170000Y-165810000D01*
X136740000Y-218010000D02*
X136800000Y-217950000D01*
D36*
X113750002Y-214399998D02*
X119260002Y-214399998D01*
D33*
X118745000Y-158230000D02*
X118745000Y-162025000D01*
X137930000Y-167640000D02*
X137560000Y-167270000D01*
X123310002Y-215109998D02*
X123939998Y-215109998D01*
X143470000Y-166800000D02*
X139090000Y-166800000D01*
X123470000Y-163410000D02*
X125390000Y-165330000D01*
X137930000Y-167640000D02*
X126980000Y-167640000D01*
D35*
X147090000Y-168600000D02*
X146450000Y-169240000D01*
D33*
X139620000Y-217950000D02*
X139950002Y-217619998D01*
X141260000Y-162790000D02*
X141260000Y-164030000D01*
X144929998Y-164915003D02*
X139914997Y-164915003D01*
X123470000Y-162300000D02*
X123820000Y-161950000D01*
X123470000Y-163220000D02*
X124390000Y-162300000D01*
D35*
X147716078Y-165716078D02*
X147715418Y-167974582D01*
D33*
X123310002Y-215109998D02*
X123310002Y-215519998D01*
X136800000Y-217950000D02*
X139620000Y-217950000D01*
X144929998Y-164915003D02*
X144929998Y-166439998D01*
D36*
X122600002Y-214399998D02*
X123310002Y-215109998D01*
D33*
X144770000Y-216615001D02*
X144770000Y-217460000D01*
D35*
X147715418Y-167974582D02*
X147090000Y-168600000D01*
D36*
X119260002Y-214399998D02*
X122600002Y-214399998D01*
D33*
X123470000Y-163410000D02*
X123470000Y-163220000D01*
X123470000Y-166960000D02*
X124100000Y-167590000D01*
X114140000Y-216460000D02*
X113730000Y-216050000D01*
X144770000Y-216615001D02*
X143610002Y-217774999D01*
X141260000Y-164030000D02*
X141320000Y-164090000D01*
X118745000Y-162025000D02*
X119420000Y-162700000D01*
X126090000Y-166750000D02*
X126610000Y-167270000D01*
X143840000Y-167640000D02*
X142470000Y-167640000D01*
X141320000Y-164090000D02*
X140880000Y-164090000D01*
X123470000Y-163410000D02*
X123470000Y-164460000D01*
X139914997Y-164915003D02*
X139255000Y-165575000D01*
X113750002Y-216029998D02*
X113750002Y-214399998D01*
X141100002Y-215729998D02*
X141160002Y-215789998D01*
X126100000Y-162300000D02*
X126250000Y-162450000D01*
X144929998Y-164915003D02*
X144929998Y-166550002D01*
X146915003Y-164915003D02*
X147716078Y-165716078D01*
X126980000Y-167640000D02*
X126610000Y-167270000D01*
X139255000Y-165575000D02*
X137560000Y-167270000D01*
X139865000Y-164965000D02*
X139255000Y-165575000D01*
X126840000Y-218010000D02*
X136740000Y-218010000D01*
D34*
X122610000Y-164270000D02*
X123470000Y-163410000D01*
D33*
X122670000Y-215750000D02*
X114500000Y-215750000D01*
X124390000Y-162300000D02*
X126100000Y-162300000D01*
X122370000Y-216460000D02*
X114140000Y-216460000D01*
X144929998Y-167149998D02*
X145230000Y-167450000D01*
X123310002Y-215109998D02*
X123310002Y-213919998D01*
X126090000Y-164220000D02*
X126090000Y-166750000D01*
X123939998Y-215109998D02*
X126840000Y-218010000D01*
D35*
X144070000Y-169240000D02*
X142470000Y-167640000D01*
D33*
X123470000Y-163410000D02*
X124985000Y-164925000D01*
X142690002Y-217619998D02*
X139950002Y-217619998D01*
X140720002Y-215789998D02*
X140430002Y-215499998D01*
D34*
X122610000Y-168530000D02*
X141030000Y-168530000D01*
D33*
X144929998Y-164915003D02*
X143854997Y-164915003D01*
X144929998Y-164915003D02*
X143770000Y-166075001D01*
X118585002Y-213724998D02*
X119260002Y-214399998D01*
X127180000Y-163380000D02*
X127180000Y-166380000D01*
X124100000Y-167590000D02*
X124170000Y-167520000D01*
X139705002Y-214489998D02*
X141100002Y-214489998D01*
X143770000Y-166075001D02*
X143770000Y-166500000D01*
X125280000Y-163410000D02*
X126090000Y-164220000D01*
X141260000Y-162790000D02*
X139865000Y-162790000D01*
X123310002Y-215519998D02*
X122370000Y-216460000D01*
X139865000Y-162790000D02*
X139865000Y-164965000D01*
X142470000Y-167640000D02*
X137930000Y-167640000D01*
X125390000Y-165330000D02*
X125390000Y-167520000D01*
X126430000Y-163410000D02*
X123470000Y-163410000D01*
X143770000Y-166500000D02*
X143470000Y-166800000D01*
X123470000Y-164460000D02*
X124170000Y-165160000D01*
X113730000Y-216050000D02*
X113750002Y-216029998D01*
X139705002Y-214489998D02*
X139705002Y-216664998D01*
X141100002Y-214489998D02*
X141100002Y-215729998D01*
X123310002Y-215829998D02*
X123310002Y-215109998D01*
X123470000Y-163410000D02*
X123470000Y-166960000D01*
X140880000Y-164090000D02*
X140590000Y-163800000D01*
X123470000Y-163410000D02*
X124805000Y-164745000D01*
X118585002Y-209929998D02*
X118585002Y-213724998D01*
X143694999Y-216615001D02*
X142690002Y-217619998D01*
X144929998Y-166439998D02*
X147090000Y-168600000D01*
D36*
X122760000Y-162700000D02*
X123470000Y-163410000D01*
D33*
X137560000Y-167270000D02*
X126610000Y-167270000D01*
D36*
X113910000Y-162700000D02*
X119420000Y-162700000D01*
D33*
X123310002Y-215109998D02*
X122670000Y-215750000D01*
X139754999Y-216615001D02*
X139095002Y-217274998D01*
D36*
X119420000Y-162700000D02*
X122760000Y-162700000D01*
D35*
X146450000Y-169240000D02*
X144070000Y-169240000D01*
D34*
X122610000Y-168530000D02*
X122610000Y-164270000D01*
D33*
X143854997Y-164915003D02*
X142850000Y-165920000D01*
D34*
X141030000Y-168530000D02*
X141040000Y-168520000D01*
D33*
X139705002Y-216664998D02*
X139095002Y-217274998D01*
X144929998Y-166550002D02*
X143840000Y-167640000D01*
X144929998Y-164915003D02*
X145950000Y-165935005D01*
X144770000Y-216615001D02*
X139754999Y-216615001D01*
X123470000Y-163410000D02*
X125280000Y-163410000D01*
X123470000Y-163410000D02*
X123470000Y-162300000D01*
X144770000Y-216615001D02*
X143694999Y-216615001D01*
X126820000Y-163020000D02*
X126430000Y-163410000D01*
%TO.N,sensor_IA*%
X113605002Y-209549998D02*
X99290002Y-209549998D01*
D36*
X98670000Y-156629998D02*
X99610000Y-155689998D01*
X99610000Y-155689998D02*
X99610000Y-154050000D01*
X98670000Y-157070000D02*
X98670000Y-156629998D01*
X98670000Y-162700000D02*
X92450000Y-162700000D01*
X92290002Y-214399998D02*
X88237502Y-210347498D01*
D33*
X99290002Y-209549998D02*
X98510002Y-208769998D01*
D36*
X98510002Y-214399998D02*
X98510002Y-208769998D01*
X98670000Y-162700000D02*
X98670000Y-157070000D01*
D33*
X99450000Y-157850000D02*
X98670000Y-157070000D01*
D36*
X98510002Y-214399998D02*
X92290002Y-214399998D01*
D33*
%TO.N,Net-(D5-Pad2)*%
X136040000Y-163280000D02*
X136170000Y-163410000D01*
X136040000Y-157080000D02*
X136040000Y-163280000D01*
D36*
%TO.N,sensor_IA*%
X98510002Y-208329996D02*
X99450002Y-207389996D01*
D33*
%TO.N,Net-(D5-Pad2)*%
X135880002Y-214979998D02*
X136010002Y-215109998D01*
X135880002Y-208779998D02*
X135880002Y-214979998D01*
%TO.N,Net-(D2-Pad2)*%
X105775003Y-123949998D02*
X108970002Y-123949998D01*
%TO.N,-15Volt_1*%
X115120000Y-121505000D02*
X115750000Y-122135000D01*
%TO.N,Net-(D2-Pad2)*%
X108810004Y-175649996D02*
X108840002Y-175619998D01*
D36*
%TO.N,-15Volt_1*%
X88397500Y-153567500D02*
X88397500Y-139792500D01*
D33*
X82840002Y-139159998D02*
X83000000Y-139000000D01*
D36*
%TO.N,sensor_IA*%
X99450002Y-207389996D02*
X99450002Y-205749998D01*
D33*
%TO.N,Net-(D2-Pad2)*%
X105615005Y-175649996D02*
X108810004Y-175649996D01*
%TO.N,-15Volt_1*%
X115750000Y-122135000D02*
X115750000Y-123800000D01*
%TO.N,Net-(D2-Pad2)*%
X108970002Y-123949998D02*
X109000000Y-123920000D01*
D36*
%TO.N,sensor_IA*%
X98510002Y-208769998D02*
X98510002Y-208329996D01*
X92450000Y-162700000D02*
X88397500Y-158647500D01*
D33*
X113765000Y-157850000D02*
X99450000Y-157850000D01*
%TO.N,-15Volt_1*%
X83150004Y-169770000D02*
X82840002Y-170080002D01*
%TO.N,+15Volt_1*%
X138340000Y-128270000D02*
X134530000Y-128270000D01*
X139040000Y-130140000D02*
X139040000Y-128970000D01*
%TO.N,-15Volt_1*%
X118640002Y-175499998D02*
X120460002Y-177319998D01*
%TO.N,+15Volt_1*%
X139530000Y-130630000D02*
X139040000Y-130140000D01*
%TO.N,-15Volt_1*%
X82870000Y-121605000D02*
X82970000Y-121505000D01*
%TO.N,+15Volt_1*%
X134370002Y-179969998D02*
X145379998Y-179969998D01*
X131720002Y-177319998D02*
X134370002Y-179969998D01*
%TO.N,-15Volt_1*%
X82970000Y-121505000D02*
X115120000Y-121505000D01*
D36*
X88237502Y-205267498D02*
X88237502Y-191492498D01*
D33*
X114750000Y-169770000D02*
X83150004Y-169770000D01*
%TO.N,+15Volt_1*%
X128540000Y-125620000D02*
X131880000Y-125620000D01*
X139040000Y-128970000D02*
X138340000Y-128270000D01*
%TO.N,-15Volt_1*%
X115590002Y-175499998D02*
X118640002Y-175499998D01*
X118800000Y-123800000D02*
X120620000Y-125620000D01*
X115590002Y-175499998D02*
X115590002Y-170610002D01*
%TO.N,+15Volt_1*%
X131880000Y-125620000D02*
X134530000Y-128270000D01*
X145379998Y-179969998D02*
X145460000Y-180050000D01*
X128380002Y-177319998D02*
X131720002Y-177319998D01*
%TO.N,-15Volt_1*%
X115590002Y-170610002D02*
X114750000Y-169770000D01*
X83000000Y-139000000D02*
X82870000Y-138870000D01*
X82840002Y-170080002D02*
X82840002Y-139159998D01*
X115750000Y-123800000D02*
X118800000Y-123800000D01*
D35*
%TO.N,Gnd*%
X143760000Y-129080000D02*
X147695000Y-133015000D01*
X147695000Y-148925000D02*
X147720975Y-148950975D01*
X147720975Y-148950975D02*
X147716078Y-165716078D01*
D33*
%TO.N,voff_1*%
X140520000Y-36970000D02*
X142370000Y-35120000D01*
X143197258Y-46287258D02*
X140520000Y-43610000D01*
X143197258Y-61782742D02*
X143197258Y-46287258D01*
X142770000Y-62210000D02*
X143197258Y-61782742D01*
X140520000Y-43610000D02*
X140520000Y-36970000D01*
%TO.N,-15Volt_1*%
X116219998Y-102634998D02*
X118645002Y-102634998D01*
X82890002Y-89804998D02*
X108814998Y-89804998D01*
X113945000Y-100360000D02*
X116219998Y-102634998D01*
X82790002Y-89704998D02*
X82890002Y-89804998D01*
X108814998Y-89804998D02*
X113945000Y-94935000D01*
X113945000Y-94935000D02*
X113945000Y-100360000D01*
%TO.N,Gnd*%
X147995000Y-68560000D02*
X147040000Y-67605000D01*
X142370000Y-40200000D02*
X144780000Y-40200000D01*
X144780000Y-40200000D02*
X147645000Y-37335000D01*
D35*
X147645000Y-32020000D02*
X147645000Y-37335000D01*
X147645000Y-37335000D02*
X147645000Y-47930000D01*
X147645000Y-47930000D02*
X147670975Y-47955975D01*
X147670975Y-47955975D02*
X147666078Y-64721078D01*
X143710000Y-28085000D02*
X147645000Y-32020000D01*
D33*
%TO.N,-15Volt_1*%
X83050000Y-38105000D02*
X82950000Y-38005000D01*
X112770000Y-41260000D02*
X109615000Y-38105000D01*
X112770000Y-47710000D02*
X112770000Y-41260000D01*
X115995000Y-50935000D02*
X112770000Y-47710000D01*
X118805000Y-50935000D02*
X115995000Y-50935000D01*
X109615000Y-38105000D02*
X83050000Y-38105000D01*
%TO.N,+15Volt_1*%
X131830000Y-24625000D02*
X134480000Y-27275000D01*
X138990000Y-27975000D02*
X138290000Y-27275000D01*
X145329998Y-78974998D02*
X145410000Y-79055000D01*
X128330002Y-76324998D02*
X131670002Y-76324998D01*
X138990000Y-29145000D02*
X138990000Y-27975000D01*
X128490000Y-24625000D02*
X131830000Y-24625000D01*
X139480000Y-29635000D02*
X138990000Y-29145000D01*
X131670002Y-76324998D02*
X134320002Y-78974998D01*
X138290000Y-27275000D02*
X134480000Y-27275000D01*
%TO.N,-15Volt_1*%
X115540002Y-74504998D02*
X115540002Y-69615002D01*
X118750000Y-22805000D02*
X120570000Y-24625000D01*
X115540002Y-69615002D02*
X114700000Y-68775000D01*
X115540002Y-74504998D02*
X118590002Y-74504998D01*
X118590002Y-74504998D02*
X120410002Y-76324998D01*
X82820000Y-20610000D02*
X82920000Y-20510000D01*
X114700000Y-68775000D02*
X83100004Y-68775000D01*
X82790002Y-69085002D02*
X82790002Y-38164998D01*
D36*
X88187502Y-104272498D02*
X88187502Y-90497498D01*
D33*
X83100004Y-68775000D02*
X82790002Y-69085002D01*
X115700000Y-22805000D02*
X118750000Y-22805000D01*
X82950000Y-38005000D02*
X82820000Y-37875000D01*
X82820000Y-37875000D02*
X82820000Y-20610000D01*
X82920000Y-20510000D02*
X115070000Y-20510000D01*
X115070000Y-20510000D02*
X115700000Y-21140000D01*
D36*
X88347500Y-52572500D02*
X88347500Y-38797500D01*
D33*
X82790002Y-38164998D02*
X82950000Y-38005000D01*
X115700000Y-21140000D02*
X115700000Y-22805000D01*
%TO.N,Net-(D2-Pad2)*%
X105725003Y-22954998D02*
X108920002Y-22954998D01*
X108760004Y-74654996D02*
X108790002Y-74624998D01*
X108920002Y-22954998D02*
X108950000Y-22925000D01*
X105565005Y-74654996D02*
X108760004Y-74654996D01*
%TO.N,Net-(D5-Pad2)*%
X135990000Y-62285000D02*
X136120000Y-62415000D01*
X135830002Y-107784998D02*
X135830002Y-113984998D01*
X135830002Y-113984998D02*
X135960002Y-114114998D01*
X135990000Y-56085000D02*
X135990000Y-62285000D01*
D36*
%TO.N,sensor_IA*%
X98460002Y-107334996D02*
X99400002Y-106394996D01*
X98460002Y-113404998D02*
X92240002Y-113404998D01*
D33*
X99400000Y-56855000D02*
X98620000Y-56075000D01*
X113715000Y-56855000D02*
X99400000Y-56855000D01*
D36*
X92400000Y-61705000D02*
X88347500Y-57652500D01*
X98460002Y-107774998D02*
X98460002Y-107334996D01*
X99400002Y-106394996D02*
X99400002Y-104754998D01*
X98620000Y-61705000D02*
X92400000Y-61705000D01*
D33*
X99240002Y-108554998D02*
X98460002Y-107774998D01*
D36*
X98620000Y-56075000D02*
X98620000Y-55634998D01*
X98460002Y-113404998D02*
X98460002Y-107774998D01*
X92240002Y-113404998D02*
X88187502Y-109352498D01*
X98620000Y-61705000D02*
X98620000Y-56075000D01*
D33*
X113555002Y-108554998D02*
X99240002Y-108554998D01*
D36*
X99560000Y-54694998D02*
X99560000Y-53055000D01*
X98620000Y-55634998D02*
X99560000Y-54694998D01*
D33*
%TO.N,Gnd*%
X142640002Y-116624998D02*
X139900002Y-116624998D01*
X123420000Y-63465000D02*
X124120000Y-64165000D01*
X125340000Y-64335000D02*
X125340000Y-66525000D01*
X141210000Y-61795000D02*
X139815000Y-61795000D01*
X144879998Y-65555002D02*
X143790000Y-66645000D01*
X140830000Y-63095000D02*
X140540000Y-62805000D01*
D34*
X140980000Y-67535000D02*
X140990000Y-67525000D01*
D33*
X123889998Y-114114998D02*
X126790000Y-117015000D01*
X123260002Y-114114998D02*
X122620000Y-114755000D01*
X143804997Y-63920003D02*
X142800000Y-64925000D01*
X126040000Y-63225000D02*
X126040000Y-65755000D01*
X143720000Y-65505000D02*
X143420000Y-65805000D01*
D36*
X119370000Y-61705000D02*
X122710000Y-61705000D01*
D34*
X122560000Y-67535000D02*
X122560000Y-63275000D01*
D33*
X125230000Y-62415000D02*
X126040000Y-63225000D01*
X139815000Y-61795000D02*
X139815000Y-63970000D01*
X123420000Y-62415000D02*
X124935000Y-63930000D01*
X144720000Y-115620001D02*
X143644999Y-115620001D01*
X143720000Y-65080001D02*
X143720000Y-65505000D01*
X144879998Y-63920003D02*
X143720000Y-65080001D01*
X123260002Y-114524998D02*
X122320000Y-115465000D01*
X123420000Y-62415000D02*
X125230000Y-62415000D01*
D34*
X122560000Y-67535000D02*
X140980000Y-67535000D01*
D33*
X124340000Y-61305000D02*
X126050000Y-61305000D01*
X144879998Y-66154998D02*
X145180000Y-66455000D01*
X118535002Y-112729998D02*
X119210002Y-113404998D01*
D36*
X113860000Y-61705000D02*
X119370000Y-61705000D01*
D33*
X144879998Y-63920003D02*
X143804997Y-63920003D01*
D35*
X146400000Y-68245000D02*
X144020000Y-68245000D01*
D33*
X126770000Y-62025000D02*
X126380000Y-62415000D01*
X126380000Y-62415000D02*
X123420000Y-62415000D01*
X123420000Y-62415000D02*
X123420000Y-65965000D01*
D35*
X144020000Y-68245000D02*
X142420000Y-66645000D01*
D33*
X123260002Y-114114998D02*
X123260002Y-112924998D01*
X113680000Y-115055000D02*
X113700002Y-115034998D01*
X124050000Y-66595000D02*
X124120000Y-66525000D01*
X127130000Y-62385000D02*
X127130000Y-65385000D01*
X123420000Y-62415000D02*
X123420000Y-61305000D01*
X137510000Y-66275000D02*
X126560000Y-66275000D01*
X144879998Y-63920003D02*
X145900000Y-64940005D01*
X123420000Y-62415000D02*
X124755000Y-63750000D01*
D36*
X122710000Y-61705000D02*
X123420000Y-62415000D01*
D33*
X142420000Y-66645000D02*
X137880000Y-66645000D01*
X144879998Y-65444998D02*
X147040000Y-67605000D01*
X143644999Y-115620001D02*
X142640002Y-116624998D01*
X118535002Y-108934998D02*
X118535002Y-112729998D01*
X123260002Y-114834998D02*
X123260002Y-114114998D01*
X141270000Y-63095000D02*
X140830000Y-63095000D01*
X126790000Y-117015000D02*
X136690000Y-117015000D01*
X123260002Y-114114998D02*
X123889998Y-114114998D01*
X143790000Y-66645000D02*
X142420000Y-66645000D01*
X123420000Y-61305000D02*
X123770000Y-60955000D01*
D35*
X147665418Y-66979582D02*
X147040000Y-67605000D01*
D33*
X141210000Y-61795000D02*
X141210000Y-63035000D01*
D35*
X147666078Y-64721078D02*
X147665418Y-66979582D01*
D33*
X123420000Y-62225000D02*
X124340000Y-61305000D01*
X126040000Y-65755000D02*
X126560000Y-66275000D01*
X123420000Y-65965000D02*
X124050000Y-66595000D01*
X144720000Y-115620001D02*
X144720000Y-116465000D01*
X144720000Y-115620001D02*
X143560002Y-116779999D01*
X126050000Y-61305000D02*
X126200000Y-61455000D01*
X144879998Y-63920003D02*
X146865003Y-63920003D01*
X136750000Y-116955000D02*
X139570000Y-116955000D01*
X118695000Y-61030000D02*
X119370000Y-61705000D01*
X144879998Y-63920003D02*
X139864997Y-63920003D01*
X139570000Y-116955000D02*
X139900002Y-116624998D01*
X123420000Y-62415000D02*
X125340000Y-64335000D01*
X141210000Y-63035000D02*
X141270000Y-63095000D01*
X126770000Y-62025000D02*
X127130000Y-62385000D01*
X145900000Y-64940005D02*
X145900000Y-65815000D01*
X126930000Y-66645000D02*
X126560000Y-66275000D01*
X113700002Y-115034998D02*
X113700002Y-113404998D01*
X143420000Y-65805000D02*
X139040000Y-65805000D01*
D36*
X113700002Y-113404998D02*
X119210002Y-113404998D01*
D35*
X147040000Y-67605000D02*
X146400000Y-68245000D01*
D36*
X122550002Y-113404998D02*
X123260002Y-114114998D01*
D33*
X137880000Y-66645000D02*
X137510000Y-66275000D01*
X114090000Y-115465000D02*
X113680000Y-115055000D01*
X142800000Y-64925000D02*
X140060000Y-64925000D01*
X137880000Y-66645000D02*
X126930000Y-66645000D01*
X118695000Y-57235000D02*
X118695000Y-61030000D01*
X144879998Y-63920003D02*
X144879998Y-66154998D01*
X136690000Y-117015000D02*
X136750000Y-116955000D01*
X146865003Y-63920003D02*
X147666078Y-64721078D01*
X122620000Y-114755000D02*
X114450000Y-114755000D01*
X139864997Y-63920003D02*
X139205000Y-64580000D01*
X123420000Y-62415000D02*
X123420000Y-62225000D01*
X144879998Y-63920003D02*
X144879998Y-65555002D01*
X139205000Y-64580000D02*
X137510000Y-66275000D01*
X139815000Y-63970000D02*
X139205000Y-64580000D01*
X124120000Y-66525000D02*
X124120000Y-64815000D01*
X144879998Y-63920003D02*
X144879998Y-65444998D01*
X123260002Y-114114998D02*
X123260002Y-114524998D01*
D34*
X122560000Y-63275000D02*
X123420000Y-62415000D01*
D36*
X119210002Y-113404998D02*
X122550002Y-113404998D01*
D33*
X123420000Y-62415000D02*
X123420000Y-63465000D01*
%TO.N,+15Volt_1*%
X134320002Y-78974998D02*
X145329998Y-78974998D01*
%TD*%
%TA.AperFunction,Conductor*%
%TO.N,+15Volt_1*%
G36*
X136785149Y-27016145D02*
G01*
X136807156Y-27033999D01*
X137222801Y-27457076D01*
X137256273Y-27519686D01*
X137258895Y-27547907D01*
X137218380Y-29565279D01*
X137172802Y-31834724D01*
X137177873Y-32334677D01*
X137177873Y-32334698D01*
X137200512Y-34566635D01*
X137233961Y-37864263D01*
X137266868Y-41108645D01*
X137294397Y-43822651D01*
X137275086Y-43890971D01*
X137258174Y-43912344D01*
X137190148Y-43981414D01*
X136836757Y-44340224D01*
X136774708Y-44374722D01*
X136747635Y-44377806D01*
X135141191Y-44385969D01*
X131749513Y-44403202D01*
X131681292Y-44383547D01*
X131634527Y-44330128D01*
X131624066Y-44259906D01*
X131631582Y-44231174D01*
X131648075Y-44189153D01*
X131708124Y-43926061D01*
X131728290Y-43656958D01*
X131708124Y-43387855D01*
X131648075Y-43124763D01*
X131549484Y-42873560D01*
X131549483Y-42873559D01*
X131549482Y-42873555D01*
X131414558Y-42639859D01*
X131360906Y-42572582D01*
X131246302Y-42428873D01*
X131048482Y-42245323D01*
X131048475Y-42245318D01*
X130825518Y-42093308D01*
X130825510Y-42093303D01*
X130582391Y-41976223D01*
X130582373Y-41976216D01*
X130324523Y-41896680D01*
X130324515Y-41896678D01*
X130324513Y-41896678D01*
X130057670Y-41856458D01*
X129787812Y-41856458D01*
X129520969Y-41896678D01*
X129520967Y-41896678D01*
X129520958Y-41896680D01*
X129263108Y-41976216D01*
X129263096Y-41976221D01*
X129019964Y-42093308D01*
X129019957Y-42093312D01*
X128797006Y-42245318D01*
X128797001Y-42245322D01*
X128599180Y-42428872D01*
X128430923Y-42639859D01*
X128295999Y-42873555D01*
X128295996Y-42873563D01*
X128197406Y-43124764D01*
X128137358Y-43387851D01*
X128117192Y-43656958D01*
X128137358Y-43926064D01*
X128197407Y-44189154D01*
X128221167Y-44249694D01*
X128227435Y-44320413D01*
X128194474Y-44383294D01*
X128132749Y-44418374D01*
X128104518Y-44421724D01*
X127960179Y-44422458D01*
X127959994Y-44422459D01*
X127407738Y-44424458D01*
X127359065Y-44414868D01*
X127230262Y-44361517D01*
X127099516Y-44330128D01*
X126990655Y-44303993D01*
X126745000Y-44284659D01*
X126499345Y-44303993D01*
X126259733Y-44361518D01*
X126259729Y-44361519D01*
X126122405Y-44418400D01*
X126074460Y-44427991D01*
X123366867Y-44433840D01*
X123298901Y-44414111D01*
X123281775Y-44403202D01*
X122650715Y-44001221D01*
X122604107Y-43947968D01*
X121636272Y-41861290D01*
X121627422Y-41834897D01*
X121427290Y-40908706D01*
X121424454Y-40881006D01*
X121425390Y-40773085D01*
X121436032Y-39545000D01*
X133059451Y-39545000D01*
X133079617Y-39814106D01*
X133139665Y-40077193D01*
X133238255Y-40328394D01*
X133238258Y-40328402D01*
X133373182Y-40562098D01*
X133373184Y-40562101D01*
X133373185Y-40562102D01*
X133541439Y-40773085D01*
X133739259Y-40956635D01*
X133739265Y-40956639D01*
X133962216Y-41108645D01*
X133962223Y-41108649D01*
X133962226Y-41108651D01*
X134205359Y-41225738D01*
X134205362Y-41225738D01*
X134205367Y-41225741D01*
X134463217Y-41305277D01*
X134463219Y-41305277D01*
X134463228Y-41305280D01*
X134730071Y-41345500D01*
X134730075Y-41345500D01*
X134999925Y-41345500D01*
X134999929Y-41345500D01*
X135266772Y-41305280D01*
X135266782Y-41305277D01*
X135524632Y-41225741D01*
X135524634Y-41225739D01*
X135524641Y-41225738D01*
X135524646Y-41225735D01*
X135524650Y-41225734D01*
X135767769Y-41108654D01*
X135767769Y-41108653D01*
X135767775Y-41108651D01*
X135990741Y-40956635D01*
X136188561Y-40773085D01*
X136356815Y-40562102D01*
X136491743Y-40328398D01*
X136590334Y-40077195D01*
X136650383Y-39814103D01*
X136670549Y-39545000D01*
X136650383Y-39275897D01*
X136590334Y-39012805D01*
X136491743Y-38761602D01*
X136491742Y-38761601D01*
X136491741Y-38761597D01*
X136356817Y-38527901D01*
X136188560Y-38316914D01*
X136160588Y-38290960D01*
X135990741Y-38133365D01*
X135990734Y-38133360D01*
X135767777Y-37981350D01*
X135767769Y-37981345D01*
X135524650Y-37864265D01*
X135524632Y-37864258D01*
X135266782Y-37784722D01*
X135266774Y-37784720D01*
X135266772Y-37784720D01*
X134999929Y-37744500D01*
X134730071Y-37744500D01*
X134463228Y-37784720D01*
X134463226Y-37784720D01*
X134463217Y-37784722D01*
X134205367Y-37864258D01*
X134205355Y-37864263D01*
X133962223Y-37981350D01*
X133962216Y-37981354D01*
X133739265Y-38133360D01*
X133739260Y-38133364D01*
X133541439Y-38316914D01*
X133373182Y-38527901D01*
X133238258Y-38761597D01*
X133238255Y-38761605D01*
X133139665Y-39012806D01*
X133079617Y-39275893D01*
X133059451Y-39545000D01*
X121436032Y-39545000D01*
X121465667Y-36124981D01*
X121470000Y-35625000D01*
X120970000Y-35625692D01*
X92662583Y-35664932D01*
X85952282Y-35674233D01*
X85884135Y-35654326D01*
X85863027Y-35637342D01*
X85437554Y-35211965D01*
X85403524Y-35149659D01*
X85400641Y-35122722D01*
X85402926Y-33155000D01*
X117989451Y-33155000D01*
X118009617Y-33424106D01*
X118069665Y-33687193D01*
X118168255Y-33938394D01*
X118168258Y-33938402D01*
X118303182Y-34172098D01*
X118303184Y-34172101D01*
X118303185Y-34172102D01*
X118471439Y-34383085D01*
X118669259Y-34566635D01*
X118669265Y-34566639D01*
X118892216Y-34718645D01*
X118892223Y-34718649D01*
X118892226Y-34718651D01*
X119135359Y-34835738D01*
X119135362Y-34835738D01*
X119135367Y-34835741D01*
X119393217Y-34915277D01*
X119393219Y-34915277D01*
X119393228Y-34915280D01*
X119660071Y-34955500D01*
X119660075Y-34955500D01*
X119929925Y-34955500D01*
X119929929Y-34955500D01*
X120196772Y-34915280D01*
X120196782Y-34915277D01*
X120454632Y-34835741D01*
X120454634Y-34835739D01*
X120454641Y-34835738D01*
X120454646Y-34835735D01*
X120454650Y-34835734D01*
X120697769Y-34718654D01*
X120697769Y-34718653D01*
X120697775Y-34718651D01*
X120920741Y-34566635D01*
X121118561Y-34383085D01*
X121286815Y-34172102D01*
X121421743Y-33938398D01*
X121520334Y-33687195D01*
X121580383Y-33424103D01*
X121600549Y-33155000D01*
X133229451Y-33155000D01*
X133249617Y-33424106D01*
X133309665Y-33687193D01*
X133408255Y-33938394D01*
X133408258Y-33938402D01*
X133543182Y-34172098D01*
X133543184Y-34172101D01*
X133543185Y-34172102D01*
X133711439Y-34383085D01*
X133909259Y-34566635D01*
X133909265Y-34566639D01*
X134132216Y-34718645D01*
X134132223Y-34718649D01*
X134132226Y-34718651D01*
X134375359Y-34835738D01*
X134375362Y-34835738D01*
X134375367Y-34835741D01*
X134633217Y-34915277D01*
X134633219Y-34915277D01*
X134633228Y-34915280D01*
X134900071Y-34955500D01*
X134900075Y-34955500D01*
X135169925Y-34955500D01*
X135169929Y-34955500D01*
X135436772Y-34915280D01*
X135436782Y-34915277D01*
X135694632Y-34835741D01*
X135694634Y-34835739D01*
X135694641Y-34835738D01*
X135694646Y-34835735D01*
X135694650Y-34835734D01*
X135937769Y-34718654D01*
X135937769Y-34718653D01*
X135937775Y-34718651D01*
X136160741Y-34566635D01*
X136358561Y-34383085D01*
X136526815Y-34172102D01*
X136661743Y-33938398D01*
X136760334Y-33687195D01*
X136820383Y-33424103D01*
X136840549Y-33155000D01*
X136820383Y-32885897D01*
X136760334Y-32622805D01*
X136661743Y-32371602D01*
X136661742Y-32371601D01*
X136661741Y-32371597D01*
X136526817Y-32137901D01*
X136358560Y-31926914D01*
X136343180Y-31912644D01*
X136160741Y-31743365D01*
X136160734Y-31743360D01*
X135937777Y-31591350D01*
X135937769Y-31591345D01*
X135694650Y-31474265D01*
X135694632Y-31474258D01*
X135436782Y-31394722D01*
X135436774Y-31394720D01*
X135436772Y-31394720D01*
X135169929Y-31354500D01*
X134900071Y-31354500D01*
X134633228Y-31394720D01*
X134633226Y-31394720D01*
X134633217Y-31394722D01*
X134375367Y-31474258D01*
X134375355Y-31474263D01*
X134132223Y-31591350D01*
X134132216Y-31591354D01*
X133909265Y-31743360D01*
X133909260Y-31743364D01*
X133711439Y-31926914D01*
X133543182Y-32137901D01*
X133408258Y-32371597D01*
X133408255Y-32371605D01*
X133309665Y-32622806D01*
X133249617Y-32885893D01*
X133229451Y-33155000D01*
X121600549Y-33155000D01*
X121580383Y-32885897D01*
X121520334Y-32622805D01*
X121421743Y-32371602D01*
X121421742Y-32371601D01*
X121421741Y-32371597D01*
X121286817Y-32137901D01*
X121118560Y-31926914D01*
X121103180Y-31912644D01*
X120920741Y-31743365D01*
X120920734Y-31743360D01*
X120697777Y-31591350D01*
X120697769Y-31591345D01*
X120454650Y-31474265D01*
X120454632Y-31474258D01*
X120196782Y-31394722D01*
X120196774Y-31394720D01*
X120196772Y-31394720D01*
X119929929Y-31354500D01*
X119660071Y-31354500D01*
X119393228Y-31394720D01*
X119393226Y-31394720D01*
X119393217Y-31394722D01*
X119135367Y-31474258D01*
X119135355Y-31474263D01*
X118892223Y-31591350D01*
X118892216Y-31591354D01*
X118669265Y-31743360D01*
X118669260Y-31743364D01*
X118471439Y-31926914D01*
X118303182Y-32137901D01*
X118168258Y-32371597D01*
X118168255Y-32371605D01*
X118069665Y-32622806D01*
X118009617Y-32885893D01*
X117989451Y-33155000D01*
X85402926Y-33155000D01*
X85409346Y-27627066D01*
X85429427Y-27558970D01*
X85446236Y-27538132D01*
X85873155Y-27111104D01*
X85935462Y-27077072D01*
X85962081Y-27074189D01*
X99499994Y-27054986D01*
X100681501Y-27053310D01*
X113090001Y-27035709D01*
X113090001Y-27035711D01*
X113090080Y-27035708D01*
X113090317Y-27035708D01*
X113883044Y-27035146D01*
X113951178Y-27055100D01*
X113997709Y-27108722D01*
X114007862Y-27178989D01*
X114000423Y-27207178D01*
X113974664Y-27272811D01*
X113914617Y-27535893D01*
X113894451Y-27805000D01*
X113914617Y-28074106D01*
X113974665Y-28337193D01*
X114073255Y-28588394D01*
X114073258Y-28588402D01*
X114208182Y-28822098D01*
X114208184Y-28822101D01*
X114208185Y-28822102D01*
X114376439Y-29033085D01*
X114574259Y-29216635D01*
X114574265Y-29216639D01*
X114797216Y-29368645D01*
X114797223Y-29368649D01*
X114797226Y-29368651D01*
X115040359Y-29485738D01*
X115040362Y-29485738D01*
X115040367Y-29485741D01*
X115298217Y-29565277D01*
X115298219Y-29565277D01*
X115298228Y-29565280D01*
X115565071Y-29605500D01*
X115565075Y-29605500D01*
X115834925Y-29605500D01*
X115834929Y-29605500D01*
X116101772Y-29565280D01*
X116101782Y-29565277D01*
X116359632Y-29485741D01*
X116359634Y-29485739D01*
X116359641Y-29485738D01*
X116359646Y-29485735D01*
X116359650Y-29485734D01*
X116602769Y-29368654D01*
X116602769Y-29368653D01*
X116602775Y-29368651D01*
X116825741Y-29216635D01*
X117023561Y-29033085D01*
X117191815Y-28822102D01*
X117326743Y-28588398D01*
X117425334Y-28337195D01*
X117485383Y-28074103D01*
X117495144Y-27943838D01*
X117520180Y-27877407D01*
X117577159Y-27835054D01*
X117647992Y-27830229D01*
X117709886Y-27864163D01*
X118363379Y-28517656D01*
X118541516Y-28695793D01*
X118745327Y-28843870D01*
X118969793Y-28958241D01*
X119209387Y-29036090D01*
X119458210Y-29075500D01*
X119458213Y-29075500D01*
X121805959Y-29075500D01*
X121805962Y-29075500D01*
X122054785Y-29036090D01*
X122294379Y-28958241D01*
X122518845Y-28843870D01*
X122518852Y-28843864D01*
X122518859Y-28843861D01*
X122538023Y-28829937D01*
X122604890Y-28806077D01*
X122674042Y-28822156D01*
X122686148Y-28829936D01*
X122705323Y-28843868D01*
X122705325Y-28843869D01*
X122705328Y-28843871D01*
X122929794Y-28958242D01*
X123066977Y-29002815D01*
X123169387Y-29036090D01*
X123418210Y-29075500D01*
X123418213Y-29075500D01*
X128615959Y-29075500D01*
X128615962Y-29075500D01*
X128864785Y-29036090D01*
X129104379Y-28958241D01*
X129328845Y-28843870D01*
X129532656Y-28695793D01*
X129710793Y-28517656D01*
X129858870Y-28313845D01*
X129973241Y-28089379D01*
X130051090Y-27849785D01*
X130090500Y-27600962D01*
X130090500Y-27349038D01*
X130060148Y-27157407D01*
X130069247Y-27087001D01*
X130114969Y-27032687D01*
X130182797Y-27011714D01*
X130184174Y-27011702D01*
X136716984Y-26996303D01*
X136785149Y-27016145D01*
G37*
%TD.AperFunction*%
%TD*%
%TA.AperFunction,Conductor*%
%TO.N,+15Volt_1*%
G36*
X136625151Y-78716143D02*
G01*
X136647158Y-78733997D01*
X137062803Y-79157074D01*
X137096275Y-79219684D01*
X137098897Y-79247905D01*
X137058382Y-81265277D01*
X137012804Y-83534722D01*
X137017875Y-84034675D01*
X137017875Y-84034696D01*
X137040514Y-86266633D01*
X137073963Y-89564261D01*
X137106870Y-92808643D01*
X137134399Y-95522649D01*
X137115088Y-95590969D01*
X137098176Y-95612342D01*
X137030150Y-95681412D01*
X136676759Y-96040222D01*
X136614710Y-96074720D01*
X136587637Y-96077804D01*
X134981193Y-96085967D01*
X131589515Y-96103200D01*
X131521294Y-96083545D01*
X131474529Y-96030126D01*
X131464068Y-95959904D01*
X131471584Y-95931172D01*
X131488077Y-95889151D01*
X131548126Y-95626059D01*
X131568292Y-95356956D01*
X131548126Y-95087853D01*
X131488077Y-94824761D01*
X131389486Y-94573558D01*
X131389485Y-94573557D01*
X131389484Y-94573553D01*
X131254560Y-94339857D01*
X131200908Y-94272580D01*
X131086304Y-94128871D01*
X130888484Y-93945321D01*
X130888477Y-93945316D01*
X130665520Y-93793306D01*
X130665512Y-93793301D01*
X130422393Y-93676221D01*
X130422375Y-93676214D01*
X130164525Y-93596678D01*
X130164517Y-93596676D01*
X130164515Y-93596676D01*
X129897672Y-93556456D01*
X129627814Y-93556456D01*
X129360971Y-93596676D01*
X129360969Y-93596676D01*
X129360960Y-93596678D01*
X129103110Y-93676214D01*
X129103098Y-93676219D01*
X128859966Y-93793306D01*
X128859959Y-93793310D01*
X128637008Y-93945316D01*
X128637003Y-93945320D01*
X128439182Y-94128870D01*
X128270925Y-94339857D01*
X128136001Y-94573553D01*
X128135998Y-94573561D01*
X128037408Y-94824762D01*
X127977360Y-95087849D01*
X127957194Y-95356956D01*
X127977360Y-95626062D01*
X128037409Y-95889152D01*
X128061169Y-95949692D01*
X128067437Y-96020411D01*
X128034476Y-96083292D01*
X127972751Y-96118372D01*
X127944520Y-96121722D01*
X127800181Y-96122456D01*
X127799996Y-96122457D01*
X127247740Y-96124456D01*
X127199067Y-96114866D01*
X127070264Y-96061515D01*
X126939518Y-96030126D01*
X126830657Y-96003991D01*
X126585002Y-95984657D01*
X126339347Y-96003991D01*
X126099735Y-96061516D01*
X126099731Y-96061517D01*
X125962407Y-96118398D01*
X125914462Y-96127989D01*
X123206869Y-96133838D01*
X123138903Y-96114109D01*
X123121777Y-96103200D01*
X122490717Y-95701219D01*
X122444109Y-95647966D01*
X121476274Y-93561288D01*
X121467424Y-93534895D01*
X121267292Y-92608704D01*
X121264456Y-92581004D01*
X121265392Y-92473083D01*
X121276034Y-91244998D01*
X132899453Y-91244998D01*
X132919619Y-91514104D01*
X132979667Y-91777191D01*
X133078257Y-92028392D01*
X133078260Y-92028400D01*
X133213184Y-92262096D01*
X133213186Y-92262099D01*
X133213187Y-92262100D01*
X133381441Y-92473083D01*
X133579261Y-92656633D01*
X133579267Y-92656637D01*
X133802218Y-92808643D01*
X133802225Y-92808647D01*
X133802228Y-92808649D01*
X134045361Y-92925736D01*
X134045364Y-92925736D01*
X134045369Y-92925739D01*
X134303219Y-93005275D01*
X134303221Y-93005275D01*
X134303230Y-93005278D01*
X134570073Y-93045498D01*
X134570077Y-93045498D01*
X134839927Y-93045498D01*
X134839931Y-93045498D01*
X135106774Y-93005278D01*
X135106784Y-93005275D01*
X135364634Y-92925739D01*
X135364636Y-92925737D01*
X135364643Y-92925736D01*
X135364648Y-92925733D01*
X135364652Y-92925732D01*
X135607771Y-92808652D01*
X135607771Y-92808651D01*
X135607777Y-92808649D01*
X135830743Y-92656633D01*
X136028563Y-92473083D01*
X136196817Y-92262100D01*
X136331745Y-92028396D01*
X136430336Y-91777193D01*
X136490385Y-91514101D01*
X136510551Y-91244998D01*
X136490385Y-90975895D01*
X136430336Y-90712803D01*
X136331745Y-90461600D01*
X136331744Y-90461599D01*
X136331743Y-90461595D01*
X136196819Y-90227899D01*
X136028562Y-90016912D01*
X136013182Y-90002642D01*
X135830743Y-89833363D01*
X135830736Y-89833358D01*
X135607779Y-89681348D01*
X135607771Y-89681343D01*
X135364652Y-89564263D01*
X135364634Y-89564256D01*
X135106784Y-89484720D01*
X135106776Y-89484718D01*
X135106774Y-89484718D01*
X134839931Y-89444498D01*
X134570073Y-89444498D01*
X134303230Y-89484718D01*
X134303228Y-89484718D01*
X134303219Y-89484720D01*
X134045369Y-89564256D01*
X134045357Y-89564261D01*
X133802225Y-89681348D01*
X133802218Y-89681352D01*
X133579267Y-89833358D01*
X133579262Y-89833362D01*
X133381441Y-90016912D01*
X133213184Y-90227899D01*
X133078260Y-90461595D01*
X133078257Y-90461603D01*
X132979667Y-90712804D01*
X132919619Y-90975891D01*
X132899453Y-91244998D01*
X121276034Y-91244998D01*
X121305669Y-87824979D01*
X121310002Y-87324998D01*
X120810002Y-87325690D01*
X92502585Y-87364930D01*
X85792284Y-87374231D01*
X85724137Y-87354324D01*
X85703029Y-87337340D01*
X85277556Y-86911963D01*
X85243526Y-86849657D01*
X85240643Y-86822720D01*
X85242928Y-84854998D01*
X117829453Y-84854998D01*
X117849619Y-85124104D01*
X117909667Y-85387191D01*
X118008257Y-85638392D01*
X118008260Y-85638400D01*
X118143184Y-85872096D01*
X118143186Y-85872099D01*
X118143187Y-85872100D01*
X118311441Y-86083083D01*
X118509261Y-86266633D01*
X118509267Y-86266637D01*
X118732218Y-86418643D01*
X118732225Y-86418647D01*
X118732228Y-86418649D01*
X118975361Y-86535736D01*
X118975364Y-86535736D01*
X118975369Y-86535739D01*
X119233219Y-86615275D01*
X119233221Y-86615275D01*
X119233230Y-86615278D01*
X119500073Y-86655498D01*
X119500077Y-86655498D01*
X119769927Y-86655498D01*
X119769931Y-86655498D01*
X120036774Y-86615278D01*
X120036784Y-86615275D01*
X120294634Y-86535739D01*
X120294636Y-86535737D01*
X120294643Y-86535736D01*
X120294648Y-86535733D01*
X120294652Y-86535732D01*
X120537771Y-86418652D01*
X120537771Y-86418651D01*
X120537777Y-86418649D01*
X120760743Y-86266633D01*
X120958563Y-86083083D01*
X121126817Y-85872100D01*
X121261745Y-85638396D01*
X121360336Y-85387193D01*
X121420385Y-85124101D01*
X121440551Y-84854998D01*
X133069453Y-84854998D01*
X133089619Y-85124104D01*
X133149667Y-85387191D01*
X133248257Y-85638392D01*
X133248260Y-85638400D01*
X133383184Y-85872096D01*
X133383186Y-85872099D01*
X133383187Y-85872100D01*
X133551441Y-86083083D01*
X133749261Y-86266633D01*
X133749267Y-86266637D01*
X133972218Y-86418643D01*
X133972225Y-86418647D01*
X133972228Y-86418649D01*
X134215361Y-86535736D01*
X134215364Y-86535736D01*
X134215369Y-86535739D01*
X134473219Y-86615275D01*
X134473221Y-86615275D01*
X134473230Y-86615278D01*
X134740073Y-86655498D01*
X134740077Y-86655498D01*
X135009927Y-86655498D01*
X135009931Y-86655498D01*
X135276774Y-86615278D01*
X135276784Y-86615275D01*
X135534634Y-86535739D01*
X135534636Y-86535737D01*
X135534643Y-86535736D01*
X135534648Y-86535733D01*
X135534652Y-86535732D01*
X135777771Y-86418652D01*
X135777771Y-86418651D01*
X135777777Y-86418649D01*
X136000743Y-86266633D01*
X136198563Y-86083083D01*
X136366817Y-85872100D01*
X136501745Y-85638396D01*
X136600336Y-85387193D01*
X136660385Y-85124101D01*
X136680551Y-84854998D01*
X136660385Y-84585895D01*
X136600336Y-84322803D01*
X136501745Y-84071600D01*
X136501744Y-84071599D01*
X136501743Y-84071595D01*
X136366819Y-83837899D01*
X136315891Y-83774038D01*
X136198563Y-83626913D01*
X136000743Y-83443363D01*
X135898778Y-83373844D01*
X135777779Y-83291348D01*
X135777771Y-83291343D01*
X135534652Y-83174263D01*
X135534634Y-83174256D01*
X135276784Y-83094720D01*
X135276776Y-83094718D01*
X135276774Y-83094718D01*
X135009931Y-83054498D01*
X134740073Y-83054498D01*
X134473230Y-83094718D01*
X134473228Y-83094718D01*
X134473219Y-83094720D01*
X134215369Y-83174256D01*
X134215357Y-83174261D01*
X133972225Y-83291348D01*
X133972218Y-83291352D01*
X133749267Y-83443358D01*
X133749262Y-83443362D01*
X133551441Y-83626912D01*
X133383184Y-83837899D01*
X133248260Y-84071595D01*
X133248257Y-84071603D01*
X133149667Y-84322804D01*
X133089619Y-84585891D01*
X133069453Y-84854998D01*
X121440551Y-84854998D01*
X121420385Y-84585895D01*
X121360336Y-84322803D01*
X121261745Y-84071600D01*
X121261744Y-84071599D01*
X121261743Y-84071595D01*
X121126819Y-83837899D01*
X121075891Y-83774038D01*
X120958563Y-83626913D01*
X120760743Y-83443363D01*
X120658778Y-83373844D01*
X120537779Y-83291348D01*
X120537771Y-83291343D01*
X120294652Y-83174263D01*
X120294634Y-83174256D01*
X120036784Y-83094720D01*
X120036776Y-83094718D01*
X120036774Y-83094718D01*
X119769931Y-83054498D01*
X119500073Y-83054498D01*
X119233230Y-83094718D01*
X119233228Y-83094718D01*
X119233219Y-83094720D01*
X118975369Y-83174256D01*
X118975357Y-83174261D01*
X118732225Y-83291348D01*
X118732218Y-83291352D01*
X118509267Y-83443358D01*
X118509262Y-83443362D01*
X118311441Y-83626912D01*
X118143184Y-83837899D01*
X118008260Y-84071595D01*
X118008257Y-84071603D01*
X117909667Y-84322804D01*
X117849619Y-84585891D01*
X117829453Y-84854998D01*
X85242928Y-84854998D01*
X85249348Y-79327064D01*
X85269429Y-79258968D01*
X85286238Y-79238130D01*
X85713157Y-78811102D01*
X85775464Y-78777070D01*
X85802083Y-78774187D01*
X99339996Y-78754984D01*
X100521503Y-78753308D01*
X112930003Y-78735707D01*
X112930003Y-78735709D01*
X112930082Y-78735706D01*
X112930319Y-78735706D01*
X113723046Y-78735144D01*
X113791180Y-78755098D01*
X113837711Y-78808720D01*
X113847864Y-78878987D01*
X113840425Y-78907176D01*
X113814666Y-78972809D01*
X113754619Y-79235891D01*
X113734453Y-79504998D01*
X113754619Y-79774104D01*
X113814667Y-80037191D01*
X113913257Y-80288392D01*
X113913260Y-80288400D01*
X114048184Y-80522096D01*
X114048186Y-80522099D01*
X114048187Y-80522100D01*
X114216441Y-80733083D01*
X114414261Y-80916633D01*
X114414267Y-80916637D01*
X114637218Y-81068643D01*
X114637225Y-81068647D01*
X114637228Y-81068649D01*
X114880361Y-81185736D01*
X114880364Y-81185736D01*
X114880369Y-81185739D01*
X115138219Y-81265275D01*
X115138221Y-81265275D01*
X115138230Y-81265278D01*
X115405073Y-81305498D01*
X115405077Y-81305498D01*
X115674927Y-81305498D01*
X115674931Y-81305498D01*
X115941774Y-81265278D01*
X115941784Y-81265275D01*
X116199634Y-81185739D01*
X116199636Y-81185737D01*
X116199643Y-81185736D01*
X116199648Y-81185733D01*
X116199652Y-81185732D01*
X116442771Y-81068652D01*
X116442771Y-81068651D01*
X116442777Y-81068649D01*
X116665743Y-80916633D01*
X116863563Y-80733083D01*
X117031817Y-80522100D01*
X117166745Y-80288396D01*
X117265336Y-80037193D01*
X117325385Y-79774101D01*
X117345551Y-79504998D01*
X117325385Y-79235895D01*
X117265336Y-78972803D01*
X117239521Y-78907030D01*
X117233254Y-78836312D01*
X117266215Y-78773430D01*
X117327939Y-78738351D01*
X117356812Y-78734998D01*
X118659795Y-78734998D01*
X118727916Y-78755000D01*
X118738351Y-78762484D01*
X118914388Y-78902869D01*
X119159799Y-79057071D01*
X119420931Y-79182826D01*
X119420947Y-79182831D01*
X119420948Y-79182832D01*
X119694495Y-79278550D01*
X119694498Y-79278550D01*
X119694502Y-79278552D01*
X119903642Y-79326287D01*
X119977066Y-79343046D01*
X119977067Y-79343046D01*
X119977071Y-79343047D01*
X120206006Y-79368841D01*
X120265083Y-79375498D01*
X120265084Y-79375498D01*
X120554921Y-79375498D01*
X120603942Y-79369974D01*
X120842933Y-79343047D01*
X121125502Y-79278552D01*
X121399073Y-79182826D01*
X121660205Y-79057071D01*
X121905616Y-78902869D01*
X122087639Y-78757709D01*
X122153367Y-78730876D01*
X122165864Y-78730222D01*
X122612191Y-78729170D01*
X122680357Y-78749012D01*
X122691046Y-78756659D01*
X122713026Y-78774187D01*
X122874388Y-78902869D01*
X123119799Y-79057071D01*
X123380931Y-79182826D01*
X123380947Y-79182831D01*
X123380948Y-79182832D01*
X123654495Y-79278550D01*
X123654498Y-79278550D01*
X123654502Y-79278552D01*
X123863642Y-79326287D01*
X123937066Y-79343046D01*
X123937067Y-79343046D01*
X123937071Y-79343047D01*
X124166006Y-79368841D01*
X124225083Y-79375498D01*
X124225084Y-79375498D01*
X124514921Y-79375498D01*
X124563942Y-79369974D01*
X124802933Y-79343047D01*
X125085502Y-79278552D01*
X125359073Y-79182826D01*
X125620205Y-79057071D01*
X125865616Y-78902869D01*
X126059378Y-78748348D01*
X126125104Y-78721515D01*
X126137618Y-78720861D01*
X128625002Y-78714998D01*
X136556986Y-78696301D01*
X136625151Y-78716143D01*
G37*
%TD.AperFunction*%
%TD*%
%TA.AperFunction,Conductor*%
%TO.N,+15Volt_1*%
G36*
X136675151Y-179711143D02*
G01*
X136697158Y-179728997D01*
X137112803Y-180152074D01*
X137146275Y-180214684D01*
X137148897Y-180242905D01*
X137108382Y-182260277D01*
X137062804Y-184529722D01*
X137067875Y-185029675D01*
X137067875Y-185029696D01*
X137090514Y-187261633D01*
X137123963Y-190559261D01*
X137156870Y-193803643D01*
X137184399Y-196517649D01*
X137165088Y-196585969D01*
X137148176Y-196607342D01*
X137080150Y-196676412D01*
X136726759Y-197035222D01*
X136664710Y-197069720D01*
X136637637Y-197072804D01*
X135031193Y-197080967D01*
X131639515Y-197098200D01*
X131571294Y-197078545D01*
X131524529Y-197025126D01*
X131514068Y-196954904D01*
X131521584Y-196926172D01*
X131538077Y-196884151D01*
X131598126Y-196621059D01*
X131618292Y-196351956D01*
X131598126Y-196082853D01*
X131538077Y-195819761D01*
X131439486Y-195568558D01*
X131439485Y-195568557D01*
X131439484Y-195568553D01*
X131304560Y-195334857D01*
X131250908Y-195267580D01*
X131136304Y-195123871D01*
X130938484Y-194940321D01*
X130938477Y-194940316D01*
X130715520Y-194788306D01*
X130715512Y-194788301D01*
X130472393Y-194671221D01*
X130472375Y-194671214D01*
X130214525Y-194591678D01*
X130214517Y-194591676D01*
X130214515Y-194591676D01*
X129947672Y-194551456D01*
X129677814Y-194551456D01*
X129410971Y-194591676D01*
X129410969Y-194591676D01*
X129410960Y-194591678D01*
X129153110Y-194671214D01*
X129153098Y-194671219D01*
X128909966Y-194788306D01*
X128909959Y-194788310D01*
X128687008Y-194940316D01*
X128687003Y-194940320D01*
X128489182Y-195123870D01*
X128320925Y-195334857D01*
X128186001Y-195568553D01*
X128185998Y-195568561D01*
X128087408Y-195819762D01*
X128027360Y-196082849D01*
X128007194Y-196351956D01*
X128027360Y-196621062D01*
X128087409Y-196884152D01*
X128111169Y-196944692D01*
X128117437Y-197015411D01*
X128084476Y-197078292D01*
X128022751Y-197113372D01*
X127994520Y-197116722D01*
X127850181Y-197117456D01*
X127849996Y-197117457D01*
X127297740Y-197119456D01*
X127249067Y-197109866D01*
X127120264Y-197056515D01*
X126989518Y-197025126D01*
X126880657Y-196998991D01*
X126635002Y-196979657D01*
X126389347Y-196998991D01*
X126149735Y-197056516D01*
X126149731Y-197056517D01*
X126012407Y-197113398D01*
X125964462Y-197122989D01*
X123256869Y-197128838D01*
X123188903Y-197109109D01*
X123171777Y-197098200D01*
X122540717Y-196696219D01*
X122494109Y-196642966D01*
X121526274Y-194556288D01*
X121517424Y-194529895D01*
X121317292Y-193603704D01*
X121314456Y-193576004D01*
X121315392Y-193468083D01*
X121326034Y-192239998D01*
X132949453Y-192239998D01*
X132969619Y-192509104D01*
X133029667Y-192772191D01*
X133128257Y-193023392D01*
X133128260Y-193023400D01*
X133263184Y-193257096D01*
X133263186Y-193257099D01*
X133263187Y-193257100D01*
X133431441Y-193468083D01*
X133629261Y-193651633D01*
X133629267Y-193651637D01*
X133852218Y-193803643D01*
X133852225Y-193803647D01*
X133852228Y-193803649D01*
X134095361Y-193920736D01*
X134095364Y-193920736D01*
X134095369Y-193920739D01*
X134353219Y-194000275D01*
X134353221Y-194000275D01*
X134353230Y-194000278D01*
X134620073Y-194040498D01*
X134620077Y-194040498D01*
X134889927Y-194040498D01*
X134889931Y-194040498D01*
X135156774Y-194000278D01*
X135156784Y-194000275D01*
X135414634Y-193920739D01*
X135414636Y-193920737D01*
X135414643Y-193920736D01*
X135414648Y-193920733D01*
X135414652Y-193920732D01*
X135657771Y-193803652D01*
X135657771Y-193803651D01*
X135657777Y-193803649D01*
X135880743Y-193651633D01*
X136078563Y-193468083D01*
X136246817Y-193257100D01*
X136381745Y-193023396D01*
X136480336Y-192772193D01*
X136540385Y-192509101D01*
X136560551Y-192239998D01*
X136540385Y-191970895D01*
X136480336Y-191707803D01*
X136381745Y-191456600D01*
X136381744Y-191456599D01*
X136381743Y-191456595D01*
X136246819Y-191222899D01*
X136078562Y-191011912D01*
X136063182Y-190997642D01*
X135880743Y-190828363D01*
X135880736Y-190828358D01*
X135657779Y-190676348D01*
X135657771Y-190676343D01*
X135414652Y-190559263D01*
X135414634Y-190559256D01*
X135156784Y-190479720D01*
X135156776Y-190479718D01*
X135156774Y-190479718D01*
X134889931Y-190439498D01*
X134620073Y-190439498D01*
X134353230Y-190479718D01*
X134353228Y-190479718D01*
X134353219Y-190479720D01*
X134095369Y-190559256D01*
X134095357Y-190559261D01*
X133852225Y-190676348D01*
X133852218Y-190676352D01*
X133629267Y-190828358D01*
X133629262Y-190828362D01*
X133431441Y-191011912D01*
X133263184Y-191222899D01*
X133128260Y-191456595D01*
X133128257Y-191456603D01*
X133029667Y-191707804D01*
X132969619Y-191970891D01*
X132949453Y-192239998D01*
X121326034Y-192239998D01*
X121355669Y-188819979D01*
X121360002Y-188319998D01*
X120860002Y-188320690D01*
X92552585Y-188359930D01*
X85842284Y-188369231D01*
X85774137Y-188349324D01*
X85753029Y-188332340D01*
X85327556Y-187906963D01*
X85293526Y-187844657D01*
X85290643Y-187817720D01*
X85292928Y-185849998D01*
X117879453Y-185849998D01*
X117899619Y-186119104D01*
X117959667Y-186382191D01*
X118058257Y-186633392D01*
X118058260Y-186633400D01*
X118193184Y-186867096D01*
X118193186Y-186867099D01*
X118193187Y-186867100D01*
X118361441Y-187078083D01*
X118559261Y-187261633D01*
X118559267Y-187261637D01*
X118782218Y-187413643D01*
X118782225Y-187413647D01*
X118782228Y-187413649D01*
X119025361Y-187530736D01*
X119025364Y-187530736D01*
X119025369Y-187530739D01*
X119283219Y-187610275D01*
X119283221Y-187610275D01*
X119283230Y-187610278D01*
X119550073Y-187650498D01*
X119550077Y-187650498D01*
X119819927Y-187650498D01*
X119819931Y-187650498D01*
X120086774Y-187610278D01*
X120086784Y-187610275D01*
X120344634Y-187530739D01*
X120344636Y-187530737D01*
X120344643Y-187530736D01*
X120344648Y-187530733D01*
X120344652Y-187530732D01*
X120587771Y-187413652D01*
X120587771Y-187413651D01*
X120587777Y-187413649D01*
X120810743Y-187261633D01*
X121008563Y-187078083D01*
X121176817Y-186867100D01*
X121311745Y-186633396D01*
X121410336Y-186382193D01*
X121470385Y-186119101D01*
X121490551Y-185849998D01*
X133119453Y-185849998D01*
X133139619Y-186119104D01*
X133199667Y-186382191D01*
X133298257Y-186633392D01*
X133298260Y-186633400D01*
X133433184Y-186867096D01*
X133433186Y-186867099D01*
X133433187Y-186867100D01*
X133601441Y-187078083D01*
X133799261Y-187261633D01*
X133799267Y-187261637D01*
X134022218Y-187413643D01*
X134022225Y-187413647D01*
X134022228Y-187413649D01*
X134265361Y-187530736D01*
X134265364Y-187530736D01*
X134265369Y-187530739D01*
X134523219Y-187610275D01*
X134523221Y-187610275D01*
X134523230Y-187610278D01*
X134790073Y-187650498D01*
X134790077Y-187650498D01*
X135059927Y-187650498D01*
X135059931Y-187650498D01*
X135326774Y-187610278D01*
X135326784Y-187610275D01*
X135584634Y-187530739D01*
X135584636Y-187530737D01*
X135584643Y-187530736D01*
X135584648Y-187530733D01*
X135584652Y-187530732D01*
X135827771Y-187413652D01*
X135827771Y-187413651D01*
X135827777Y-187413649D01*
X136050743Y-187261633D01*
X136248563Y-187078083D01*
X136416817Y-186867100D01*
X136551745Y-186633396D01*
X136650336Y-186382193D01*
X136710385Y-186119101D01*
X136730551Y-185849998D01*
X136710385Y-185580895D01*
X136650336Y-185317803D01*
X136551745Y-185066600D01*
X136551744Y-185066599D01*
X136551743Y-185066595D01*
X136416819Y-184832899D01*
X136248562Y-184621912D01*
X136233182Y-184607642D01*
X136050743Y-184438363D01*
X136050736Y-184438358D01*
X135827779Y-184286348D01*
X135827771Y-184286343D01*
X135584652Y-184169263D01*
X135584634Y-184169256D01*
X135326784Y-184089720D01*
X135326776Y-184089718D01*
X135326774Y-184089718D01*
X135059931Y-184049498D01*
X134790073Y-184049498D01*
X134523230Y-184089718D01*
X134523228Y-184089718D01*
X134523219Y-184089720D01*
X134265369Y-184169256D01*
X134265357Y-184169261D01*
X134022225Y-184286348D01*
X134022218Y-184286352D01*
X133799267Y-184438358D01*
X133799262Y-184438362D01*
X133601441Y-184621912D01*
X133433184Y-184832899D01*
X133298260Y-185066595D01*
X133298257Y-185066603D01*
X133199667Y-185317804D01*
X133139619Y-185580891D01*
X133119453Y-185849998D01*
X121490551Y-185849998D01*
X121470385Y-185580895D01*
X121410336Y-185317803D01*
X121311745Y-185066600D01*
X121311744Y-185066599D01*
X121311743Y-185066595D01*
X121176819Y-184832899D01*
X121008562Y-184621912D01*
X120993182Y-184607642D01*
X120810743Y-184438363D01*
X120810736Y-184438358D01*
X120587779Y-184286348D01*
X120587771Y-184286343D01*
X120344652Y-184169263D01*
X120344634Y-184169256D01*
X120086784Y-184089720D01*
X120086776Y-184089718D01*
X120086774Y-184089718D01*
X119819931Y-184049498D01*
X119550073Y-184049498D01*
X119283230Y-184089718D01*
X119283228Y-184089718D01*
X119283219Y-184089720D01*
X119025369Y-184169256D01*
X119025357Y-184169261D01*
X118782225Y-184286348D01*
X118782218Y-184286352D01*
X118559267Y-184438358D01*
X118559262Y-184438362D01*
X118361441Y-184621912D01*
X118193184Y-184832899D01*
X118058260Y-185066595D01*
X118058257Y-185066603D01*
X117959667Y-185317804D01*
X117899619Y-185580891D01*
X117879453Y-185849998D01*
X85292928Y-185849998D01*
X85299348Y-180322064D01*
X85319429Y-180253968D01*
X85336238Y-180233130D01*
X85763157Y-179806102D01*
X85825464Y-179772070D01*
X85852083Y-179769187D01*
X99389996Y-179749984D01*
X100571503Y-179748308D01*
X112980003Y-179730707D01*
X112980003Y-179730709D01*
X112980082Y-179730706D01*
X112980319Y-179730706D01*
X113773046Y-179730144D01*
X113841180Y-179750098D01*
X113887711Y-179803720D01*
X113897864Y-179873987D01*
X113890425Y-179902176D01*
X113864666Y-179967809D01*
X113804619Y-180230891D01*
X113784453Y-180499998D01*
X113804619Y-180769104D01*
X113864667Y-181032191D01*
X113963257Y-181283392D01*
X113963260Y-181283400D01*
X114098184Y-181517096D01*
X114098186Y-181517099D01*
X114098187Y-181517100D01*
X114266441Y-181728083D01*
X114464261Y-181911633D01*
X114464267Y-181911637D01*
X114687218Y-182063643D01*
X114687225Y-182063647D01*
X114687228Y-182063649D01*
X114930361Y-182180736D01*
X114930364Y-182180736D01*
X114930369Y-182180739D01*
X115188219Y-182260275D01*
X115188221Y-182260275D01*
X115188230Y-182260278D01*
X115455073Y-182300498D01*
X115455077Y-182300498D01*
X115724927Y-182300498D01*
X115724931Y-182300498D01*
X115991774Y-182260278D01*
X115991784Y-182260275D01*
X116249634Y-182180739D01*
X116249636Y-182180737D01*
X116249643Y-182180736D01*
X116249648Y-182180733D01*
X116249652Y-182180732D01*
X116492771Y-182063652D01*
X116492771Y-182063651D01*
X116492777Y-182063649D01*
X116715743Y-181911633D01*
X116913563Y-181728083D01*
X117081817Y-181517100D01*
X117216745Y-181283396D01*
X117315336Y-181032193D01*
X117375385Y-180769101D01*
X117395551Y-180499998D01*
X117375385Y-180230895D01*
X117315336Y-179967803D01*
X117289521Y-179902030D01*
X117283254Y-179831312D01*
X117316215Y-179768430D01*
X117377939Y-179733351D01*
X117406812Y-179729998D01*
X118709795Y-179729998D01*
X118777916Y-179750000D01*
X118788351Y-179757484D01*
X118964388Y-179897869D01*
X119209799Y-180052071D01*
X119470931Y-180177826D01*
X119470947Y-180177831D01*
X119470948Y-180177832D01*
X119744495Y-180273550D01*
X119744498Y-180273550D01*
X119744502Y-180273552D01*
X119953642Y-180321287D01*
X120027066Y-180338046D01*
X120027067Y-180338046D01*
X120027071Y-180338047D01*
X120256006Y-180363841D01*
X120315083Y-180370498D01*
X120315084Y-180370498D01*
X120604921Y-180370498D01*
X120653942Y-180364974D01*
X120892933Y-180338047D01*
X121175502Y-180273552D01*
X121449073Y-180177826D01*
X121710205Y-180052071D01*
X121955616Y-179897869D01*
X122137639Y-179752709D01*
X122203367Y-179725876D01*
X122215864Y-179725222D01*
X122662191Y-179724170D01*
X122730357Y-179744012D01*
X122741046Y-179751659D01*
X122763026Y-179769187D01*
X122924388Y-179897869D01*
X123169799Y-180052071D01*
X123430931Y-180177826D01*
X123430947Y-180177831D01*
X123430948Y-180177832D01*
X123704495Y-180273550D01*
X123704498Y-180273550D01*
X123704502Y-180273552D01*
X123913642Y-180321287D01*
X123987066Y-180338046D01*
X123987067Y-180338046D01*
X123987071Y-180338047D01*
X124216006Y-180363841D01*
X124275083Y-180370498D01*
X124275084Y-180370498D01*
X124564921Y-180370498D01*
X124613942Y-180364974D01*
X124852933Y-180338047D01*
X125135502Y-180273552D01*
X125409073Y-180177826D01*
X125670205Y-180052071D01*
X125915616Y-179897869D01*
X126109378Y-179743348D01*
X126175104Y-179716515D01*
X126187618Y-179715861D01*
X128675002Y-179709998D01*
X136606986Y-179691301D01*
X136675151Y-179711143D01*
G37*
%TD.AperFunction*%
%TD*%
%TA.AperFunction,Conductor*%
%TO.N,+15Volt_1*%
G36*
X136835149Y-128011145D02*
G01*
X136857156Y-128028999D01*
X137272801Y-128452076D01*
X137306273Y-128514686D01*
X137308895Y-128542907D01*
X137268380Y-130560279D01*
X137222802Y-132829724D01*
X137227873Y-133329677D01*
X137227873Y-133329698D01*
X137250512Y-135561635D01*
X137283961Y-138859263D01*
X137316868Y-142103645D01*
X137344397Y-144817651D01*
X137325086Y-144885971D01*
X137308174Y-144907344D01*
X137240148Y-144976414D01*
X136886757Y-145335224D01*
X136824708Y-145369722D01*
X136797635Y-145372806D01*
X135191191Y-145380969D01*
X131799513Y-145398202D01*
X131731292Y-145378547D01*
X131684527Y-145325128D01*
X131674066Y-145254906D01*
X131681582Y-145226174D01*
X131698075Y-145184153D01*
X131758124Y-144921061D01*
X131778290Y-144651958D01*
X131758124Y-144382855D01*
X131698075Y-144119763D01*
X131599484Y-143868560D01*
X131599483Y-143868559D01*
X131599482Y-143868555D01*
X131464558Y-143634859D01*
X131410906Y-143567582D01*
X131296302Y-143423873D01*
X131098482Y-143240323D01*
X131098475Y-143240318D01*
X130875518Y-143088308D01*
X130875510Y-143088303D01*
X130632391Y-142971223D01*
X130632373Y-142971216D01*
X130374523Y-142891680D01*
X130374515Y-142891678D01*
X130374513Y-142891678D01*
X130107670Y-142851458D01*
X129837812Y-142851458D01*
X129570969Y-142891678D01*
X129570967Y-142891678D01*
X129570958Y-142891680D01*
X129313108Y-142971216D01*
X129313096Y-142971221D01*
X129069964Y-143088308D01*
X129069957Y-143088312D01*
X128847006Y-143240318D01*
X128847001Y-143240322D01*
X128649180Y-143423872D01*
X128480923Y-143634859D01*
X128345999Y-143868555D01*
X128345996Y-143868563D01*
X128247406Y-144119764D01*
X128187358Y-144382851D01*
X128167192Y-144651958D01*
X128187358Y-144921064D01*
X128247407Y-145184154D01*
X128271167Y-145244694D01*
X128277435Y-145315413D01*
X128244474Y-145378294D01*
X128182749Y-145413374D01*
X128154518Y-145416724D01*
X128010179Y-145417458D01*
X128009994Y-145417459D01*
X127457738Y-145419458D01*
X127409065Y-145409868D01*
X127280262Y-145356517D01*
X127149516Y-145325128D01*
X127040655Y-145298993D01*
X126795000Y-145279659D01*
X126549345Y-145298993D01*
X126309733Y-145356518D01*
X126309729Y-145356519D01*
X126172405Y-145413400D01*
X126124460Y-145422991D01*
X123416867Y-145428840D01*
X123348901Y-145409111D01*
X123331775Y-145398202D01*
X122700715Y-144996221D01*
X122654107Y-144942968D01*
X121686272Y-142856290D01*
X121677422Y-142829897D01*
X121477290Y-141903706D01*
X121474454Y-141876006D01*
X121475390Y-141768085D01*
X121486032Y-140540000D01*
X133109451Y-140540000D01*
X133129617Y-140809106D01*
X133189665Y-141072193D01*
X133288255Y-141323394D01*
X133288258Y-141323402D01*
X133423182Y-141557098D01*
X133423184Y-141557101D01*
X133423185Y-141557102D01*
X133591439Y-141768085D01*
X133789259Y-141951635D01*
X133789265Y-141951639D01*
X134012216Y-142103645D01*
X134012223Y-142103649D01*
X134012226Y-142103651D01*
X134255359Y-142220738D01*
X134255362Y-142220738D01*
X134255367Y-142220741D01*
X134513217Y-142300277D01*
X134513219Y-142300277D01*
X134513228Y-142300280D01*
X134780071Y-142340500D01*
X134780075Y-142340500D01*
X135049925Y-142340500D01*
X135049929Y-142340500D01*
X135316772Y-142300280D01*
X135362775Y-142286090D01*
X135574632Y-142220741D01*
X135574634Y-142220739D01*
X135574641Y-142220738D01*
X135574646Y-142220735D01*
X135574650Y-142220734D01*
X135817769Y-142103654D01*
X135817769Y-142103653D01*
X135817775Y-142103651D01*
X136040741Y-141951635D01*
X136238561Y-141768085D01*
X136406815Y-141557102D01*
X136541743Y-141323398D01*
X136640334Y-141072195D01*
X136700383Y-140809103D01*
X136720549Y-140540000D01*
X136700383Y-140270897D01*
X136640334Y-140007805D01*
X136541743Y-139756602D01*
X136541742Y-139756601D01*
X136541741Y-139756597D01*
X136406817Y-139522901D01*
X136238560Y-139311914D01*
X136210588Y-139285960D01*
X136040741Y-139128365D01*
X136040734Y-139128360D01*
X135817777Y-138976350D01*
X135817769Y-138976345D01*
X135574650Y-138859265D01*
X135574632Y-138859258D01*
X135316782Y-138779722D01*
X135316774Y-138779720D01*
X135316772Y-138779720D01*
X135049929Y-138739500D01*
X134780071Y-138739500D01*
X134513228Y-138779720D01*
X134513226Y-138779720D01*
X134513217Y-138779722D01*
X134255367Y-138859258D01*
X134255355Y-138859263D01*
X134012223Y-138976350D01*
X134012216Y-138976354D01*
X133789265Y-139128360D01*
X133789260Y-139128364D01*
X133591439Y-139311914D01*
X133423182Y-139522901D01*
X133288258Y-139756597D01*
X133288255Y-139756605D01*
X133189665Y-140007806D01*
X133129617Y-140270893D01*
X133109451Y-140540000D01*
X121486032Y-140540000D01*
X121515667Y-137119981D01*
X121520000Y-136620000D01*
X121020000Y-136620692D01*
X92712583Y-136659932D01*
X86002282Y-136669233D01*
X85934135Y-136649326D01*
X85913027Y-136632342D01*
X85487554Y-136206965D01*
X85453524Y-136144659D01*
X85450641Y-136117722D01*
X85452926Y-134150000D01*
X118039451Y-134150000D01*
X118059617Y-134419106D01*
X118119665Y-134682193D01*
X118218255Y-134933394D01*
X118218258Y-134933402D01*
X118353182Y-135167098D01*
X118353184Y-135167101D01*
X118353185Y-135167102D01*
X118521439Y-135378085D01*
X118719259Y-135561635D01*
X118719265Y-135561639D01*
X118942216Y-135713645D01*
X118942223Y-135713649D01*
X118942226Y-135713651D01*
X119185359Y-135830738D01*
X119185362Y-135830738D01*
X119185367Y-135830741D01*
X119443217Y-135910277D01*
X119443219Y-135910277D01*
X119443228Y-135910280D01*
X119710071Y-135950500D01*
X119710075Y-135950500D01*
X119979925Y-135950500D01*
X119979929Y-135950500D01*
X120246772Y-135910280D01*
X120246782Y-135910277D01*
X120504632Y-135830741D01*
X120504634Y-135830739D01*
X120504641Y-135830738D01*
X120504646Y-135830735D01*
X120504650Y-135830734D01*
X120747769Y-135713654D01*
X120747769Y-135713653D01*
X120747775Y-135713651D01*
X120970741Y-135561635D01*
X121168561Y-135378085D01*
X121336815Y-135167102D01*
X121471743Y-134933398D01*
X121570334Y-134682195D01*
X121630383Y-134419103D01*
X121650549Y-134150000D01*
X133279451Y-134150000D01*
X133299617Y-134419106D01*
X133359665Y-134682193D01*
X133458255Y-134933394D01*
X133458258Y-134933402D01*
X133593182Y-135167098D01*
X133593184Y-135167101D01*
X133593185Y-135167102D01*
X133761439Y-135378085D01*
X133959259Y-135561635D01*
X133959265Y-135561639D01*
X134182216Y-135713645D01*
X134182223Y-135713649D01*
X134182226Y-135713651D01*
X134425359Y-135830738D01*
X134425362Y-135830738D01*
X134425367Y-135830741D01*
X134683217Y-135910277D01*
X134683219Y-135910277D01*
X134683228Y-135910280D01*
X134950071Y-135950500D01*
X134950075Y-135950500D01*
X135219925Y-135950500D01*
X135219929Y-135950500D01*
X135486772Y-135910280D01*
X135486782Y-135910277D01*
X135744632Y-135830741D01*
X135744634Y-135830739D01*
X135744641Y-135830738D01*
X135744646Y-135830735D01*
X135744650Y-135830734D01*
X135987769Y-135713654D01*
X135987769Y-135713653D01*
X135987775Y-135713651D01*
X136210741Y-135561635D01*
X136408561Y-135378085D01*
X136576815Y-135167102D01*
X136711743Y-134933398D01*
X136810334Y-134682195D01*
X136870383Y-134419103D01*
X136890549Y-134150000D01*
X136870383Y-133880897D01*
X136810334Y-133617805D01*
X136711743Y-133366602D01*
X136711742Y-133366601D01*
X136711741Y-133366597D01*
X136576817Y-133132901D01*
X136408560Y-132921914D01*
X136393180Y-132907644D01*
X136210741Y-132738365D01*
X136210734Y-132738360D01*
X135987777Y-132586350D01*
X135987769Y-132586345D01*
X135744650Y-132469265D01*
X135744632Y-132469258D01*
X135486782Y-132389722D01*
X135486774Y-132389720D01*
X135486772Y-132389720D01*
X135219929Y-132349500D01*
X134950071Y-132349500D01*
X134683228Y-132389720D01*
X134683226Y-132389720D01*
X134683217Y-132389722D01*
X134425367Y-132469258D01*
X134425355Y-132469263D01*
X134182223Y-132586350D01*
X134182216Y-132586354D01*
X133959265Y-132738360D01*
X133959260Y-132738364D01*
X133761439Y-132921914D01*
X133593182Y-133132901D01*
X133458258Y-133366597D01*
X133458255Y-133366605D01*
X133359665Y-133617806D01*
X133299617Y-133880893D01*
X133279451Y-134150000D01*
X121650549Y-134150000D01*
X121630383Y-133880897D01*
X121570334Y-133617805D01*
X121471743Y-133366602D01*
X121471742Y-133366601D01*
X121471741Y-133366597D01*
X121336817Y-133132901D01*
X121168560Y-132921914D01*
X121153180Y-132907644D01*
X120970741Y-132738365D01*
X120970734Y-132738360D01*
X120747777Y-132586350D01*
X120747769Y-132586345D01*
X120504650Y-132469265D01*
X120504632Y-132469258D01*
X120246782Y-132389722D01*
X120246774Y-132389720D01*
X120246772Y-132389720D01*
X119979929Y-132349500D01*
X119710071Y-132349500D01*
X119443228Y-132389720D01*
X119443226Y-132389720D01*
X119443217Y-132389722D01*
X119185367Y-132469258D01*
X119185355Y-132469263D01*
X118942223Y-132586350D01*
X118942216Y-132586354D01*
X118719265Y-132738360D01*
X118719260Y-132738364D01*
X118521439Y-132921914D01*
X118353182Y-133132901D01*
X118218258Y-133366597D01*
X118218255Y-133366605D01*
X118119665Y-133617806D01*
X118059617Y-133880893D01*
X118039451Y-134150000D01*
X85452926Y-134150000D01*
X85459346Y-128622066D01*
X85479427Y-128553970D01*
X85496236Y-128533132D01*
X85923155Y-128106104D01*
X85985462Y-128072072D01*
X86012081Y-128069189D01*
X99549994Y-128049986D01*
X100731501Y-128048310D01*
X113140001Y-128030709D01*
X113140001Y-128030711D01*
X113140080Y-128030708D01*
X113140317Y-128030708D01*
X113933044Y-128030146D01*
X114001178Y-128050100D01*
X114047709Y-128103722D01*
X114057862Y-128173989D01*
X114050423Y-128202178D01*
X114024664Y-128267811D01*
X113964617Y-128530893D01*
X113944451Y-128800000D01*
X113964617Y-129069106D01*
X114024665Y-129332193D01*
X114123255Y-129583394D01*
X114123258Y-129583402D01*
X114258182Y-129817098D01*
X114258184Y-129817101D01*
X114258185Y-129817102D01*
X114426439Y-130028085D01*
X114624259Y-130211635D01*
X114624265Y-130211639D01*
X114847216Y-130363645D01*
X114847223Y-130363649D01*
X114847226Y-130363651D01*
X115090359Y-130480738D01*
X115090362Y-130480738D01*
X115090367Y-130480741D01*
X115348217Y-130560277D01*
X115348219Y-130560277D01*
X115348228Y-130560280D01*
X115615071Y-130600500D01*
X115615075Y-130600500D01*
X115884925Y-130600500D01*
X115884929Y-130600500D01*
X116151772Y-130560280D01*
X116151782Y-130560277D01*
X116409632Y-130480741D01*
X116409634Y-130480739D01*
X116409641Y-130480738D01*
X116409646Y-130480735D01*
X116409650Y-130480734D01*
X116652769Y-130363654D01*
X116652769Y-130363653D01*
X116652775Y-130363651D01*
X116875741Y-130211635D01*
X117073561Y-130028085D01*
X117241815Y-129817102D01*
X117376743Y-129583398D01*
X117475334Y-129332195D01*
X117535383Y-129069103D01*
X117555549Y-128800000D01*
X117535383Y-128530897D01*
X117475334Y-128267805D01*
X117449519Y-128202032D01*
X117443252Y-128131314D01*
X117476213Y-128068432D01*
X117537937Y-128033353D01*
X117566810Y-128030000D01*
X118869793Y-128030000D01*
X118937914Y-128050002D01*
X118948349Y-128057486D01*
X119124386Y-128197871D01*
X119369797Y-128352073D01*
X119630929Y-128477828D01*
X119630945Y-128477833D01*
X119630946Y-128477834D01*
X119904493Y-128573552D01*
X119904496Y-128573552D01*
X119904500Y-128573554D01*
X120113640Y-128621289D01*
X120187064Y-128638048D01*
X120187065Y-128638048D01*
X120187069Y-128638049D01*
X120416004Y-128663843D01*
X120475081Y-128670500D01*
X120475082Y-128670500D01*
X120764919Y-128670500D01*
X120813940Y-128664976D01*
X121052931Y-128638049D01*
X121335500Y-128573554D01*
X121609071Y-128477828D01*
X121870203Y-128352073D01*
X122115614Y-128197871D01*
X122297637Y-128052711D01*
X122363365Y-128025878D01*
X122375862Y-128025224D01*
X122822189Y-128024172D01*
X122890355Y-128044014D01*
X122901044Y-128051661D01*
X122923024Y-128069189D01*
X123084386Y-128197871D01*
X123329797Y-128352073D01*
X123590929Y-128477828D01*
X123590945Y-128477833D01*
X123590946Y-128477834D01*
X123864493Y-128573552D01*
X123864496Y-128573552D01*
X123864500Y-128573554D01*
X124073640Y-128621289D01*
X124147064Y-128638048D01*
X124147065Y-128638048D01*
X124147069Y-128638049D01*
X124376004Y-128663843D01*
X124435081Y-128670500D01*
X124435082Y-128670500D01*
X124724919Y-128670500D01*
X124773940Y-128664976D01*
X125012931Y-128638049D01*
X125295500Y-128573554D01*
X125569071Y-128477828D01*
X125830203Y-128352073D01*
X126075614Y-128197871D01*
X126269376Y-128043350D01*
X126335102Y-128016517D01*
X126347616Y-128015863D01*
X128835000Y-128010000D01*
X136766984Y-127991303D01*
X136835149Y-128011145D01*
G37*
%TD.AperFunction*%
%TD*%
M02*
