%TF.GenerationSoftware,KiCad,Pcbnew,8.0.8*%
%TF.CreationDate,2025-04-07T15:46:13+05:30*%
%TF.ProjectId,current sensor_NEW,63757272-656e-4742-9073-656e736f725f,rev?*%
%TF.SameCoordinates,Original*%
%TF.FileFunction,Plated,1,2,PTH,Drill*%
%TF.FilePolarity,Positive*%
%FSLAX46Y46*%
G04 Gerber Fmt 4.6, Leading zero omitted, Abs format (unit mm)*
G04 Created by KiCad (PCBNEW 8.0.8) date 2025-04-07 15:46:13*
%MOMM*%
%LPD*%
G01*
G04 APERTURE LIST*
%TA.AperFunction,ViaDrill*%
%ADD10C,0.400000*%
%TD*%
%TA.AperFunction,ViaDrill*%
%ADD11C,0.600000*%
%TD*%
%TA.AperFunction,ComponentDrill*%
%ADD12C,0.740000*%
%TD*%
%TA.AperFunction,ComponentDrill*%
%ADD13C,0.800000*%
%TD*%
%TA.AperFunction,ComponentDrill*%
%ADD14C,0.900000*%
%TD*%
%TA.AperFunction,ComponentDrill*%
%ADD15C,1.000000*%
%TD*%
%TA.AperFunction,ComponentDrill*%
%ADD16C,1.100000*%
%TD*%
%TA.AperFunction,ComponentDrill*%
%ADD17C,1.200000*%
%TD*%
%TA.AperFunction,ComponentDrill*%
%ADD18C,1.300000*%
%TD*%
%TA.AperFunction,ComponentDrill*%
%ADD19C,1.700000*%
%TD*%
%TA.AperFunction,ComponentDrill*%
%ADD20C,2.500000*%
%TD*%
%TA.AperFunction,ComponentDrill*%
%ADD21C,5.000000*%
%TD*%
G04 APERTURE END LIST*
D10*
X122560000Y-67535000D03*
X122610000Y-168530000D03*
X139135000Y-82535000D03*
X139480000Y-29635000D03*
X139530000Y-130630000D03*
X140570000Y-138075000D03*
X142000000Y-112425000D03*
X142770000Y-62210000D03*
X142820000Y-163205000D03*
X144000000Y-122100000D03*
X145410000Y-79055000D03*
X145460000Y-180050000D03*
D11*
X143710000Y-28085000D03*
X143760000Y-129080000D03*
D12*
%TO.C,U4*%
X118645002Y-95014998D03*
X118645002Y-97554998D03*
X118645002Y-100094998D03*
X118645002Y-102634998D03*
X118695002Y-196009998D03*
X118695002Y-198549998D03*
X118695002Y-201089998D03*
X118695002Y-203629998D03*
X118805000Y-43315000D03*
X118805000Y-45855000D03*
X118805000Y-48395000D03*
X118805000Y-50935000D03*
X118855000Y-144310000D03*
X118855000Y-146850000D03*
X118855000Y-149390000D03*
X118855000Y-151930000D03*
X126585002Y-95014998D03*
X126585002Y-97554998D03*
X126585002Y-100094998D03*
X126585002Y-102634998D03*
X126635002Y-196009998D03*
X126635002Y-198549998D03*
X126635002Y-201089998D03*
X126635002Y-203629998D03*
X126745000Y-43315000D03*
X126745000Y-45855000D03*
X126745000Y-48395000D03*
X126745000Y-50935000D03*
X126795000Y-144310000D03*
X126795000Y-146850000D03*
X126795000Y-149390000D03*
X126795000Y-151930000D03*
D13*
%TO.C,Rmeasuring1*%
X98460002Y-113404998D03*
X98510002Y-214399998D03*
X98620000Y-61705000D03*
X98670000Y-162700000D03*
%TO.C,R1*%
X99400002Y-104754998D03*
X99450002Y-205749998D03*
X99560000Y-53055000D03*
X99610000Y-154050000D03*
%TO.C,Rmeasuring1*%
X113700002Y-113404998D03*
X113750002Y-214399998D03*
X113860000Y-61705000D03*
X113910000Y-162700000D03*
%TO.C,R1*%
X114640002Y-104754998D03*
X114690002Y-205749998D03*
X114800000Y-53055000D03*
X114850000Y-154050000D03*
%TO.C,C2*%
X115540002Y-74504998D03*
X115540002Y-79504998D03*
X115590002Y-175499998D03*
X115590002Y-180499998D03*
X115700000Y-22805000D03*
X115700000Y-27805000D03*
X115750000Y-123800000D03*
X115750000Y-128800000D03*
%TO.C,R5*%
X119465002Y-91244998D03*
X119515002Y-192239998D03*
X119625000Y-39545000D03*
%TO.C,R4*%
X119635002Y-84854998D03*
%TO.C,R5*%
X119675000Y-140540000D03*
%TO.C,R4*%
X119685002Y-185849998D03*
X119795000Y-33155000D03*
X119845000Y-134150000D03*
%TO.C,R7*%
X129762743Y-95356956D03*
X129812743Y-196351956D03*
X129922741Y-43656958D03*
X129972741Y-144651958D03*
%TO.C,C1*%
X134320002Y-73974998D03*
X134320002Y-78974998D03*
X134370002Y-174969998D03*
X134370002Y-179969998D03*
X134480000Y-22275000D03*
X134480000Y-27275000D03*
X134530000Y-123270000D03*
X134530000Y-128270000D03*
%TO.C,R5*%
X134705002Y-91244998D03*
X134755002Y-192239998D03*
X134865000Y-39545000D03*
%TO.C,R4*%
X134875002Y-84854998D03*
%TO.C,R5*%
X134915000Y-140540000D03*
%TO.C,R4*%
X134925002Y-185849998D03*
X135035000Y-33155000D03*
X135085000Y-134150000D03*
%TO.C,C11*%
X139655002Y-108494998D03*
X139655002Y-113494998D03*
X139705002Y-209489998D03*
X139705002Y-214489998D03*
X139815000Y-56795000D03*
X139815000Y-61795000D03*
X139865000Y-157790000D03*
X139865000Y-162790000D03*
%TO.C,R7*%
X141437260Y-105153039D03*
X141487260Y-206148039D03*
X141597258Y-53453041D03*
X141647258Y-154448041D03*
D14*
%TO.C,D2*%
X108790002Y-74624998D03*
X108840002Y-175619998D03*
X108950000Y-22925000D03*
X109000000Y-123920000D03*
X111330002Y-74624998D03*
X111380002Y-175619998D03*
X111490000Y-22925000D03*
X111540000Y-123920000D03*
D15*
%TO.C,J3*%
X113555002Y-108554998D03*
X113605002Y-209549998D03*
X113715000Y-56855000D03*
X113765000Y-157850000D03*
X116095002Y-108554998D03*
X116145002Y-209549998D03*
X116255000Y-56855000D03*
X116305000Y-157850000D03*
X118635002Y-108554998D03*
X118685002Y-209549998D03*
X118795000Y-56855000D03*
X118845000Y-157850000D03*
%TO.C,J4*%
X144720000Y-110540001D03*
X144720000Y-113080001D03*
X144720000Y-115620001D03*
X144770000Y-211535001D03*
X144770000Y-214075001D03*
X144770000Y-216615001D03*
X144879998Y-58840003D03*
X144879998Y-61380003D03*
X144879998Y-63920003D03*
X144929998Y-159835003D03*
X144929998Y-162375003D03*
X144929998Y-164915003D03*
D16*
%TO.C,DC_offset(1.5V)*%
X142370000Y-35120000D03*
X142370000Y-40200000D03*
D17*
%TO.C,U1*%
X88187502Y-81412498D03*
X88187502Y-104272498D03*
X88187502Y-109352498D03*
X88237502Y-182407498D03*
X88237502Y-205267498D03*
X88237502Y-210347498D03*
X88347500Y-29712500D03*
X88347500Y-52572500D03*
X88347500Y-57652500D03*
X88397500Y-130707500D03*
X88397500Y-153567500D03*
X88397500Y-158647500D03*
%TO.C,R2*%
X90325005Y-74654996D03*
X90375005Y-175649996D03*
X90485003Y-22954998D03*
X90535003Y-123949998D03*
X105565005Y-74654996D03*
X105615005Y-175649996D03*
X105725003Y-22954998D03*
X105775003Y-123949998D03*
D18*
%TO.C,D5*%
X123130002Y-107784998D03*
X123180002Y-208779998D03*
%TO.C,D6*%
X123260002Y-114114998D03*
%TO.C,D5*%
X123290000Y-56085000D03*
%TO.C,D6*%
X123310002Y-215109998D03*
%TO.C,D5*%
X123340000Y-157080000D03*
%TO.C,D6*%
X123420000Y-62415000D03*
X123470000Y-163410000D03*
%TO.C,D5*%
X135830002Y-107784998D03*
X135880002Y-208779998D03*
%TO.C,D6*%
X135960002Y-114114998D03*
%TO.C,D5*%
X135990000Y-56085000D03*
%TO.C,D6*%
X136010002Y-215109998D03*
%TO.C,D5*%
X136040000Y-157080000D03*
%TO.C,D6*%
X136120000Y-62415000D03*
X136170000Y-163410000D03*
D19*
%TO.C,power_supply*%
X120410002Y-76324998D03*
X120460002Y-177319998D03*
X120570000Y-24625000D03*
X120620000Y-125620000D03*
X124370002Y-76324998D03*
X124420002Y-177319998D03*
X124530000Y-24625000D03*
X124580000Y-125620000D03*
X128330002Y-76324998D03*
X128380002Y-177319998D03*
X128490000Y-24625000D03*
X128540000Y-125620000D03*
D20*
%TO.C,H1*%
X74535002Y-95459998D03*
X74585002Y-196454998D03*
X74695000Y-43760000D03*
X74745000Y-144755000D03*
%TO.C,H4*%
X104385002Y-95809998D03*
X104435002Y-196804998D03*
X104545000Y-44110000D03*
X104595000Y-145105000D03*
D21*
%TO.C,H2*%
X65080002Y-80554998D03*
%TO.C,H3*%
X65080002Y-110324998D03*
%TO.C,H2*%
X65130002Y-181549998D03*
%TO.C,H3*%
X65130002Y-211319998D03*
%TO.C,H2*%
X65240000Y-28855000D03*
%TO.C,H3*%
X65240000Y-58625000D03*
%TO.C,H2*%
X65290000Y-129850000D03*
%TO.C,H3*%
X65290000Y-159620000D03*
M02*
