M48
;Layer_Color=9474304
;FILE_FORMAT=4:4
METRIC,LZ
;TYPE=PLATED
T01F00S00C0.7100
T02F00S00C0.7300
T03F00S00C0.8000
T04F00S00C0.8500
T05F00S00C1.2446
T06F00S00C1.3000
T07F00S00C5.0000
T08F00S00C6.6000
T09F00S00C12.5000
%
T01
X0038481Y0046228
Y0051308
T02
X0047973Y0042672
Y0045212
Y0047752
Y0055372
Y0057912
X0055626
Y0055372
Y0047752
Y0045212
Y0042672
T03
X0038569Y00381
X0049569
X004445Y0041236
X0040806Y0041402
X004445Y0052236
X0046013Y0057912
X0059944Y0059602
X00635
Y0048602
X0066929
X0059944
X0035013Y0057912
X0029806Y0041402
T04
X0061087Y0030131
Y0044831
T05
X0044831Y0031496
X0047371
X005461Y0031623
X005715
T06
X0031242Y0052578
T07
X0042418Y0083566
X006223Y0083693
T08
X0030734Y0030607
X0074676Y0031115
X0029845Y0096647
X0075184Y0096774
T09
X0042926Y0093091
X0062103Y0093345
M30
