G04*
G04 #@! TF.GenerationSoftware,Altium Limited,Altium Designer,26.7.1 (11)*
G04*
G04 Layer_Physical_Order=2*
G04 Layer_Color=16711680*
G04 Board_Origin=0|0*
%FSLAX44Y44*%
%MOMM*%
G71*
G04*
G04 #@! TF.SameCoordinates,2735CA06-2BDD-4EEA-983A-1EE108FF3C76*
G04*
G04*
G04 #@! TF.FilePolarity,Positive*
G04*
G01*
G75*
%ADD15C,1.1300*%
%ADD16C,1.2180*%
%ADD18C,1.9500*%
%ADD36C,1.5240*%
%ADD37C,1.3080*%
%ADD38C,1.7526*%
%ADD39R,1.1300X1.1300*%
%ADD40C,1.2000*%
%ADD41R,1.2750X1.2750*%
%ADD42C,1.2750*%
%ADD43R,1.2180X1.2180*%
%ADD44R,1.9500X1.9500*%
G36*
X748030Y800100D02*
X750156Y800100D01*
X754327Y799270D01*
X758257Y797643D01*
X761793Y795280D01*
X764800Y792273D01*
X767163Y788737D01*
X768790Y784808D01*
X769576Y780859D01*
X769620Y778512D01*
Y778510D01*
X769620D01*
X769620Y778510D01*
X769620Y374650D01*
X769620Y372148D01*
X768644Y367241D01*
X766729Y362618D01*
X763950Y358458D01*
X760412Y354921D01*
X756251Y352141D01*
X751629Y350226D01*
X746722Y349250D01*
X744220Y349250D01*
X273050D01*
X271799Y349250D01*
X269345Y349738D01*
X267034Y350695D01*
X264954Y352085D01*
X263185Y353854D01*
X261795Y355934D01*
X260838Y358246D01*
X260350Y360699D01*
X260350Y361950D01*
X259080Y557530D01*
X259080Y560070D01*
X259080Y774700D01*
X259080Y777202D01*
X260056Y782109D01*
X261971Y786731D01*
X264750Y790891D01*
X268288Y794429D01*
X272449Y797209D01*
X277071Y799124D01*
X281978Y800100D01*
X284480Y800100D01*
X284480Y800100D01*
X748030Y800100D01*
D02*
G37*
%LPC*%
G36*
X329110Y742940D02*
X318090D01*
Y731920D01*
X329110D01*
Y742940D01*
D02*
G37*
G36*
X315550D02*
X304530D01*
Y731920D01*
X315550D01*
Y742940D01*
D02*
G37*
G36*
X329110Y729380D02*
X318090D01*
Y718360D01*
X329110D01*
Y729380D01*
D02*
G37*
G36*
X315550D02*
X304530D01*
Y718360D01*
X315550D01*
Y729380D01*
D02*
G37*
G36*
X670560Y605080D02*
Y597290D01*
X678350D01*
X677751Y599525D01*
X676556Y601595D01*
X674865Y603286D01*
X672795Y604481D01*
X670560Y605080D01*
D02*
G37*
G36*
X668020D02*
X665785Y604481D01*
X663715Y603286D01*
X662024Y601595D01*
X660829Y599525D01*
X660230Y597290D01*
X668020D01*
Y605080D01*
D02*
G37*
G36*
X678350Y594750D02*
X670560D01*
Y586960D01*
X672795Y587559D01*
X674865Y588754D01*
X676556Y590445D01*
X677751Y592515D01*
X678350Y594750D01*
D02*
G37*
G36*
X668020D02*
X660230D01*
X660829Y592515D01*
X662024Y590445D01*
X663715Y588754D01*
X665785Y587559D01*
X668020Y586960D01*
Y594750D01*
D02*
G37*
G36*
X636195Y605100D02*
X633805D01*
X631495Y604481D01*
X629425Y603286D01*
X627734Y601595D01*
X626539Y599525D01*
X625920Y597215D01*
Y594825D01*
X626539Y592515D01*
X627734Y590445D01*
X629425Y588754D01*
X631495Y587559D01*
X633805Y586940D01*
X636195D01*
X638505Y587559D01*
X640575Y588754D01*
X642266Y590445D01*
X643461Y592515D01*
X644080Y594825D01*
Y597215D01*
X643461Y599525D01*
X642266Y601595D01*
X640575Y603286D01*
X638505Y604481D01*
X636195Y605100D01*
D02*
G37*
G36*
X600635D02*
X598245D01*
X595935Y604481D01*
X593865Y603286D01*
X592174Y601595D01*
X590979Y599525D01*
X590360Y597215D01*
Y594825D01*
X590979Y592515D01*
X592174Y590445D01*
X593865Y588754D01*
X595935Y587559D01*
X598245Y586940D01*
X600635D01*
X602945Y587559D01*
X605015Y588754D01*
X606706Y590445D01*
X607901Y592515D01*
X608520Y594825D01*
Y597215D01*
X607901Y599525D01*
X606706Y601595D01*
X605015Y603286D01*
X602945Y604481D01*
X600635Y605100D01*
D02*
G37*
G36*
X557338Y587310D02*
X555182D01*
X553099Y586752D01*
X551231Y585674D01*
X549706Y584149D01*
X548628Y582281D01*
X548070Y580198D01*
Y578042D01*
X548628Y575959D01*
X549706Y574091D01*
X551231Y572566D01*
X553099Y571488D01*
X555182Y570930D01*
X557338D01*
X559421Y571488D01*
X561289Y572566D01*
X562814Y574091D01*
X563892Y575959D01*
X564450Y578042D01*
Y580198D01*
X563892Y582281D01*
X562814Y584149D01*
X561289Y585674D01*
X559421Y586752D01*
X557338Y587310D01*
D02*
G37*
G36*
X487920D02*
X471540D01*
Y570930D01*
X487920D01*
Y587310D01*
D02*
G37*
G36*
X461254Y587660D02*
X459006D01*
X456834Y587078D01*
X454886Y585954D01*
X453296Y584364D01*
X452172Y582416D01*
X451590Y580244D01*
Y577996D01*
X452172Y575824D01*
X453296Y573876D01*
X454886Y572286D01*
X456834Y571162D01*
X459006Y570580D01*
X461254D01*
X463426Y571162D01*
X465374Y572286D01*
X466964Y573876D01*
X468088Y575824D01*
X468670Y577996D01*
Y580244D01*
X468088Y582416D01*
X466964Y584364D01*
X465374Y585954D01*
X463426Y587078D01*
X461254Y587660D01*
D02*
G37*
G36*
X351254D02*
X349006D01*
X346834Y587078D01*
X344886Y585954D01*
X343296Y584364D01*
X342172Y582416D01*
X341590Y580244D01*
Y577996D01*
X342172Y575824D01*
X343296Y573876D01*
X344886Y572286D01*
X346834Y571162D01*
X349006Y570580D01*
X351254D01*
X353426Y571162D01*
X355374Y572286D01*
X356964Y573876D01*
X358088Y575824D01*
X358670Y577996D01*
Y580244D01*
X358088Y582416D01*
X356964Y584364D01*
X355374Y585954D01*
X353426Y587078D01*
X351254Y587660D01*
D02*
G37*
G36*
X557338Y561910D02*
X555182D01*
X553099Y561352D01*
X551231Y560274D01*
X549706Y558749D01*
X548628Y556881D01*
X548070Y554798D01*
Y552642D01*
X548628Y550559D01*
X549706Y548691D01*
X551231Y547166D01*
X553099Y546088D01*
X555182Y545530D01*
X557338D01*
X559421Y546088D01*
X561289Y547166D01*
X562814Y548691D01*
X563892Y550559D01*
X564450Y552642D01*
Y554798D01*
X563892Y556881D01*
X562814Y558749D01*
X561289Y560274D01*
X559421Y561352D01*
X557338Y561910D01*
D02*
G37*
G36*
X480808D02*
X478652D01*
X476569Y561352D01*
X474701Y560274D01*
X473176Y558749D01*
X472098Y556881D01*
X471540Y554798D01*
Y552642D01*
X472098Y550559D01*
X473176Y548691D01*
X474701Y547166D01*
X476569Y546088D01*
X478652Y545530D01*
X480808D01*
X482891Y546088D01*
X484759Y547166D01*
X486284Y548691D01*
X487362Y550559D01*
X487920Y552642D01*
Y554798D01*
X487362Y556881D01*
X486284Y558749D01*
X484759Y560274D01*
X482891Y561352D01*
X480808Y561910D01*
D02*
G37*
G36*
X314038Y538070D02*
X310802D01*
X307676Y537233D01*
X304874Y535614D01*
X302586Y533326D01*
X300968Y530524D01*
X300130Y527398D01*
Y524162D01*
X300968Y521036D01*
X302586Y518234D01*
X304874Y515946D01*
X307676Y514328D01*
X310802Y513490D01*
X314038D01*
X317164Y514328D01*
X319966Y515946D01*
X322254Y518234D01*
X323872Y521036D01*
X324710Y524162D01*
Y527398D01*
X323872Y530524D01*
X322254Y533326D01*
X319966Y535614D01*
X317164Y537233D01*
X314038Y538070D01*
D02*
G37*
G36*
X445695Y531440D02*
X443305D01*
X440995Y530821D01*
X438925Y529626D01*
X437234Y527935D01*
X436039Y525865D01*
X435420Y523555D01*
Y521165D01*
X436039Y518855D01*
X437234Y516785D01*
X438925Y515094D01*
X440995Y513899D01*
X443305Y513280D01*
X445695D01*
X448005Y513899D01*
X450075Y515094D01*
X451766Y516785D01*
X452961Y518855D01*
X453580Y521165D01*
Y523555D01*
X452961Y525865D01*
X451766Y527935D01*
X450075Y529626D01*
X448005Y530821D01*
X445695Y531440D01*
D02*
G37*
G36*
X393440Y521710D02*
X376180D01*
Y504450D01*
X393440D01*
Y521710D01*
D02*
G37*
G36*
X670485Y495100D02*
X668095D01*
X665785Y494481D01*
X663715Y493286D01*
X662024Y491595D01*
X660829Y489525D01*
X660210Y487215D01*
Y484825D01*
X660829Y482515D01*
X662024Y480445D01*
X663715Y478754D01*
X665785Y477559D01*
X668095Y476940D01*
X670485D01*
X672795Y477559D01*
X674865Y478754D01*
X676556Y480445D01*
X677751Y482515D01*
X678370Y484825D01*
Y487215D01*
X677751Y489525D01*
X676556Y491595D01*
X674865Y493286D01*
X672795Y494481D01*
X670485Y495100D01*
D02*
G37*
G36*
X636195D02*
X633805D01*
X631495Y494481D01*
X629425Y493286D01*
X627734Y491595D01*
X626539Y489525D01*
X625920Y487215D01*
Y484825D01*
X626539Y482515D01*
X627734Y480445D01*
X629425Y478754D01*
X631495Y477559D01*
X633805Y476940D01*
X636195D01*
X638505Y477559D01*
X640575Y478754D01*
X642266Y480445D01*
X643461Y482515D01*
X644080Y484825D01*
Y487215D01*
X643461Y489525D01*
X642266Y491595D01*
X640575Y493286D01*
X638505Y494481D01*
X636195Y495100D01*
D02*
G37*
G36*
X600635D02*
X598245D01*
X595935Y494481D01*
X593865Y493286D01*
X592174Y491595D01*
X590979Y489525D01*
X590360Y487215D01*
Y484825D01*
X590979Y482515D01*
X592174Y480445D01*
X593865Y478754D01*
X595935Y477559D01*
X598245Y476940D01*
X600635D01*
X602945Y477559D01*
X605015Y478754D01*
X606706Y480445D01*
X607901Y482515D01*
X608520Y484825D01*
Y487215D01*
X607901Y489525D01*
X606706Y491595D01*
X605015Y493286D01*
X602945Y494481D01*
X600635Y495100D01*
D02*
G37*
G36*
X314038Y487270D02*
X313690D01*
Y476250D01*
X324710D01*
Y476598D01*
X323872Y479724D01*
X322254Y482526D01*
X319966Y484814D01*
X317164Y486432D01*
X314038Y487270D01*
D02*
G37*
G36*
X311150D02*
X310802D01*
X307676Y486432D01*
X304874Y484814D01*
X302586Y482526D01*
X300968Y479724D01*
X300130Y476598D01*
Y476250D01*
X311150D01*
Y487270D01*
D02*
G37*
G36*
X557338Y485710D02*
X555182D01*
X553099Y485152D01*
X551231Y484074D01*
X549706Y482549D01*
X548628Y480681D01*
X548070Y478598D01*
Y476442D01*
X548628Y474359D01*
X549706Y472491D01*
X551231Y470966D01*
X553099Y469888D01*
X555182Y469330D01*
X557338D01*
X559421Y469888D01*
X561289Y470966D01*
X562814Y472491D01*
X563892Y474359D01*
X564450Y476442D01*
Y478598D01*
X563892Y480681D01*
X562814Y482549D01*
X561289Y484074D01*
X559421Y485152D01*
X557338Y485710D01*
D02*
G37*
G36*
X480808D02*
X478652D01*
X476569Y485152D01*
X474701Y484074D01*
X473176Y482549D01*
X472098Y480681D01*
X471540Y478598D01*
Y476442D01*
X472098Y474359D01*
X473176Y472491D01*
X474701Y470966D01*
X476569Y469888D01*
X478652Y469330D01*
X480808D01*
X482891Y469888D01*
X484759Y470966D01*
X486284Y472491D01*
X487362Y474359D01*
X487920Y476442D01*
Y478598D01*
X487362Y480681D01*
X486284Y482549D01*
X484759Y484074D01*
X482891Y485152D01*
X480808Y485710D01*
D02*
G37*
G36*
X324710Y473710D02*
X313690D01*
Y462690D01*
X314038D01*
X317164Y463527D01*
X319966Y465146D01*
X322254Y467434D01*
X323872Y470236D01*
X324710Y473362D01*
Y473710D01*
D02*
G37*
G36*
X311150D02*
X300130D01*
Y473362D01*
X300968Y470236D01*
X302586Y467434D01*
X304874Y465146D01*
X307676Y463527D01*
X310802Y462690D01*
X311150D01*
Y473710D01*
D02*
G37*
G36*
X385946Y470910D02*
X383674D01*
X381479Y470322D01*
X379511Y469186D01*
X377904Y467579D01*
X376768Y465611D01*
X376180Y463416D01*
Y461144D01*
X376768Y458949D01*
X377904Y456981D01*
X379511Y455374D01*
X381479Y454238D01*
X383674Y453650D01*
X385946D01*
X388141Y454238D01*
X390109Y455374D01*
X391716Y456981D01*
X392852Y458949D01*
X393440Y461144D01*
Y463416D01*
X392852Y465611D01*
X391716Y467579D01*
X390109Y469186D01*
X388141Y470322D01*
X385946Y470910D01*
D02*
G37*
G36*
X557338Y460310D02*
X555182D01*
X553099Y459752D01*
X551231Y458674D01*
X549706Y457149D01*
X548628Y455281D01*
X548070Y453198D01*
Y451042D01*
X548628Y448959D01*
X549706Y447091D01*
X551231Y445566D01*
X553099Y444488D01*
X555182Y443930D01*
X557338D01*
X559421Y444488D01*
X561289Y445566D01*
X562814Y447091D01*
X563892Y448959D01*
X564450Y451042D01*
Y453198D01*
X563892Y455281D01*
X562814Y457149D01*
X561289Y458674D01*
X559421Y459752D01*
X557338Y460310D01*
D02*
G37*
G36*
X480808D02*
X478652D01*
X476569Y459752D01*
X474701Y458674D01*
X473176Y457149D01*
X472098Y455281D01*
X471540Y453198D01*
Y451042D01*
X472098Y448959D01*
X473176Y447091D01*
X474701Y445566D01*
X476569Y444488D01*
X478652Y443930D01*
X480808D01*
X482891Y444488D01*
X484759Y445566D01*
X486284Y447091D01*
X487362Y448959D01*
X487920Y451042D01*
Y453198D01*
X487362Y455281D01*
X486284Y457149D01*
X484759Y458674D01*
X482891Y459752D01*
X480808Y460310D01*
D02*
G37*
G36*
X619785Y457225D02*
X601955D01*
Y439395D01*
X619785D01*
Y457225D01*
D02*
G37*
G36*
X557338Y434910D02*
X555182D01*
X553099Y434352D01*
X551231Y433274D01*
X549706Y431749D01*
X548628Y429881D01*
X548070Y427798D01*
Y425642D01*
X548628Y423559D01*
X549706Y421691D01*
X551231Y420166D01*
X553099Y419088D01*
X555182Y418530D01*
X557338D01*
X559421Y419088D01*
X561289Y420166D01*
X562814Y421691D01*
X563892Y423559D01*
X564450Y425642D01*
Y427798D01*
X563892Y429881D01*
X562814Y431749D01*
X561289Y433274D01*
X559421Y434352D01*
X557338Y434910D01*
D02*
G37*
G36*
X480808D02*
X478652D01*
X476569Y434352D01*
X474701Y433274D01*
X473176Y431749D01*
X472098Y429881D01*
X471540Y427798D01*
Y425642D01*
X472098Y423559D01*
X473176Y421691D01*
X474701Y420166D01*
X476569Y419088D01*
X478652Y418530D01*
X480808D01*
X482891Y419088D01*
X484759Y420166D01*
X486284Y421691D01*
X487362Y423559D01*
X487920Y425642D01*
Y427798D01*
X487362Y429881D01*
X486284Y431749D01*
X484759Y433274D01*
X482891Y434352D01*
X480808Y434910D01*
D02*
G37*
G36*
X409255Y423100D02*
X406865D01*
X404555Y422481D01*
X402485Y421286D01*
X400794Y419595D01*
X399599Y417525D01*
X398980Y415215D01*
Y412825D01*
X399599Y410515D01*
X400794Y408445D01*
X402485Y406754D01*
X404555Y405559D01*
X406865Y404940D01*
X409255D01*
X411565Y405559D01*
X413635Y406754D01*
X415326Y408445D01*
X416521Y410515D01*
X417140Y412825D01*
Y415215D01*
X416521Y417525D01*
X415326Y419595D01*
X413635Y421286D01*
X411565Y422481D01*
X409255Y423100D01*
D02*
G37*
G36*
X299255D02*
X296865D01*
X294555Y422481D01*
X292485Y421286D01*
X290794Y419595D01*
X289599Y417525D01*
X288980Y415215D01*
Y412825D01*
X289599Y410515D01*
X290794Y408445D01*
X292485Y406754D01*
X294555Y405559D01*
X296865Y404940D01*
X299255D01*
X301565Y405559D01*
X303635Y406754D01*
X305326Y408445D01*
X306521Y410515D01*
X307140Y412825D01*
Y415215D01*
X306521Y417525D01*
X305326Y419595D01*
X303635Y421286D01*
X301565Y422481D01*
X299255Y423100D01*
D02*
G37*
G36*
X445695Y421440D02*
X443305D01*
X440995Y420821D01*
X438925Y419626D01*
X437234Y417935D01*
X436039Y415865D01*
X435420Y413555D01*
Y411165D01*
X436039Y408855D01*
X437234Y406785D01*
X438925Y405094D01*
X440995Y403899D01*
X443305Y403280D01*
X445695D01*
X448005Y403899D01*
X450075Y405094D01*
X451766Y406785D01*
X452961Y408855D01*
X453580Y411165D01*
Y413555D01*
X452961Y415865D01*
X451766Y417935D01*
X450075Y419626D01*
X448005Y420821D01*
X445695Y421440D01*
D02*
G37*
G36*
X496885Y390080D02*
X494495D01*
X492185Y389461D01*
X490115Y388266D01*
X488424Y386575D01*
X487229Y384505D01*
X486610Y382195D01*
Y379805D01*
X487229Y377495D01*
X488424Y375425D01*
X490115Y373734D01*
X492185Y372539D01*
X494495Y371920D01*
X496885D01*
X499195Y372539D01*
X501265Y373734D01*
X502956Y375425D01*
X504151Y377495D01*
X504770Y379805D01*
Y382195D01*
X504151Y384505D01*
X502956Y386575D01*
X501265Y388266D01*
X499195Y389461D01*
X496885Y390080D01*
D02*
G37*
G36*
X386885D02*
X384495D01*
X382185Y389461D01*
X380115Y388266D01*
X378424Y386575D01*
X377229Y384505D01*
X376610Y382195D01*
Y379805D01*
X377229Y377495D01*
X378424Y375425D01*
X380115Y373734D01*
X382185Y372539D01*
X384495Y371920D01*
X386885D01*
X389195Y372539D01*
X391265Y373734D01*
X392956Y375425D01*
X394151Y377495D01*
X394770Y379805D01*
Y382195D01*
X394151Y384505D01*
X392956Y386575D01*
X391265Y388266D01*
X389195Y389461D01*
X386885Y390080D01*
D02*
G37*
%LPD*%
D15*
X556260Y579120D02*
D03*
Y553720D02*
D03*
Y477520D02*
D03*
Y452120D02*
D03*
Y426720D02*
D03*
X479730D02*
D03*
Y452120D02*
D03*
Y477520D02*
D03*
Y553720D02*
D03*
D16*
X384810Y462280D02*
D03*
D18*
X312420Y474980D02*
D03*
Y525780D02*
D03*
D36*
X424180Y835660D02*
D03*
X622300Y836930D02*
D03*
X746760Y311150D02*
D03*
X307340Y306070D02*
D03*
X751840Y967740D02*
D03*
X298450Y966470D02*
D03*
X621030Y933450D02*
D03*
X429260Y930910D02*
D03*
D37*
X669290Y596020D02*
D03*
Y486020D02*
D03*
X635000D02*
D03*
Y596020D02*
D03*
X599440Y486020D02*
D03*
Y596020D02*
D03*
X298060Y414020D02*
D03*
X408060D02*
D03*
X444500Y412360D02*
D03*
Y522360D02*
D03*
X495690Y381000D02*
D03*
X385690D02*
D03*
D38*
X473710Y314960D02*
D03*
X448310D02*
D03*
X571500Y316230D02*
D03*
X546100D02*
D03*
D39*
X479730Y579120D02*
D03*
D40*
X460130D02*
D03*
X350130D02*
D03*
D41*
X610870Y448310D02*
D03*
D42*
Y301310D02*
D03*
D43*
X384810Y513080D02*
D03*
D44*
X316820Y730650D02*
D03*
M02*
