G04*
G04 #@! TF.GenerationSoftware,Altium Limited,Altium Designer,26.7.1 (11)*
G04*
G04 Layer_Color=65535*
G04 Board_Origin=0|0*
%FSLAX44Y44*%
%MOMM*%
G71*
G04*
G04 #@! TF.SameCoordinates,2735CA06-2BDD-4EEA-983A-1EE108FF3C76*
G04*
G04*
G04 #@! TF.FilePolarity,Positive*
G04*
G01*
G75*
%ADD10C,0.4000*%
%ADD11C,0.2000*%
%ADD12C,0.1270*%
%ADD13C,0.1524*%
%ADD14C,0.2540*%
D10*
X295610Y466380D02*
G03*
X295610Y466380I-1000J0D01*
G01*
D11*
X385810Y540180D02*
G03*
X385810Y540180I-1000J0D01*
G01*
X317820Y763150D02*
G03*
X317820Y763150I-1000J0D01*
G01*
X376300Y766940D02*
X741300D01*
Y622440D02*
Y766940D01*
X376300Y622440D02*
X741300D01*
X376300D02*
Y766940D01*
X272610Y449380D02*
X349610D01*
Y551380D01*
X272610D02*
X349610D01*
X272610Y449380D02*
Y551380D01*
X623370Y351310D02*
Y398310D01*
X598370Y351310D02*
X623370D01*
X598370D02*
Y398310D01*
X623370D01*
X610870D02*
X623370Y385810D01*
X610870Y398310D02*
Y438430D01*
Y311190D02*
Y351310D01*
D12*
X657290Y572520D02*
X669290D01*
X657290Y509520D02*
Y572520D01*
Y509520D02*
X669290D01*
X681290D01*
Y572520D01*
X669290D02*
X681290D01*
X669290Y495760D02*
Y509520D01*
Y572520D02*
Y586280D01*
X623000Y572520D02*
X635000D01*
X623000Y509520D02*
Y572520D01*
Y509520D02*
X635000D01*
X647000D01*
Y572520D01*
X635000D02*
X647000D01*
X635000Y495760D02*
Y509520D01*
Y572520D02*
Y586280D01*
X587440Y572520D02*
X599440D01*
X587440Y509520D02*
Y572520D01*
Y509520D02*
X599440D01*
X611440D01*
Y572520D01*
X599440D02*
X611440D01*
X599440Y495760D02*
Y509520D01*
Y572520D02*
Y586280D01*
X384560Y414020D02*
Y426020D01*
X321560D02*
X384560D01*
X321560Y414020D02*
Y426020D01*
Y402020D02*
Y414020D01*
Y402020D02*
X384560D01*
Y414020D01*
X307800D02*
X321560D01*
X384560D02*
X398320D01*
X444500Y422100D02*
Y435860D01*
Y498860D02*
Y512620D01*
X432500Y435860D02*
X444500D01*
X432500D02*
Y498860D01*
X444500D01*
X456500D01*
Y435860D02*
Y498860D01*
X444500Y435860D02*
X456500D01*
X439130Y566120D02*
Y579120D01*
Y592120D01*
X371130D02*
X439130D01*
X371130Y579120D02*
Y592120D01*
Y566120D02*
Y579120D01*
Y566120D02*
X439130D01*
Y579120D02*
X450930D01*
X359330D02*
X371130D01*
X409190Y369000D02*
Y381000D01*
Y369000D02*
X472190D01*
Y381000D01*
Y393000D01*
X409190D02*
X472190D01*
X409190Y381000D02*
Y393000D01*
X472190Y381000D02*
X485950D01*
X395430D02*
X409190D01*
X360710Y440030D02*
Y535330D01*
X409010D01*
X360710Y440030D02*
X409010D01*
Y535330D01*
X274320Y605650D02*
X356820D01*
Y755650D01*
X274320D02*
X356820D01*
X274320Y605650D02*
Y755650D01*
D13*
X434340Y284480D02*
X487680D01*
Y344932D01*
X434340D02*
X487680D01*
X434340Y284480D02*
Y344932D01*
X532130Y285750D02*
X585470D01*
Y346202D01*
X532130D02*
X585470D01*
X532130Y285750D02*
Y346202D01*
D14*
X355602Y775969D02*
X360680D01*
X358141D01*
Y768351D01*
X363219D02*
X365758D01*
X364489D01*
Y775969D01*
X363219Y774699D01*
X688342Y488951D02*
Y496569D01*
X692151D01*
X693420Y495299D01*
Y492760D01*
X692151Y491490D01*
X688342D01*
X690881D02*
X693420Y488951D01*
X695960Y496569D02*
X701038D01*
Y495299D01*
X695960Y490221D01*
Y488951D01*
X624842Y609601D02*
Y617219D01*
X628651D01*
X629920Y615949D01*
Y613410D01*
X628651Y612140D01*
X624842D01*
X627381D02*
X629920Y609601D01*
X637538Y617219D02*
X634999Y615949D01*
X632460Y613410D01*
Y610871D01*
X633729Y609601D01*
X636268D01*
X637538Y610871D01*
Y612140D01*
X636268Y613410D01*
X632460D01*
X589282Y608331D02*
Y615949D01*
X593091D01*
X594360Y614679D01*
Y612140D01*
X593091Y610870D01*
X589282D01*
X591821D02*
X594360Y608331D01*
X601978Y615949D02*
X596900D01*
Y612140D01*
X599439Y613410D01*
X600708D01*
X601978Y612140D01*
Y609601D01*
X600708Y608331D01*
X598169D01*
X596900Y609601D01*
X289562Y434341D02*
Y441959D01*
X293371D01*
X294640Y440689D01*
Y438150D01*
X293371Y436880D01*
X289562D01*
X292101D02*
X294640Y434341D01*
X300988D02*
Y441959D01*
X297180Y438150D01*
X302258D01*
X414022Y516891D02*
Y524509D01*
X417831D01*
X419100Y523239D01*
Y520700D01*
X417831Y519430D01*
X414022D01*
X416561D02*
X419100Y516891D01*
X421640Y523239D02*
X422909Y524509D01*
X425448D01*
X426718Y523239D01*
Y521970D01*
X425448Y520700D01*
X424179D01*
X425448D01*
X426718Y519430D01*
Y518161D01*
X425448Y516891D01*
X422909D01*
X421640Y518161D01*
X447042Y596901D02*
Y604519D01*
X450851D01*
X452120Y603249D01*
Y600710D01*
X450851Y599440D01*
X447042D01*
X449581D02*
X452120Y596901D01*
X459738D02*
X454660D01*
X459738Y601980D01*
Y603249D01*
X458468Y604519D01*
X455929D01*
X454660Y603249D01*
X510542Y383541D02*
Y391159D01*
X514350D01*
X515620Y389889D01*
Y387350D01*
X514350Y386080D01*
X510542D01*
X513081D02*
X515620Y383541D01*
X518159D02*
X520698D01*
X519429D01*
Y391159D01*
X518159Y389889D01*
X483870Y605791D02*
Y610869D01*
X482600Y612139D01*
X480061D01*
X478792Y610869D01*
Y605791D01*
X480061Y604521D01*
X482600D01*
X481331Y607060D02*
X483870Y604521D01*
X482600D02*
X483870Y605791D01*
X486409Y604521D02*
X488948D01*
X487679D01*
Y612139D01*
X486409Y610869D01*
X361952Y543561D02*
Y551179D01*
X365761D01*
X367030Y549909D01*
Y547370D01*
X365761Y546100D01*
X361952D01*
X374648Y551179D02*
X369570D01*
Y547370D01*
X372109Y548640D01*
X373378D01*
X374648Y547370D01*
Y544831D01*
X373378Y543561D01*
X370839D01*
X369570Y544831D01*
X530862Y354331D02*
Y361949D01*
X534671D01*
X535940Y360679D01*
Y358140D01*
X534671Y356870D01*
X530862D01*
X542288Y354331D02*
Y361949D01*
X538480Y358140D01*
X543558D01*
X414022Y313691D02*
Y321309D01*
X417831D01*
X419100Y320039D01*
Y317500D01*
X417831Y316230D01*
X414022D01*
X421640Y320039D02*
X422909Y321309D01*
X425448D01*
X426718Y320039D01*
Y318770D01*
X425448Y317500D01*
X424179D01*
X425448D01*
X426718Y316230D01*
Y314961D01*
X425448Y313691D01*
X422909D01*
X421640Y314961D01*
X274322Y556261D02*
Y563879D01*
X278131D01*
X279400Y562609D01*
Y560070D01*
X278131Y558800D01*
X274322D01*
X287018Y556261D02*
X281940D01*
X287018Y561340D01*
Y562609D01*
X285748Y563879D01*
X283209D01*
X281940Y562609D01*
X266700Y772668D02*
Y780285D01*
X270509D01*
X271778Y779016D01*
Y776477D01*
X270509Y775207D01*
X266700D01*
X274317Y772668D02*
X276857D01*
X275587D01*
Y780285D01*
X274317Y779016D01*
X629922Y316229D02*
Y308611D01*
X633730D01*
X635000Y309881D01*
Y314959D01*
X633730Y316229D01*
X629922D01*
X637539Y308611D02*
X640078D01*
X638809D01*
Y316229D01*
X637539Y314959D01*
M02*
