G04*
G04 #@! TF.GenerationSoftware,Altium Limited,Altium Designer,26.7.1 (11)*
G04*
G04 Layer_Color=16711935*
G04 Board_Origin=0|0*
%FSLAX44Y44*%
%MOMM*%
G71*
G04*
G04 #@! TF.SameCoordinates,91F61A95-6D93-4491-96FC-901552ECB029*
G04*
G04*
G04 #@! TF.FilePolarity,Negative*
G04*
G01*
G75*
%ADD15C,1.3080*%
%ADD17C,1.2180*%
%ADD18C,1.1300*%
%ADD19C,1.9500*%
%ADD22C,1.9566*%
%ADD23C,1.5240*%
%ADD24R,1.2180X1.2180*%
%ADD25R,1.1300X1.1300*%
%ADD26C,1.2000*%
%ADD27R,1.2750X1.2750*%
%ADD28C,1.2750*%
%ADD29C,1.2700*%
%ADD31R,1.9500X1.9500*%
D15*
X632460Y648580D02*
D03*
X1089660Y646040D02*
D03*
X1610360Y684140D02*
D03*
X729370Y805180D02*
D03*
X619370D02*
D03*
X1539240Y713350D02*
D03*
Y823350D02*
D03*
X1336920Y562610D02*
D03*
X1186570Y801370D02*
D03*
X1076570D02*
D03*
X1404620Y649850D02*
D03*
Y759850D02*
D03*
X1264530Y636270D02*
D03*
X1374530D02*
D03*
X909320Y609210D02*
D03*
Y719210D02*
D03*
X955040Y646040D02*
D03*
Y756040D02*
D03*
X664210Y758580D02*
D03*
Y648580D02*
D03*
X632460Y758580D02*
D03*
X379340Y610870D02*
D03*
X489340D02*
D03*
X407280Y574040D02*
D03*
X488950Y638420D02*
D03*
Y748420D02*
D03*
X863210Y576580D02*
D03*
X1573530Y794140D02*
D03*
Y684140D02*
D03*
X1125220Y756040D02*
D03*
Y646040D02*
D03*
X1610360Y794140D02*
D03*
X1089660Y756040D02*
D03*
D17*
X1263650Y745490D02*
D03*
X830580Y756920D02*
D03*
X398780Y678180D02*
D03*
D18*
X1060450Y781050D02*
D03*
Y755650D02*
D03*
Y730250D02*
D03*
Y704850D02*
D03*
Y679450D02*
D03*
Y654050D02*
D03*
Y628650D02*
D03*
X983920D02*
D03*
Y654050D02*
D03*
Y679450D02*
D03*
Y704850D02*
D03*
Y730250D02*
D03*
Y755650D02*
D03*
X604520Y784860D02*
D03*
Y759460D02*
D03*
Y708660D02*
D03*
Y683260D02*
D03*
Y657860D02*
D03*
Y632460D02*
D03*
X527990D02*
D03*
Y657860D02*
D03*
Y683260D02*
D03*
Y759460D02*
D03*
X1511300Y784860D02*
D03*
Y759460D02*
D03*
Y734060D02*
D03*
Y708660D02*
D03*
Y683260D02*
D03*
Y657860D02*
D03*
Y632460D02*
D03*
X1434770D02*
D03*
Y657860D02*
D03*
Y683260D02*
D03*
Y708660D02*
D03*
Y734060D02*
D03*
Y759460D02*
D03*
D19*
X321310Y636270D02*
D03*
D22*
X622300Y497840D02*
D03*
X528320D02*
D03*
X1526540Y496570D02*
D03*
X1422400Y495300D02*
D03*
X1085850Y496570D02*
D03*
X988060D02*
D03*
D23*
X1544320Y1061720D02*
D03*
X1352550Y1064260D02*
D03*
X1106170Y1066800D02*
D03*
X911860Y1068070D02*
D03*
X678180D02*
D03*
X483870D02*
D03*
X1348740Y1162050D02*
D03*
X1540510Y1159510D02*
D03*
X910590Y1164590D02*
D03*
X1101090D02*
D03*
X1680210Y482600D02*
D03*
X308610Y471170D02*
D03*
X1696720Y1207770D02*
D03*
X314960Y1203960D02*
D03*
X671830Y1165860D02*
D03*
X482600Y1163320D02*
D03*
D24*
X1263650Y796290D02*
D03*
X830580Y807720D02*
D03*
X398780Y728980D02*
D03*
D25*
X983920Y781050D02*
D03*
X527990Y784860D02*
D03*
X1434770D02*
D03*
D26*
X508390D02*
D03*
X398390D02*
D03*
X1417710Y810260D02*
D03*
X1307710D02*
D03*
X870830Y819150D02*
D03*
X980830D02*
D03*
D27*
X1132840Y626110D02*
D03*
X664210Y613410D02*
D03*
X1565910Y631190D02*
D03*
D28*
X1132840Y479110D02*
D03*
X664210Y466410D02*
D03*
X1565910Y484190D02*
D03*
D29*
X1188720Y689610D02*
D03*
X1146810Y779780D02*
D03*
X1328420Y537210D02*
D03*
X1263650D02*
D03*
X1209040Y730250D02*
D03*
X1207770Y797560D02*
D03*
X1275080Y708660D02*
D03*
X1220470Y773430D02*
D03*
X951230Y549910D02*
D03*
X897890D02*
D03*
X803910Y721360D02*
D03*
Y850900D02*
D03*
X791210Y777240D02*
D03*
Y802640D02*
D03*
X698500Y681990D02*
D03*
X689610Y781050D02*
D03*
X713740Y695960D02*
D03*
X1404620Y894080D02*
D03*
X1363980D02*
D03*
X971550Y892810D02*
D03*
X920750D02*
D03*
X773430Y781050D02*
D03*
X713740Y759460D02*
D03*
D31*
X318770Y882320D02*
D03*
M02*
