G04*
G04 #@! TF.GenerationSoftware,Altium Limited,Altium Designer,26.7.1 (11)*
G04*
G04 Layer_Color=8421504*
G04 Board_Origin=0|0*
%FSLAX44Y44*%
%MOMM*%
G71*
G04*
G04 #@! TF.SameCoordinates,91F61A95-6D93-4491-96FC-901552ECB029*
G04*
G04*
G04 #@! TF.FilePolarity,Positive*
G04*
G01*
G75*
%ADD15C,1.3080*%
%ADD16C,1.7526*%
%ADD17C,1.2180*%
%ADD18C,1.1300*%
%ADD19C,1.9500*%
%ADD20C,1.5000*%
%ADD21R,1.5000X1.5000*%
D15*
X1446920Y562610D02*
D03*
X973210Y576580D02*
D03*
X517280Y574040D02*
D03*
D16*
X1501140Y496570D02*
D03*
X1397000Y495300D02*
D03*
X1060450Y496570D02*
D03*
X962660D02*
D03*
X502920Y497840D02*
D03*
X596900D02*
D03*
D17*
X1263650Y770890D02*
D03*
X398780Y703580D02*
D03*
X830580Y782320D02*
D03*
D18*
X604520Y734060D02*
D03*
X527990Y708660D02*
D03*
Y734060D02*
D03*
D19*
X321310Y687070D02*
D03*
X318770Y782320D02*
D03*
Y832320D02*
D03*
D20*
X1593850Y920750D02*
D03*
X1365250D02*
D03*
X1154430Y921150D02*
D03*
X925830D02*
D03*
X718820Y919880D02*
D03*
X490220D02*
D03*
D21*
X1314450Y920750D02*
D03*
X875030Y921150D02*
D03*
X439420Y919880D02*
D03*
M02*
