G04*
G04 #@! TF.GenerationSoftware,Altium Limited,Altium Designer,26.7.1 (11)*
G04*
G04 Layer_Color=65535*
G04 Board_Origin=0|0*
%FSLAX44Y44*%
%MOMM*%
G71*
G04*
G04 #@! TF.SameCoordinates,91F61A95-6D93-4491-96FC-901552ECB029*
G04*
G04*
G04 #@! TF.FilePolarity,Positive*
G04*
G01*
G75*
%ADD10C,0.2000*%
%ADD11C,0.4000*%
%ADD12C,0.1270*%
%ADD13C,0.1524*%
%ADD14C,0.2540*%
D10*
X1264650Y823390D02*
G03*
X1264650Y823390I-1000J0D01*
G01*
X831580Y834820D02*
G03*
X831580Y834820I-1000J0D01*
G01*
X399780Y756080D02*
G03*
X399780Y756080I-1000J0D01*
G01*
X319770Y914820D02*
G03*
X319770Y914820I-1000J0D01*
G01*
X1145340Y529110D02*
Y576110D01*
X1120340Y529110D02*
X1145340D01*
X1120340D02*
Y576110D01*
X1145340D01*
X1132840D02*
X1145340Y563610D01*
X1132840Y576110D02*
Y616230D01*
Y488990D02*
Y529110D01*
X676710Y516410D02*
Y563410D01*
X651710Y516410D02*
X676710D01*
X651710D02*
Y563410D01*
X676710D01*
X664210D02*
X676710Y550910D01*
X664210Y563410D02*
Y603530D01*
Y476290D02*
Y516410D01*
X281500Y610670D02*
X358500D01*
Y712670D01*
X281500D02*
X358500D01*
X281500Y610670D02*
Y712670D01*
X1271650Y986250D02*
X1636650D01*
Y841750D02*
Y986250D01*
X1271650Y841750D02*
X1636650D01*
X1271650D02*
Y986250D01*
X832230Y986650D02*
X1197230D01*
Y842150D02*
Y986650D01*
X832230Y842150D02*
X1197230D01*
X832230D02*
Y986650D01*
X396620Y985380D02*
X761620D01*
Y840880D02*
Y985380D01*
X396620Y840880D02*
X761620D01*
X396620D02*
Y985380D01*
X1578410Y534190D02*
Y581190D01*
X1553410Y534190D02*
X1578410D01*
X1553410D02*
Y581190D01*
X1578410D01*
X1565910D02*
X1578410Y568690D01*
X1565910Y581190D02*
Y621310D01*
Y494070D02*
Y534190D01*
D11*
X304500Y627670D02*
G03*
X304500Y627670I-1000J0D01*
G01*
D12*
X1239550Y723240D02*
Y818540D01*
X1287850D01*
X1239550Y723240D02*
X1287850D01*
Y818540D01*
X642870Y793180D02*
Y805180D01*
Y793180D02*
X705870D01*
Y805180D01*
Y817180D01*
X642870D02*
X705870D01*
X642870Y805180D02*
Y817180D01*
X705870Y805180D02*
X719630D01*
X629110D02*
X642870D01*
X487390Y771860D02*
Y784860D01*
Y797860D01*
X419390D02*
X487390D01*
X419390Y784860D02*
Y797860D01*
Y771860D02*
Y784860D01*
Y771860D02*
X487390D01*
Y784860D02*
X499190D01*
X407590D02*
X419390D01*
X1527240Y799850D02*
X1539240D01*
X1527240Y736850D02*
Y799850D01*
Y736850D02*
X1539240D01*
X1551240D01*
Y799850D01*
X1539240D02*
X1551240D01*
X1539240Y723090D02*
Y736850D01*
Y799850D02*
Y813610D01*
X1360420Y550610D02*
Y562610D01*
Y550610D02*
X1423420D01*
Y562610D01*
Y574610D01*
X1360420D02*
X1423420D01*
X1360420Y562610D02*
Y574610D01*
X1423420Y562610D02*
X1437180D01*
X1346660D02*
X1360420D01*
X1100070Y789370D02*
Y801370D01*
Y789370D02*
X1163070D01*
Y801370D01*
Y813370D01*
X1100070D02*
X1163070D01*
X1100070Y801370D02*
Y813370D01*
X1163070Y801370D02*
X1176830D01*
X1086310D02*
X1100070D01*
X1404620Y659590D02*
Y673350D01*
Y736350D02*
Y750110D01*
X1392620Y673350D02*
X1404620D01*
X1392620D02*
Y736350D01*
X1404620D01*
X1416620D01*
Y673350D02*
Y736350D01*
X1404620Y673350D02*
X1416620D01*
X1351030Y636270D02*
Y648270D01*
X1288030D02*
X1351030D01*
X1288030Y636270D02*
Y648270D01*
Y624270D02*
Y636270D01*
Y624270D02*
X1351030D01*
Y636270D01*
X1274270D02*
X1288030D01*
X1351030D02*
X1364790D01*
X1396710Y797260D02*
Y810260D01*
Y823260D01*
X1328710D02*
X1396710D01*
X1328710Y810260D02*
Y823260D01*
Y797260D02*
Y810260D01*
Y797260D02*
X1396710D01*
Y810260D02*
X1408510D01*
X1316910D02*
X1328710D01*
X897320Y695710D02*
X909320D01*
X897320Y632710D02*
Y695710D01*
Y632710D02*
X909320D01*
X921320D01*
Y695710D01*
X909320D02*
X921320D01*
X909320Y618950D02*
Y632710D01*
Y695710D02*
Y709470D01*
X955040Y655780D02*
Y669540D01*
Y732540D02*
Y746300D01*
X943040Y669540D02*
X955040D01*
X943040D02*
Y732540D01*
X955040D01*
X967040D01*
Y669540D02*
Y732540D01*
X955040Y669540D02*
X967040D01*
X891830Y819150D02*
Y832150D01*
Y806150D02*
Y819150D01*
Y806150D02*
X959830D01*
Y819150D01*
Y832150D01*
X891830D02*
X959830D01*
X880030Y819150D02*
X891830D01*
X959830D02*
X971630D01*
X806480Y734670D02*
Y829970D01*
X854780D01*
X806480Y734670D02*
X854780D01*
Y829970D01*
X664210Y672080D02*
X676210D01*
Y735080D01*
X664210D02*
X676210D01*
X652210D02*
X664210D01*
X652210Y672080D02*
Y735080D01*
Y672080D02*
X664210D01*
Y735080D02*
Y748840D01*
Y658320D02*
Y672080D01*
X632460D02*
X644460D01*
Y735080D01*
X632460D02*
X644460D01*
X620460D02*
X632460D01*
X620460Y672080D02*
Y735080D01*
Y672080D02*
X632460D01*
Y735080D02*
Y748840D01*
Y658320D02*
Y672080D01*
X465840Y610870D02*
Y622870D01*
X402840D02*
X465840D01*
X402840Y610870D02*
Y622870D01*
Y598870D02*
Y610870D01*
Y598870D02*
X465840D01*
Y610870D01*
X389080D02*
X402840D01*
X465840D02*
X479600D01*
X430780Y562040D02*
Y574040D01*
Y562040D02*
X493780D01*
Y574040D01*
Y586040D01*
X430780D02*
X493780D01*
X430780Y574040D02*
Y586040D01*
X493780Y574040D02*
X507540D01*
X417020D02*
X430780D01*
X488950Y648160D02*
Y661920D01*
Y724920D02*
Y738680D01*
X476950Y661920D02*
X488950D01*
X476950D02*
Y724920D01*
X488950D01*
X500950D01*
Y661920D02*
Y724920D01*
X488950Y661920D02*
X500950D01*
X374680Y655930D02*
Y751230D01*
X422980D01*
X374680Y655930D02*
X422980D01*
Y751230D01*
X276270Y757320D02*
X358770D01*
Y907320D01*
X276270D02*
X358770D01*
X276270Y757320D02*
Y907320D01*
X886710Y564580D02*
Y576580D01*
Y564580D02*
X949710D01*
Y576580D01*
Y588580D01*
X886710D02*
X949710D01*
X886710Y576580D02*
Y588580D01*
X949710Y576580D02*
X963470D01*
X872950D02*
X886710D01*
X1573530Y707640D02*
X1585530D01*
Y770640D01*
X1573530D02*
X1585530D01*
X1561530D02*
X1573530D01*
X1561530Y707640D02*
Y770640D01*
Y707640D02*
X1573530D01*
Y770640D02*
Y784400D01*
Y693880D02*
Y707640D01*
X1125220Y669540D02*
X1137220D01*
Y732540D01*
X1125220D02*
X1137220D01*
X1113220D02*
X1125220D01*
X1113220Y669540D02*
Y732540D01*
Y669540D02*
X1125220D01*
Y732540D02*
Y746300D01*
Y655780D02*
Y669540D01*
X1610360Y707640D02*
X1622360D01*
Y770640D01*
X1610360D02*
X1622360D01*
X1598360D02*
X1610360D01*
X1598360Y707640D02*
Y770640D01*
Y707640D02*
X1610360D01*
Y770640D02*
Y784400D01*
Y693880D02*
Y707640D01*
X1089660Y669540D02*
X1101660D01*
Y732540D01*
X1089660D02*
X1101660D01*
X1077660D02*
X1089660D01*
X1077660Y669540D02*
Y732540D01*
Y669540D02*
X1089660D01*
Y732540D02*
Y746300D01*
Y655780D02*
Y669540D01*
D13*
X582930Y467360D02*
X636270D01*
Y527812D01*
X582930D02*
X636270D01*
X582930Y467360D02*
Y527812D01*
X488950Y467360D02*
X542290D01*
Y527812D01*
X488950D02*
X542290D01*
X488950Y467360D02*
Y527812D01*
X1487170Y466090D02*
X1540510D01*
Y526542D01*
X1487170D02*
X1540510D01*
X1487170Y466090D02*
Y526542D01*
X1383030Y464820D02*
X1436370D01*
Y525272D01*
X1383030D02*
X1436370D01*
X1383030Y464820D02*
Y525272D01*
X1046480Y466090D02*
X1099820D01*
Y526542D01*
X1046480D02*
X1099820D01*
X1046480Y466090D02*
Y526542D01*
X948690Y466090D02*
X1002030D01*
Y526542D01*
X948690D02*
X1002030D01*
X948690Y466090D02*
Y526542D01*
D14*
X529842Y816610D02*
Y821688D01*
X528573Y822958D01*
X526034D01*
X524764Y821688D01*
Y816610D01*
X526034Y815340D01*
X528573D01*
X527303Y817879D02*
X529842Y815340D01*
X528573D02*
X529842Y816610D01*
X532382Y821688D02*
X533651Y822958D01*
X536190D01*
X537460Y821688D01*
Y820418D01*
X536190Y819149D01*
X534921D01*
X536190D01*
X537460Y817879D01*
Y816610D01*
X536190Y815340D01*
X533651D01*
X532382Y816610D01*
X832104Y1004821D02*
X837182D01*
X834643D01*
Y997204D01*
X843530D02*
Y1004821D01*
X839722Y1001013D01*
X844800D01*
X396494Y1003551D02*
X401572D01*
X399033D01*
Y995934D01*
X404112Y1002282D02*
X405381Y1003551D01*
X407920D01*
X409190Y1002282D01*
Y1001012D01*
X407920Y999743D01*
X406651D01*
X407920D01*
X409190Y998473D01*
Y997204D01*
X407920Y995934D01*
X405381D01*
X404112Y997204D01*
X1271524Y1004567D02*
X1276602D01*
X1274063D01*
Y996950D01*
X1284220D02*
X1279141D01*
X1284220Y1002028D01*
Y1003298D01*
X1282950Y1004567D01*
X1280411D01*
X1279141Y1003298D01*
X889003Y732791D02*
Y740409D01*
X892812D01*
X894082Y739139D01*
Y736600D01*
X892812Y735330D01*
X889003D01*
X891543D02*
X894082Y732791D01*
X901699D02*
X896621D01*
X901699Y737870D01*
Y739139D01*
X900430Y740409D01*
X897890D01*
X896621Y739139D01*
X904238D02*
X905508Y740409D01*
X908047D01*
X909317Y739139D01*
Y737870D01*
X908047Y736600D01*
X909317Y735330D01*
Y734061D01*
X908047Y732791D01*
X905508D01*
X904238Y734061D01*
Y735330D01*
X905508Y736600D01*
X904238Y737870D01*
Y739139D01*
X905508Y736600D02*
X908047D01*
X509273Y544831D02*
Y552449D01*
X513082D01*
X514352Y551179D01*
Y548640D01*
X513082Y547370D01*
X509273D01*
X511813D02*
X514352Y544831D01*
X521969D02*
X516891D01*
X521969Y549910D01*
Y551179D01*
X520700Y552449D01*
X518160D01*
X516891Y551179D01*
X524508Y552449D02*
X529587D01*
Y551179D01*
X524508Y546101D01*
Y544831D01*
X1336043Y655321D02*
Y662939D01*
X1339852D01*
X1341122Y661669D01*
Y659130D01*
X1339852Y657860D01*
X1336043D01*
X1338582D02*
X1341122Y655321D01*
X1348739D02*
X1343661D01*
X1348739Y660400D01*
Y661669D01*
X1347470Y662939D01*
X1344930D01*
X1343661Y661669D01*
X1356357Y662939D02*
X1353818Y661669D01*
X1351278Y659130D01*
Y656591D01*
X1352548Y655321D01*
X1355087D01*
X1356357Y656591D01*
Y657860D01*
X1355087Y659130D01*
X1351278D01*
X1077468Y772922D02*
Y780539D01*
X1081277D01*
X1082546Y779270D01*
Y776731D01*
X1081277Y775461D01*
X1077468D01*
X1080007D02*
X1082546Y772922D01*
X1090164D02*
X1085086D01*
X1090164Y778000D01*
Y779270D01*
X1088894Y780539D01*
X1086355D01*
X1085086Y779270D01*
X1097781Y780539D02*
X1092703D01*
Y776731D01*
X1095242Y778000D01*
X1096512D01*
X1097781Y776731D01*
Y774192D01*
X1096512Y772922D01*
X1093973D01*
X1092703Y774192D01*
X937259Y731523D02*
X929641D01*
Y735332D01*
X930911Y736602D01*
X933450D01*
X934720Y735332D01*
Y731523D01*
Y734062D02*
X937259Y736602D01*
Y744219D02*
Y739141D01*
X932180Y744219D01*
X930911D01*
X929641Y742950D01*
Y740410D01*
X930911Y739141D01*
X937259Y750567D02*
X929641D01*
X933450Y746758D01*
Y751837D01*
X622303Y772161D02*
Y779779D01*
X626112D01*
X627382Y778509D01*
Y775970D01*
X626112Y774700D01*
X622303D01*
X624842D02*
X627382Y772161D01*
X634999D02*
X629921D01*
X634999Y777240D01*
Y778509D01*
X633730Y779779D01*
X631190D01*
X629921Y778509D01*
X637538D02*
X638808Y779779D01*
X641347D01*
X642617Y778509D01*
Y777240D01*
X641347Y775970D01*
X640078D01*
X641347D01*
X642617Y774700D01*
Y773431D01*
X641347Y772161D01*
X638808D01*
X637538Y773431D01*
X467359Y633733D02*
X459741D01*
Y637542D01*
X461011Y638812D01*
X463550D01*
X464820Y637542D01*
Y633733D01*
Y636273D02*
X467359Y638812D01*
Y646429D02*
Y641351D01*
X462280Y646429D01*
X461011D01*
X459741Y645160D01*
Y642620D01*
X461011Y641351D01*
X467359Y654047D02*
Y648968D01*
X462280Y654047D01*
X461011D01*
X459741Y652777D01*
Y650238D01*
X461011Y648968D01*
X1598168Y811022D02*
Y818640D01*
X1601977D01*
X1603246Y817370D01*
Y814831D01*
X1601977Y813561D01*
X1598168D01*
X1600707D02*
X1603246Y811022D01*
X1610864D02*
X1605786D01*
X1610864Y816100D01*
Y817370D01*
X1609594Y818640D01*
X1607055D01*
X1605786Y817370D01*
X1613403Y811022D02*
X1615942D01*
X1614673D01*
Y818640D01*
X1613403Y817370D01*
X1366523Y758191D02*
Y765809D01*
X1370332D01*
X1371602Y764539D01*
Y762000D01*
X1370332Y760730D01*
X1366523D01*
X1369062D02*
X1371602Y758191D01*
X1379219D02*
X1374141D01*
X1379219Y763270D01*
Y764539D01*
X1377950Y765809D01*
X1375410D01*
X1374141Y764539D01*
X1381758D02*
X1383028Y765809D01*
X1385567D01*
X1386837Y764539D01*
Y759461D01*
X1385567Y758191D01*
X1383028D01*
X1381758Y759461D01*
Y764539D01*
X1113028Y772922D02*
Y780539D01*
X1116837D01*
X1118106Y779270D01*
Y776731D01*
X1116837Y775461D01*
X1113028D01*
X1115567D02*
X1118106Y772922D01*
X1120646D02*
X1123185D01*
X1121915D01*
Y780539D01*
X1120646Y779270D01*
X1126993Y774192D02*
X1128263Y772922D01*
X1130802D01*
X1132072Y774192D01*
Y779270D01*
X1130802Y780539D01*
X1128263D01*
X1126993Y779270D01*
Y778000D01*
X1128263Y776731D01*
X1132072D01*
X922019Y776608D02*
X914401D01*
Y780417D01*
X915671Y781686D01*
X918210D01*
X919480Y780417D01*
Y776608D01*
Y779147D02*
X922019Y781686D01*
Y784226D02*
Y786765D01*
Y785495D01*
X914401D01*
X915671Y784226D01*
Y790574D02*
X914401Y791843D01*
Y794382D01*
X915671Y795652D01*
X916940D01*
X918210Y794382D01*
X919480Y795652D01*
X920749D01*
X922019Y794382D01*
Y791843D01*
X920749Y790574D01*
X919480D01*
X918210Y791843D01*
X916940Y790574D01*
X915671D01*
X918210Y791843D02*
Y794382D01*
X649608Y773431D02*
Y781049D01*
X653417D01*
X654686Y779779D01*
Y777240D01*
X653417Y775970D01*
X649608D01*
X652147D02*
X654686Y773431D01*
X657226D02*
X659765D01*
X658495D01*
Y781049D01*
X657226Y779779D01*
X663574Y781049D02*
X668652D01*
Y779779D01*
X663574Y774701D01*
Y773431D01*
X502288Y805181D02*
Y812799D01*
X506097D01*
X507366Y811529D01*
Y808990D01*
X506097Y807720D01*
X502288D01*
X504827D02*
X507366Y805181D01*
X509906D02*
X512445D01*
X511175D01*
Y812799D01*
X509906Y811529D01*
X521332Y812799D02*
X518793Y811529D01*
X516254Y808990D01*
Y806451D01*
X517523Y805181D01*
X520062D01*
X521332Y806451D01*
Y807720D01*
X520062Y808990D01*
X516254D01*
X1561338Y811022D02*
Y818640D01*
X1565147D01*
X1566416Y817370D01*
Y814831D01*
X1565147Y813561D01*
X1561338D01*
X1563877D02*
X1566416Y811022D01*
X1568956D02*
X1571495D01*
X1570225D01*
Y818640D01*
X1568956Y817370D01*
X1580382Y818640D02*
X1575303D01*
Y814831D01*
X1577843Y816100D01*
X1579112D01*
X1580382Y814831D01*
Y812292D01*
X1579112Y811022D01*
X1576573D01*
X1575303Y812292D01*
X1301118Y826771D02*
Y834389D01*
X1304927D01*
X1306196Y833119D01*
Y830580D01*
X1304927Y829310D01*
X1301118D01*
X1303657D02*
X1306196Y826771D01*
X1308736D02*
X1311275D01*
X1310005D01*
Y834389D01*
X1308736Y833119D01*
X1318892Y826771D02*
Y834389D01*
X1315084Y830580D01*
X1320162D01*
X1081408Y820421D02*
Y828039D01*
X1085217D01*
X1086486Y826769D01*
Y824230D01*
X1085217Y822960D01*
X1081408D01*
X1083947D02*
X1086486Y820421D01*
X1089026D02*
X1091565D01*
X1090295D01*
Y828039D01*
X1089026Y826769D01*
X1095374D02*
X1096643Y828039D01*
X1099182D01*
X1100452Y826769D01*
Y825500D01*
X1099182Y824230D01*
X1097913D01*
X1099182D01*
X1100452Y822960D01*
Y821691D01*
X1099182Y820421D01*
X1096643D01*
X1095374Y821691D01*
X856488Y598932D02*
Y606549D01*
X860297D01*
X861566Y605280D01*
Y602741D01*
X860297Y601471D01*
X856488D01*
X859027D02*
X861566Y598932D01*
X864106D02*
X866645D01*
X865375D01*
Y606549D01*
X864106Y605280D01*
X875532Y598932D02*
X870453D01*
X875532Y604010D01*
Y605280D01*
X874262Y606549D01*
X871723D01*
X870453Y605280D01*
X635638Y826771D02*
Y834389D01*
X639446D01*
X640716Y833119D01*
Y830580D01*
X639446Y829310D01*
X635638D01*
X638177D02*
X640716Y826771D01*
X643255D02*
X645794D01*
X644525D01*
Y834389D01*
X643255Y833119D01*
X649603Y826771D02*
X652142D01*
X650873D01*
Y834389D01*
X649603Y833119D01*
X374018Y571501D02*
Y579119D01*
X377827D01*
X379096Y577849D01*
Y575310D01*
X377827Y574040D01*
X374018D01*
X376557D02*
X379096Y571501D01*
X381636D02*
X384175D01*
X382905D01*
Y579119D01*
X381636Y577849D01*
X387984D02*
X389253Y579119D01*
X391792D01*
X393062Y577849D01*
Y572771D01*
X391792Y571501D01*
X389253D01*
X387984Y572771D01*
Y577849D01*
X1499872Y821691D02*
Y829309D01*
X1503681D01*
X1504950Y828039D01*
Y825500D01*
X1503681Y824230D01*
X1499872D01*
X1502411D02*
X1504950Y821691D01*
X1507490Y822961D02*
X1508759Y821691D01*
X1511298D01*
X1512568Y822961D01*
Y828039D01*
X1511298Y829309D01*
X1508759D01*
X1507490Y828039D01*
Y826770D01*
X1508759Y825500D01*
X1512568D01*
X1311912Y562611D02*
Y570229D01*
X1315721D01*
X1316990Y568959D01*
Y566420D01*
X1315721Y565150D01*
X1311912D01*
X1314451D02*
X1316990Y562611D01*
X1319530Y568959D02*
X1320799Y570229D01*
X1323338D01*
X1324608Y568959D01*
Y567690D01*
X1323338Y566420D01*
X1324608Y565150D01*
Y563881D01*
X1323338Y562611D01*
X1320799D01*
X1319530Y563881D01*
Y565150D01*
X1320799Y566420D01*
X1319530Y567690D01*
Y568959D01*
X1320799Y566420D02*
X1323338D01*
X1009650Y810261D02*
Y815339D01*
X1008381Y816609D01*
X1005842D01*
X1004572Y815339D01*
Y810261D01*
X1005842Y808991D01*
X1008381D01*
X1007111Y811530D02*
X1009650Y808991D01*
X1008381D02*
X1009650Y810261D01*
X1015998Y808991D02*
Y816609D01*
X1012190Y812800D01*
X1017268D01*
X1436622Y816610D02*
Y821688D01*
X1435353Y822958D01*
X1432814D01*
X1431544Y821688D01*
Y816610D01*
X1432814Y815340D01*
X1435353D01*
X1434083Y817879D02*
X1436622Y815340D01*
X1435353D02*
X1436622Y816610D01*
X1444240Y815340D02*
X1439162D01*
X1444240Y820418D01*
Y821688D01*
X1442970Y822958D01*
X1440431D01*
X1439162Y821688D01*
X1048258Y534924D02*
Y542542D01*
X1052067D01*
X1053336Y541272D01*
Y538733D01*
X1052067Y537463D01*
X1048258D01*
X1055875Y534924D02*
X1058415D01*
X1057145D01*
Y542542D01*
X1055875Y541272D01*
X1067302Y542542D02*
X1064763Y541272D01*
X1062224Y538733D01*
Y536194D01*
X1063493Y534924D01*
X1066032D01*
X1067302Y536194D01*
Y537463D01*
X1066032Y538733D01*
X1062224D01*
X950468Y534924D02*
Y542542D01*
X954277D01*
X955546Y541272D01*
Y538733D01*
X954277Y537463D01*
X950468D01*
X958085Y534924D02*
X960625D01*
X959355D01*
Y542542D01*
X958085Y541272D01*
X969512Y542542D02*
X964434D01*
Y538733D01*
X966973Y540002D01*
X968242D01*
X969512Y538733D01*
Y536194D01*
X968242Y534924D01*
X965703D01*
X964434Y536194D01*
X614048Y533401D02*
Y541019D01*
X617857D01*
X619126Y539749D01*
Y537210D01*
X617857Y535940D01*
X614048D01*
X621666Y533401D02*
X624205D01*
X622935D01*
Y541019D01*
X621666Y539749D01*
X631822Y533401D02*
Y541019D01*
X628014Y537210D01*
X633092D01*
X461648Y516891D02*
Y524509D01*
X465457D01*
X466726Y523239D01*
Y520700D01*
X465457Y519430D01*
X461648D01*
X469266Y516891D02*
X471805D01*
X470535D01*
Y524509D01*
X469266Y523239D01*
X475614D02*
X476883Y524509D01*
X479422D01*
X480692Y523239D01*
Y521970D01*
X479422Y520700D01*
X478153D01*
X479422D01*
X480692Y519430D01*
Y518161D01*
X479422Y516891D01*
X476883D01*
X475614Y518161D01*
X1488948Y534924D02*
Y542542D01*
X1492757D01*
X1494026Y541272D01*
Y538733D01*
X1492757Y537463D01*
X1488948D01*
X1496566Y534924D02*
X1499105D01*
X1497835D01*
Y542542D01*
X1496566Y541272D01*
X1507992Y534924D02*
X1502914D01*
X1507992Y540002D01*
Y541272D01*
X1506722Y542542D01*
X1504183D01*
X1502914Y541272D01*
X1384808Y533654D02*
Y541272D01*
X1388617D01*
X1389886Y540002D01*
Y537463D01*
X1388617Y536193D01*
X1384808D01*
X1392426Y533654D02*
X1394965D01*
X1393695D01*
Y541272D01*
X1392426Y540002D01*
X1398773Y533654D02*
X1401313D01*
X1400043D01*
Y541272D01*
X1398773Y540002D01*
X277498Y720091D02*
Y727709D01*
X281307D01*
X282576Y726439D01*
Y723900D01*
X281307Y722630D01*
X277498D01*
X285116Y720091D02*
X287655D01*
X286385D01*
Y727709D01*
X285116Y726439D01*
X291464D02*
X292733Y727709D01*
X295272D01*
X296542Y726439D01*
Y721361D01*
X295272Y720091D01*
X292733D01*
X291464Y721361D01*
Y726439D01*
X786132Y808991D02*
Y816609D01*
X789941D01*
X791210Y815339D01*
Y812800D01*
X789941Y811530D01*
X786132D01*
X793750Y810261D02*
X795019Y808991D01*
X797558D01*
X798828Y810261D01*
Y815339D01*
X797558Y816609D01*
X795019D01*
X793750Y815339D01*
Y814070D01*
X795019Y812800D01*
X798828D01*
X368299Y734062D02*
X360681D01*
Y737871D01*
X361951Y739140D01*
X364490D01*
X365760Y737871D01*
Y734062D01*
X361951Y741680D02*
X360681Y742949D01*
Y745488D01*
X361951Y746758D01*
X363220D01*
X364490Y745488D01*
X365760Y746758D01*
X367029D01*
X368299Y745488D01*
Y742949D01*
X367029Y741680D01*
X365760D01*
X364490Y742949D01*
X363220Y741680D01*
X361951D01*
X364490Y742949D02*
Y745488D01*
X1240792Y825501D02*
Y833119D01*
X1244601D01*
X1245870Y831849D01*
Y829310D01*
X1244601Y828040D01*
X1240792D01*
X1248410Y833119D02*
X1253488D01*
Y831849D01*
X1248410Y826771D01*
Y825501D01*
X353058Y743889D02*
Y736271D01*
X349249D01*
X347980Y737541D01*
Y740080D01*
X349249Y741350D01*
X353058D01*
X340362Y736271D02*
X342901Y737541D01*
X345440Y740080D01*
Y742619D01*
X344171Y743889D01*
X341632D01*
X340362Y742619D01*
Y741350D01*
X341632Y740080D01*
X345440D01*
X1151892Y627379D02*
Y619761D01*
X1155701D01*
X1156970Y621031D01*
Y626109D01*
X1155701Y627379D01*
X1151892D01*
X1163318Y619761D02*
Y627379D01*
X1159510Y623570D01*
X1164588D01*
X688339Y624838D02*
X680721D01*
Y621029D01*
X681991Y619760D01*
X687069D01*
X688339Y621029D01*
Y624838D01*
X687069Y617220D02*
X688339Y615951D01*
Y613412D01*
X687069Y612142D01*
X685800D01*
X684530Y613412D01*
Y614681D01*
Y613412D01*
X683260Y612142D01*
X681991D01*
X680721Y613412D01*
Y615951D01*
X681991Y617220D01*
X1554988Y652777D02*
Y645160D01*
X1558797D01*
X1560066Y646430D01*
Y651508D01*
X1558797Y652777D01*
X1554988D01*
X1567684Y645160D02*
X1562605D01*
X1567684Y650238D01*
Y651508D01*
X1566414Y652777D01*
X1563875D01*
X1562605Y651508D01*
M02*
