M48
;Layer_Color=9474304
;FILE_FORMAT=4:4
METRIC,LZ
;TYPE=PLATED
T01F00S00C0.7100
T02F00S00C0.7112
T03F00S00C0.7300
T04F00S00C0.8000
T05F00S00C0.8500
T06F00S00C1.2446
T07F00S00C5.0000
T08F00S00C6.6000
T09F00S00C12.5000
%
T01
X0126365Y0074549
X0083058Y0075692
X0039878Y0072898
Y0067818
X0083058Y0080772
X0126365Y0079629
T02
X0126365Y0053721
X0132842
X0127508Y0070866
X0120904Y0073025
X0122047Y0077343
X0114681Y0077978
X0118872Y0068961
X0095123Y0054991
X0089789
X0080391Y0072136
X0079121Y0077724
X0077343Y0078105
X0071374Y0075946
X0068961Y0078105
X006985Y0068199
X0071374Y0069596
X0079121Y0080264
X0080391Y008509
X0092075Y0089281
X0097155
X0120777Y0079756
X0136398Y0089408
X0140462
T03
X0143477Y0063246
Y0065786
Y0068326
Y0070866
Y0073406
Y0075946
Y0078486
X015113
Y0075946
Y0073406
Y0070866
Y0068326
Y0065786
Y0063246
X0106045Y0062865
Y0065405
Y0067945
Y0070485
Y0073025
Y0075565
Y0078105
X0098392
Y0075565
Y0073025
Y0070485
Y0067945
Y0065405
Y0062865
X0060452Y0063246
Y0065786
Y0068326
Y0070866
Y0075946
Y0078486
X0052799
Y0075946
Y0068326
Y0065786
Y0063246
T04
X0133692Y0056261
X0137453Y0063627
X0140462Y0064985
Y0075985
X0153924Y0071335
X0157353Y0068414
X0126453Y0063627
X0112522Y0064604
Y0075604
X0108966
X0095504
X0090932Y0071921
Y0060921
X0086321Y0057658
X0095504Y0064604
X0066421Y0064858
Y0075858
X0063246
X0050839Y0078486
X0048895Y0074842
Y0063842
X0048934Y0061087
X0040728Y0057404
X0039839Y0078486
X0037934Y0061087
X0061937Y0080518
X0072937
X0087083Y0081915
X0098083
X0107657Y0080137
X0118657
X0130771Y0081026
X0141771
X0153924Y0082335
X0157353Y0079414
X0161036
T05
X0156591Y0048419
Y0063119
X0113284Y0062611
Y0047911
X0066421Y0046641
Y0061341
T06
X014224Y004953
X0152654Y0049657
X0108585
X0098806
X006223Y0049784
X0052832
T07
X0048387Y0106807
X0067818
X0091186
X0110617Y010668
X0135255Y0106426
X0154432Y0106172
T08
X0168021Y004826
X0030861Y0047117
X0169672Y0120777
X0031496Y0120396
T09
X004826Y0116332
X0067183Y0116586
X0091059Y0116459
X0110109
X0134874Y0116205
X0154051Y0115951
M30
