G04*
G04 #@! TF.GenerationSoftware,Altium Limited,Altium Designer,26.7.1 (11)*
G04*
G04 Layer_Color=8388736*
G04 Board_Origin=0|0*
%FSLAX44Y44*%
%MOMM*%
G71*
G04*
G04 #@! TF.SameCoordinates,583846A4-3352-41E3-B125-808192F216B1*
G04*
G04*
G04 #@! TF.FilePolarity,Negative*
G04*
G01*
G75*
%ADD15C,1.5240*%
%ADD16C,1.2750*%
%ADD17R,1.2750X1.2750*%
%ADD18C,1.3080*%
%ADD19C,1.2000*%
%ADD20R,1.1300X1.1300*%
%ADD21C,1.1300*%
%ADD22C,1.5000*%
%ADD23C,1.9500*%
%ADD24R,1.5000X1.5000*%
%ADD25R,1.2180X1.2180*%
%ADD26C,1.2180*%
%ADD27C,1.9566*%
%ADD28C,1.2700*%
D15*
X2259330Y1172210D02*
D03*
X2067560D02*
D03*
X1870710Y1169670D02*
D03*
X1680210D02*
D03*
X1468120D02*
D03*
X1272540Y1172210D02*
D03*
X1056640Y1173480D02*
D03*
X866140D02*
D03*
X662940Y1181100D02*
D03*
X469900Y1179830D02*
D03*
X2378710Y519430D02*
D03*
X2392680Y1333500D02*
D03*
X307340Y516890D02*
D03*
X302260Y1333500D02*
D03*
X2067560Y1273810D02*
D03*
X2256790Y1276350D02*
D03*
X1678940Y1273810D02*
D03*
X1868170Y1276350D02*
D03*
X1272540Y1272540D02*
D03*
X1461770Y1275080D02*
D03*
X867410Y1272540D02*
D03*
X1056640Y1275080D02*
D03*
X469900D02*
D03*
X659130Y1277620D02*
D03*
D16*
X2256790Y587060D02*
D03*
X1859280Y588330D02*
D03*
X1461770Y581980D02*
D03*
X1031240D02*
D03*
X628650Y587060D02*
D03*
D17*
X2256790Y734060D02*
D03*
X1859280Y735330D02*
D03*
X1461770Y728980D02*
D03*
X1031240D02*
D03*
X628650Y734060D02*
D03*
D18*
X2220840Y923290D02*
D03*
X2330840D02*
D03*
X1803010Y932180D02*
D03*
X1913010D02*
D03*
X1709420Y863990D02*
D03*
X1388990Y924560D02*
D03*
X1498990D02*
D03*
X1294130Y857640D02*
D03*
Y747640D02*
D03*
X1000370Y924560D02*
D03*
X1110370D02*
D03*
X2153040Y692150D02*
D03*
X1774580Y685800D02*
D03*
X1354210Y683260D02*
D03*
X952890Y680720D02*
D03*
X531250Y692150D02*
D03*
X609210Y928370D02*
D03*
X719210D02*
D03*
X618490Y860180D02*
D03*
X1244210Y683260D02*
D03*
X2043040Y692150D02*
D03*
X1664580Y685800D02*
D03*
X842890Y680720D02*
D03*
X421250Y692150D02*
D03*
X2270760Y861450D02*
D03*
Y751450D02*
D03*
X1875790Y862720D02*
D03*
Y752720D02*
D03*
X1459230Y856370D02*
D03*
Y746370D02*
D03*
X1056640Y856370D02*
D03*
Y746370D02*
D03*
X654050Y860180D02*
D03*
Y750180D02*
D03*
X2235200Y861450D02*
D03*
X2099310Y751450D02*
D03*
Y861450D02*
D03*
X1842770Y862720D02*
D03*
X1709420Y753990D02*
D03*
X1426210Y856370D02*
D03*
X1023620D02*
D03*
X889000Y745100D02*
D03*
Y855100D02*
D03*
X485140Y751450D02*
D03*
Y861450D02*
D03*
X1956680Y750570D02*
D03*
X2066680D02*
D03*
X1569330Y754380D02*
D03*
X1679330D02*
D03*
X1147690Y723900D02*
D03*
X1257690D02*
D03*
X779390Y643890D02*
D03*
X889390D02*
D03*
X385690Y657860D02*
D03*
X495690D02*
D03*
D19*
X2027800Y924560D02*
D03*
X2137800D02*
D03*
X1637910Y930910D02*
D03*
X1747910D02*
D03*
X834000Y924560D02*
D03*
X944000D02*
D03*
X444110Y928370D02*
D03*
X554110D02*
D03*
X1331350Y924560D02*
D03*
X1221350D02*
D03*
D20*
X2131060Y886460D02*
D03*
X1738300Y889000D02*
D03*
X1321740Y882650D02*
D03*
X919150Y881380D02*
D03*
X514350Y886460D02*
D03*
D21*
X2131060Y861060D02*
D03*
Y835660D02*
D03*
Y810260D02*
D03*
Y784860D02*
D03*
Y759460D02*
D03*
Y734060D02*
D03*
X2207590D02*
D03*
Y759460D02*
D03*
Y784860D02*
D03*
Y810260D02*
D03*
Y835660D02*
D03*
Y861060D02*
D03*
Y886460D02*
D03*
X1738300Y863600D02*
D03*
Y838200D02*
D03*
Y812800D02*
D03*
Y787400D02*
D03*
Y762000D02*
D03*
Y736600D02*
D03*
X1814830D02*
D03*
Y762000D02*
D03*
Y787400D02*
D03*
Y812800D02*
D03*
Y838200D02*
D03*
Y863600D02*
D03*
Y889000D02*
D03*
X1321740Y857250D02*
D03*
Y831850D02*
D03*
Y806450D02*
D03*
Y781050D02*
D03*
Y755650D02*
D03*
Y730250D02*
D03*
X1398270D02*
D03*
Y755650D02*
D03*
Y781050D02*
D03*
Y806450D02*
D03*
Y831850D02*
D03*
Y857250D02*
D03*
Y882650D02*
D03*
X919150Y855980D02*
D03*
Y830580D02*
D03*
Y805180D02*
D03*
Y779780D02*
D03*
Y754380D02*
D03*
Y728980D02*
D03*
X995680D02*
D03*
Y754380D02*
D03*
Y779780D02*
D03*
Y805180D02*
D03*
Y830580D02*
D03*
Y855980D02*
D03*
Y881380D02*
D03*
X590880Y810260D02*
D03*
X514350D02*
D03*
Y861060D02*
D03*
Y835660D02*
D03*
Y784860D02*
D03*
Y759460D02*
D03*
Y734060D02*
D03*
X590880D02*
D03*
Y759460D02*
D03*
Y784860D02*
D03*
Y835660D02*
D03*
Y861060D02*
D03*
Y886460D02*
D03*
D22*
X2085340Y1032910D02*
D03*
X1672590D02*
D03*
X1271270Y1031240D02*
D03*
X872490Y1032910D02*
D03*
X469900Y1031240D02*
D03*
X1901190Y1032910D02*
D03*
X2313940D02*
D03*
X1499870Y1031240D02*
D03*
X1101090Y1032910D02*
D03*
X698500Y1031240D02*
D03*
D23*
X316230Y911060D02*
D03*
Y861060D02*
D03*
Y770890D02*
D03*
D24*
X2034540Y1032910D02*
D03*
X1621790D02*
D03*
X1220470Y1031240D02*
D03*
X821690Y1032910D02*
D03*
X419100Y1031240D02*
D03*
D25*
X783590Y906780D02*
D03*
X394970Y901700D02*
D03*
X1985010Y915670D02*
D03*
X1574800Y910590D02*
D03*
X1176020Y901700D02*
D03*
D26*
X783590Y881380D02*
D03*
Y855980D02*
D03*
X394970Y876300D02*
D03*
Y850900D02*
D03*
X1985010Y864870D02*
D03*
Y890270D02*
D03*
X1574800Y859790D02*
D03*
Y885190D02*
D03*
X1176020Y850900D02*
D03*
Y876300D02*
D03*
D27*
X2211070Y549910D02*
D03*
X2185670D02*
D03*
X2114550Y548640D02*
D03*
X2089150D02*
D03*
X1830070Y547370D02*
D03*
X1804670D02*
D03*
X1725930D02*
D03*
X1700530D02*
D03*
X1418590Y548640D02*
D03*
X1393190D02*
D03*
X1328420Y547370D02*
D03*
X1303020D02*
D03*
X1010920Y538480D02*
D03*
X985520D02*
D03*
X922020Y537210D02*
D03*
X896620D02*
D03*
X607060Y538480D02*
D03*
X581660D02*
D03*
X514350D02*
D03*
X488950D02*
D03*
D28*
X534670Y995680D02*
D03*
X680720Y815340D02*
D03*
X684315Y907765D02*
D03*
X508000Y1021080D02*
D03*
X2297430Y864870D02*
D03*
X2275840Y886460D02*
D03*
X2020570Y661670D02*
D03*
X2000250Y828040D02*
D03*
X1945640Y886460D02*
D03*
X1901190Y802640D02*
D03*
X1916430Y821690D02*
D03*
X1891030Y906780D02*
D03*
X1720850Y982980D02*
D03*
X1687830Y1016000D02*
D03*
X1617980Y844550D02*
D03*
Y904240D02*
D03*
X1875790Y889000D02*
D03*
X1487170Y810260D02*
D03*
X1464310Y882650D02*
D03*
X1200150Y819150D02*
D03*
X1160780D02*
D03*
X1189990Y807720D02*
D03*
X1132840Y864870D02*
D03*
X1096010Y789940D02*
D03*
X1062990Y881380D02*
D03*
X1113790Y819150D02*
D03*
X1085850Y902970D02*
D03*
X919480Y986790D02*
D03*
X889000Y1017270D02*
D03*
X855980Y607060D02*
D03*
X782320D02*
D03*
X388620Y615950D02*
D03*
X467360D02*
D03*
X735330Y863600D02*
D03*
X679450Y842010D02*
D03*
X692150Y877570D02*
D03*
X656590Y886460D02*
D03*
M02*
