G04*
G04 #@! TF.GenerationSoftware,Altium Limited,Altium Designer,26.7.1 (11)*
G04*
G04 Layer_Color=65535*
G04 Board_Origin=0|0*
%FSLAX44Y44*%
%MOMM*%
G71*
G04*
G04 #@! TF.SameCoordinates,583846A4-3352-41E3-B125-808192F216B1*
G04*
G04*
G04 #@! TF.FilePolarity,Positive*
G04*
G01*
G75*
%ADD10C,0.2000*%
%ADD11C,0.4000*%
%ADD12C,0.1270*%
%ADD13C,0.1524*%
%ADD14C,0.2540*%
D10*
X784590Y933880D02*
G03*
X784590Y933880I-1000J0D01*
G01*
X395970Y928800D02*
G03*
X395970Y928800I-1000J0D01*
G01*
X1986010Y942770D02*
G03*
X1986010Y942770I-1000J0D01*
G01*
X1575800Y937690D02*
G03*
X1575800Y937690I-1000J0D01*
G01*
X1177020Y928800D02*
G03*
X1177020Y928800I-1000J0D01*
G01*
X317230Y993560D02*
G03*
X317230Y993560I-1000J0D01*
G01*
X2256790Y596940D02*
Y637060D01*
Y684060D02*
Y724180D01*
Y684060D02*
X2269290Y671560D01*
X2244290Y684060D02*
X2269290D01*
X2244290Y637060D02*
Y684060D01*
Y637060D02*
X2269290D01*
Y684060D01*
X1859280Y598210D02*
Y638330D01*
Y685330D02*
Y725450D01*
Y685330D02*
X1871780Y672830D01*
X1846780Y685330D02*
X1871780D01*
X1846780Y638330D02*
Y685330D01*
Y638330D02*
X1871780D01*
Y685330D01*
X1461770Y591860D02*
Y631980D01*
Y678980D02*
Y719100D01*
Y678980D02*
X1474270Y666480D01*
X1449270Y678980D02*
X1474270D01*
X1449270Y631980D02*
Y678980D01*
Y631980D02*
X1474270D01*
Y678980D01*
X1031240Y591860D02*
Y631980D01*
Y678980D02*
Y719100D01*
Y678980D02*
X1043740Y666480D01*
X1018740Y678980D02*
X1043740D01*
X1018740Y631980D02*
Y678980D01*
Y631980D02*
X1043740D01*
Y678980D01*
X376300Y952240D02*
Y1096740D01*
Y952240D02*
X741300D01*
Y1096740D01*
X376300D02*
X741300D01*
X628650Y596940D02*
Y637060D01*
Y684060D02*
Y724180D01*
Y684060D02*
X641150Y671560D01*
X616150Y684060D02*
X641150D01*
X616150Y637060D02*
Y684060D01*
Y637060D02*
X641150D01*
Y684060D01*
X1991740Y1098410D02*
X2356740D01*
Y953910D02*
Y1098410D01*
X1991740Y953910D02*
X2356740D01*
X1991740D02*
Y1098410D01*
X1578990D02*
X1943990D01*
Y953910D02*
Y1098410D01*
X1578990Y953910D02*
X1943990D01*
X1578990D02*
Y1098410D01*
X1177670Y1096740D02*
X1542670D01*
Y952240D02*
Y1096740D01*
X1177670Y952240D02*
X1542670D01*
X1177670D02*
Y1096740D01*
X778890Y1098410D02*
X1143890D01*
Y953910D02*
Y1098410D01*
X778890Y953910D02*
X1143890D01*
X778890D02*
Y1098410D01*
X276420Y694490D02*
X353420D01*
Y796490D01*
X276420D02*
X353420D01*
X276420Y694490D02*
Y796490D01*
D11*
X299420Y711490D02*
G03*
X299420Y711490I-1000J0D01*
G01*
D12*
X2230580Y923290D02*
X2244340D01*
X2307340D02*
X2321100D01*
X2244340D02*
Y935290D01*
X2307340D01*
Y923290D02*
Y935290D01*
Y911290D02*
Y923290D01*
X2244340Y911290D02*
X2307340D01*
X2244340D02*
Y923290D01*
X2037000Y924560D02*
X2048800D01*
X2116800D02*
X2128600D01*
X2048800Y911560D02*
X2116800D01*
X2048800D02*
Y924560D01*
Y937560D01*
X2116800D01*
Y924560D02*
Y937560D01*
Y911560D02*
Y924560D01*
X1812750Y932180D02*
X1826510D01*
X1889510D02*
X1903270D01*
X1826510D02*
Y944180D01*
X1889510D01*
Y932180D02*
Y944180D01*
Y920180D02*
Y932180D01*
X1826510Y920180D02*
X1889510D01*
X1826510D02*
Y932180D01*
X1647110Y930910D02*
X1658910D01*
X1726910D02*
X1738710D01*
X1658910Y917910D02*
X1726910D01*
X1658910D02*
Y930910D01*
Y943910D01*
X1726910D01*
Y930910D02*
Y943910D01*
Y917910D02*
Y930910D01*
X1398730Y924560D02*
X1412490D01*
X1475490D02*
X1489250D01*
X1412490D02*
Y936560D01*
X1475490D01*
Y924560D02*
Y936560D01*
Y912560D02*
Y924560D01*
X1412490Y912560D02*
X1475490D01*
X1412490D02*
Y924560D01*
X1294130Y771140D02*
X1306130D01*
Y834140D01*
X1294130D02*
X1306130D01*
X1282130D02*
X1294130D01*
X1282130Y771140D02*
Y834140D01*
Y771140D02*
X1294130D01*
Y834140D02*
Y847900D01*
Y757380D02*
Y771140D01*
X1010110Y924560D02*
X1023870D01*
X1086870D02*
X1100630D01*
X1023870D02*
Y936560D01*
X1086870D01*
Y924560D02*
Y936560D01*
Y912560D02*
Y924560D01*
X1023870Y912560D02*
X1086870D01*
X1023870D02*
Y924560D01*
X843200D02*
X855000D01*
X923000D02*
X934800D01*
X855000Y911560D02*
X923000D01*
X855000D02*
Y924560D01*
Y937560D01*
X923000D01*
Y924560D02*
Y937560D01*
Y911560D02*
Y924560D01*
X807790Y833730D02*
Y929030D01*
X759490Y833730D02*
X807790D01*
X759490Y929030D02*
X807790D01*
X759490Y833730D02*
Y929030D01*
X618950Y928370D02*
X632710D01*
X695710D02*
X709470D01*
X632710D02*
Y940370D01*
X695710D01*
Y928370D02*
Y940370D01*
Y916370D02*
Y928370D01*
X632710Y916370D02*
X695710D01*
X632710D02*
Y928370D01*
X618490Y759920D02*
Y773680D01*
Y836680D02*
Y850440D01*
X606490Y773680D02*
X618490D01*
X606490D02*
Y836680D01*
X618490D01*
X630490D01*
Y773680D02*
Y836680D01*
X618490Y773680D02*
X630490D01*
X453310Y928370D02*
X465110D01*
X533110D02*
X544910D01*
X465110Y915370D02*
X533110D01*
X465110D02*
Y928370D01*
Y941370D01*
X533110D01*
Y928370D02*
Y941370D01*
Y915370D02*
Y928370D01*
X419170Y828650D02*
Y923950D01*
X370870Y828650D02*
X419170D01*
X370870Y923950D02*
X419170D01*
X370870Y828650D02*
Y923950D01*
X1960910Y842620D02*
Y937920D01*
X2009210D01*
X1960910Y842620D02*
X2009210D01*
Y937920D01*
X1550700Y837540D02*
Y932840D01*
X1599000D01*
X1550700Y837540D02*
X1599000D01*
Y932840D01*
X1151920Y828650D02*
Y923950D01*
X1200220D01*
X1151920Y828650D02*
X1200220D01*
Y923950D01*
X1267710Y671260D02*
Y683260D01*
Y671260D02*
X1330710D01*
Y683260D01*
Y695260D01*
X1267710D02*
X1330710D01*
X1267710Y683260D02*
Y695260D01*
X1330710Y683260D02*
X1344470D01*
X1253950D02*
X1267710D01*
X1310350Y911560D02*
Y924560D01*
Y937560D01*
X1242350D02*
X1310350D01*
X1242350Y924560D02*
Y937560D01*
Y911560D02*
Y924560D01*
Y911560D02*
X1310350D01*
Y924560D02*
X1322150D01*
X1230550D02*
X1242350D01*
X273730Y836060D02*
X356230D01*
Y986060D01*
X273730D02*
X356230D01*
X273730Y836060D02*
Y986060D01*
X2066540Y680150D02*
Y692150D01*
Y680150D02*
X2129540D01*
Y692150D01*
Y704150D01*
X2066540D02*
X2129540D01*
X2066540Y692150D02*
Y704150D01*
X2129540Y692150D02*
X2143300D01*
X2052780D02*
X2066540D01*
X1688080Y673800D02*
Y685800D01*
Y673800D02*
X1751080D01*
Y685800D01*
Y697800D01*
X1688080D02*
X1751080D01*
X1688080Y685800D02*
Y697800D01*
X1751080Y685800D02*
X1764840D01*
X1674320D02*
X1688080D01*
X866390Y668720D02*
Y680720D01*
Y668720D02*
X929390D01*
Y680720D01*
Y692720D01*
X866390D02*
X929390D01*
X866390Y680720D02*
Y692720D01*
X929390Y680720D02*
X943150D01*
X852630D02*
X866390D01*
X444750Y680150D02*
Y692150D01*
Y680150D02*
X507750D01*
Y692150D01*
Y704150D01*
X444750D02*
X507750D01*
X444750Y692150D02*
Y704150D01*
X507750Y692150D02*
X521510D01*
X430990D02*
X444750D01*
X2270760Y774950D02*
X2282760D01*
Y837950D01*
X2270760D02*
X2282760D01*
X2258760D02*
X2270760D01*
X2258760Y774950D02*
Y837950D01*
Y774950D02*
X2270760D01*
Y837950D02*
Y851710D01*
Y761190D02*
Y774950D01*
X1875790Y776220D02*
X1887790D01*
Y839220D01*
X1875790D02*
X1887790D01*
X1863790D02*
X1875790D01*
X1863790Y776220D02*
Y839220D01*
Y776220D02*
X1875790D01*
Y839220D02*
Y852980D01*
Y762460D02*
Y776220D01*
X1459230Y769870D02*
X1471230D01*
Y832870D01*
X1459230D02*
X1471230D01*
X1447230D02*
X1459230D01*
X1447230Y769870D02*
Y832870D01*
Y769870D02*
X1459230D01*
Y832870D02*
Y846630D01*
Y756110D02*
Y769870D01*
X1056640D02*
X1068640D01*
Y832870D01*
X1056640D02*
X1068640D01*
X1044640D02*
X1056640D01*
X1044640Y769870D02*
Y832870D01*
Y769870D02*
X1056640D01*
Y832870D02*
Y846630D01*
Y756110D02*
Y769870D01*
X654050Y773680D02*
X666050D01*
Y836680D01*
X654050D02*
X666050D01*
X642050D02*
X654050D01*
X642050Y773680D02*
Y836680D01*
Y773680D02*
X654050D01*
Y836680D02*
Y850440D01*
Y759920D02*
Y773680D01*
X2235200Y774950D02*
X2247200D01*
Y837950D01*
X2235200D02*
X2247200D01*
X2223200D02*
X2235200D01*
X2223200Y774950D02*
Y837950D01*
Y774950D02*
X2235200D01*
Y837950D02*
Y851710D01*
Y761190D02*
Y774950D01*
X2099310Y761190D02*
Y774950D01*
Y837950D02*
Y851710D01*
X2087310Y774950D02*
X2099310D01*
X2087310D02*
Y837950D01*
X2099310D01*
X2111310D01*
Y774950D02*
Y837950D01*
X2099310Y774950D02*
X2111310D01*
X1842770Y776220D02*
X1854770D01*
Y839220D01*
X1842770D02*
X1854770D01*
X1830770D02*
X1842770D01*
X1830770Y776220D02*
Y839220D01*
Y776220D02*
X1842770D01*
Y839220D02*
Y852980D01*
Y762460D02*
Y776220D01*
X1709420Y763730D02*
Y777490D01*
Y840490D02*
Y854250D01*
X1697420Y777490D02*
X1709420D01*
X1697420D02*
Y840490D01*
X1709420D01*
X1721420D01*
Y777490D02*
Y840490D01*
X1709420Y777490D02*
X1721420D01*
X1426210Y769870D02*
X1438210D01*
Y832870D01*
X1426210D02*
X1438210D01*
X1414210D02*
X1426210D01*
X1414210Y769870D02*
Y832870D01*
Y769870D02*
X1426210D01*
Y832870D02*
Y846630D01*
Y756110D02*
Y769870D01*
X1023620D02*
X1035620D01*
Y832870D01*
X1023620D02*
X1035620D01*
X1011620D02*
X1023620D01*
X1011620Y769870D02*
Y832870D01*
Y769870D02*
X1023620D01*
Y832870D02*
Y846630D01*
Y756110D02*
Y769870D01*
X889000Y754840D02*
Y768600D01*
Y831600D02*
Y845360D01*
X877000Y768600D02*
X889000D01*
X877000D02*
Y831600D01*
X889000D01*
X901000D01*
Y768600D02*
Y831600D01*
X889000Y768600D02*
X901000D01*
X485140Y761190D02*
Y774950D01*
Y837950D02*
Y851710D01*
X473140Y774950D02*
X485140D01*
X473140D02*
Y837950D01*
X485140D01*
X497140D01*
Y774950D02*
Y837950D01*
X485140Y774950D02*
X497140D01*
X2043180Y750570D02*
Y762570D01*
X1980180D02*
X2043180D01*
X1980180Y750570D02*
Y762570D01*
Y738570D02*
Y750570D01*
Y738570D02*
X2043180D01*
Y750570D01*
X1966420D02*
X1980180D01*
X2043180D02*
X2056940D01*
X1655830Y754380D02*
Y766380D01*
X1592830D02*
X1655830D01*
X1592830Y754380D02*
Y766380D01*
Y742380D02*
Y754380D01*
Y742380D02*
X1655830D01*
Y754380D01*
X1579070D02*
X1592830D01*
X1655830D02*
X1669590D01*
X1234190Y723900D02*
Y735900D01*
X1171190D02*
X1234190D01*
X1171190Y723900D02*
Y735900D01*
Y711900D02*
Y723900D01*
Y711900D02*
X1234190D01*
Y723900D01*
X1157430D02*
X1171190D01*
X1234190D02*
X1247950D01*
X865890Y643890D02*
Y655890D01*
X802890D02*
X865890D01*
X802890Y643890D02*
Y655890D01*
Y631890D02*
Y643890D01*
Y631890D02*
X865890D01*
Y643890D01*
X789130D02*
X802890D01*
X865890D02*
X879650D01*
X472190Y657860D02*
Y669860D01*
X409190D02*
X472190D01*
X409190Y657860D02*
Y669860D01*
Y645860D02*
Y657860D01*
Y645860D02*
X472190D01*
Y657860D01*
X395430D02*
X409190D01*
X472190D02*
X485950D01*
D13*
X2171700Y519430D02*
X2225040D01*
Y579882D01*
X2171700D02*
X2225040D01*
X2171700Y519430D02*
Y579882D01*
X2075180Y518160D02*
X2128520D01*
Y578612D01*
X2075180D02*
X2128520D01*
X2075180Y518160D02*
Y578612D01*
X1790700Y516890D02*
X1844040D01*
Y577342D01*
X1790700D02*
X1844040D01*
X1790700Y516890D02*
Y577342D01*
X1686560Y516890D02*
X1739900D01*
Y577342D01*
X1686560D02*
X1739900D01*
X1686560Y516890D02*
Y577342D01*
X1379220Y518160D02*
X1432560D01*
Y578612D01*
X1379220D02*
X1432560D01*
X1379220Y518160D02*
Y578612D01*
X1289050Y516890D02*
X1342390D01*
Y577342D01*
X1289050D02*
X1342390D01*
X1289050Y516890D02*
Y577342D01*
X971550Y508000D02*
X1024890D01*
Y568452D01*
X971550D02*
X1024890D01*
X971550Y508000D02*
Y568452D01*
X882650Y506730D02*
X935990D01*
Y567182D01*
X882650D02*
X935990D01*
X882650Y506730D02*
Y567182D01*
X567690Y508000D02*
X621030D01*
Y568452D01*
X567690D02*
X621030D01*
X567690Y508000D02*
Y568452D01*
X474980Y508000D02*
X528320D01*
Y568452D01*
X474980D02*
X528320D01*
X474980Y508000D02*
Y568452D01*
D14*
X778764Y1116581D02*
X783842D01*
X781303D01*
Y1108964D01*
X786382Y1110234D02*
X787651Y1108964D01*
X790190D01*
X791460Y1110234D01*
Y1115312D01*
X790190Y1116581D01*
X787651D01*
X786382Y1115312D01*
Y1114042D01*
X787651Y1112773D01*
X791460D01*
X376174Y1115058D02*
X381252D01*
X378713D01*
Y1107440D01*
X383792Y1113788D02*
X385061Y1115058D01*
X387600D01*
X388870Y1113788D01*
Y1112518D01*
X387600Y1111249D01*
X388870Y1109979D01*
Y1108710D01*
X387600Y1107440D01*
X385061D01*
X383792Y1108710D01*
Y1109979D01*
X385061Y1111249D01*
X383792Y1112518D01*
Y1113788D01*
X385061Y1111249D02*
X387600D01*
X1177544Y1115058D02*
X1182622D01*
X1180083D01*
Y1107440D01*
X1185162Y1115058D02*
X1190240D01*
Y1113788D01*
X1185162Y1108710D01*
Y1107440D01*
X1991614Y1116581D02*
X1996692D01*
X1994153D01*
Y1108964D01*
X2004310Y1116581D02*
X2001771Y1115312D01*
X1999232Y1112773D01*
Y1110234D01*
X2000501Y1108964D01*
X2003040D01*
X2004310Y1110234D01*
Y1111503D01*
X2003040Y1112773D01*
X1999232D01*
X1578864Y1116581D02*
X1583942D01*
X1581403D01*
Y1108964D01*
X1591560Y1116581D02*
X1586481D01*
Y1112773D01*
X1589021Y1114042D01*
X1590290D01*
X1591560Y1112773D01*
Y1110234D01*
X1590290Y1108964D01*
X1587751D01*
X1586481Y1110234D01*
X772668Y666242D02*
Y673859D01*
X776477D01*
X777746Y672590D01*
Y670051D01*
X776477Y668781D01*
X772668D01*
X775207D02*
X777746Y666242D01*
X785364Y673859D02*
X782825Y672590D01*
X780285Y670051D01*
Y667512D01*
X781555Y666242D01*
X784094D01*
X785364Y667512D01*
Y668781D01*
X784094Y670051D01*
X780285D01*
X787903Y672590D02*
X789173Y673859D01*
X791712D01*
X792981Y672590D01*
Y671320D01*
X791712Y670051D01*
X790442D01*
X791712D01*
X792981Y668781D01*
Y667512D01*
X791712Y666242D01*
X789173D01*
X787903Y667512D01*
X378968Y680212D02*
Y687830D01*
X382777D01*
X384046Y686560D01*
Y684021D01*
X382777Y682751D01*
X378968D01*
X381507D02*
X384046Y680212D01*
X391664Y687830D02*
X389125Y686560D01*
X386586Y684021D01*
Y681482D01*
X387855Y680212D01*
X390394D01*
X391664Y681482D01*
Y682751D01*
X390394Y684021D01*
X386586D01*
X399281Y680212D02*
X394203D01*
X399281Y685290D01*
Y686560D01*
X398012Y687830D01*
X395473D01*
X394203Y686560D01*
X1140968Y746252D02*
Y753869D01*
X1144777D01*
X1146046Y752600D01*
Y750061D01*
X1144777Y748791D01*
X1140968D01*
X1143507D02*
X1146046Y746252D01*
X1153664Y753869D02*
X1151125Y752600D01*
X1148586Y750061D01*
Y747522D01*
X1149855Y746252D01*
X1152394D01*
X1153664Y747522D01*
Y748791D01*
X1152394Y750061D01*
X1148586D01*
X1156203Y746252D02*
X1158742D01*
X1157473D01*
Y753869D01*
X1156203Y752600D01*
X1949958Y772922D02*
Y780539D01*
X1953767D01*
X1955036Y779270D01*
Y776731D01*
X1953767Y775461D01*
X1949958D01*
X1952497D02*
X1955036Y772922D01*
X1962654Y780539D02*
X1960115Y779270D01*
X1957576Y776731D01*
Y774192D01*
X1958845Y772922D01*
X1961384D01*
X1962654Y774192D01*
Y775461D01*
X1961384Y776731D01*
X1957576D01*
X1965193Y779270D02*
X1966463Y780539D01*
X1969002D01*
X1970271Y779270D01*
Y774192D01*
X1969002Y772922D01*
X1966463D01*
X1965193Y774192D01*
Y779270D01*
X1562608Y776732D02*
Y784350D01*
X1566417D01*
X1567686Y783080D01*
Y780541D01*
X1566417Y779271D01*
X1562608D01*
X1565147D02*
X1567686Y776732D01*
X1575304Y784350D02*
X1570226D01*
Y780541D01*
X1572765Y781810D01*
X1574034D01*
X1575304Y780541D01*
Y778002D01*
X1574034Y776732D01*
X1571495D01*
X1570226Y778002D01*
X1577843D02*
X1579113Y776732D01*
X1581652D01*
X1582921Y778002D01*
Y783080D01*
X1581652Y784350D01*
X1579113D01*
X1577843Y783080D01*
Y781810D01*
X1579113Y780541D01*
X1582921D01*
X1011428Y873252D02*
Y880870D01*
X1015237D01*
X1016506Y879600D01*
Y877061D01*
X1015237Y875791D01*
X1011428D01*
X1013967D02*
X1016506Y873252D01*
X1024124Y880870D02*
X1019045D01*
Y877061D01*
X1021585Y878330D01*
X1022854D01*
X1024124Y877061D01*
Y874522D01*
X1022854Y873252D01*
X1020315D01*
X1019045Y874522D01*
X1026663Y879600D02*
X1027933Y880870D01*
X1030472D01*
X1031741Y879600D01*
Y878330D01*
X1030472Y877061D01*
X1031741Y875791D01*
Y874522D01*
X1030472Y873252D01*
X1027933D01*
X1026663Y874522D01*
Y875791D01*
X1027933Y877061D01*
X1026663Y878330D01*
Y879600D01*
X1027933Y877061D02*
X1030472D01*
X876808Y871982D02*
Y879600D01*
X880617D01*
X881886Y878330D01*
Y875791D01*
X880617Y874521D01*
X876808D01*
X879347D02*
X881886Y871982D01*
X889504Y879600D02*
X884426D01*
Y875791D01*
X886965Y877060D01*
X888234D01*
X889504Y875791D01*
Y873252D01*
X888234Y871982D01*
X885695D01*
X884426Y873252D01*
X892043Y879600D02*
X897121D01*
Y878330D01*
X892043Y873252D01*
Y871982D01*
X609603Y875031D02*
Y882649D01*
X613412D01*
X614682Y881379D01*
Y878840D01*
X613412Y877570D01*
X609603D01*
X612142D02*
X614682Y875031D01*
X622299Y882649D02*
X617221D01*
Y878840D01*
X619760Y880110D01*
X621030D01*
X622299Y878840D01*
Y876301D01*
X621030Y875031D01*
X618490D01*
X617221Y876301D01*
X629917Y882649D02*
X627378Y881379D01*
X624838Y878840D01*
Y876301D01*
X626108Y875031D01*
X628647D01*
X629917Y876301D01*
Y877570D01*
X628647Y878840D01*
X624838D01*
X472948Y878332D02*
Y885949D01*
X476757D01*
X478026Y884680D01*
Y882141D01*
X476757Y880871D01*
X472948D01*
X475487D02*
X478026Y878332D01*
X485644Y885949D02*
X480565D01*
Y882141D01*
X483105Y883410D01*
X484374D01*
X485644Y882141D01*
Y879602D01*
X484374Y878332D01*
X481835D01*
X480565Y879602D01*
X493261Y885949D02*
X488183D01*
Y882141D01*
X490722Y883410D01*
X491992D01*
X493261Y882141D01*
Y879602D01*
X491992Y878332D01*
X489453D01*
X488183Y879602D01*
X1414018Y873252D02*
Y880870D01*
X1417827D01*
X1419096Y879600D01*
Y877061D01*
X1417827Y875791D01*
X1414018D01*
X1416557D02*
X1419096Y873252D01*
X1426714Y880870D02*
X1421635D01*
Y877061D01*
X1424175Y878330D01*
X1425444D01*
X1426714Y877061D01*
Y874522D01*
X1425444Y873252D01*
X1422905D01*
X1421635Y874522D01*
X1433062Y873252D02*
Y880870D01*
X1429253Y877061D01*
X1434331D01*
X1272543Y871221D02*
Y878839D01*
X1276352D01*
X1277622Y877569D01*
Y875030D01*
X1276352Y873760D01*
X1272543D01*
X1275082D02*
X1277622Y871221D01*
X1285239Y878839D02*
X1280161D01*
Y875030D01*
X1282700Y876300D01*
X1283970D01*
X1285239Y875030D01*
Y872491D01*
X1283970Y871221D01*
X1281430D01*
X1280161Y872491D01*
X1287778Y877569D02*
X1289048Y878839D01*
X1291587D01*
X1292857Y877569D01*
Y876300D01*
X1291587Y875030D01*
X1290318D01*
X1291587D01*
X1292857Y873760D01*
Y872491D01*
X1291587Y871221D01*
X1289048D01*
X1287778Y872491D01*
X2223008Y878332D02*
Y885949D01*
X2226817D01*
X2228086Y884680D01*
Y882141D01*
X2226817Y880871D01*
X2223008D01*
X2225547D02*
X2228086Y878332D01*
X2235704Y885949D02*
X2230625D01*
Y882141D01*
X2233165Y883410D01*
X2234434D01*
X2235704Y882141D01*
Y879602D01*
X2234434Y878332D01*
X2231895D01*
X2230625Y879602D01*
X2243321Y878332D02*
X2238243D01*
X2243321Y883410D01*
Y884680D01*
X2242052Y885949D01*
X2239513D01*
X2238243Y884680D01*
X2087118Y878332D02*
Y885949D01*
X2090927D01*
X2092196Y884680D01*
Y882141D01*
X2090927Y880871D01*
X2087118D01*
X2089657D02*
X2092196Y878332D01*
X2099814Y885949D02*
X2094736D01*
Y882141D01*
X2097275Y883410D01*
X2098544D01*
X2099814Y882141D01*
Y879602D01*
X2098544Y878332D01*
X2096005D01*
X2094736Y879602D01*
X2102353Y878332D02*
X2104892D01*
X2103623D01*
Y885949D01*
X2102353Y884680D01*
X1830578Y879602D02*
Y887219D01*
X1834387D01*
X1835656Y885950D01*
Y883411D01*
X1834387Y882141D01*
X1830578D01*
X1833117D02*
X1835656Y879602D01*
X1843274Y887219D02*
X1838195D01*
Y883411D01*
X1840735Y884680D01*
X1842004D01*
X1843274Y883411D01*
Y880872D01*
X1842004Y879602D01*
X1839465D01*
X1838195Y880872D01*
X1845813Y885950D02*
X1847083Y887219D01*
X1849622D01*
X1850891Y885950D01*
Y880872D01*
X1849622Y879602D01*
X1847083D01*
X1845813Y880872D01*
Y885950D01*
X1697228Y880872D02*
Y888490D01*
X1701037D01*
X1702306Y887220D01*
Y884681D01*
X1701037Y883411D01*
X1697228D01*
X1699767D02*
X1702306Y880872D01*
X1708654D02*
Y888490D01*
X1704845Y884681D01*
X1709924D01*
X1712463Y882142D02*
X1713733Y880872D01*
X1716272D01*
X1717541Y882142D01*
Y887220D01*
X1716272Y888490D01*
X1713733D01*
X1712463Y887220D01*
Y885950D01*
X1713733Y884681D01*
X1717541D01*
X1044448Y873252D02*
Y880870D01*
X1048257D01*
X1049526Y879600D01*
Y877061D01*
X1048257Y875791D01*
X1044448D01*
X1046987D02*
X1049526Y873252D01*
X1055874D02*
Y880870D01*
X1052066Y877061D01*
X1057144D01*
X1059683Y879600D02*
X1060953Y880870D01*
X1063492D01*
X1064761Y879600D01*
Y878330D01*
X1063492Y877061D01*
X1064761Y875791D01*
Y874522D01*
X1063492Y873252D01*
X1060953D01*
X1059683Y874522D01*
Y875791D01*
X1060953Y877061D01*
X1059683Y878330D01*
Y879600D01*
X1060953Y877061D02*
X1063492D01*
X821693Y897891D02*
Y905509D01*
X825502D01*
X826772Y904239D01*
Y901700D01*
X825502Y900430D01*
X821693D01*
X824232D02*
X826772Y897891D01*
X833120D02*
Y905509D01*
X829311Y901700D01*
X834389D01*
X836928Y905509D02*
X842007D01*
Y904239D01*
X836928Y899161D01*
Y897891D01*
X641858Y877062D02*
Y884679D01*
X645667D01*
X646936Y883410D01*
Y880871D01*
X645667Y879601D01*
X641858D01*
X644397D02*
X646936Y877062D01*
X653284D02*
Y884679D01*
X649475Y880871D01*
X654554D01*
X662171Y884679D02*
X659632Y883410D01*
X657093Y880871D01*
Y878332D01*
X658363Y877062D01*
X660902D01*
X662171Y878332D01*
Y879601D01*
X660902Y880871D01*
X657093D01*
X408943Y935991D02*
Y943609D01*
X412752D01*
X414022Y942339D01*
Y939800D01*
X412752Y938530D01*
X408943D01*
X411483D02*
X414022Y935991D01*
X420370D02*
Y943609D01*
X416561Y939800D01*
X421639D01*
X429257Y943609D02*
X424178D01*
Y939800D01*
X426718Y941070D01*
X427987D01*
X429257Y939800D01*
Y937261D01*
X427987Y935991D01*
X425448D01*
X424178Y937261D01*
X1447038Y873252D02*
Y880870D01*
X1450847D01*
X1452116Y879600D01*
Y877061D01*
X1450847Y875791D01*
X1447038D01*
X1449577D02*
X1452116Y873252D01*
X1458464D02*
Y880870D01*
X1454655Y877061D01*
X1459734D01*
X1466082Y873252D02*
Y880870D01*
X1462273Y877061D01*
X1467351D01*
X1188723Y934721D02*
Y942339D01*
X1192532D01*
X1193802Y941069D01*
Y938530D01*
X1192532Y937260D01*
X1188723D01*
X1191263D02*
X1193802Y934721D01*
X1200150D02*
Y942339D01*
X1196341Y938530D01*
X1201419D01*
X1203958Y941069D02*
X1205228Y942339D01*
X1207767D01*
X1209037Y941069D01*
Y939800D01*
X1207767Y938530D01*
X1206498D01*
X1207767D01*
X1209037Y937260D01*
Y935991D01*
X1207767Y934721D01*
X1205228D01*
X1203958Y935991D01*
X2258568Y878332D02*
Y885949D01*
X2262377D01*
X2263646Y884680D01*
Y882141D01*
X2262377Y880871D01*
X2258568D01*
X2261107D02*
X2263646Y878332D01*
X2269994D02*
Y885949D01*
X2266185Y882141D01*
X2271264D01*
X2278881Y878332D02*
X2273803D01*
X2278881Y883410D01*
Y884680D01*
X2277612Y885949D01*
X2275073D01*
X2273803Y884680D01*
X2021843Y939801D02*
Y947419D01*
X2025652D01*
X2026921Y946149D01*
Y943610D01*
X2025652Y942340D01*
X2021843D01*
X2024382D02*
X2026921Y939801D01*
X2033269D02*
Y947419D01*
X2029460Y943610D01*
X2034539D01*
X2037078Y939801D02*
X2039617D01*
X2038347D01*
Y947419D01*
X2037078Y946149D01*
X1863598Y879602D02*
Y887219D01*
X1867407D01*
X1868676Y885950D01*
Y883411D01*
X1867407Y882141D01*
X1863598D01*
X1866137D02*
X1868676Y879602D01*
X1875024D02*
Y887219D01*
X1871216Y883411D01*
X1876294D01*
X1878833Y885950D02*
X1880103Y887219D01*
X1882642D01*
X1883911Y885950D01*
Y880872D01*
X1882642Y879602D01*
X1880103D01*
X1878833Y880872D01*
Y885950D01*
X1605283Y938531D02*
Y946149D01*
X1609092D01*
X1610362Y944879D01*
Y942340D01*
X1609092Y941070D01*
X1605283D01*
X1607823D02*
X1610362Y938531D01*
X1612901Y944879D02*
X1614170Y946149D01*
X1616710D01*
X1617979Y944879D01*
Y943610D01*
X1616710Y942340D01*
X1615440D01*
X1616710D01*
X1617979Y941070D01*
Y939801D01*
X1616710Y938531D01*
X1614170D01*
X1612901Y939801D01*
X1620518D02*
X1621788Y938531D01*
X1624327D01*
X1625597Y939801D01*
Y944879D01*
X1624327Y946149D01*
X1621788D01*
X1620518Y944879D01*
Y943610D01*
X1621788Y942340D01*
X1625597D01*
X966473Y930911D02*
Y938529D01*
X970282D01*
X971552Y937259D01*
Y934720D01*
X970282Y933450D01*
X966473D01*
X969013D02*
X971552Y930911D01*
X974091Y937259D02*
X975360Y938529D01*
X977900D01*
X979169Y937259D01*
Y935990D01*
X977900Y934720D01*
X976630D01*
X977900D01*
X979169Y933450D01*
Y932181D01*
X977900Y930911D01*
X975360D01*
X974091Y932181D01*
X981708Y937259D02*
X982978Y938529D01*
X985517D01*
X986787Y937259D01*
Y935990D01*
X985517Y934720D01*
X986787Y933450D01*
Y932181D01*
X985517Y930911D01*
X982978D01*
X981708Y932181D01*
Y933450D01*
X982978Y934720D01*
X981708Y935990D01*
Y937259D01*
X982978Y934720D02*
X985517D01*
X836168Y703072D02*
Y710689D01*
X839977D01*
X841246Y709420D01*
Y706881D01*
X839977Y705611D01*
X836168D01*
X838707D02*
X841246Y703072D01*
X843785Y709420D02*
X845055Y710689D01*
X847594D01*
X848864Y709420D01*
Y708150D01*
X847594Y706881D01*
X846325D01*
X847594D01*
X848864Y705611D01*
Y704342D01*
X847594Y703072D01*
X845055D01*
X843785Y704342D01*
X851403Y710689D02*
X856481D01*
Y709420D01*
X851403Y704342D01*
Y703072D01*
X574043Y935991D02*
Y943609D01*
X577852D01*
X579122Y942339D01*
Y939800D01*
X577852Y938530D01*
X574043D01*
X576582D02*
X579122Y935991D01*
X581661Y942339D02*
X582930Y943609D01*
X585470D01*
X586739Y942339D01*
Y941070D01*
X585470Y939800D01*
X584200D01*
X585470D01*
X586739Y938530D01*
Y937261D01*
X585470Y935991D01*
X582930D01*
X581661Y937261D01*
X594357Y943609D02*
X591818Y942339D01*
X589278Y939800D01*
Y937261D01*
X590548Y935991D01*
X593087D01*
X594357Y937261D01*
Y938530D01*
X593087Y939800D01*
X589278D01*
X414528Y714502D02*
Y722120D01*
X418337D01*
X419606Y720850D01*
Y718311D01*
X418337Y717041D01*
X414528D01*
X417067D02*
X419606Y714502D01*
X422146Y720850D02*
X423415Y722120D01*
X425954D01*
X427224Y720850D01*
Y719580D01*
X425954Y718311D01*
X424685D01*
X425954D01*
X427224Y717041D01*
Y715772D01*
X425954Y714502D01*
X423415D01*
X422146Y715772D01*
X434841Y722120D02*
X429763D01*
Y718311D01*
X432302Y719580D01*
X433572D01*
X434841Y718311D01*
Y715772D01*
X433572Y714502D01*
X431033D01*
X429763Y715772D01*
X1358903Y935991D02*
Y943609D01*
X1362712D01*
X1363982Y942339D01*
Y939800D01*
X1362712Y938530D01*
X1358903D01*
X1361443D02*
X1363982Y935991D01*
X1366521Y942339D02*
X1367790Y943609D01*
X1370330D01*
X1371599Y942339D01*
Y941070D01*
X1370330Y939800D01*
X1369060D01*
X1370330D01*
X1371599Y938530D01*
Y937261D01*
X1370330Y935991D01*
X1367790D01*
X1366521Y937261D01*
X1377947Y935991D02*
Y943609D01*
X1374138Y939800D01*
X1379217D01*
X1367791Y690877D02*
X1375409D01*
Y687068D01*
X1374139Y685798D01*
X1371600D01*
X1370330Y687068D01*
Y690877D01*
Y688337D02*
X1367791Y685798D01*
X1374139Y683259D02*
X1375409Y681990D01*
Y679450D01*
X1374139Y678181D01*
X1372870D01*
X1371600Y679450D01*
Y680720D01*
Y679450D01*
X1370330Y678181D01*
X1369061D01*
X1367791Y679450D01*
Y681990D01*
X1369061Y683259D01*
X1374139Y675642D02*
X1375409Y674372D01*
Y671833D01*
X1374139Y670563D01*
X1372870D01*
X1371600Y671833D01*
Y673102D01*
Y671833D01*
X1370330Y670563D01*
X1369061D01*
X1367791Y671833D01*
Y674372D01*
X1369061Y675642D01*
X2186943Y930911D02*
Y938529D01*
X2190752D01*
X2192022Y937259D01*
Y934720D01*
X2190752Y933450D01*
X2186943D01*
X2189483D02*
X2192022Y930911D01*
X2194561Y937259D02*
X2195830Y938529D01*
X2198370D01*
X2199639Y937259D01*
Y935990D01*
X2198370Y934720D01*
X2197100D01*
X2198370D01*
X2199639Y933450D01*
Y932181D01*
X2198370Y930911D01*
X2195830D01*
X2194561Y932181D01*
X2207257Y930911D02*
X2202178D01*
X2207257Y935990D01*
Y937259D01*
X2205987Y938529D01*
X2203448D01*
X2202178Y937259D01*
X2036318Y714502D02*
Y722120D01*
X2040127D01*
X2041396Y720850D01*
Y718311D01*
X2040127Y717041D01*
X2036318D01*
X2038857D02*
X2041396Y714502D01*
X2043936Y720850D02*
X2045205Y722120D01*
X2047744D01*
X2049014Y720850D01*
Y719580D01*
X2047744Y718311D01*
X2046475D01*
X2047744D01*
X2049014Y717041D01*
Y715772D01*
X2047744Y714502D01*
X2045205D01*
X2043936Y715772D01*
X2051553Y714502D02*
X2054092D01*
X2052823D01*
Y722120D01*
X2051553Y720850D01*
X1767843Y935991D02*
Y943609D01*
X1771652D01*
X1772922Y942339D01*
Y939800D01*
X1771652Y938530D01*
X1767843D01*
X1770383D02*
X1772922Y935991D01*
X1775461Y942339D02*
X1776730Y943609D01*
X1779270D01*
X1780539Y942339D01*
Y941070D01*
X1779270Y939800D01*
X1778000D01*
X1779270D01*
X1780539Y938530D01*
Y937261D01*
X1779270Y935991D01*
X1776730D01*
X1775461Y937261D01*
X1783078Y942339D02*
X1784348Y943609D01*
X1786887D01*
X1788157Y942339D01*
Y937261D01*
X1786887Y935991D01*
X1784348D01*
X1783078Y937261D01*
Y942339D01*
X1657858Y708152D02*
Y715770D01*
X1661667D01*
X1662936Y714500D01*
Y711961D01*
X1661667Y710691D01*
X1657858D01*
X1660397D02*
X1662936Y708152D01*
X1670554D02*
X1665475D01*
X1670554Y713230D01*
Y714500D01*
X1669284Y715770D01*
X1666745D01*
X1665475Y714500D01*
X1673093Y709422D02*
X1674363Y708152D01*
X1676902D01*
X1678171Y709422D01*
Y714500D01*
X1676902Y715770D01*
X1674363D01*
X1673093Y714500D01*
Y713230D01*
X1674363Y711961D01*
X1678171D01*
X972820Y909321D02*
Y914399D01*
X971551Y915669D01*
X969012D01*
X967742Y914399D01*
Y909321D01*
X969012Y908051D01*
X971551D01*
X970281Y910590D02*
X972820Y908051D01*
X971551D02*
X972820Y909321D01*
X975360D02*
X976629Y908051D01*
X979168D01*
X980438Y909321D01*
Y914399D01*
X979168Y915669D01*
X976629D01*
X975360Y914399D01*
Y913130D01*
X976629Y911860D01*
X980438D01*
X576580Y914401D02*
Y919479D01*
X575311Y920749D01*
X572772D01*
X571502Y919479D01*
Y914401D01*
X572772Y913131D01*
X575311D01*
X574041Y915670D02*
X576580Y913131D01*
X575311D02*
X576580Y914401D01*
X579120Y919479D02*
X580389Y920749D01*
X582928D01*
X584198Y919479D01*
Y918210D01*
X582928Y916940D01*
X584198Y915670D01*
Y914401D01*
X582928Y913131D01*
X580389D01*
X579120Y914401D01*
Y915670D01*
X580389Y916940D01*
X579120Y918210D01*
Y919479D01*
X580389Y916940D02*
X582928D01*
X1362380Y910591D02*
Y915669D01*
X1361111Y916939D01*
X1358572D01*
X1357302Y915669D01*
Y910591D01*
X1358572Y909321D01*
X1361111D01*
X1359841Y911860D02*
X1362380Y909321D01*
X1361111D02*
X1362380Y910591D01*
X1364920Y916939D02*
X1369998D01*
Y915669D01*
X1364920Y910591D01*
Y909321D01*
X2172030Y913131D02*
Y918209D01*
X2170761Y919479D01*
X2168222D01*
X2166952Y918209D01*
Y913131D01*
X2168222Y911861D01*
X2170761D01*
X2169491Y914400D02*
X2172030Y911861D01*
X2170761D02*
X2172030Y913131D01*
X2179648Y919479D02*
X2177109Y918209D01*
X2174570Y915670D01*
Y913131D01*
X2175839Y911861D01*
X2178378D01*
X2179648Y913131D01*
Y914400D01*
X2178378Y915670D01*
X2174570D01*
X1772920Y916941D02*
Y922019D01*
X1771651Y923289D01*
X1769112D01*
X1767842Y922019D01*
Y916941D01*
X1769112Y915671D01*
X1771651D01*
X1770381Y918210D02*
X1772920Y915671D01*
X1771651D02*
X1772920Y916941D01*
X1780538Y923289D02*
X1775460D01*
Y919480D01*
X1777999Y920750D01*
X1779268D01*
X1780538Y919480D01*
Y916941D01*
X1779268Y915671D01*
X1776729D01*
X1775460Y916941D01*
X973328Y576834D02*
Y584451D01*
X977137D01*
X978406Y583182D01*
Y580643D01*
X977137Y579373D01*
X973328D01*
X980946Y583182D02*
X982215Y584451D01*
X984754D01*
X986024Y583182D01*
Y581912D01*
X984754Y580643D01*
X983485D01*
X984754D01*
X986024Y579373D01*
Y578104D01*
X984754Y576834D01*
X982215D01*
X980946Y578104D01*
X988563Y583182D02*
X989833Y584451D01*
X992372D01*
X993641Y583182D01*
Y581912D01*
X992372Y580643D01*
X991102D01*
X992372D01*
X993641Y579373D01*
Y578104D01*
X992372Y576834D01*
X989833D01*
X988563Y578104D01*
X884428Y575564D02*
Y583181D01*
X888237D01*
X889506Y581912D01*
Y579373D01*
X888237Y578103D01*
X884428D01*
X892046Y581912D02*
X893315Y583181D01*
X895854D01*
X897124Y581912D01*
Y580642D01*
X895854Y579373D01*
X894585D01*
X895854D01*
X897124Y578103D01*
Y576834D01*
X895854Y575564D01*
X893315D01*
X892046Y576834D01*
X904741Y575564D02*
X899663D01*
X904741Y580642D01*
Y581912D01*
X903472Y583181D01*
X900933D01*
X899663Y581912D01*
X569468Y576834D02*
Y584451D01*
X573277D01*
X574546Y583182D01*
Y580643D01*
X573277Y579373D01*
X569468D01*
X577085Y583182D02*
X578355Y584451D01*
X580894D01*
X582164Y583182D01*
Y581912D01*
X580894Y580643D01*
X579625D01*
X580894D01*
X582164Y579373D01*
Y578104D01*
X580894Y576834D01*
X578355D01*
X577085Y578104D01*
X584703Y576834D02*
X587242D01*
X585973D01*
Y584451D01*
X584703Y583182D01*
X476758Y576834D02*
Y584451D01*
X480567D01*
X481836Y583182D01*
Y580643D01*
X480567Y579373D01*
X476758D01*
X484375Y583182D02*
X485645Y584451D01*
X488184D01*
X489454Y583182D01*
Y581912D01*
X488184Y580643D01*
X486915D01*
X488184D01*
X489454Y579373D01*
Y578104D01*
X488184Y576834D01*
X485645D01*
X484375Y578104D01*
X491993Y583182D02*
X493263Y584451D01*
X495802D01*
X497071Y583182D01*
Y578104D01*
X495802Y576834D01*
X493263D01*
X491993Y578104D01*
Y583182D01*
X1380998Y586994D02*
Y594612D01*
X1384807D01*
X1386076Y593342D01*
Y590803D01*
X1384807Y589533D01*
X1380998D01*
X1393694Y586994D02*
X1388616D01*
X1393694Y592072D01*
Y593342D01*
X1392424Y594612D01*
X1389885D01*
X1388616Y593342D01*
X1396233Y588264D02*
X1397503Y586994D01*
X1400042D01*
X1401311Y588264D01*
Y593342D01*
X1400042Y594612D01*
X1397503D01*
X1396233Y593342D01*
Y592072D01*
X1397503Y590803D01*
X1401311D01*
X1290828Y585724D02*
Y593341D01*
X1294637D01*
X1295906Y592072D01*
Y589533D01*
X1294637Y588263D01*
X1290828D01*
X1303524Y585724D02*
X1298445D01*
X1303524Y590802D01*
Y592072D01*
X1302254Y593341D01*
X1299715D01*
X1298445Y592072D01*
X1306063D02*
X1307333Y593341D01*
X1309872D01*
X1311141Y592072D01*
Y590802D01*
X1309872Y589533D01*
X1311141Y588263D01*
Y586994D01*
X1309872Y585724D01*
X1307333D01*
X1306063Y586994D01*
Y588263D01*
X1307333Y589533D01*
X1306063Y590802D01*
Y592072D01*
X1307333Y589533D02*
X1309872D01*
X2173478Y588264D02*
Y595882D01*
X2177287D01*
X2178556Y594612D01*
Y592073D01*
X2177287Y590803D01*
X2173478D01*
X2186174Y588264D02*
X2181095D01*
X2186174Y593342D01*
Y594612D01*
X2184904Y595882D01*
X2182365D01*
X2181095Y594612D01*
X2188713Y595882D02*
X2193791D01*
Y594612D01*
X2188713Y589534D01*
Y588264D01*
X2076958Y586994D02*
Y594612D01*
X2080767D01*
X2082036Y593342D01*
Y590803D01*
X2080767Y589533D01*
X2076958D01*
X2089654Y586994D02*
X2084576D01*
X2089654Y592072D01*
Y593342D01*
X2088384Y594612D01*
X2085845D01*
X2084576Y593342D01*
X2097271Y594612D02*
X2094732Y593342D01*
X2092193Y590803D01*
Y588264D01*
X2093463Y586994D01*
X2096002D01*
X2097271Y588264D01*
Y589533D01*
X2096002Y590803D01*
X2092193D01*
X1792478Y585724D02*
Y593341D01*
X1796287D01*
X1797556Y592072D01*
Y589533D01*
X1796287Y588263D01*
X1792478D01*
X1805174Y585724D02*
X1800096D01*
X1805174Y590802D01*
Y592072D01*
X1803904Y593341D01*
X1801365D01*
X1800096Y592072D01*
X1812791Y593341D02*
X1807713D01*
Y589533D01*
X1810252Y590802D01*
X1811522D01*
X1812791Y589533D01*
Y586994D01*
X1811522Y585724D01*
X1808983D01*
X1807713Y586994D01*
X1688338Y585724D02*
Y593341D01*
X1692147D01*
X1693416Y592072D01*
Y589533D01*
X1692147Y588263D01*
X1688338D01*
X1701034Y585724D02*
X1695956D01*
X1701034Y590802D01*
Y592072D01*
X1699764Y593341D01*
X1697225D01*
X1695956Y592072D01*
X1707382Y585724D02*
Y593341D01*
X1703573Y589533D01*
X1708651D01*
X277368Y805688D02*
Y813306D01*
X281177D01*
X282446Y812036D01*
Y809497D01*
X281177Y808227D01*
X277368D01*
X290064Y805688D02*
X284986D01*
X290064Y810766D01*
Y812036D01*
X288794Y813306D01*
X286255D01*
X284986Y812036D01*
X292603D02*
X293873Y813306D01*
X296412D01*
X297681Y812036D01*
Y810766D01*
X296412Y809497D01*
X295142D01*
X296412D01*
X297681Y808227D01*
Y806958D01*
X296412Y805688D01*
X293873D01*
X292603Y806958D01*
X797563Y938531D02*
Y946149D01*
X801372D01*
X802642Y944879D01*
Y942340D01*
X801372Y941070D01*
X797563D01*
X810259Y938531D02*
X805181D01*
X810259Y943610D01*
Y944879D01*
X808990Y946149D01*
X806450D01*
X805181Y944879D01*
X817877Y938531D02*
X812798D01*
X817877Y943610D01*
Y944879D01*
X816607Y946149D01*
X814068D01*
X812798Y944879D01*
X367033Y933451D02*
Y941069D01*
X370842D01*
X372111Y939799D01*
Y937260D01*
X370842Y935990D01*
X367033D01*
X379729Y933451D02*
X374650D01*
X379729Y938530D01*
Y939799D01*
X378459Y941069D01*
X375920D01*
X374650Y939799D01*
X382268Y933451D02*
X384807D01*
X383537D01*
Y941069D01*
X382268Y939799D01*
X1135383Y932181D02*
Y939799D01*
X1139192D01*
X1140462Y938529D01*
Y935990D01*
X1139192Y934720D01*
X1135383D01*
X1148079Y932181D02*
X1143001D01*
X1148079Y937260D01*
Y938529D01*
X1146810Y939799D01*
X1144270D01*
X1143001Y938529D01*
X1150618D02*
X1151888Y939799D01*
X1154427D01*
X1155697Y938529D01*
Y933451D01*
X1154427Y932181D01*
X1151888D01*
X1150618Y933451D01*
Y938529D01*
X1958978Y944881D02*
Y952499D01*
X1962787D01*
X1964056Y951229D01*
Y948690D01*
X1962787Y947420D01*
X1958978D01*
X1966596Y944881D02*
X1969135D01*
X1967865D01*
Y952499D01*
X1966596Y951229D01*
X1972944Y946151D02*
X1974213Y944881D01*
X1976752D01*
X1978022Y946151D01*
Y951229D01*
X1976752Y952499D01*
X1974213D01*
X1972944Y951229D01*
Y949960D01*
X1974213Y948690D01*
X1978022D01*
X1524638Y923291D02*
Y930909D01*
X1528447D01*
X1529716Y929639D01*
Y927100D01*
X1528447Y925830D01*
X1524638D01*
X1532256Y923291D02*
X1534795D01*
X1533525D01*
Y930909D01*
X1532256Y929639D01*
X1538604D02*
X1539873Y930909D01*
X1542412D01*
X1543682Y929639D01*
Y928370D01*
X1542412Y927100D01*
X1543682Y925830D01*
Y924561D01*
X1542412Y923291D01*
X1539873D01*
X1538604Y924561D01*
Y925830D01*
X1539873Y927100D01*
X1538604Y928370D01*
Y929639D01*
X1539873Y927100D02*
X1542412D01*
X265938Y1003300D02*
Y1010918D01*
X269747D01*
X271016Y1009648D01*
Y1007109D01*
X269747Y1005839D01*
X265938D01*
X273556Y1003300D02*
X276095D01*
X274825D01*
Y1010918D01*
X273556Y1009648D01*
X279904Y1010918D02*
X284982D01*
Y1009648D01*
X279904Y1004570D01*
Y1003300D01*
X1051562Y725169D02*
Y717551D01*
X1055371D01*
X1056640Y718821D01*
Y723899D01*
X1055371Y725169D01*
X1051562D01*
X1059180Y718821D02*
X1060449Y717551D01*
X1062988D01*
X1064258Y718821D01*
Y723899D01*
X1062988Y725169D01*
X1060449D01*
X1059180Y723899D01*
Y722630D01*
X1060449Y721360D01*
X1064258D01*
X655322Y734059D02*
Y726441D01*
X659131D01*
X660400Y727711D01*
Y732789D01*
X659131Y734059D01*
X655322D01*
X662940Y732789D02*
X664209Y734059D01*
X666748D01*
X668018Y732789D01*
Y731520D01*
X666748Y730250D01*
X668018Y728980D01*
Y727711D01*
X666748Y726441D01*
X664209D01*
X662940Y727711D01*
Y728980D01*
X664209Y730250D01*
X662940Y731520D01*
Y732789D01*
X664209Y730250D02*
X666748D01*
X1483362Y734059D02*
Y726441D01*
X1487171D01*
X1488440Y727711D01*
Y732789D01*
X1487171Y734059D01*
X1483362D01*
X1490980D02*
X1496058D01*
Y732789D01*
X1490980Y727711D01*
Y726441D01*
X2283462Y734059D02*
Y726441D01*
X2287271D01*
X2288540Y727711D01*
Y732789D01*
X2287271Y734059D01*
X2283462D01*
X2296158D02*
X2293619Y732789D01*
X2291080Y730250D01*
Y727711D01*
X2292349Y726441D01*
X2294888D01*
X2296158Y727711D01*
Y728980D01*
X2294888Y730250D01*
X2291080D01*
X1883412Y732789D02*
Y725171D01*
X1887221D01*
X1888490Y726441D01*
Y731519D01*
X1887221Y732789D01*
X1883412D01*
X1896108D02*
X1891030D01*
Y728980D01*
X1893569Y730250D01*
X1894838D01*
X1896108Y728980D01*
Y726441D01*
X1894838Y725171D01*
X1892299D01*
X1891030Y726441D01*
M02*
