G04*
G04 #@! TF.GenerationSoftware,Altium Limited,Altium Designer,26.7.1 (11)*
G04*
G04 Layer_Physical_Order=1*
G04 Layer_Color=5050912*
G04 Board_Origin=0|0*
%FSLAX44Y44*%
%MOMM*%
G71*
G04*
G04 #@! TF.SameCoordinates,583846A4-3352-41E3-B125-808192F216B1*
G04*
G04*
G04 #@! TF.FilePolarity,Positive*
G04*
G01*
G75*
%ADD15C,1.5240*%
%ADD16C,1.2750*%
%ADD17R,1.2750X1.2750*%
%ADD18C,1.3080*%
%ADD19C,1.2000*%
%ADD20R,1.1300X1.1300*%
%ADD21C,1.1300*%
%ADD22C,1.5000*%
%ADD23C,1.9500*%
%ADD24R,1.5000X1.5000*%
%ADD25R,1.2180X1.2180*%
%ADD26C,1.2180*%
%ADD28C,1.2700*%
%ADD29C,0.4572*%
%ADD30C,1.7526*%
D15*
X2259330Y1172210D02*
D03*
X2067560D02*
D03*
X1870710Y1169670D02*
D03*
X1680210D02*
D03*
X1468120D02*
D03*
X1272540Y1172210D02*
D03*
X1056640Y1173480D02*
D03*
X866140D02*
D03*
X662940Y1181100D02*
D03*
X469900Y1179830D02*
D03*
X2378710Y519430D02*
D03*
X2392680Y1333500D02*
D03*
X307340Y516890D02*
D03*
X302260Y1333500D02*
D03*
X2067560Y1273810D02*
D03*
X2256790Y1276350D02*
D03*
X1678940Y1273810D02*
D03*
X1868170Y1276350D02*
D03*
X1272540Y1272540D02*
D03*
X1461770Y1275080D02*
D03*
X867410Y1272540D02*
D03*
X1056640Y1275080D02*
D03*
X469900D02*
D03*
X659130Y1277620D02*
D03*
D16*
X2256790Y587060D02*
D03*
X1859280Y588330D02*
D03*
X1461770Y581980D02*
D03*
X1031240D02*
D03*
X628650Y587060D02*
D03*
D17*
X2256790Y734060D02*
D03*
X1859280Y735330D02*
D03*
X1461770Y728980D02*
D03*
X1031240D02*
D03*
X628650Y734060D02*
D03*
D18*
X2220840Y923290D02*
D03*
X2330840D02*
D03*
X1803010Y932180D02*
D03*
X1913010D02*
D03*
X1709420Y863990D02*
D03*
X1388990Y924560D02*
D03*
X1498990D02*
D03*
X1294130Y857640D02*
D03*
Y747640D02*
D03*
X1000370Y924560D02*
D03*
X1110370D02*
D03*
X2153040Y692150D02*
D03*
X1774580Y685800D02*
D03*
X1354210Y683260D02*
D03*
X952890Y680720D02*
D03*
X531250Y692150D02*
D03*
X609210Y928370D02*
D03*
X719210D02*
D03*
X618490Y860180D02*
D03*
X1244210Y683260D02*
D03*
X2043040Y692150D02*
D03*
X1664580Y685800D02*
D03*
X842890Y680720D02*
D03*
X421250Y692150D02*
D03*
X2270760Y861450D02*
D03*
Y751450D02*
D03*
X1875790Y862720D02*
D03*
Y752720D02*
D03*
X1459230Y856370D02*
D03*
Y746370D02*
D03*
X1056640Y856370D02*
D03*
Y746370D02*
D03*
X654050Y860180D02*
D03*
Y750180D02*
D03*
X2235200Y861450D02*
D03*
X2099310Y751450D02*
D03*
Y861450D02*
D03*
X1842770Y862720D02*
D03*
X1709420Y753990D02*
D03*
X1426210Y856370D02*
D03*
X1023620D02*
D03*
X889000Y745100D02*
D03*
Y855100D02*
D03*
X485140Y751450D02*
D03*
Y861450D02*
D03*
X1956680Y750570D02*
D03*
X2066680D02*
D03*
X1569330Y754380D02*
D03*
X1679330D02*
D03*
X1147690Y723900D02*
D03*
X1257690D02*
D03*
X779390Y643890D02*
D03*
X889390D02*
D03*
X385690Y657860D02*
D03*
X495690D02*
D03*
D19*
X2027800Y924560D02*
D03*
X2137800D02*
D03*
X1637910Y930910D02*
D03*
X1747910D02*
D03*
X834000Y924560D02*
D03*
X944000D02*
D03*
X444110Y928370D02*
D03*
X554110D02*
D03*
X1331350Y924560D02*
D03*
X1221350D02*
D03*
D20*
X2131060Y886460D02*
D03*
X1738300Y889000D02*
D03*
X1321740Y882650D02*
D03*
X919150Y881380D02*
D03*
X514350Y886460D02*
D03*
D21*
X2131060Y861060D02*
D03*
Y835660D02*
D03*
Y810260D02*
D03*
Y784860D02*
D03*
Y759460D02*
D03*
Y734060D02*
D03*
X2207590D02*
D03*
Y759460D02*
D03*
Y784860D02*
D03*
Y810260D02*
D03*
Y835660D02*
D03*
Y861060D02*
D03*
Y886460D02*
D03*
X1738300Y863600D02*
D03*
Y838200D02*
D03*
Y812800D02*
D03*
Y787400D02*
D03*
Y762000D02*
D03*
Y736600D02*
D03*
X1814830D02*
D03*
Y762000D02*
D03*
Y787400D02*
D03*
Y812800D02*
D03*
Y838200D02*
D03*
Y863600D02*
D03*
Y889000D02*
D03*
X1321740Y857250D02*
D03*
Y831850D02*
D03*
Y806450D02*
D03*
Y781050D02*
D03*
Y755650D02*
D03*
Y730250D02*
D03*
X1398270D02*
D03*
Y755650D02*
D03*
Y781050D02*
D03*
Y806450D02*
D03*
Y831850D02*
D03*
Y857250D02*
D03*
Y882650D02*
D03*
X919150Y855980D02*
D03*
Y830580D02*
D03*
Y805180D02*
D03*
Y779780D02*
D03*
Y754380D02*
D03*
Y728980D02*
D03*
X995680D02*
D03*
Y754380D02*
D03*
Y779780D02*
D03*
Y805180D02*
D03*
Y830580D02*
D03*
Y855980D02*
D03*
Y881380D02*
D03*
X590880Y810260D02*
D03*
X514350D02*
D03*
Y861060D02*
D03*
Y835660D02*
D03*
Y784860D02*
D03*
Y759460D02*
D03*
Y734060D02*
D03*
X590880D02*
D03*
Y759460D02*
D03*
Y784860D02*
D03*
Y835660D02*
D03*
Y861060D02*
D03*
Y886460D02*
D03*
D22*
X2085340Y1032910D02*
D03*
X1672590D02*
D03*
X1271270Y1031240D02*
D03*
X872490Y1032910D02*
D03*
X469900Y1031240D02*
D03*
X1901190Y1032910D02*
D03*
X2313940D02*
D03*
X1499870Y1031240D02*
D03*
X1101090Y1032910D02*
D03*
X698500Y1031240D02*
D03*
D23*
X316230Y911060D02*
D03*
Y861060D02*
D03*
Y770890D02*
D03*
D24*
X2034540Y1032910D02*
D03*
X1621790D02*
D03*
X1220470Y1031240D02*
D03*
X821690Y1032910D02*
D03*
X419100Y1031240D02*
D03*
D25*
X783590Y906780D02*
D03*
X394970Y901700D02*
D03*
X1985010Y915670D02*
D03*
X1574800Y910590D02*
D03*
X1176020Y901700D02*
D03*
D26*
X783590Y881380D02*
D03*
Y855980D02*
D03*
X394970Y876300D02*
D03*
Y850900D02*
D03*
X1985010Y864870D02*
D03*
Y890270D02*
D03*
X1574800Y859790D02*
D03*
Y885190D02*
D03*
X1176020Y850900D02*
D03*
Y876300D02*
D03*
D28*
X534670Y995680D02*
D03*
X680720Y815340D02*
D03*
X684315Y907765D02*
D03*
X508000Y1021080D02*
D03*
X2297430Y864870D02*
D03*
X2275840Y886460D02*
D03*
X2020570Y661670D02*
D03*
X2000250Y828040D02*
D03*
X1945640Y886460D02*
D03*
X1901190Y802640D02*
D03*
X1916430Y821690D02*
D03*
X1891030Y906780D02*
D03*
X1720850Y982980D02*
D03*
X1687830Y1016000D02*
D03*
X1617980Y844550D02*
D03*
Y904240D02*
D03*
X1875790Y889000D02*
D03*
X1487170Y810260D02*
D03*
X1464310Y882650D02*
D03*
X1200150Y819150D02*
D03*
X1160780D02*
D03*
X1189990Y807720D02*
D03*
X1132840Y864870D02*
D03*
X1096010Y789940D02*
D03*
X1062990Y881380D02*
D03*
X1113790Y819150D02*
D03*
X1085850Y902970D02*
D03*
X919480Y986790D02*
D03*
X889000Y1017270D02*
D03*
X855980Y607060D02*
D03*
X782320D02*
D03*
X388620Y615950D02*
D03*
X467360D02*
D03*
X735330Y863600D02*
D03*
X679450Y842010D02*
D03*
X692150Y877570D02*
D03*
X656590Y886460D02*
D03*
D29*
X514155Y861255D02*
X514350Y861060D01*
X485335Y861255D02*
X514155D01*
X485140Y861450D02*
X485335Y861255D01*
X1786244Y714386D02*
X1804670Y695960D01*
X1786244Y714386D02*
Y809614D01*
X1804670Y547370D02*
Y695960D01*
X534670Y994410D02*
X577136Y951944D01*
X534670Y994410D02*
Y995680D01*
X577136Y951944D02*
X601710D01*
X590880Y810260D02*
X673441D01*
X678521Y815340D01*
X680720D01*
X601710Y951944D02*
X645889Y907765D01*
X684315D01*
X497840Y1031240D02*
X508000Y1021080D01*
X469900Y1031240D02*
X497840D01*
X437868Y1060450D02*
X467078Y1031240D01*
X437868Y1060450D02*
X844950D01*
X384810D02*
X437868D01*
X467078Y1031240D02*
X469900D01*
X2210428Y779153D02*
X2238130Y751450D01*
X2210428Y779153D02*
Y780202D01*
X2207590Y783039D02*
Y784860D01*
X2238130Y751450D02*
X2270760D01*
X2207590Y783039D02*
X2210428Y780202D01*
X2270760Y751450D02*
X2297430Y778120D01*
Y864870D01*
X2207590Y886460D02*
X2275840D01*
X2169160Y771830D02*
X2207590Y810260D01*
X2169160Y683260D02*
Y771830D01*
X2147570Y661670D02*
X2169160Y683260D01*
X2020570Y661670D02*
X2147570D01*
X2018030Y810260D02*
X2131060D01*
X2000250Y828040D02*
X2018030Y810260D01*
X1945640Y886460D02*
Y938530D01*
X1967865Y960755D01*
Y1032910D01*
X2034540D01*
X2131060Y810260D02*
X2153040Y788280D01*
Y692150D02*
Y788280D01*
X2137800Y922550D02*
Y924560D01*
X2131060Y915810D02*
X2137800Y922550D01*
X2131060Y886460D02*
Y915810D01*
X2220205Y923925D02*
X2220840Y923290D01*
X2138435Y923925D02*
X2220205D01*
X2137800Y924560D02*
X2138435Y923925D01*
X2330840Y922410D02*
Y923290D01*
X2270760Y862330D02*
X2330840Y922410D01*
X2270760Y861450D02*
Y862330D01*
X2235200Y861450D02*
X2270760D01*
X2235005Y861255D02*
X2235200Y861450D01*
X2207785Y861255D02*
X2235005D01*
X2207590Y861060D02*
X2207785Y861255D01*
X2207590Y734060D02*
X2256790D01*
X2193290Y745160D02*
X2207590Y759460D01*
X2193290Y713740D02*
Y745160D01*
Y713740D02*
X2211070Y695960D01*
Y549910D02*
Y695960D01*
X2237740Y549910D02*
X2256790Y568960D01*
Y587060D01*
X2211070Y549910D02*
X2237740D01*
X1758061Y533781D02*
X1771650Y547370D01*
X1804670D01*
X1714119Y533781D02*
X1758061D01*
X1866011D02*
X1879600Y547370D01*
X2087880D01*
X1824441Y533781D02*
X1866011D01*
X1813331Y544891D02*
X1824441Y533781D01*
X1807149Y544891D02*
X1813331D01*
X2087880Y547370D02*
X2089150Y548640D01*
X1804670Y547370D02*
X1807149Y544891D01*
X2170811Y535051D02*
X2185670Y549910D01*
X2102739Y535051D02*
X2170811D01*
X2089150Y548640D02*
X2102739Y535051D01*
X1956680Y706510D02*
X2114550Y548640D01*
X1956680Y706510D02*
Y750570D01*
X1985010Y750180D02*
X2043040Y692150D01*
X1985010Y750180D02*
Y864870D01*
X2098870Y751010D02*
X2099310Y751450D01*
X2067120Y751010D02*
X2098870D01*
X2066680Y750570D02*
X2067120Y751010D01*
X2192350Y850900D02*
X2207590Y835660D01*
X2146300Y850900D02*
X2192350D01*
X2131060Y835660D02*
X2146300Y850900D01*
X2085459Y835660D02*
X2131060D01*
X2030849Y890270D02*
X2085459Y835660D01*
X1985010Y890270D02*
X2030849D01*
X2027800Y924560D02*
X2090208Y862152D01*
X2098608D02*
X2099505Y861255D01*
X2090208Y862152D02*
X2098608D01*
X2130865Y861255D02*
X2131060Y861060D01*
X2099505Y861255D02*
X2130865D01*
X1814830Y812800D02*
X1815309D01*
X1825469Y802640D01*
X1901190D01*
X1916430Y793360D02*
Y821690D01*
X1875790Y752720D02*
X1916430Y793360D01*
X1814830Y982980D02*
X1891030Y906780D01*
X1720850Y982980D02*
X1814830D01*
X1672590Y1031240D02*
X1687830Y1016000D01*
X1672590Y1031240D02*
Y1032910D01*
X1649730Y812800D02*
X1738300D01*
X1617980Y844550D02*
X1649730Y812800D01*
X1617980Y904240D02*
Y919480D01*
X1597660Y939800D02*
X1617980Y919480D01*
X1597660Y939800D02*
Y1031240D01*
X1620120D01*
X1814830Y889000D02*
X1875790D01*
X1813732Y839297D02*
X1814830Y838200D01*
X1813732Y839297D02*
Y845648D01*
X1753540Y853440D02*
X1805940D01*
X1813732Y845648D01*
X1738300Y838200D02*
X1753540Y853440D01*
X1680164Y838200D02*
X1738300D01*
X1786244Y809614D02*
X1814830Y838200D01*
X1932940D02*
X1985010Y890270D01*
X1814830Y838200D02*
X1932940D01*
X1738300Y921300D02*
X1748545Y931545D01*
X1738300Y889000D02*
Y921300D01*
X1802375Y931545D02*
X1803010Y932180D01*
X1748545Y931545D02*
X1802375D01*
X1913010Y899940D02*
Y932180D01*
X1875790Y862720D02*
X1913010Y899940D01*
X1842770Y862720D02*
X1875790D01*
X1842330Y863160D02*
X1842770Y862720D01*
X1815270Y863160D02*
X1842330D01*
X1814830Y863600D02*
X1815270Y863160D01*
X1849510Y752720D02*
X1875790D01*
X1814830Y787400D02*
X1849510Y752720D01*
X1797050Y744220D02*
X1814830Y762000D01*
X1797050Y718820D02*
Y744220D01*
Y718820D02*
X1859280Y656590D01*
Y588330D02*
Y656590D01*
X1857797Y586847D02*
X1859280Y588330D01*
X1857797Y575097D02*
Y586847D01*
X1830070Y547370D02*
X1857797Y575097D01*
X1858645Y735965D02*
X1859280Y735330D01*
X1815465Y735965D02*
X1858645D01*
X1814830Y736600D02*
X1815465Y735965D01*
X1709225Y754185D02*
X1709420Y753990D01*
X1679525Y754185D02*
X1709225D01*
X1679330Y754380D02*
X1679525Y754185D01*
X1738300Y812800D02*
X1774580Y776520D01*
Y685800D02*
Y776520D01*
X1574800Y775580D02*
X1664580Y685800D01*
X1574800Y775580D02*
Y859790D01*
X1569330Y703970D02*
X1725930Y547370D01*
X1569330Y703970D02*
Y754380D01*
X1700530Y547370D02*
X1714119Y533781D01*
X1633174Y885190D02*
X1680164Y838200D01*
X1574800Y885190D02*
X1633174D01*
X1738105Y863795D02*
X1738300Y863600D01*
X1709615Y863795D02*
X1738105D01*
X1709420Y863990D02*
X1709615Y863795D01*
X1707792Y865618D02*
X1709420Y863990D01*
X1703202Y865618D02*
X1707792D01*
X1637910Y930910D02*
X1703202Y865618D01*
X1475740Y746760D02*
X1487170Y758190D01*
Y810260D01*
X1459620Y746760D02*
X1475740D01*
X1459230Y746370D02*
X1459620Y746760D01*
X1398270Y882650D02*
X1464310D01*
X1374140Y688188D02*
Y771735D01*
X1393931Y791526D01*
X1398586D01*
X1412240Y805180D01*
X1541780Y885190D02*
X1574800D01*
X1468120Y811530D02*
X1541780Y885190D01*
X1412240Y811530D02*
X1468120D01*
X1412240D02*
Y817880D01*
X1398270Y831850D02*
X1412240Y817880D01*
X1385570Y819150D02*
X1398270Y806450D01*
X1200150Y819150D02*
X1385570D01*
X1383030Y847090D02*
X1398270Y831850D01*
X1336980Y847090D02*
X1383030D01*
X1412240Y805180D02*
Y811530D01*
X1113790Y819150D02*
X1160780D01*
X1321105Y807085D02*
X1321740Y806450D01*
X1190625Y807085D02*
X1321105D01*
X1189990Y807720D02*
X1190625Y807085D01*
X1132840Y864870D02*
Y1005805D01*
X1159945Y1032910D01*
X1218800D01*
X1271224Y831850D02*
X1321740D01*
X1226774Y876300D02*
X1271224Y831850D01*
X1176020Y876300D02*
X1226774D01*
X1461770Y563880D02*
Y581980D01*
X1418590Y548640D02*
X1446530D01*
X1461770Y563880D01*
X1384300Y741680D02*
X1398270Y755650D01*
X1384300Y698500D02*
Y741680D01*
Y698500D02*
X1418590Y664210D01*
Y548640D02*
Y664210D01*
X1498990Y924560D02*
X1499870Y923680D01*
Y897010D02*
Y923680D01*
X1459230Y856370D02*
X1499870Y897010D01*
X1331350Y924560D02*
X1388990D01*
X1321740Y914950D02*
X1331350Y924560D01*
X1321740Y882650D02*
Y914950D01*
X1321545Y857445D02*
X1321740Y857250D01*
X1294325Y857445D02*
X1321545D01*
X1294130Y857640D02*
X1294325Y857445D01*
X1292502Y859268D02*
X1294130Y857640D01*
X1286642Y859268D02*
X1292502D01*
X1221350Y924560D02*
X1286642Y859268D01*
X1079110Y746370D02*
X1094455Y761715D01*
X1056640Y746370D02*
X1079110D01*
X1094455Y761715D02*
Y788385D01*
X1096010Y789940D01*
X995680Y881380D02*
X1062990D01*
X1426210Y856370D02*
X1459230D01*
X1425770Y856810D02*
X1426210Y856370D01*
X1398710Y856810D02*
X1425770D01*
X1398270Y857250D02*
X1398710Y856810D01*
X1424550Y781050D02*
X1459230Y746370D01*
X1398270Y781050D02*
X1424550D01*
X1461135Y729615D02*
X1461770Y728980D01*
X1398905Y729615D02*
X1461135D01*
X1398270Y730250D02*
X1398905Y729615D01*
X1321740Y831850D02*
X1336980Y847090D01*
X1374140Y688188D02*
X1393190Y669138D01*
Y548640D02*
Y669138D01*
X1321740Y806450D02*
X1354210Y773980D01*
Y683260D02*
Y773980D01*
X1176020Y751450D02*
X1244210Y683260D01*
X1176020Y751450D02*
Y850900D01*
X1293432Y746942D02*
X1294130Y747640D01*
X1280732Y746942D02*
X1293432D01*
X1257690Y723900D02*
X1280732Y746942D01*
X1326320Y547370D02*
X1328420D01*
X1149790Y723900D02*
X1326320Y547370D01*
X1147690Y723900D02*
X1149790D01*
X1378331Y533781D02*
X1393190Y548640D01*
X1316609Y533781D02*
X1378331D01*
X1303020Y547370D02*
X1316609Y533781D01*
X995680Y805180D02*
X1099820D01*
X1113790Y819150D01*
X1002030Y986790D02*
X1085850Y902970D01*
X919480Y986790D02*
X1002030D01*
X872490Y1032510D02*
X886460Y1018540D01*
X872490Y1032510D02*
Y1032910D01*
X919150Y805180D02*
X952890Y771440D01*
Y680720D02*
Y771440D01*
X879230Y607060D02*
X952890Y680720D01*
X855980Y607060D02*
X879230D01*
X768350D02*
X782320D01*
X712470Y662940D02*
X768350Y607060D01*
X712470Y662940D02*
Y887730D01*
X759260Y934520D01*
Y1031240D01*
X820020D01*
X1130300Y830580D02*
X1176020Y876300D01*
X995680Y830580D02*
X1130300D01*
X984874Y743574D02*
X995680Y754380D01*
X984874Y705496D02*
Y743574D01*
Y705496D02*
X1031240Y659130D01*
Y581980D02*
Y659130D01*
X975360Y548640D02*
Y810260D01*
X995680Y830580D01*
X975360Y548640D02*
X985520Y538480D01*
X988060Y847090D02*
X995680Y839470D01*
X935660Y847090D02*
X988060D01*
X995680Y830580D02*
Y839470D01*
X919150Y830580D02*
X935660Y847090D01*
X876889Y830580D02*
X919150D01*
X783590Y740020D02*
X842890Y680720D01*
X783590Y740020D02*
Y855980D01*
X826089Y881380D02*
X876889Y830580D01*
X783590Y881380D02*
X826089D01*
X918710Y855540D02*
X919150Y855980D01*
X889440Y855540D02*
X918710D01*
X889000Y855100D02*
X889440Y855540D01*
X834700Y909400D02*
X889000Y855100D01*
X834700Y909400D02*
Y923860D01*
X834000Y924560D02*
X834700Y923860D01*
X944000Y924560D02*
X1000370D01*
X919150Y899710D02*
X944000Y924560D01*
X919150Y881380D02*
Y899710D01*
X1110370Y910100D02*
Y924560D01*
X1056640Y856370D02*
X1110370Y910100D01*
X1023620Y856370D02*
X1056640D01*
X1023425Y856175D02*
X1023620Y856370D01*
X995875Y856175D02*
X1023425D01*
X995680Y855980D02*
X995875Y856175D01*
X1023230Y779780D02*
X1056640Y746370D01*
X995680Y779780D02*
X1023230D01*
X995680Y728980D02*
X1031240D01*
Y558800D02*
Y581980D01*
X1010920Y538480D02*
X1031240Y558800D01*
X970661Y523621D02*
X985520Y538480D01*
X910209Y523621D02*
X970661D01*
X896620Y537210D02*
X910209Y523621D01*
X868255Y590975D02*
X922020Y537210D01*
X832305Y590975D02*
X868255D01*
X779390Y643890D02*
X832305Y590975D01*
X889195Y644085D02*
X889390Y643890D01*
X889195Y644085D02*
Y744905D01*
X889000Y745100D02*
X889195Y744905D01*
X2057800Y1060450D02*
X2085340Y1032910D01*
X1645050Y1060450D02*
X2057800D01*
X1242060D02*
X1645050D01*
X1242060D02*
X1271270Y1031240D01*
X1645050Y1060450D02*
X1672590Y1032910D01*
X844950Y1060450D02*
X872490Y1032910D01*
X844950Y1060450D02*
X1242060D01*
X367030Y1042670D02*
X384810Y1060450D01*
X367030Y985535D02*
Y1042670D01*
X316230Y934735D02*
X367030Y985535D01*
X316230Y911060D02*
Y934735D01*
X1620120Y1031240D02*
X1621790Y1032910D01*
X2065420Y1002030D02*
X2283060D01*
X2313940Y1032910D01*
X1901190D02*
X1967865D01*
X2034540D02*
X2065420Y1002030D01*
X1101090Y1032910D02*
X1159945D01*
X1071480Y1003300D02*
X1101090Y1032910D01*
X1499870Y1031240D02*
X1597660D01*
X1250950Y1000760D02*
X1469390D01*
X1218800Y1032910D02*
X1220470Y1031240D01*
X1250950Y1000760D01*
X1657750Y996950D02*
X1865230D01*
X1901190Y1032910D01*
X1621790D02*
X1657750Y996950D01*
X1469390Y1000760D02*
X1499870Y1031240D01*
X820020D02*
X821690Y1032910D01*
X851300Y1003300D01*
X433070Y1031240D02*
X455930Y1008380D01*
X698500Y1031240D02*
X759260D01*
X851300Y1003300D02*
X1071480D01*
X455930Y1008380D02*
X675640D01*
X698500Y1031240D01*
X419100D02*
X433070D01*
X400050D02*
X419100D01*
X391160Y1022350D02*
X400050Y1031240D01*
X391160Y965376D02*
Y1022350D01*
X316230Y861060D02*
Y890446D01*
Y828040D02*
Y861060D01*
Y890446D02*
X391160Y965376D01*
X531250Y692150D02*
Y793360D01*
X514350Y810260D02*
X531250Y793360D01*
X530860Y691760D02*
X531250Y692150D01*
X530860Y654050D02*
Y691760D01*
X492760Y615950D02*
X530860Y654050D01*
X266700Y652780D02*
X303530Y615950D01*
X266700Y778510D02*
X316230Y828040D01*
X266700Y652780D02*
Y778510D01*
X467360Y615950D02*
X492760D01*
X303530D02*
X388620D01*
X753110Y881380D02*
X783590D01*
X735330Y863600D02*
X753110Y881380D01*
X674370Y835660D02*
X679450Y840740D01*
X590880Y835660D02*
X674370D01*
X316230Y803910D02*
X387211Y874891D01*
X394970Y876300D02*
X433070D01*
X393561Y874891D02*
X394970Y876300D01*
X387211Y874891D02*
X393561D01*
X316230Y770890D02*
Y803910D01*
X654050Y750180D02*
X654930Y749300D01*
X680720D01*
X692150Y760730D01*
Y877570D01*
X590880Y886460D02*
X656590D01*
X719210Y926855D02*
Y928370D01*
X654050Y861695D02*
X719210Y926855D01*
X654050Y860180D02*
Y861695D01*
X618490Y860180D02*
X654050D01*
X618050Y860620D02*
X618490Y860180D01*
X591320Y860620D02*
X618050D01*
X590880Y861060D02*
X591320Y860620D01*
X554110Y928370D02*
X609210D01*
X552689Y926949D02*
X554110Y928370D01*
X552689Y924799D02*
Y926949D01*
X514350Y886460D02*
X552689Y924799D01*
X444110Y902480D02*
X485140Y861450D01*
X444110Y902480D02*
Y928370D01*
X568960Y806450D02*
X590252Y827742D01*
Y835033D01*
X590880Y835660D01*
X568960Y551180D02*
Y806450D01*
X590880Y835660D02*
Y845490D01*
X585470Y850900D02*
X590880Y845490D01*
X529590Y850900D02*
X585470D01*
X619370Y784860D02*
X654050Y750180D01*
X590880Y784860D02*
X619370D01*
X580404Y661656D02*
X628650Y613410D01*
X580404Y661656D02*
Y748984D01*
X628650Y587060D02*
Y613410D01*
X580404Y748984D02*
X590880Y759460D01*
X568960Y551180D02*
X580390Y539750D01*
X579120Y538480D02*
X581660D01*
X607060Y565470D02*
X628650Y587060D01*
X607060Y538480D02*
Y565470D01*
X590880Y734060D02*
X628650D01*
X514350Y835660D02*
X529590Y850900D01*
X473710Y835660D02*
X514350D01*
X485140Y668410D02*
X495690Y657860D01*
X485140Y668410D02*
Y751450D01*
X394970Y718430D02*
X421250Y692150D01*
X394970Y718430D02*
Y850900D01*
X433070Y876300D02*
X473710Y835660D01*
X385952Y657598D02*
X395232D01*
X514350Y538480D01*
X385690Y657860D02*
X385952Y657598D01*
X558800Y518160D02*
X579120Y538480D01*
X509270Y518160D02*
X558800D01*
X488950Y538480D02*
X509270Y518160D01*
D30*
X2211070Y549910D02*
D03*
X2185670D02*
D03*
X2114550Y548640D02*
D03*
X2089150D02*
D03*
X1830070Y547370D02*
D03*
X1804670D02*
D03*
X1725930D02*
D03*
X1700530D02*
D03*
X1418590Y548640D02*
D03*
X1393190D02*
D03*
X1328420Y547370D02*
D03*
X1303020D02*
D03*
X1010920Y538480D02*
D03*
X985520D02*
D03*
X922020Y537210D02*
D03*
X896620D02*
D03*
X607060Y538480D02*
D03*
X581660D02*
D03*
X514350D02*
D03*
X488950D02*
D03*
M02*
