M48
;Layer_Color=9474304
;FILE_FORMAT=4:4
METRIC,LZ
;TYPE=PLATED
T01F00S00C0.7100
T02F00S00C0.7112
T03F00S00C0.7300
T04F00S00C0.8000
T05F00S00C0.8500
T06F00S00C0.9000
T07F00S00C1.2446
T08F00S00C1.3000
T09F00S00C5.0000
T10F00S00C6.6000
T11F00S00C12.5000
%
T01
X0039497Y008509
Y008763
Y009017
X0078359Y0090678
Y0088138
Y0085598
X0117602Y008509
Y008763
Y009017
X015748Y0091059
Y0088519
Y0085979
X0198501Y0086487
Y0089027
Y0091567
T02
X0202057Y0066167
X0109601Y0078994
X0085598Y0060706
X0078232
X0046736Y0061595
X0038862
X0068072Y0081534
X0067945Y0084201
X0069215Y0087757
X00684315Y00907765
X0065659Y0088646
X0073533Y008636
X0053467Y0099568
X00508Y0102108
X00889Y0101727
X0091948Y0098679
X0106299Y0088138
X0108585Y0090297
X0113284Y0086487
X0111379Y0081915
X0116078
X0118999Y0080772
X0120015Y0081915
X0148717Y0081026
X0146431Y0088265
X0161798Y0090424
Y0084455
X0172085Y0098298
X0168783Y01016
X0189103Y0090678
X0187579Y00889
X0194564Y0088646
X0191643Y0082169
X0190119Y0080264
X0200025Y0082804
X0229743Y0086487
X0227584Y0088646
T03
X0213106Y0073406
Y0075946
Y0078486
X0220759
Y0075946
Y0073406
X0181483Y007366
Y00762
Y007874
X017383
Y00762
Y007366
X0139827Y0073025
Y0075565
Y0078105
X0132174
Y0075565
Y0073025
X0099568Y0072898
Y0075438
Y0077978
X0091915
Y0075438
Y0072898
X0059088Y0073406
Y0075946
Y0078486
X0051435
Y0075946
Y0073406
Y0081026
Y0083566
Y0086106
Y0088646
X0059088
Y0086106
Y0083566
Y0081026
X0091915Y0080518
Y0083058
Y0085598
Y0088138
X0099568
Y0085598
Y0083058
Y0080518
X0132174Y0080645
Y0083185
Y0085725
Y0088265
X0139827
Y0085725
Y0083185
Y0080645
X017383Y008128
Y008382
Y008636
Y00889
X0181483
Y008636
Y008382
Y008128
X0213106Y0081026
Y0083566
Y0086106
Y0088646
X0220759
Y0086106
Y0083566
Y0081026
T04
X0204304Y0069215
X0206668Y0075057
X0209931Y0075145
X0215304Y0069215
X0227076Y0075145
X0195668Y0075057
X0187579Y0075272
X0170942Y0075399
X0167933Y0075438
X0166458Y006858
X0177458
X0156933Y0075438
X0145923Y0074637
X0129413Y0074764
X0125769Y007239
X0124421Y0068326
X0135421
X0114769Y007239
X0105664Y0074637
X00889Y007451
X0088939Y0064389
X0084289Y0068072
X0095289
X0077939Y0064389
X0065405Y0075018
X0048514Y0075145
X0049569Y0065786
X0053125Y0069215
X0042125
X0038569Y0065786
X0048514Y0086145
X0044411Y0092837
X0055411
X0060921
X0061849Y0086018
X0065405
X0071921Y0092837
X00834Y0092456
X00944
X0100037
X0102362Y0085637
X0105664
X0111037Y0092456
X00889Y008551
X0122135Y0092456
X0133135
X0138899
X0142621Y0085637
X0145923
X0149899Y0092456
X0129413Y0085764
X0163791Y0093091
X0174791
X0180301Y0093218
X0184277Y0086272
X0187579
X0191301Y0093218
X0170942Y0086399
X020278Y0092456
X021378
X0222084Y0092329
X022352Y0086145
X0227076
X0233084Y0092329
X0209931Y0086145
T05
X0225679Y0058706
Y0073406
X0185928Y0073533
Y0058833
X0146177Y0058198
Y0072898
X0103124
Y0058198
X0062865Y0058706
Y0073406
T06
X004191Y0103124
X004699
X006985
X0082169Y0103291
X0087249
X0110109
X0122047Y0103124
X0127127
X0149987
X0162179Y0103291
X0167259
X0190119
X0203454
X0208534
X0231394
T07
X0208915Y0054864
X0211455
X0218567Y0054991
X0221107
X0183007Y0054737
X0180467
X0172593
X0170053
X0141859Y0054864
X0139319
X0132842Y0054737
X0130302
X0101092Y0053848
X0098552
X0092202Y0053721
X0089662
X0060706Y0053848
X0058166
X0051435
X0048895
T08
X0031623Y0077089
Y0086106
Y0091106
T09
X004699Y0117983
X0066294Y011811
X0086614Y0117348
X0105664
X0127254Y0117221
X0146812Y0116967
X0168021
X0187071
X0206756Y0117221
X0225933
T10
X0237871Y0051943
X0030734Y0051689
X0239268Y013335
X0030226
T11
X0206756Y0127381
X0225679Y0127635
X0186817
X0167894Y0127381
X0146177Y0127508
X0127254Y0127254
X0105664Y0127508
X0086741Y0127254
X0065913Y0127762
X004699Y0127508
M30
