G04*
G04 #@! TF.GenerationSoftware,Altium Limited,Altium Designer,26.7.1 (11)*
G04*
G04 Layer_Physical_Order=2*
G04 Layer_Color=16711680*
G04 Board_Origin=0|0*
%FSLAX44Y44*%
%MOMM*%
G71*
G04*
G04 #@! TF.SameCoordinates,583846A4-3352-41E3-B125-808192F216B1*
G04*
G04*
G04 #@! TF.FilePolarity,Positive*
G04*
G01*
G75*
%ADD15C,1.5240*%
%ADD16C,1.2750*%
%ADD17R,1.2750X1.2750*%
%ADD18C,1.3080*%
%ADD19C,1.2000*%
%ADD20R,1.1300X1.1300*%
%ADD21C,1.1300*%
%ADD22C,1.5000*%
%ADD23C,1.9500*%
%ADD24R,1.5000X1.5000*%
%ADD25R,1.2180X1.2180*%
%ADD26C,1.2180*%
%ADD28C,1.2700*%
%ADD29C,0.4572*%
%ADD30C,1.7526*%
%ADD31R,1.9500X1.9500*%
G36*
X620791Y975663D02*
X625420Y973751D01*
X629586Y970973D01*
X633130Y967434D01*
X635914Y963271D01*
X637832Y958645D01*
X638470Y955441D01*
X638810Y951230D01*
Y951230D01*
X638810D01*
X638810Y951230D01*
X638810Y755785D01*
X637976Y755100D01*
X626134D01*
X625756Y755755D01*
X624065Y757446D01*
X621995Y758641D01*
X619760Y759240D01*
Y750180D01*
X618490D01*
Y748910D01*
X609430D01*
X610029Y746675D01*
X611224Y744605D01*
X612915Y742914D01*
X614985Y741719D01*
X617295Y741100D01*
X619685D01*
X619735Y741062D01*
Y725145D01*
X634238D01*
X638810Y721089D01*
Y660400D01*
X638810Y657898D01*
X637834Y652991D01*
X635919Y648369D01*
X633139Y644208D01*
X629602Y640670D01*
X625441Y637891D01*
X620819Y635976D01*
X615912Y635000D01*
X613410Y635000D01*
X273050D01*
X270548Y635000D01*
X265641Y635976D01*
X261019Y637891D01*
X256858Y640670D01*
X253321Y644208D01*
X250541Y648369D01*
X248626Y652991D01*
X247650Y657898D01*
X247650Y660400D01*
Y678180D01*
Y951230D01*
Y953732D01*
X248626Y958639D01*
X250541Y963261D01*
X253321Y967421D01*
X256858Y970959D01*
X261019Y973739D01*
X265641Y975654D01*
X270548Y976630D01*
X273050D01*
X273050Y976630D01*
X300821D01*
X303940Y973350D01*
X303940Y972058D01*
Y962330D01*
X316230D01*
X328520D01*
Y972058D01*
X331639Y976630D01*
X613374Y976630D01*
X615878Y976634D01*
X620791Y975663D01*
D02*
G37*
G36*
X1842559Y947714D02*
X1847181Y945799D01*
X1851342Y943019D01*
X1854879Y939482D01*
X1857659Y935321D01*
X1859574Y930699D01*
X1860550Y925792D01*
Y923290D01*
Y744245D01*
X1853407D01*
X1853047Y744555D01*
X1851001Y748817D01*
X1851231Y749215D01*
X1851830Y751450D01*
X1842770D01*
Y752720D01*
X1841500D01*
Y761780D01*
X1839265Y761181D01*
X1837195Y759986D01*
X1835504Y758295D01*
X1834436Y756444D01*
X1826359D01*
X1825673Y756866D01*
X1823020Y760922D01*
Y763078D01*
X1822462Y765161D01*
X1821384Y767029D01*
X1819859Y768554D01*
X1817991Y769632D01*
X1815908Y770190D01*
X1813752D01*
X1811669Y769632D01*
X1809801Y768554D01*
X1808276Y767029D01*
X1807198Y765161D01*
X1806640Y763078D01*
Y760922D01*
X1803987Y756866D01*
X1803301Y756444D01*
X1801814D01*
X1799931Y756070D01*
X1798335Y755003D01*
X1760722Y717391D01*
X1631950D01*
Y919211D01*
X1632527Y920021D01*
X1636522Y922441D01*
X1636786Y922370D01*
X1639034D01*
X1641206Y922952D01*
X1643154Y924076D01*
X1644744Y925666D01*
X1645868Y927614D01*
X1646450Y929786D01*
Y932034D01*
X1645868Y934206D01*
X1644744Y936154D01*
X1643154Y937744D01*
X1641206Y938868D01*
X1639706Y943799D01*
X1639777Y943870D01*
X1643313Y946233D01*
X1647242Y947860D01*
X1651414Y948690D01*
X1837652D01*
X1842559Y947714D01*
D02*
G37*
G36*
X1424729Y945174D02*
X1429351Y943259D01*
X1433512Y940479D01*
X1437050Y936942D01*
X1439829Y932781D01*
X1441744Y928159D01*
X1442720Y923252D01*
Y920750D01*
Y762657D01*
X1437576D01*
X1435693Y762282D01*
X1434097Y761215D01*
X1428136Y755254D01*
X1427480Y755430D01*
Y747640D01*
X1435270D01*
X1435094Y748296D01*
X1438148Y751349D01*
X1442720Y749455D01*
Y666750D01*
Y664248D01*
X1441744Y659341D01*
X1439829Y654719D01*
X1437050Y650558D01*
X1433512Y647020D01*
X1429351Y644241D01*
X1424729Y642326D01*
X1419822Y641350D01*
X1389290D01*
X1386486Y645591D01*
X1386524Y645922D01*
X1387779Y646761D01*
X1429689Y688671D01*
X1430756Y690267D01*
X1431131Y692150D01*
Y738726D01*
X1431785Y739104D01*
X1433476Y740795D01*
X1434671Y742865D01*
X1435270Y745100D01*
X1426210D01*
X1417150D01*
X1417749Y742865D01*
X1418944Y740795D01*
X1420635Y739104D01*
X1421290Y738726D01*
Y694188D01*
X1382262Y655161D01*
X1263194D01*
X1248168Y670187D01*
X1248045Y671441D01*
X1249177Y675643D01*
X1249785Y675994D01*
X1251476Y677685D01*
X1252671Y679755D01*
X1253290Y682065D01*
Y684455D01*
X1252671Y686765D01*
X1251476Y688835D01*
X1249785Y690526D01*
X1247715Y691721D01*
X1245405Y692340D01*
X1243015D01*
X1240705Y691721D01*
X1238635Y690526D01*
X1236944Y688835D01*
X1235749Y686765D01*
X1235130Y684455D01*
Y682065D01*
X1231756Y678020D01*
X1212850D01*
Y914517D01*
X1213765Y915419D01*
X1217422Y916967D01*
X1218054Y916602D01*
X1220226Y916020D01*
X1222474D01*
X1224646Y916602D01*
X1226594Y917726D01*
X1228184Y919316D01*
X1229308Y921264D01*
X1229890Y923436D01*
Y925684D01*
X1229308Y927856D01*
X1228184Y929804D01*
X1226594Y931394D01*
X1224646Y932518D01*
X1222474Y933100D01*
X1221452D01*
X1219600Y935527D01*
X1219089Y937510D01*
X1222058Y940479D01*
X1226219Y943259D01*
X1230841Y945174D01*
X1235748Y946150D01*
X1419822D01*
X1424729Y945174D01*
D02*
G37*
G36*
X1023409D02*
X1028031Y943259D01*
X1032191Y940479D01*
X1035729Y936942D01*
X1038509Y932781D01*
X1040424Y928159D01*
X1041400Y923252D01*
Y920750D01*
Y754855D01*
X1041321Y754686D01*
X1037666Y751291D01*
X1031264D01*
X1030886Y751945D01*
X1029195Y753636D01*
X1027125Y754831D01*
X1024890Y755430D01*
Y746370D01*
X1022350D01*
Y755430D01*
X1020115Y754831D01*
X1018045Y753636D01*
X1016354Y751945D01*
X1015976Y751291D01*
X1005413D01*
X1003870Y753302D01*
Y755458D01*
X1003312Y757541D01*
X1002234Y759409D01*
X1000709Y760934D01*
X998841Y762012D01*
X996758Y762570D01*
X994602D01*
X992519Y762012D01*
X990651Y760934D01*
X989126Y759409D01*
X988048Y757541D01*
X987490Y755458D01*
Y753302D01*
X988048Y751219D01*
X989126Y749351D01*
X989529Y748949D01*
X987942Y744377D01*
X978216D01*
X976333Y744002D01*
X974737Y742935D01*
X946652Y714850D01*
X812800D01*
Y920750D01*
Y923252D01*
X813776Y928159D01*
X815691Y932781D01*
X818471Y936942D01*
X822008Y940479D01*
X826169Y943259D01*
X830791Y945174D01*
X835698Y946150D01*
X1018502D01*
X1023409Y945174D01*
D02*
G37*
G36*
X2236259D02*
X2240881Y943259D01*
X2245042Y940479D01*
X2248579Y936942D01*
X2251359Y932781D01*
X2253274Y928159D01*
X2254250Y923252D01*
Y920750D01*
Y742975D01*
X2247875D01*
Y725145D01*
X2254250D01*
Y698500D01*
Y695998D01*
X2253274Y691091D01*
X2251359Y686469D01*
X2248579Y682308D01*
X2245042Y678771D01*
X2240881Y675991D01*
X2236259Y674076D01*
X2231352Y673100D01*
X2222986D01*
Y732278D01*
X2233274Y742566D01*
X2233930Y742390D01*
Y750180D01*
X2226140D01*
X2226316Y749524D01*
X2215678Y738887D01*
X2214144Y739089D01*
X2212619Y740614D01*
X2210751Y741692D01*
X2208668Y742250D01*
X2206512D01*
X2204429Y741692D01*
X2202561Y740614D01*
X2201036Y739089D01*
X2199958Y737221D01*
X2199400Y735138D01*
Y732982D01*
X2199958Y730899D01*
X2201036Y729031D01*
X2202561Y727506D01*
X2204429Y726428D01*
X2206512Y725870D01*
X2208668D01*
X2212724Y723217D01*
X2213145Y722531D01*
Y673244D01*
X2213001Y673100D01*
X2067598D01*
X2062691Y674076D01*
X2058069Y675991D01*
X2053908Y678771D01*
X2050370Y682308D01*
X2048636Y684905D01*
X2050306Y686575D01*
X2051501Y688645D01*
X2052120Y690955D01*
Y693345D01*
X2051501Y695655D01*
X2050306Y697725D01*
X2048615Y699416D01*
X2046545Y700611D01*
X2044700Y701105D01*
Y920750D01*
Y923252D01*
X2045676Y928159D01*
X2047591Y932781D01*
X2050370Y936942D01*
X2053908Y940479D01*
X2058069Y943259D01*
X2062691Y945174D01*
X2067598Y946150D01*
X2231352D01*
X2236259Y945174D01*
D02*
G37*
G36*
X1837195Y745454D02*
X1837849Y745076D01*
Y707390D01*
X1838224Y705507D01*
X1839291Y703911D01*
X1860550Y682651D01*
Y660400D01*
Y657898D01*
X1859574Y652991D01*
X1857659Y648369D01*
X1854879Y644208D01*
X1851342Y640670D01*
X1847181Y637891D01*
X1842559Y635976D01*
X1837652Y635000D01*
X1654848D01*
X1649941Y635976D01*
X1645319Y637891D01*
X1641158Y640670D01*
X1637621Y644208D01*
X1634841Y648369D01*
X1632926Y652991D01*
X1631950Y657898D01*
Y660400D01*
Y707550D01*
X1762760D01*
X1764643Y707924D01*
X1766239Y708991D01*
X1802799Y745550D01*
X1805367Y745185D01*
X1806255Y744100D01*
X1807607Y740469D01*
X1807198Y739761D01*
X1806640Y737678D01*
Y735522D01*
X1807198Y733439D01*
X1808276Y731571D01*
X1809801Y730046D01*
X1811669Y728968D01*
X1813752Y728410D01*
X1815908D01*
X1817991Y728968D01*
X1819859Y730046D01*
X1821384Y731571D01*
X1822462Y733439D01*
X1823020Y735522D01*
Y737678D01*
X1822462Y739761D01*
X1821384Y741629D01*
X1820981Y742031D01*
X1822568Y746603D01*
X1836046D01*
X1837195Y745454D01*
D02*
G37*
G36*
X1016354Y740795D02*
X1018045Y739104D01*
X1020115Y737909D01*
X1022325Y737317D01*
Y720065D01*
X1040155D01*
X1041400Y716009D01*
Y654050D01*
Y651548D01*
X1040424Y646641D01*
X1038509Y642019D01*
X1035729Y637858D01*
X1032191Y634320D01*
X1028031Y631541D01*
X1023409Y629626D01*
X1018502Y628650D01*
X835698D01*
X830791Y629626D01*
X826169Y631541D01*
X822008Y634320D01*
X818471Y637858D01*
X815691Y642019D01*
X813776Y646641D01*
X812800Y651548D01*
Y654050D01*
Y705010D01*
X948690D01*
X950573Y705384D01*
X952169Y706451D01*
X980254Y734536D01*
X984151D01*
X984837Y734114D01*
X987490Y730058D01*
Y727902D01*
X988048Y725819D01*
X989126Y723951D01*
X990651Y722426D01*
X992519Y721348D01*
X994602Y720790D01*
X996758D01*
X998841Y721348D01*
X1000709Y722426D01*
X1002234Y723951D01*
X1003312Y725819D01*
X1003870Y727902D01*
Y730058D01*
X1003312Y732141D01*
X1002234Y734009D01*
X1000709Y735534D01*
X1000464Y737390D01*
X1004523Y741450D01*
X1015976D01*
X1016354Y740795D01*
D02*
G37*
G36*
X1860550Y702542D02*
X1856326Y700793D01*
X1847690Y709428D01*
Y722951D01*
X1850365Y726415D01*
X1860550D01*
Y702542D01*
D02*
G37*
G36*
X1257677Y646761D02*
X1258932Y645922D01*
X1258970Y645591D01*
X1256166Y641350D01*
X1235748D01*
X1230841Y642326D01*
X1226219Y644241D01*
X1222058Y647020D01*
X1218521Y650558D01*
X1215741Y654719D01*
X1213826Y659341D01*
X1212978Y663607D01*
X1214738Y668179D01*
X1236258D01*
X1257677Y646761D01*
D02*
G37*
%LPC*%
G36*
X328520Y959790D02*
X317500D01*
Y948770D01*
X328520D01*
Y959790D01*
D02*
G37*
G36*
X314960D02*
X303940D01*
Y948770D01*
X314960D01*
Y959790D01*
D02*
G37*
G36*
X555234Y936910D02*
X552986D01*
X550814Y936328D01*
X548866Y935204D01*
X547276Y933614D01*
X546152Y931666D01*
X545570Y929494D01*
Y927246D01*
X546152Y925074D01*
X547276Y923126D01*
X548866Y921536D01*
X550814Y920412D01*
X552986Y919830D01*
X555234D01*
X557406Y920412D01*
X559354Y921536D01*
X560944Y923126D01*
X562068Y925074D01*
X562650Y927246D01*
Y929494D01*
X562068Y931666D01*
X560944Y933614D01*
X559354Y935204D01*
X557406Y936328D01*
X555234Y936910D01*
D02*
G37*
G36*
X445234D02*
X442986D01*
X440814Y936328D01*
X438866Y935204D01*
X437276Y933614D01*
X436152Y931666D01*
X435570Y929494D01*
Y927246D01*
X436152Y925074D01*
X437276Y923126D01*
X438866Y921536D01*
X440814Y920412D01*
X442986Y919830D01*
X445234D01*
X447406Y920412D01*
X449354Y921536D01*
X450944Y923126D01*
X452068Y925074D01*
X452650Y927246D01*
Y929494D01*
X452068Y931666D01*
X450944Y933614D01*
X449354Y935204D01*
X447406Y936328D01*
X445234Y936910D01*
D02*
G37*
G36*
X610405Y937450D02*
X608015D01*
X605705Y936831D01*
X603635Y935636D01*
X601944Y933945D01*
X600749Y931875D01*
X600130Y929565D01*
Y927175D01*
X600749Y924865D01*
X601944Y922795D01*
X603635Y921104D01*
X605705Y919909D01*
X608015Y919290D01*
X610405D01*
X612715Y919909D01*
X614785Y921104D01*
X616476Y922795D01*
X617671Y924865D01*
X618290Y927175D01*
Y929565D01*
X617671Y931875D01*
X616476Y933945D01*
X614785Y935636D01*
X612715Y936831D01*
X610405Y937450D01*
D02*
G37*
G36*
X317848Y923350D02*
X314612D01*
X311486Y922513D01*
X308684Y920894D01*
X306396Y918606D01*
X304778Y915804D01*
X303940Y912678D01*
Y909442D01*
X304778Y906316D01*
X306396Y903514D01*
X308684Y901226D01*
X311486Y899607D01*
X314612Y898770D01*
X317848D01*
X320974Y899607D01*
X323776Y901226D01*
X326064Y903514D01*
X327682Y906316D01*
X328520Y909442D01*
Y912678D01*
X327682Y915804D01*
X326064Y918606D01*
X323776Y920894D01*
X320974Y922513D01*
X317848Y923350D01*
D02*
G37*
G36*
X403600Y910330D02*
X386340D01*
Y893070D01*
X403600D01*
Y910330D01*
D02*
G37*
G36*
X591958Y894650D02*
X589802D01*
X587719Y894092D01*
X585851Y893014D01*
X584326Y891489D01*
X583248Y889621D01*
X582690Y887538D01*
Y885382D01*
X583248Y883299D01*
X584326Y881431D01*
X585851Y879906D01*
X587719Y878828D01*
X589802Y878270D01*
X591958D01*
X594041Y878828D01*
X595909Y879906D01*
X597434Y881431D01*
X598512Y883299D01*
X599070Y885382D01*
Y887538D01*
X598512Y889621D01*
X597434Y891489D01*
X595909Y893014D01*
X594041Y894092D01*
X591958Y894650D01*
D02*
G37*
G36*
X522540D02*
X506160D01*
Y878270D01*
X522540D01*
Y894650D01*
D02*
G37*
G36*
X396106Y884930D02*
X393834D01*
X391639Y884342D01*
X389671Y883206D01*
X388064Y881599D01*
X386928Y879631D01*
X386340Y877436D01*
Y875164D01*
X386928Y872969D01*
X388064Y871001D01*
X389671Y869394D01*
X391639Y868258D01*
X393834Y867670D01*
X396106D01*
X398301Y868258D01*
X400269Y869394D01*
X401876Y871001D01*
X403012Y872969D01*
X403600Y875164D01*
Y877436D01*
X403012Y879631D01*
X401876Y881599D01*
X400269Y883206D01*
X398301Y884342D01*
X396106Y884930D01*
D02*
G37*
G36*
X591958Y869250D02*
X589802D01*
X587719Y868692D01*
X585851Y867614D01*
X584326Y866089D01*
X583248Y864221D01*
X582690Y862138D01*
Y859982D01*
X583248Y857899D01*
X584326Y856031D01*
X585851Y854506D01*
X587719Y853428D01*
X589802Y852870D01*
X591958D01*
X594041Y853428D01*
X595909Y854506D01*
X597434Y856031D01*
X598512Y857899D01*
X599070Y859982D01*
Y862138D01*
X598512Y864221D01*
X597434Y866089D01*
X595909Y867614D01*
X594041Y868692D01*
X591958Y869250D01*
D02*
G37*
G36*
X515428D02*
X513272D01*
X511189Y868692D01*
X509321Y867614D01*
X507796Y866089D01*
X506718Y864221D01*
X506160Y862138D01*
Y859982D01*
X506718Y857899D01*
X507796Y856031D01*
X509321Y854506D01*
X511189Y853428D01*
X513272Y852870D01*
X515428D01*
X517511Y853428D01*
X519379Y854506D01*
X520904Y856031D01*
X521982Y857899D01*
X522540Y859982D01*
Y862138D01*
X521982Y864221D01*
X520904Y866089D01*
X519379Y867614D01*
X517511Y868692D01*
X515428Y869250D01*
D02*
G37*
G36*
X486335Y870530D02*
X483945D01*
X481635Y869911D01*
X479565Y868716D01*
X477874Y867025D01*
X476679Y864955D01*
X476060Y862645D01*
Y860255D01*
X476679Y857945D01*
X477874Y855875D01*
X479565Y854184D01*
X481635Y852989D01*
X483945Y852370D01*
X486335D01*
X488645Y852989D01*
X490715Y854184D01*
X492406Y855875D01*
X493601Y857945D01*
X494220Y860255D01*
Y862645D01*
X493601Y864955D01*
X492406Y867025D01*
X490715Y868716D01*
X488645Y869911D01*
X486335Y870530D01*
D02*
G37*
G36*
X619685Y869260D02*
X617295D01*
X614985Y868641D01*
X612915Y867446D01*
X611224Y865755D01*
X610029Y863685D01*
X609410Y861375D01*
Y858985D01*
X610029Y856675D01*
X611224Y854605D01*
X612915Y852914D01*
X614985Y851719D01*
X617295Y851100D01*
X619685D01*
X621995Y851719D01*
X624065Y852914D01*
X625756Y854605D01*
X626951Y856675D01*
X627570Y858985D01*
Y861375D01*
X626951Y863685D01*
X625756Y865755D01*
X624065Y867446D01*
X621995Y868641D01*
X619685Y869260D01*
D02*
G37*
G36*
X317848Y873350D02*
X314612D01*
X311486Y872513D01*
X308684Y870894D01*
X306396Y868606D01*
X304778Y865804D01*
X303940Y862678D01*
Y859442D01*
X304778Y856316D01*
X306396Y853514D01*
X308684Y851226D01*
X311486Y849607D01*
X314612Y848770D01*
X317848D01*
X320974Y849607D01*
X323776Y851226D01*
X326064Y853514D01*
X327682Y856316D01*
X328520Y859442D01*
Y862678D01*
X327682Y865804D01*
X326064Y868606D01*
X323776Y870894D01*
X320974Y872513D01*
X317848Y873350D01*
D02*
G37*
G36*
X396106Y859530D02*
X393834D01*
X391639Y858942D01*
X389671Y857806D01*
X388064Y856199D01*
X386928Y854231D01*
X386340Y852036D01*
Y849764D01*
X386928Y847569D01*
X388064Y845601D01*
X389671Y843994D01*
X391639Y842858D01*
X393834Y842270D01*
X396106D01*
X398301Y842858D01*
X400269Y843994D01*
X401876Y845601D01*
X403012Y847569D01*
X403600Y849764D01*
Y852036D01*
X403012Y854231D01*
X401876Y856199D01*
X400269Y857806D01*
X398301Y858942D01*
X396106Y859530D01*
D02*
G37*
G36*
X591958Y843850D02*
X589802D01*
X587719Y843292D01*
X585851Y842214D01*
X584326Y840689D01*
X583248Y838821D01*
X582690Y836738D01*
Y834582D01*
X583248Y832499D01*
X584326Y830631D01*
X585851Y829106D01*
X587719Y828028D01*
X589802Y827470D01*
X591958D01*
X594041Y828028D01*
X595909Y829106D01*
X597434Y830631D01*
X598512Y832499D01*
X599070Y834582D01*
Y836738D01*
X598512Y838821D01*
X597434Y840689D01*
X595909Y842214D01*
X594041Y843292D01*
X591958Y843850D01*
D02*
G37*
G36*
X515428D02*
X513272D01*
X511189Y843292D01*
X509321Y842214D01*
X507796Y840689D01*
X506718Y838821D01*
X506160Y836738D01*
Y834582D01*
X506718Y832499D01*
X507796Y830631D01*
X509321Y829106D01*
X511189Y828028D01*
X513272Y827470D01*
X515428D01*
X517511Y828028D01*
X519379Y829106D01*
X520904Y830631D01*
X521982Y832499D01*
X522540Y834582D01*
Y836738D01*
X521982Y838821D01*
X520904Y840689D01*
X519379Y842214D01*
X517511Y843292D01*
X515428Y843850D01*
D02*
G37*
G36*
X591958Y818450D02*
X589802D01*
X587719Y817892D01*
X585851Y816814D01*
X584326Y815289D01*
X583248Y813421D01*
X582690Y811338D01*
Y809182D01*
X583248Y807099D01*
X584326Y805231D01*
X585851Y803706D01*
X587719Y802628D01*
X589802Y802070D01*
X591958D01*
X594041Y802628D01*
X595909Y803706D01*
X597434Y805231D01*
X598512Y807099D01*
X599070Y809182D01*
Y811338D01*
X598512Y813421D01*
X597434Y815289D01*
X595909Y816814D01*
X594041Y817892D01*
X591958Y818450D01*
D02*
G37*
G36*
X515428D02*
X513272D01*
X511189Y817892D01*
X509321Y816814D01*
X507796Y815289D01*
X506718Y813421D01*
X506160Y811338D01*
Y809182D01*
X506718Y807099D01*
X507796Y805231D01*
X509321Y803706D01*
X511189Y802628D01*
X513272Y802070D01*
X515428D01*
X517511Y802628D01*
X519379Y803706D01*
X520904Y805231D01*
X521982Y807099D01*
X522540Y809182D01*
Y811338D01*
X521982Y813421D01*
X520904Y815289D01*
X519379Y816814D01*
X517511Y817892D01*
X515428Y818450D01*
D02*
G37*
G36*
X591958Y793050D02*
X589802D01*
X587719Y792492D01*
X585851Y791414D01*
X584326Y789889D01*
X583248Y788021D01*
X582690Y785938D01*
Y783782D01*
X583248Y781699D01*
X584326Y779831D01*
X585851Y778306D01*
X587719Y777228D01*
X589802Y776670D01*
X591958D01*
X594041Y777228D01*
X595909Y778306D01*
X597434Y779831D01*
X598512Y781699D01*
X599070Y783782D01*
Y785938D01*
X598512Y788021D01*
X597434Y789889D01*
X595909Y791414D01*
X594041Y792492D01*
X591958Y793050D01*
D02*
G37*
G36*
X515428D02*
X513272D01*
X511189Y792492D01*
X509321Y791414D01*
X507796Y789889D01*
X506718Y788021D01*
X506160Y785938D01*
Y783782D01*
X506718Y781699D01*
X507796Y779831D01*
X509321Y778306D01*
X511189Y777228D01*
X513272Y776670D01*
X515428D01*
X517511Y777228D01*
X519379Y778306D01*
X520904Y779831D01*
X521982Y781699D01*
X522540Y783782D01*
Y785938D01*
X521982Y788021D01*
X520904Y789889D01*
X519379Y791414D01*
X517511Y792492D01*
X515428Y793050D01*
D02*
G37*
G36*
X317848Y783180D02*
X314612D01*
X311486Y782343D01*
X308684Y780724D01*
X306396Y778436D01*
X304778Y775634D01*
X303940Y772508D01*
Y769272D01*
X304778Y766146D01*
X306396Y763344D01*
X308684Y761056D01*
X311486Y759437D01*
X314612Y758600D01*
X317848D01*
X320974Y759437D01*
X323776Y761056D01*
X326064Y763344D01*
X327682Y766146D01*
X328520Y769272D01*
Y772508D01*
X327682Y775634D01*
X326064Y778436D01*
X323776Y780724D01*
X320974Y782343D01*
X317848Y783180D01*
D02*
G37*
G36*
X617220Y759240D02*
X614985Y758641D01*
X612915Y757446D01*
X611224Y755755D01*
X610029Y753685D01*
X609430Y751450D01*
X617220D01*
Y759240D01*
D02*
G37*
G36*
X591958Y767650D02*
X589802D01*
X587719Y767092D01*
X585851Y766014D01*
X584326Y764489D01*
X583248Y762621D01*
X582690Y760538D01*
Y758382D01*
X583248Y756299D01*
X584326Y754431D01*
X585851Y752906D01*
X587719Y751828D01*
X589802Y751270D01*
X591958D01*
X594041Y751828D01*
X595909Y752906D01*
X597434Y754431D01*
X598512Y756299D01*
X599070Y758382D01*
Y760538D01*
X598512Y762621D01*
X597434Y764489D01*
X595909Y766014D01*
X594041Y767092D01*
X591958Y767650D01*
D02*
G37*
G36*
X515428D02*
X513272D01*
X511189Y767092D01*
X509321Y766014D01*
X507796Y764489D01*
X506718Y762621D01*
X506160Y760538D01*
Y758382D01*
X506718Y756299D01*
X507796Y754431D01*
X509321Y752906D01*
X511189Y751828D01*
X513272Y751270D01*
X515428D01*
X517511Y751828D01*
X519379Y752906D01*
X520904Y754431D01*
X521982Y756299D01*
X522540Y758382D01*
Y760538D01*
X521982Y762621D01*
X520904Y764489D01*
X519379Y766014D01*
X517511Y767092D01*
X515428Y767650D01*
D02*
G37*
G36*
X486335Y760530D02*
X483945D01*
X481635Y759911D01*
X479565Y758716D01*
X477874Y757025D01*
X476679Y754955D01*
X476060Y752645D01*
Y750255D01*
X476679Y747945D01*
X477874Y745875D01*
X479565Y744184D01*
X481635Y742989D01*
X483945Y742370D01*
X486335D01*
X488645Y742989D01*
X490715Y744184D01*
X492406Y745875D01*
X493601Y747945D01*
X494220Y750255D01*
Y752645D01*
X493601Y754955D01*
X492406Y757025D01*
X490715Y758716D01*
X488645Y759911D01*
X486335Y760530D01*
D02*
G37*
G36*
X591958Y742250D02*
X589802D01*
X587719Y741692D01*
X585851Y740614D01*
X584326Y739089D01*
X583248Y737221D01*
X582690Y735138D01*
Y732982D01*
X583248Y730899D01*
X584326Y729031D01*
X585851Y727506D01*
X587719Y726428D01*
X589802Y725870D01*
X591958D01*
X594041Y726428D01*
X595909Y727506D01*
X597434Y729031D01*
X598512Y730899D01*
X599070Y732982D01*
Y735138D01*
X598512Y737221D01*
X597434Y739089D01*
X595909Y740614D01*
X594041Y741692D01*
X591958Y742250D01*
D02*
G37*
G36*
X515428D02*
X513272D01*
X511189Y741692D01*
X509321Y740614D01*
X507796Y739089D01*
X506718Y737221D01*
X506160Y735138D01*
Y732982D01*
X506718Y730899D01*
X507796Y729031D01*
X509321Y727506D01*
X511189Y726428D01*
X513272Y725870D01*
X515428D01*
X517511Y726428D01*
X519379Y727506D01*
X520904Y729031D01*
X521982Y730899D01*
X522540Y732982D01*
Y735138D01*
X521982Y737221D01*
X520904Y739089D01*
X519379Y740614D01*
X517511Y741692D01*
X515428Y742250D01*
D02*
G37*
G36*
X317848Y732380D02*
X317500D01*
Y721360D01*
X328520D01*
Y721708D01*
X327682Y724834D01*
X326064Y727636D01*
X323776Y729924D01*
X320974Y731543D01*
X317848Y732380D01*
D02*
G37*
G36*
X314960D02*
X314612D01*
X311486Y731543D01*
X308684Y729924D01*
X306396Y727636D01*
X304778Y724834D01*
X303940Y721708D01*
Y721360D01*
X314960D01*
Y732380D01*
D02*
G37*
G36*
X328520Y718820D02*
X317500D01*
Y707800D01*
X317848D01*
X320974Y708637D01*
X323776Y710256D01*
X326064Y712544D01*
X327682Y715346D01*
X328520Y718472D01*
Y718820D01*
D02*
G37*
G36*
X314960D02*
X303940D01*
Y718472D01*
X304778Y715346D01*
X306396Y712544D01*
X308684Y710256D01*
X311486Y708637D01*
X314612Y707800D01*
X314960D01*
Y718820D01*
D02*
G37*
G36*
X532445Y701230D02*
X530055D01*
X527745Y700611D01*
X525675Y699416D01*
X523984Y697725D01*
X522789Y695655D01*
X522170Y693345D01*
Y690955D01*
X522789Y688645D01*
X523984Y686575D01*
X525675Y684884D01*
X527745Y683689D01*
X530055Y683070D01*
X532445D01*
X534755Y683689D01*
X536825Y684884D01*
X538516Y686575D01*
X539711Y688645D01*
X540330Y690955D01*
Y693345D01*
X539711Y695655D01*
X538516Y697725D01*
X536825Y699416D01*
X534755Y700611D01*
X532445Y701230D01*
D02*
G37*
G36*
X422445D02*
X420055D01*
X417745Y700611D01*
X415675Y699416D01*
X413984Y697725D01*
X412789Y695655D01*
X412170Y693345D01*
Y690955D01*
X412789Y688645D01*
X413984Y686575D01*
X415675Y684884D01*
X417745Y683689D01*
X420055Y683070D01*
X422445D01*
X424755Y683689D01*
X426825Y684884D01*
X428516Y686575D01*
X429711Y688645D01*
X430330Y690955D01*
Y693345D01*
X429711Y695655D01*
X428516Y697725D01*
X426825Y699416D01*
X424755Y700611D01*
X422445Y701230D01*
D02*
G37*
G36*
X496885Y666940D02*
X494495D01*
X492185Y666321D01*
X490115Y665126D01*
X488424Y663435D01*
X487229Y661365D01*
X486610Y659055D01*
Y656665D01*
X487229Y654355D01*
X488424Y652285D01*
X490115Y650594D01*
X492185Y649399D01*
X494495Y648780D01*
X496885D01*
X499195Y649399D01*
X501265Y650594D01*
X502956Y652285D01*
X504151Y654355D01*
X504770Y656665D01*
Y659055D01*
X504151Y661365D01*
X502956Y663435D01*
X501265Y665126D01*
X499195Y666321D01*
X496885Y666940D01*
D02*
G37*
G36*
X386885D02*
X384495D01*
X382185Y666321D01*
X380115Y665126D01*
X378424Y663435D01*
X377229Y661365D01*
X376610Y659055D01*
Y656665D01*
X377229Y654355D01*
X378424Y652285D01*
X380115Y650594D01*
X382185Y649399D01*
X384495Y648780D01*
X386885D01*
X389195Y649399D01*
X391265Y650594D01*
X392956Y652285D01*
X394151Y654355D01*
X394770Y656665D01*
Y659055D01*
X394151Y661365D01*
X392956Y663435D01*
X391265Y665126D01*
X389195Y666321D01*
X386885Y666940D01*
D02*
G37*
G36*
X1804205Y941260D02*
X1801815D01*
X1799505Y940641D01*
X1797435Y939446D01*
X1795744Y937755D01*
X1794549Y935685D01*
X1793930Y933375D01*
Y930985D01*
X1794549Y928675D01*
X1795744Y926605D01*
X1797435Y924914D01*
X1799505Y923719D01*
X1801815Y923100D01*
X1804205D01*
X1806515Y923719D01*
X1808585Y924914D01*
X1810276Y926605D01*
X1811471Y928675D01*
X1812090Y930985D01*
Y933375D01*
X1811471Y935685D01*
X1810276Y937755D01*
X1808585Y939446D01*
X1806515Y940641D01*
X1804205Y941260D01*
D02*
G37*
G36*
X1749034Y939450D02*
X1746786D01*
X1744614Y938868D01*
X1742666Y937744D01*
X1741076Y936154D01*
X1739952Y934206D01*
X1739370Y932034D01*
Y929786D01*
X1739952Y927614D01*
X1741076Y925666D01*
X1742666Y924076D01*
X1744614Y922952D01*
X1746786Y922370D01*
X1749034D01*
X1751206Y922952D01*
X1753154Y924076D01*
X1754744Y925666D01*
X1755868Y927614D01*
X1756450Y929786D01*
Y932034D01*
X1755868Y934206D01*
X1754744Y936154D01*
X1753154Y937744D01*
X1751206Y938868D01*
X1749034Y939450D01*
D02*
G37*
G36*
X1815908Y897190D02*
X1813752D01*
X1811669Y896632D01*
X1809801Y895554D01*
X1808276Y894029D01*
X1807198Y892161D01*
X1806640Y890078D01*
Y887922D01*
X1807198Y885839D01*
X1808276Y883971D01*
X1809801Y882446D01*
X1811669Y881368D01*
X1813752Y880810D01*
X1815908D01*
X1817991Y881368D01*
X1819859Y882446D01*
X1821384Y883971D01*
X1822462Y885839D01*
X1823020Y887922D01*
Y890078D01*
X1822462Y892161D01*
X1821384Y894029D01*
X1819859Y895554D01*
X1817991Y896632D01*
X1815908Y897190D01*
D02*
G37*
G36*
X1746490D02*
X1730110D01*
Y880810D01*
X1746490D01*
Y897190D01*
D02*
G37*
G36*
X1815908Y871790D02*
X1813752D01*
X1811669Y871232D01*
X1809801Y870154D01*
X1808276Y868629D01*
X1807198Y866761D01*
X1806640Y864678D01*
Y862522D01*
X1807198Y860439D01*
X1808276Y858571D01*
X1809801Y857046D01*
X1811669Y855968D01*
X1813752Y855410D01*
X1815908D01*
X1817991Y855968D01*
X1819859Y857046D01*
X1821384Y858571D01*
X1822462Y860439D01*
X1823020Y862522D01*
Y864678D01*
X1822462Y866761D01*
X1821384Y868629D01*
X1819859Y870154D01*
X1817991Y871232D01*
X1815908Y871790D01*
D02*
G37*
G36*
X1739378D02*
X1737222D01*
X1735139Y871232D01*
X1733271Y870154D01*
X1731746Y868629D01*
X1730668Y866761D01*
X1730110Y864678D01*
Y862522D01*
X1730668Y860439D01*
X1731746Y858571D01*
X1733271Y857046D01*
X1735139Y855968D01*
X1737222Y855410D01*
X1739378D01*
X1741461Y855968D01*
X1743329Y857046D01*
X1744854Y858571D01*
X1745932Y860439D01*
X1746490Y862522D01*
Y864678D01*
X1745932Y866761D01*
X1744854Y868629D01*
X1743329Y870154D01*
X1741461Y871232D01*
X1739378Y871790D01*
D02*
G37*
G36*
X1710615Y873070D02*
X1708225D01*
X1705915Y872451D01*
X1703845Y871256D01*
X1702154Y869565D01*
X1700959Y867495D01*
X1700340Y865185D01*
Y862795D01*
X1700959Y860485D01*
X1702154Y858415D01*
X1703845Y856724D01*
X1705915Y855529D01*
X1708225Y854910D01*
X1710615D01*
X1712925Y855529D01*
X1714995Y856724D01*
X1716686Y858415D01*
X1717881Y860485D01*
X1718500Y862795D01*
Y865185D01*
X1717881Y867495D01*
X1716686Y869565D01*
X1714995Y871256D01*
X1712925Y872451D01*
X1710615Y873070D01*
D02*
G37*
G36*
X1843965Y871800D02*
X1841575D01*
X1839265Y871181D01*
X1837195Y869986D01*
X1835504Y868295D01*
X1834309Y866225D01*
X1833690Y863915D01*
Y861525D01*
X1834309Y859215D01*
X1835504Y857145D01*
X1837195Y855454D01*
X1839265Y854259D01*
X1841575Y853640D01*
X1843965D01*
X1846275Y854259D01*
X1848345Y855454D01*
X1850036Y857145D01*
X1851231Y859215D01*
X1851850Y861525D01*
Y863915D01*
X1851231Y866225D01*
X1850036Y868295D01*
X1848345Y869986D01*
X1846275Y871181D01*
X1843965Y871800D01*
D02*
G37*
G36*
X1815908Y846390D02*
X1813752D01*
X1811669Y845832D01*
X1809801Y844754D01*
X1808276Y843229D01*
X1807198Y841361D01*
X1806640Y839278D01*
Y837122D01*
X1807198Y835039D01*
X1808276Y833171D01*
X1809801Y831646D01*
X1811669Y830568D01*
X1813752Y830010D01*
X1815908D01*
X1817991Y830568D01*
X1819859Y831646D01*
X1821384Y833171D01*
X1822462Y835039D01*
X1823020Y837122D01*
Y839278D01*
X1822462Y841361D01*
X1821384Y843229D01*
X1819859Y844754D01*
X1817991Y845832D01*
X1815908Y846390D01*
D02*
G37*
G36*
X1739378D02*
X1737222D01*
X1735139Y845832D01*
X1733271Y844754D01*
X1731746Y843229D01*
X1730668Y841361D01*
X1730110Y839278D01*
Y837122D01*
X1730668Y835039D01*
X1731746Y833171D01*
X1733271Y831646D01*
X1735139Y830568D01*
X1737222Y830010D01*
X1739378D01*
X1741461Y830568D01*
X1743329Y831646D01*
X1744854Y833171D01*
X1745932Y835039D01*
X1746490Y837122D01*
Y839278D01*
X1745932Y841361D01*
X1744854Y843229D01*
X1743329Y844754D01*
X1741461Y845832D01*
X1739378Y846390D01*
D02*
G37*
G36*
X1815908Y820990D02*
X1813752D01*
X1811669Y820432D01*
X1809801Y819354D01*
X1808276Y817829D01*
X1807198Y815961D01*
X1806640Y813878D01*
Y811722D01*
X1807198Y809639D01*
X1808276Y807771D01*
X1809801Y806246D01*
X1811669Y805168D01*
X1813752Y804610D01*
X1815908D01*
X1817991Y805168D01*
X1819859Y806246D01*
X1821384Y807771D01*
X1822462Y809639D01*
X1823020Y811722D01*
Y813878D01*
X1822462Y815961D01*
X1821384Y817829D01*
X1819859Y819354D01*
X1817991Y820432D01*
X1815908Y820990D01*
D02*
G37*
G36*
X1739378D02*
X1737222D01*
X1735139Y820432D01*
X1733271Y819354D01*
X1731746Y817829D01*
X1730668Y815961D01*
X1730110Y813878D01*
Y811722D01*
X1730668Y809639D01*
X1731746Y807771D01*
X1733271Y806246D01*
X1735139Y805168D01*
X1737222Y804610D01*
X1739378D01*
X1741461Y805168D01*
X1743329Y806246D01*
X1744854Y807771D01*
X1745932Y809639D01*
X1746490Y811722D01*
Y813878D01*
X1745932Y815961D01*
X1744854Y817829D01*
X1743329Y819354D01*
X1741461Y820432D01*
X1739378Y820990D01*
D02*
G37*
G36*
X1815908Y795590D02*
X1813752D01*
X1811669Y795032D01*
X1809801Y793954D01*
X1808276Y792429D01*
X1807198Y790561D01*
X1806640Y788478D01*
Y786322D01*
X1807198Y784239D01*
X1808276Y782371D01*
X1809801Y780846D01*
X1811669Y779768D01*
X1813752Y779210D01*
X1815908D01*
X1817991Y779768D01*
X1819859Y780846D01*
X1821384Y782371D01*
X1822462Y784239D01*
X1823020Y786322D01*
Y788478D01*
X1822462Y790561D01*
X1821384Y792429D01*
X1819859Y793954D01*
X1817991Y795032D01*
X1815908Y795590D01*
D02*
G37*
G36*
X1739378D02*
X1737222D01*
X1735139Y795032D01*
X1733271Y793954D01*
X1731746Y792429D01*
X1730668Y790561D01*
X1730110Y788478D01*
Y786322D01*
X1730668Y784239D01*
X1731746Y782371D01*
X1733271Y780846D01*
X1735139Y779768D01*
X1737222Y779210D01*
X1739378D01*
X1741461Y779768D01*
X1743329Y780846D01*
X1744854Y782371D01*
X1745932Y784239D01*
X1746490Y786322D01*
Y788478D01*
X1745932Y790561D01*
X1744854Y792429D01*
X1743329Y793954D01*
X1741461Y795032D01*
X1739378Y795590D01*
D02*
G37*
G36*
X1844040Y761780D02*
Y753990D01*
X1851830D01*
X1851231Y756225D01*
X1850036Y758295D01*
X1848345Y759986D01*
X1846275Y761181D01*
X1844040Y761780D01*
D02*
G37*
G36*
X1739378Y770190D02*
X1737222D01*
X1735139Y769632D01*
X1733271Y768554D01*
X1731746Y767029D01*
X1730668Y765161D01*
X1730110Y763078D01*
Y760922D01*
X1730668Y758839D01*
X1731746Y756971D01*
X1733271Y755446D01*
X1735139Y754368D01*
X1737222Y753810D01*
X1739378D01*
X1741461Y754368D01*
X1743329Y755446D01*
X1744854Y756971D01*
X1745932Y758839D01*
X1746490Y760922D01*
Y763078D01*
X1745932Y765161D01*
X1744854Y767029D01*
X1743329Y768554D01*
X1741461Y769632D01*
X1739378Y770190D01*
D02*
G37*
G36*
X1680525Y763460D02*
X1678135D01*
X1675825Y762841D01*
X1673755Y761646D01*
X1672064Y759955D01*
X1670869Y757885D01*
X1670250Y755575D01*
Y753185D01*
X1670869Y750875D01*
X1672064Y748805D01*
X1673755Y747114D01*
X1675825Y745919D01*
X1678135Y745300D01*
X1680525D01*
X1682835Y745919D01*
X1684905Y747114D01*
X1686596Y748805D01*
X1687791Y750875D01*
X1688410Y753185D01*
Y755575D01*
X1687791Y757885D01*
X1686596Y759955D01*
X1684905Y761646D01*
X1682835Y762841D01*
X1680525Y763460D01*
D02*
G37*
G36*
X1710615Y763070D02*
X1708225D01*
X1705915Y762451D01*
X1703845Y761256D01*
X1702154Y759565D01*
X1700959Y757495D01*
X1700340Y755185D01*
Y752795D01*
X1700959Y750485D01*
X1702154Y748415D01*
X1703845Y746724D01*
X1705915Y745529D01*
X1708225Y744910D01*
X1710615D01*
X1712925Y745529D01*
X1714995Y746724D01*
X1716686Y748415D01*
X1717881Y750485D01*
X1718500Y752795D01*
Y755185D01*
X1717881Y757495D01*
X1716686Y759565D01*
X1714995Y761256D01*
X1712925Y762451D01*
X1710615Y763070D01*
D02*
G37*
G36*
X1739378Y744790D02*
X1737222D01*
X1735139Y744232D01*
X1733271Y743154D01*
X1731746Y741629D01*
X1730668Y739761D01*
X1730110Y737678D01*
Y735522D01*
X1730668Y733439D01*
X1731746Y731571D01*
X1733271Y730046D01*
X1735139Y728968D01*
X1737222Y728410D01*
X1739378D01*
X1741461Y728968D01*
X1743329Y730046D01*
X1744854Y731571D01*
X1745932Y733439D01*
X1746490Y735522D01*
Y737678D01*
X1745932Y739761D01*
X1744854Y741629D01*
X1743329Y743154D01*
X1741461Y744232D01*
X1739378Y744790D01*
D02*
G37*
G36*
X1332474Y933100D02*
X1330226D01*
X1328054Y932518D01*
X1326106Y931394D01*
X1324516Y929804D01*
X1323392Y927856D01*
X1322810Y925684D01*
Y923436D01*
X1323392Y921264D01*
X1324516Y919316D01*
X1326106Y917726D01*
X1328054Y916602D01*
X1330226Y916020D01*
X1332474D01*
X1334646Y916602D01*
X1336594Y917726D01*
X1338184Y919316D01*
X1339308Y921264D01*
X1339890Y923436D01*
Y925684D01*
X1339308Y927856D01*
X1338184Y929804D01*
X1336594Y931394D01*
X1334646Y932518D01*
X1332474Y933100D01*
D02*
G37*
G36*
X1390185Y933640D02*
X1387795D01*
X1385485Y933021D01*
X1383415Y931826D01*
X1381724Y930135D01*
X1380529Y928065D01*
X1379910Y925755D01*
Y923365D01*
X1380529Y921055D01*
X1381724Y918985D01*
X1383415Y917294D01*
X1385485Y916099D01*
X1387795Y915480D01*
X1390185D01*
X1392495Y916099D01*
X1394565Y917294D01*
X1396256Y918985D01*
X1397451Y921055D01*
X1398070Y923365D01*
Y925755D01*
X1397451Y928065D01*
X1396256Y930135D01*
X1394565Y931826D01*
X1392495Y933021D01*
X1390185Y933640D01*
D02*
G37*
G36*
X1399348Y890840D02*
X1397192D01*
X1395109Y890282D01*
X1393241Y889204D01*
X1391716Y887679D01*
X1390638Y885811D01*
X1390080Y883728D01*
Y881572D01*
X1390638Y879489D01*
X1391716Y877621D01*
X1393241Y876096D01*
X1395109Y875018D01*
X1397192Y874460D01*
X1399348D01*
X1401431Y875018D01*
X1403299Y876096D01*
X1404824Y877621D01*
X1405902Y879489D01*
X1406460Y881572D01*
Y883728D01*
X1405902Y885811D01*
X1404824Y887679D01*
X1403299Y889204D01*
X1401431Y890282D01*
X1399348Y890840D01*
D02*
G37*
G36*
X1329930D02*
X1313550D01*
Y874460D01*
X1329930D01*
Y890840D01*
D02*
G37*
G36*
X1399348Y865440D02*
X1397192D01*
X1395109Y864882D01*
X1393241Y863804D01*
X1391716Y862279D01*
X1390638Y860411D01*
X1390080Y858328D01*
Y856172D01*
X1390638Y854089D01*
X1391716Y852221D01*
X1393241Y850696D01*
X1395109Y849618D01*
X1397192Y849060D01*
X1399348D01*
X1401431Y849618D01*
X1403299Y850696D01*
X1404824Y852221D01*
X1405902Y854089D01*
X1406460Y856172D01*
Y858328D01*
X1405902Y860411D01*
X1404824Y862279D01*
X1403299Y863804D01*
X1401431Y864882D01*
X1399348Y865440D01*
D02*
G37*
G36*
X1322818D02*
X1320662D01*
X1318579Y864882D01*
X1316711Y863804D01*
X1315186Y862279D01*
X1314108Y860411D01*
X1313550Y858328D01*
Y856172D01*
X1314108Y854089D01*
X1315186Y852221D01*
X1316711Y850696D01*
X1318579Y849618D01*
X1320662Y849060D01*
X1322818D01*
X1324901Y849618D01*
X1326769Y850696D01*
X1328294Y852221D01*
X1329372Y854089D01*
X1329930Y856172D01*
Y858328D01*
X1329372Y860411D01*
X1328294Y862279D01*
X1326769Y863804D01*
X1324901Y864882D01*
X1322818Y865440D01*
D02*
G37*
G36*
X1295325Y866720D02*
X1292935D01*
X1290625Y866101D01*
X1288555Y864906D01*
X1286864Y863215D01*
X1285669Y861145D01*
X1285050Y858835D01*
Y856445D01*
X1285669Y854135D01*
X1286864Y852065D01*
X1288555Y850374D01*
X1290625Y849179D01*
X1292935Y848560D01*
X1295325D01*
X1297635Y849179D01*
X1299705Y850374D01*
X1301396Y852065D01*
X1302591Y854135D01*
X1303210Y856445D01*
Y858835D01*
X1302591Y861145D01*
X1301396Y863215D01*
X1299705Y864906D01*
X1297635Y866101D01*
X1295325Y866720D01*
D02*
G37*
G36*
X1427405Y865450D02*
X1425015D01*
X1422705Y864831D01*
X1420635Y863636D01*
X1418944Y861945D01*
X1417749Y859875D01*
X1417130Y857565D01*
Y855175D01*
X1417749Y852865D01*
X1418944Y850795D01*
X1420635Y849104D01*
X1422705Y847909D01*
X1425015Y847290D01*
X1427405D01*
X1429715Y847909D01*
X1431785Y849104D01*
X1433476Y850795D01*
X1434671Y852865D01*
X1435290Y855175D01*
Y857565D01*
X1434671Y859875D01*
X1433476Y861945D01*
X1431785Y863636D01*
X1429715Y864831D01*
X1427405Y865450D01*
D02*
G37*
G36*
X1399348Y840040D02*
X1397192D01*
X1395109Y839482D01*
X1393241Y838404D01*
X1391716Y836879D01*
X1390638Y835011D01*
X1390080Y832928D01*
Y830772D01*
X1390638Y828689D01*
X1391716Y826821D01*
X1393241Y825296D01*
X1395109Y824218D01*
X1397192Y823660D01*
X1399348D01*
X1401431Y824218D01*
X1403299Y825296D01*
X1404824Y826821D01*
X1405902Y828689D01*
X1406460Y830772D01*
Y832928D01*
X1405902Y835011D01*
X1404824Y836879D01*
X1403299Y838404D01*
X1401431Y839482D01*
X1399348Y840040D01*
D02*
G37*
G36*
X1322818D02*
X1320662D01*
X1318579Y839482D01*
X1316711Y838404D01*
X1315186Y836879D01*
X1314108Y835011D01*
X1313550Y832928D01*
Y830772D01*
X1314108Y828689D01*
X1315186Y826821D01*
X1316711Y825296D01*
X1318579Y824218D01*
X1320662Y823660D01*
X1322818D01*
X1324901Y824218D01*
X1326769Y825296D01*
X1328294Y826821D01*
X1329372Y828689D01*
X1329930Y830772D01*
Y832928D01*
X1329372Y835011D01*
X1328294Y836879D01*
X1326769Y838404D01*
X1324901Y839482D01*
X1322818Y840040D01*
D02*
G37*
G36*
X1399348Y814640D02*
X1397192D01*
X1395109Y814082D01*
X1393241Y813004D01*
X1391716Y811479D01*
X1390638Y809611D01*
X1390080Y807528D01*
Y805372D01*
X1390638Y803289D01*
X1391716Y801421D01*
X1393241Y799896D01*
X1395109Y798818D01*
X1397192Y798260D01*
X1399348D01*
X1401431Y798818D01*
X1403299Y799896D01*
X1404824Y801421D01*
X1405902Y803289D01*
X1406460Y805372D01*
Y807528D01*
X1405902Y809611D01*
X1404824Y811479D01*
X1403299Y813004D01*
X1401431Y814082D01*
X1399348Y814640D01*
D02*
G37*
G36*
X1322818D02*
X1320662D01*
X1318579Y814082D01*
X1316711Y813004D01*
X1315186Y811479D01*
X1314108Y809611D01*
X1313550Y807528D01*
Y805372D01*
X1314108Y803289D01*
X1315186Y801421D01*
X1316711Y799896D01*
X1318579Y798818D01*
X1320662Y798260D01*
X1322818D01*
X1324901Y798818D01*
X1326769Y799896D01*
X1328294Y801421D01*
X1329372Y803289D01*
X1329930Y805372D01*
Y807528D01*
X1329372Y809611D01*
X1328294Y811479D01*
X1326769Y813004D01*
X1324901Y814082D01*
X1322818Y814640D01*
D02*
G37*
G36*
X1399348Y789240D02*
X1397192D01*
X1395109Y788682D01*
X1393241Y787604D01*
X1391716Y786079D01*
X1390638Y784211D01*
X1390080Y782128D01*
Y779972D01*
X1390638Y777889D01*
X1391716Y776021D01*
X1393241Y774496D01*
X1395109Y773418D01*
X1397192Y772860D01*
X1399348D01*
X1401431Y773418D01*
X1403299Y774496D01*
X1404824Y776021D01*
X1405902Y777889D01*
X1406460Y779972D01*
Y782128D01*
X1405902Y784211D01*
X1404824Y786079D01*
X1403299Y787604D01*
X1401431Y788682D01*
X1399348Y789240D01*
D02*
G37*
G36*
X1322818D02*
X1320662D01*
X1318579Y788682D01*
X1316711Y787604D01*
X1315186Y786079D01*
X1314108Y784211D01*
X1313550Y782128D01*
Y779972D01*
X1314108Y777889D01*
X1315186Y776021D01*
X1316711Y774496D01*
X1318579Y773418D01*
X1320662Y772860D01*
X1322818D01*
X1324901Y773418D01*
X1326769Y774496D01*
X1328294Y776021D01*
X1329372Y777889D01*
X1329930Y779972D01*
Y782128D01*
X1329372Y784211D01*
X1328294Y786079D01*
X1326769Y787604D01*
X1324901Y788682D01*
X1322818Y789240D01*
D02*
G37*
G36*
X1424940Y755430D02*
X1422705Y754831D01*
X1420635Y753636D01*
X1418944Y751945D01*
X1417749Y749875D01*
X1417150Y747640D01*
X1424940D01*
Y755430D01*
D02*
G37*
G36*
X1399348Y763840D02*
X1397192D01*
X1395109Y763282D01*
X1393241Y762204D01*
X1391716Y760679D01*
X1390638Y758811D01*
X1390080Y756728D01*
Y754572D01*
X1390638Y752489D01*
X1391716Y750621D01*
X1393241Y749096D01*
X1395109Y748018D01*
X1397192Y747460D01*
X1399348D01*
X1401431Y748018D01*
X1403299Y749096D01*
X1404824Y750621D01*
X1405902Y752489D01*
X1406460Y754572D01*
Y756728D01*
X1405902Y758811D01*
X1404824Y760679D01*
X1403299Y762204D01*
X1401431Y763282D01*
X1399348Y763840D01*
D02*
G37*
G36*
X1322818D02*
X1320662D01*
X1318579Y763282D01*
X1316711Y762204D01*
X1315186Y760679D01*
X1314108Y758811D01*
X1313550Y756728D01*
Y754572D01*
X1314108Y752489D01*
X1315186Y750621D01*
X1316711Y749096D01*
X1318579Y748018D01*
X1320662Y747460D01*
X1322818D01*
X1324901Y748018D01*
X1326769Y749096D01*
X1328294Y750621D01*
X1329372Y752489D01*
X1329930Y754572D01*
Y756728D01*
X1329372Y758811D01*
X1328294Y760679D01*
X1326769Y762204D01*
X1324901Y763282D01*
X1322818Y763840D01*
D02*
G37*
G36*
X1295325Y756720D02*
X1292935D01*
X1290625Y756101D01*
X1288555Y754906D01*
X1286864Y753215D01*
X1285669Y751145D01*
X1285050Y748835D01*
Y746445D01*
X1285669Y744135D01*
X1286864Y742065D01*
X1288555Y740374D01*
X1290625Y739179D01*
X1292935Y738560D01*
X1295325D01*
X1297635Y739179D01*
X1299705Y740374D01*
X1301396Y742065D01*
X1302591Y744135D01*
X1303210Y746445D01*
Y748835D01*
X1302591Y751145D01*
X1301396Y753215D01*
X1299705Y754906D01*
X1297635Y756101D01*
X1295325Y756720D01*
D02*
G37*
G36*
X1399348Y738440D02*
X1397192D01*
X1395109Y737882D01*
X1393241Y736804D01*
X1391716Y735279D01*
X1390638Y733411D01*
X1390080Y731328D01*
Y729172D01*
X1390638Y727089D01*
X1391716Y725221D01*
X1393241Y723696D01*
X1395109Y722618D01*
X1397192Y722060D01*
X1399348D01*
X1401431Y722618D01*
X1403299Y723696D01*
X1404824Y725221D01*
X1405902Y727089D01*
X1406460Y729172D01*
Y731328D01*
X1405902Y733411D01*
X1404824Y735279D01*
X1403299Y736804D01*
X1401431Y737882D01*
X1399348Y738440D01*
D02*
G37*
G36*
X1322818D02*
X1320662D01*
X1318579Y737882D01*
X1316711Y736804D01*
X1315186Y735279D01*
X1314108Y733411D01*
X1313550Y731328D01*
Y729172D01*
X1314108Y727089D01*
X1315186Y725221D01*
X1316711Y723696D01*
X1318579Y722618D01*
X1320662Y722060D01*
X1322818D01*
X1324901Y722618D01*
X1326769Y723696D01*
X1328294Y725221D01*
X1329372Y727089D01*
X1329930Y729172D01*
Y731328D01*
X1329372Y733411D01*
X1328294Y735279D01*
X1326769Y736804D01*
X1324901Y737882D01*
X1322818Y738440D01*
D02*
G37*
G36*
X1258885Y732980D02*
X1256495D01*
X1254185Y732361D01*
X1252115Y731166D01*
X1250424Y729475D01*
X1249229Y727405D01*
X1248610Y725095D01*
Y722705D01*
X1249229Y720395D01*
X1250424Y718325D01*
X1252115Y716634D01*
X1254185Y715439D01*
X1256495Y714820D01*
X1258885D01*
X1261195Y715439D01*
X1263265Y716634D01*
X1264956Y718325D01*
X1266151Y720395D01*
X1266770Y722705D01*
Y725095D01*
X1266151Y727405D01*
X1264956Y729475D01*
X1263265Y731166D01*
X1261195Y732361D01*
X1258885Y732980D01*
D02*
G37*
G36*
X1355405Y692340D02*
X1353015D01*
X1350705Y691721D01*
X1348635Y690526D01*
X1346944Y688835D01*
X1345749Y686765D01*
X1345130Y684455D01*
Y682065D01*
X1345749Y679755D01*
X1346944Y677685D01*
X1348635Y675994D01*
X1350705Y674799D01*
X1353015Y674180D01*
X1355405D01*
X1357715Y674799D01*
X1359785Y675994D01*
X1361476Y677685D01*
X1362671Y679755D01*
X1363290Y682065D01*
Y684455D01*
X1362671Y686765D01*
X1361476Y688835D01*
X1359785Y690526D01*
X1357715Y691721D01*
X1355405Y692340D01*
D02*
G37*
G36*
X945124Y933100D02*
X942876D01*
X940704Y932518D01*
X938756Y931394D01*
X937166Y929804D01*
X936042Y927856D01*
X935460Y925684D01*
Y923436D01*
X936042Y921264D01*
X937166Y919316D01*
X938756Y917726D01*
X940704Y916602D01*
X942876Y916020D01*
X945124D01*
X947296Y916602D01*
X949244Y917726D01*
X950834Y919316D01*
X951958Y921264D01*
X952540Y923436D01*
Y925684D01*
X951958Y927856D01*
X950834Y929804D01*
X949244Y931394D01*
X947296Y932518D01*
X945124Y933100D01*
D02*
G37*
G36*
X835124D02*
X832876D01*
X830704Y932518D01*
X828756Y931394D01*
X827166Y929804D01*
X826042Y927856D01*
X825460Y925684D01*
Y923436D01*
X826042Y921264D01*
X827166Y919316D01*
X828756Y917726D01*
X830704Y916602D01*
X832876Y916020D01*
X835124D01*
X837296Y916602D01*
X839244Y917726D01*
X840834Y919316D01*
X841958Y921264D01*
X842540Y923436D01*
Y925684D01*
X841958Y927856D01*
X840834Y929804D01*
X839244Y931394D01*
X837296Y932518D01*
X835124Y933100D01*
D02*
G37*
G36*
X1001565Y933640D02*
X999175D01*
X996865Y933021D01*
X994795Y931826D01*
X993104Y930135D01*
X991909Y928065D01*
X991290Y925755D01*
Y923365D01*
X991909Y921055D01*
X993104Y918985D01*
X994795Y917294D01*
X996865Y916099D01*
X999175Y915480D01*
X1001565D01*
X1003875Y916099D01*
X1005945Y917294D01*
X1007636Y918985D01*
X1008831Y921055D01*
X1009450Y923365D01*
Y925755D01*
X1008831Y928065D01*
X1007636Y930135D01*
X1005945Y931826D01*
X1003875Y933021D01*
X1001565Y933640D01*
D02*
G37*
G36*
X996758Y889570D02*
X994602D01*
X992519Y889012D01*
X990651Y887934D01*
X989126Y886409D01*
X988048Y884541D01*
X987490Y882458D01*
Y880302D01*
X988048Y878219D01*
X989126Y876351D01*
X990651Y874826D01*
X992519Y873748D01*
X994602Y873190D01*
X996758D01*
X998841Y873748D01*
X1000709Y874826D01*
X1002234Y876351D01*
X1003312Y878219D01*
X1003870Y880302D01*
Y882458D01*
X1003312Y884541D01*
X1002234Y886409D01*
X1000709Y887934D01*
X998841Y889012D01*
X996758Y889570D01*
D02*
G37*
G36*
X927340D02*
X910960D01*
Y873190D01*
X927340D01*
Y889570D01*
D02*
G37*
G36*
X996758Y864170D02*
X994602D01*
X992519Y863612D01*
X990651Y862534D01*
X989126Y861009D01*
X988048Y859141D01*
X987490Y857058D01*
Y854902D01*
X988048Y852819D01*
X989126Y850951D01*
X990651Y849426D01*
X992519Y848348D01*
X994602Y847790D01*
X996758D01*
X998841Y848348D01*
X1000709Y849426D01*
X1002234Y850951D01*
X1003312Y852819D01*
X1003870Y854902D01*
Y857058D01*
X1003312Y859141D01*
X1002234Y861009D01*
X1000709Y862534D01*
X998841Y863612D01*
X996758Y864170D01*
D02*
G37*
G36*
X920228D02*
X918072D01*
X915989Y863612D01*
X914121Y862534D01*
X912596Y861009D01*
X911518Y859141D01*
X910960Y857058D01*
Y854902D01*
X911518Y852819D01*
X912596Y850951D01*
X914121Y849426D01*
X915989Y848348D01*
X918072Y847790D01*
X920228D01*
X922311Y848348D01*
X924179Y849426D01*
X925704Y850951D01*
X926782Y852819D01*
X927340Y854902D01*
Y857058D01*
X926782Y859141D01*
X925704Y861009D01*
X924179Y862534D01*
X922311Y863612D01*
X920228Y864170D01*
D02*
G37*
G36*
X1024815Y865450D02*
X1022425D01*
X1020115Y864831D01*
X1018045Y863636D01*
X1016354Y861945D01*
X1015159Y859875D01*
X1014540Y857565D01*
Y855175D01*
X1015159Y852865D01*
X1016354Y850795D01*
X1018045Y849104D01*
X1020115Y847909D01*
X1022425Y847290D01*
X1024815D01*
X1027125Y847909D01*
X1029195Y849104D01*
X1030886Y850795D01*
X1032081Y852865D01*
X1032700Y855175D01*
Y857565D01*
X1032081Y859875D01*
X1030886Y861945D01*
X1029195Y863636D01*
X1027125Y864831D01*
X1024815Y865450D01*
D02*
G37*
G36*
X890195Y864180D02*
X887805D01*
X885495Y863561D01*
X883425Y862366D01*
X881734Y860675D01*
X880539Y858605D01*
X879920Y856295D01*
Y853905D01*
X880539Y851595D01*
X881734Y849525D01*
X883425Y847834D01*
X885495Y846639D01*
X887805Y846020D01*
X890195D01*
X892505Y846639D01*
X894575Y847834D01*
X896266Y849525D01*
X897461Y851595D01*
X898080Y853905D01*
Y856295D01*
X897461Y858605D01*
X896266Y860675D01*
X894575Y862366D01*
X892505Y863561D01*
X890195Y864180D01*
D02*
G37*
G36*
X996758Y838770D02*
X994602D01*
X992519Y838212D01*
X990651Y837134D01*
X989126Y835609D01*
X988048Y833741D01*
X987490Y831658D01*
Y829502D01*
X988048Y827419D01*
X989126Y825551D01*
X990651Y824026D01*
X992519Y822948D01*
X994602Y822390D01*
X996758D01*
X998841Y822948D01*
X1000709Y824026D01*
X1002234Y825551D01*
X1003312Y827419D01*
X1003870Y829502D01*
Y831658D01*
X1003312Y833741D01*
X1002234Y835609D01*
X1000709Y837134D01*
X998841Y838212D01*
X996758Y838770D01*
D02*
G37*
G36*
X920228D02*
X918072D01*
X915989Y838212D01*
X914121Y837134D01*
X912596Y835609D01*
X911518Y833741D01*
X910960Y831658D01*
Y829502D01*
X911518Y827419D01*
X912596Y825551D01*
X914121Y824026D01*
X915989Y822948D01*
X918072Y822390D01*
X920228D01*
X922311Y822948D01*
X924179Y824026D01*
X925704Y825551D01*
X926782Y827419D01*
X927340Y829502D01*
Y831658D01*
X926782Y833741D01*
X925704Y835609D01*
X924179Y837134D01*
X922311Y838212D01*
X920228Y838770D01*
D02*
G37*
G36*
X996758Y813370D02*
X994602D01*
X992519Y812812D01*
X990651Y811734D01*
X989126Y810209D01*
X988048Y808341D01*
X987490Y806258D01*
Y804102D01*
X988048Y802019D01*
X989126Y800151D01*
X990651Y798626D01*
X992519Y797548D01*
X994602Y796990D01*
X996758D01*
X998841Y797548D01*
X1000709Y798626D01*
X1002234Y800151D01*
X1003312Y802019D01*
X1003870Y804102D01*
Y806258D01*
X1003312Y808341D01*
X1002234Y810209D01*
X1000709Y811734D01*
X998841Y812812D01*
X996758Y813370D01*
D02*
G37*
G36*
X920228D02*
X918072D01*
X915989Y812812D01*
X914121Y811734D01*
X912596Y810209D01*
X911518Y808341D01*
X910960Y806258D01*
Y804102D01*
X911518Y802019D01*
X912596Y800151D01*
X914121Y798626D01*
X915989Y797548D01*
X918072Y796990D01*
X920228D01*
X922311Y797548D01*
X924179Y798626D01*
X925704Y800151D01*
X926782Y802019D01*
X927340Y804102D01*
Y806258D01*
X926782Y808341D01*
X925704Y810209D01*
X924179Y811734D01*
X922311Y812812D01*
X920228Y813370D01*
D02*
G37*
G36*
X996758Y787970D02*
X994602D01*
X992519Y787412D01*
X990651Y786334D01*
X989126Y784809D01*
X988048Y782941D01*
X987490Y780858D01*
Y778702D01*
X988048Y776619D01*
X989126Y774751D01*
X990651Y773226D01*
X992519Y772148D01*
X994602Y771590D01*
X996758D01*
X998841Y772148D01*
X1000709Y773226D01*
X1002234Y774751D01*
X1003312Y776619D01*
X1003870Y778702D01*
Y780858D01*
X1003312Y782941D01*
X1002234Y784809D01*
X1000709Y786334D01*
X998841Y787412D01*
X996758Y787970D01*
D02*
G37*
G36*
X920228D02*
X918072D01*
X915989Y787412D01*
X914121Y786334D01*
X912596Y784809D01*
X911518Y782941D01*
X910960Y780858D01*
Y778702D01*
X911518Y776619D01*
X912596Y774751D01*
X914121Y773226D01*
X915989Y772148D01*
X918072Y771590D01*
X920228D01*
X922311Y772148D01*
X924179Y773226D01*
X925704Y774751D01*
X926782Y776619D01*
X927340Y778702D01*
Y780858D01*
X926782Y782941D01*
X925704Y784809D01*
X924179Y786334D01*
X922311Y787412D01*
X920228Y787970D01*
D02*
G37*
G36*
Y762570D02*
X918072D01*
X915989Y762012D01*
X914121Y760934D01*
X912596Y759409D01*
X911518Y757541D01*
X910960Y755458D01*
Y753302D01*
X911518Y751219D01*
X912596Y749351D01*
X914121Y747826D01*
X915989Y746748D01*
X918072Y746190D01*
X920228D01*
X922311Y746748D01*
X924179Y747826D01*
X925704Y749351D01*
X926782Y751219D01*
X927340Y753302D01*
Y755458D01*
X926782Y757541D01*
X925704Y759409D01*
X924179Y760934D01*
X922311Y762012D01*
X920228Y762570D01*
D02*
G37*
G36*
X890195Y754180D02*
X887805D01*
X885495Y753561D01*
X883425Y752366D01*
X881734Y750675D01*
X880539Y748605D01*
X879920Y746295D01*
Y743905D01*
X880539Y741595D01*
X881734Y739525D01*
X883425Y737834D01*
X885495Y736639D01*
X887805Y736020D01*
X890195D01*
X892505Y736639D01*
X894575Y737834D01*
X896266Y739525D01*
X897461Y741595D01*
X898080Y743905D01*
Y746295D01*
X897461Y748605D01*
X896266Y750675D01*
X894575Y752366D01*
X892505Y753561D01*
X890195Y754180D01*
D02*
G37*
G36*
X920228Y737170D02*
X918072D01*
X915989Y736612D01*
X914121Y735534D01*
X912596Y734009D01*
X911518Y732141D01*
X910960Y730058D01*
Y727902D01*
X911518Y725819D01*
X912596Y723951D01*
X914121Y722426D01*
X915989Y721348D01*
X918072Y720790D01*
X920228D01*
X922311Y721348D01*
X924179Y722426D01*
X925704Y723951D01*
X926782Y725819D01*
X927340Y727902D01*
Y730058D01*
X926782Y732141D01*
X925704Y734009D01*
X924179Y735534D01*
X922311Y736612D01*
X920228Y737170D01*
D02*
G37*
G36*
X2138924Y933100D02*
X2136676D01*
X2134504Y932518D01*
X2132556Y931394D01*
X2130966Y929804D01*
X2129842Y927856D01*
X2129260Y925684D01*
Y923436D01*
X2129842Y921264D01*
X2130966Y919316D01*
X2132556Y917726D01*
X2134504Y916602D01*
X2136676Y916020D01*
X2138924D01*
X2141096Y916602D01*
X2143044Y917726D01*
X2144634Y919316D01*
X2145758Y921264D01*
X2146340Y923436D01*
Y925684D01*
X2145758Y927856D01*
X2144634Y929804D01*
X2143044Y931394D01*
X2141096Y932518D01*
X2138924Y933100D01*
D02*
G37*
G36*
X2222035Y932370D02*
X2219645D01*
X2217335Y931751D01*
X2215265Y930556D01*
X2213574Y928865D01*
X2212379Y926795D01*
X2211760Y924485D01*
Y922095D01*
X2212379Y919785D01*
X2213574Y917715D01*
X2215265Y916024D01*
X2217335Y914829D01*
X2219645Y914210D01*
X2222035D01*
X2224345Y914829D01*
X2226415Y916024D01*
X2228106Y917715D01*
X2229301Y919785D01*
X2229920Y922095D01*
Y924485D01*
X2229301Y926795D01*
X2228106Y928865D01*
X2226415Y930556D01*
X2224345Y931751D01*
X2222035Y932370D01*
D02*
G37*
G36*
X2208668Y894650D02*
X2206512D01*
X2204429Y894092D01*
X2202561Y893014D01*
X2201036Y891489D01*
X2199958Y889621D01*
X2199400Y887538D01*
Y885382D01*
X2199958Y883299D01*
X2201036Y881431D01*
X2202561Y879906D01*
X2204429Y878828D01*
X2206512Y878270D01*
X2208668D01*
X2210751Y878828D01*
X2212619Y879906D01*
X2214144Y881431D01*
X2215222Y883299D01*
X2215780Y885382D01*
Y887538D01*
X2215222Y889621D01*
X2214144Y891489D01*
X2212619Y893014D01*
X2210751Y894092D01*
X2208668Y894650D01*
D02*
G37*
G36*
X2139250D02*
X2122870D01*
Y878270D01*
X2139250D01*
Y894650D01*
D02*
G37*
G36*
X2208668Y869250D02*
X2206512D01*
X2204429Y868692D01*
X2202561Y867614D01*
X2201036Y866089D01*
X2199958Y864221D01*
X2199400Y862138D01*
Y859982D01*
X2199958Y857899D01*
X2201036Y856031D01*
X2202561Y854506D01*
X2204429Y853428D01*
X2206512Y852870D01*
X2208668D01*
X2210751Y853428D01*
X2212619Y854506D01*
X2214144Y856031D01*
X2215222Y857899D01*
X2215780Y859982D01*
Y862138D01*
X2215222Y864221D01*
X2214144Y866089D01*
X2212619Y867614D01*
X2210751Y868692D01*
X2208668Y869250D01*
D02*
G37*
G36*
X2132138D02*
X2129982D01*
X2127899Y868692D01*
X2126031Y867614D01*
X2124506Y866089D01*
X2123428Y864221D01*
X2122870Y862138D01*
Y859982D01*
X2123428Y857899D01*
X2124506Y856031D01*
X2126031Y854506D01*
X2127899Y853428D01*
X2129982Y852870D01*
X2132138D01*
X2134221Y853428D01*
X2136089Y854506D01*
X2137614Y856031D01*
X2138692Y857899D01*
X2139250Y859982D01*
Y862138D01*
X2138692Y864221D01*
X2137614Y866089D01*
X2136089Y867614D01*
X2134221Y868692D01*
X2132138Y869250D01*
D02*
G37*
G36*
X2236395Y870530D02*
X2234005D01*
X2231695Y869911D01*
X2229625Y868716D01*
X2227934Y867025D01*
X2226739Y864955D01*
X2226120Y862645D01*
Y860255D01*
X2226739Y857945D01*
X2227934Y855875D01*
X2229625Y854184D01*
X2231695Y852989D01*
X2234005Y852370D01*
X2236395D01*
X2238705Y852989D01*
X2240775Y854184D01*
X2242466Y855875D01*
X2243661Y857945D01*
X2244280Y860255D01*
Y862645D01*
X2243661Y864955D01*
X2242466Y867025D01*
X2240775Y868716D01*
X2238705Y869911D01*
X2236395Y870530D01*
D02*
G37*
G36*
X2100505D02*
X2098115D01*
X2095805Y869911D01*
X2093735Y868716D01*
X2092044Y867025D01*
X2090849Y864955D01*
X2090230Y862645D01*
Y860255D01*
X2090849Y857945D01*
X2092044Y855875D01*
X2093735Y854184D01*
X2095805Y852989D01*
X2098115Y852370D01*
X2100505D01*
X2102815Y852989D01*
X2104885Y854184D01*
X2106576Y855875D01*
X2107771Y857945D01*
X2108390Y860255D01*
Y862645D01*
X2107771Y864955D01*
X2106576Y867025D01*
X2104885Y868716D01*
X2102815Y869911D01*
X2100505Y870530D01*
D02*
G37*
G36*
X2208668Y843850D02*
X2206512D01*
X2204429Y843292D01*
X2202561Y842214D01*
X2201036Y840689D01*
X2199958Y838821D01*
X2199400Y836738D01*
Y834582D01*
X2199958Y832499D01*
X2201036Y830631D01*
X2202561Y829106D01*
X2204429Y828028D01*
X2206512Y827470D01*
X2208668D01*
X2210751Y828028D01*
X2212619Y829106D01*
X2214144Y830631D01*
X2215222Y832499D01*
X2215780Y834582D01*
Y836738D01*
X2215222Y838821D01*
X2214144Y840689D01*
X2212619Y842214D01*
X2210751Y843292D01*
X2208668Y843850D01*
D02*
G37*
G36*
X2132138D02*
X2129982D01*
X2127899Y843292D01*
X2126031Y842214D01*
X2124506Y840689D01*
X2123428Y838821D01*
X2122870Y836738D01*
Y834582D01*
X2123428Y832499D01*
X2124506Y830631D01*
X2126031Y829106D01*
X2127899Y828028D01*
X2129982Y827470D01*
X2132138D01*
X2134221Y828028D01*
X2136089Y829106D01*
X2137614Y830631D01*
X2138692Y832499D01*
X2139250Y834582D01*
Y836738D01*
X2138692Y838821D01*
X2137614Y840689D01*
X2136089Y842214D01*
X2134221Y843292D01*
X2132138Y843850D01*
D02*
G37*
G36*
X2208668Y818450D02*
X2206512D01*
X2204429Y817892D01*
X2202561Y816814D01*
X2201036Y815289D01*
X2199958Y813421D01*
X2199400Y811338D01*
Y809182D01*
X2199958Y807099D01*
X2201036Y805231D01*
X2202561Y803706D01*
X2204429Y802628D01*
X2206512Y802070D01*
X2208668D01*
X2210751Y802628D01*
X2212619Y803706D01*
X2214144Y805231D01*
X2215222Y807099D01*
X2215780Y809182D01*
Y811338D01*
X2215222Y813421D01*
X2214144Y815289D01*
X2212619Y816814D01*
X2210751Y817892D01*
X2208668Y818450D01*
D02*
G37*
G36*
X2132138D02*
X2129982D01*
X2127899Y817892D01*
X2126031Y816814D01*
X2124506Y815289D01*
X2123428Y813421D01*
X2122870Y811338D01*
Y809182D01*
X2123428Y807099D01*
X2124506Y805231D01*
X2126031Y803706D01*
X2127899Y802628D01*
X2129982Y802070D01*
X2132138D01*
X2134221Y802628D01*
X2136089Y803706D01*
X2137614Y805231D01*
X2138692Y807099D01*
X2139250Y809182D01*
Y811338D01*
X2138692Y813421D01*
X2137614Y815289D01*
X2136089Y816814D01*
X2134221Y817892D01*
X2132138Y818450D01*
D02*
G37*
G36*
X2208668Y793050D02*
X2206512D01*
X2204429Y792492D01*
X2202561Y791414D01*
X2201036Y789889D01*
X2199958Y788021D01*
X2199400Y785938D01*
Y783782D01*
X2199958Y781699D01*
X2201036Y779831D01*
X2202561Y778306D01*
X2204429Y777228D01*
X2206512Y776670D01*
X2208668D01*
X2210751Y777228D01*
X2212619Y778306D01*
X2214144Y779831D01*
X2215222Y781699D01*
X2215780Y783782D01*
Y785938D01*
X2215222Y788021D01*
X2214144Y789889D01*
X2212619Y791414D01*
X2210751Y792492D01*
X2208668Y793050D01*
D02*
G37*
G36*
X2132138D02*
X2129982D01*
X2127899Y792492D01*
X2126031Y791414D01*
X2124506Y789889D01*
X2123428Y788021D01*
X2122870Y785938D01*
Y783782D01*
X2123428Y781699D01*
X2124506Y779831D01*
X2126031Y778306D01*
X2127899Y777228D01*
X2129982Y776670D01*
X2132138D01*
X2134221Y777228D01*
X2136089Y778306D01*
X2137614Y779831D01*
X2138692Y781699D01*
X2139250Y783782D01*
Y785938D01*
X2138692Y788021D01*
X2137614Y789889D01*
X2136089Y791414D01*
X2134221Y792492D01*
X2132138Y793050D01*
D02*
G37*
G36*
X2236470Y760510D02*
Y752720D01*
X2244260D01*
X2243661Y754955D01*
X2242466Y757025D01*
X2240775Y758716D01*
X2238705Y759911D01*
X2236470Y760510D01*
D02*
G37*
G36*
X2233930D02*
X2231695Y759911D01*
X2229625Y758716D01*
X2227934Y757025D01*
X2226739Y754955D01*
X2226140Y752720D01*
X2233930D01*
Y760510D01*
D02*
G37*
G36*
X2208668Y767650D02*
X2206512D01*
X2204429Y767092D01*
X2202561Y766014D01*
X2201036Y764489D01*
X2199958Y762621D01*
X2199400Y760538D01*
Y758382D01*
X2199958Y756299D01*
X2201036Y754431D01*
X2202561Y752906D01*
X2204429Y751828D01*
X2206512Y751270D01*
X2208668D01*
X2210751Y751828D01*
X2212619Y752906D01*
X2214144Y754431D01*
X2215222Y756299D01*
X2215780Y758382D01*
Y760538D01*
X2215222Y762621D01*
X2214144Y764489D01*
X2212619Y766014D01*
X2210751Y767092D01*
X2208668Y767650D01*
D02*
G37*
G36*
X2132138D02*
X2129982D01*
X2127899Y767092D01*
X2126031Y766014D01*
X2124506Y764489D01*
X2123428Y762621D01*
X2122870Y760538D01*
Y758382D01*
X2123428Y756299D01*
X2124506Y754431D01*
X2126031Y752906D01*
X2127899Y751828D01*
X2129982Y751270D01*
X2132138D01*
X2134221Y751828D01*
X2136089Y752906D01*
X2137614Y754431D01*
X2138692Y756299D01*
X2139250Y758382D01*
Y760538D01*
X2138692Y762621D01*
X2137614Y764489D01*
X2136089Y766014D01*
X2134221Y767092D01*
X2132138Y767650D01*
D02*
G37*
G36*
X2244260Y750180D02*
X2236470D01*
Y742390D01*
X2238705Y742989D01*
X2240775Y744184D01*
X2242466Y745875D01*
X2243661Y747945D01*
X2244260Y750180D01*
D02*
G37*
G36*
X2100505Y760530D02*
X2098115D01*
X2095805Y759911D01*
X2093735Y758716D01*
X2092044Y757025D01*
X2090849Y754955D01*
X2090230Y752645D01*
Y750255D01*
X2090849Y747945D01*
X2092044Y745875D01*
X2093735Y744184D01*
X2095805Y742989D01*
X2098115Y742370D01*
X2100505D01*
X2102815Y742989D01*
X2104885Y744184D01*
X2106576Y745875D01*
X2107771Y747945D01*
X2108390Y750255D01*
Y752645D01*
X2107771Y754955D01*
X2106576Y757025D01*
X2104885Y758716D01*
X2102815Y759911D01*
X2100505Y760530D01*
D02*
G37*
G36*
X2067875Y759650D02*
X2065485D01*
X2063175Y759031D01*
X2061105Y757836D01*
X2059414Y756145D01*
X2058219Y754075D01*
X2057600Y751765D01*
Y749375D01*
X2058219Y747065D01*
X2059414Y744995D01*
X2061105Y743304D01*
X2063175Y742109D01*
X2065485Y741490D01*
X2067875D01*
X2070185Y742109D01*
X2072255Y743304D01*
X2073946Y744995D01*
X2075141Y747065D01*
X2075760Y749375D01*
Y751765D01*
X2075141Y754075D01*
X2073946Y756145D01*
X2072255Y757836D01*
X2070185Y759031D01*
X2067875Y759650D01*
D02*
G37*
G36*
X2132138Y742250D02*
X2129982D01*
X2127899Y741692D01*
X2126031Y740614D01*
X2124506Y739089D01*
X2123428Y737221D01*
X2122870Y735138D01*
Y732982D01*
X2123428Y730899D01*
X2124506Y729031D01*
X2126031Y727506D01*
X2127899Y726428D01*
X2129982Y725870D01*
X2132138D01*
X2134221Y726428D01*
X2136089Y727506D01*
X2137614Y729031D01*
X2138692Y730899D01*
X2139250Y732982D01*
Y735138D01*
X2138692Y737221D01*
X2137614Y739089D01*
X2136089Y740614D01*
X2134221Y741692D01*
X2132138Y742250D01*
D02*
G37*
G36*
X2154235Y701230D02*
X2151845D01*
X2149535Y700611D01*
X2147465Y699416D01*
X2145774Y697725D01*
X2144579Y695655D01*
X2143960Y693345D01*
Y690955D01*
X2144579Y688645D01*
X2145774Y686575D01*
X2147465Y684884D01*
X2149535Y683689D01*
X2151845Y683070D01*
X2154235D01*
X2156545Y683689D01*
X2158615Y684884D01*
X2160306Y686575D01*
X2161501Y688645D01*
X2162120Y690955D01*
Y693345D01*
X2161501Y695655D01*
X2160306Y697725D01*
X2158615Y699416D01*
X2156545Y700611D01*
X2154235Y701230D01*
D02*
G37*
G36*
X1775775Y694880D02*
X1773385D01*
X1771075Y694261D01*
X1769005Y693066D01*
X1767314Y691375D01*
X1766119Y689305D01*
X1765500Y686995D01*
Y684605D01*
X1766119Y682295D01*
X1767314Y680225D01*
X1769005Y678534D01*
X1771075Y677339D01*
X1773385Y676720D01*
X1775775D01*
X1778085Y677339D01*
X1780155Y678534D01*
X1781846Y680225D01*
X1783041Y682295D01*
X1783660Y684605D01*
Y686995D01*
X1783041Y689305D01*
X1781846Y691375D01*
X1780155Y693066D01*
X1778085Y694261D01*
X1775775Y694880D01*
D02*
G37*
G36*
X1665775D02*
X1663385D01*
X1661075Y694261D01*
X1659005Y693066D01*
X1657314Y691375D01*
X1656119Y689305D01*
X1655500Y686995D01*
Y684605D01*
X1656119Y682295D01*
X1657314Y680225D01*
X1659005Y678534D01*
X1661075Y677339D01*
X1663385Y676720D01*
X1665775D01*
X1668085Y677339D01*
X1670155Y678534D01*
X1671846Y680225D01*
X1673041Y682295D01*
X1673660Y684605D01*
Y686995D01*
X1673041Y689305D01*
X1671846Y691375D01*
X1670155Y693066D01*
X1668085Y694261D01*
X1665775Y694880D01*
D02*
G37*
G36*
X954085Y689800D02*
X951695D01*
X949385Y689181D01*
X947315Y687986D01*
X945624Y686295D01*
X944429Y684225D01*
X943810Y681915D01*
Y679525D01*
X944429Y677215D01*
X945624Y675145D01*
X947315Y673454D01*
X949385Y672259D01*
X951695Y671640D01*
X954085D01*
X956395Y672259D01*
X958465Y673454D01*
X960156Y675145D01*
X961351Y677215D01*
X961970Y679525D01*
Y681915D01*
X961351Y684225D01*
X960156Y686295D01*
X958465Y687986D01*
X956395Y689181D01*
X954085Y689800D01*
D02*
G37*
G36*
X844085D02*
X841695D01*
X839385Y689181D01*
X837315Y687986D01*
X835624Y686295D01*
X834429Y684225D01*
X833810Y681915D01*
Y679525D01*
X834429Y677215D01*
X835624Y675145D01*
X837315Y673454D01*
X839385Y672259D01*
X841695Y671640D01*
X844085D01*
X846395Y672259D01*
X848465Y673454D01*
X850156Y675145D01*
X851351Y677215D01*
X851970Y679525D01*
Y681915D01*
X851351Y684225D01*
X850156Y686295D01*
X848465Y687986D01*
X846395Y689181D01*
X844085Y689800D01*
D02*
G37*
G36*
X890585Y652970D02*
X888195D01*
X885885Y652351D01*
X883815Y651156D01*
X882124Y649465D01*
X880929Y647395D01*
X880310Y645085D01*
Y642695D01*
X880929Y640385D01*
X882124Y638315D01*
X883815Y636624D01*
X885885Y635429D01*
X888195Y634810D01*
X890585D01*
X892895Y635429D01*
X894965Y636624D01*
X896656Y638315D01*
X897851Y640385D01*
X898470Y642695D01*
Y645085D01*
X897851Y647395D01*
X896656Y649465D01*
X894965Y651156D01*
X892895Y652351D01*
X890585Y652970D01*
D02*
G37*
%LPD*%
D15*
X2259330Y1172210D02*
D03*
X2067560D02*
D03*
X1870710Y1169670D02*
D03*
X1680210D02*
D03*
X1468120D02*
D03*
X1272540Y1172210D02*
D03*
X1056640Y1173480D02*
D03*
X866140D02*
D03*
X662940Y1181100D02*
D03*
X469900Y1179830D02*
D03*
X2378710Y519430D02*
D03*
X2392680Y1333500D02*
D03*
X307340Y516890D02*
D03*
X302260Y1333500D02*
D03*
X2067560Y1273810D02*
D03*
X2256790Y1276350D02*
D03*
X1678940Y1273810D02*
D03*
X1868170Y1276350D02*
D03*
X1272540Y1272540D02*
D03*
X1461770Y1275080D02*
D03*
X867410Y1272540D02*
D03*
X1056640Y1275080D02*
D03*
X469900D02*
D03*
X659130Y1277620D02*
D03*
D16*
X2256790Y587060D02*
D03*
X1859280Y588330D02*
D03*
X1461770Y581980D02*
D03*
X1031240D02*
D03*
X628650Y587060D02*
D03*
D17*
X2256790Y734060D02*
D03*
X1859280Y735330D02*
D03*
X1461770Y728980D02*
D03*
X1031240D02*
D03*
X628650Y734060D02*
D03*
D18*
X2235200Y751450D02*
D03*
X1842770Y752720D02*
D03*
X1426210Y746370D02*
D03*
X1023620D02*
D03*
X618490Y750180D02*
D03*
X2220840Y923290D02*
D03*
X2330840D02*
D03*
X1803010Y932180D02*
D03*
X1913010D02*
D03*
X1709420Y863990D02*
D03*
X1388990Y924560D02*
D03*
X1498990D02*
D03*
X1294130Y857640D02*
D03*
Y747640D02*
D03*
X1000370Y924560D02*
D03*
X1110370D02*
D03*
X2153040Y692150D02*
D03*
X1774580Y685800D02*
D03*
X1354210Y683260D02*
D03*
X952890Y680720D02*
D03*
X531250Y692150D02*
D03*
X609210Y928370D02*
D03*
X719210D02*
D03*
X618490Y860180D02*
D03*
X1244210Y683260D02*
D03*
X2043040Y692150D02*
D03*
X1664580Y685800D02*
D03*
X842890Y680720D02*
D03*
X421250Y692150D02*
D03*
X2270760Y861450D02*
D03*
Y751450D02*
D03*
X1875790Y862720D02*
D03*
Y752720D02*
D03*
X1459230Y856370D02*
D03*
Y746370D02*
D03*
X1056640Y856370D02*
D03*
Y746370D02*
D03*
X654050Y860180D02*
D03*
Y750180D02*
D03*
X2235200Y861450D02*
D03*
X2099310Y751450D02*
D03*
Y861450D02*
D03*
X1842770Y862720D02*
D03*
X1709420Y753990D02*
D03*
X1426210Y856370D02*
D03*
X1023620D02*
D03*
X889000Y745100D02*
D03*
Y855100D02*
D03*
X485140Y751450D02*
D03*
Y861450D02*
D03*
X1956680Y750570D02*
D03*
X2066680D02*
D03*
X1569330Y754380D02*
D03*
X1679330D02*
D03*
X1147690Y723900D02*
D03*
X1257690D02*
D03*
X779390Y643890D02*
D03*
X889390D02*
D03*
X385690Y657860D02*
D03*
X495690D02*
D03*
D19*
X2027800Y924560D02*
D03*
X2137800D02*
D03*
X1637910Y930910D02*
D03*
X1747910D02*
D03*
X834000Y924560D02*
D03*
X944000D02*
D03*
X444110Y928370D02*
D03*
X554110D02*
D03*
X1331350Y924560D02*
D03*
X1221350D02*
D03*
D20*
X2131060Y886460D02*
D03*
X1738300Y889000D02*
D03*
X1321740Y882650D02*
D03*
X919150Y881380D02*
D03*
X514350Y886460D02*
D03*
D21*
X2131060Y861060D02*
D03*
Y835660D02*
D03*
Y810260D02*
D03*
Y784860D02*
D03*
Y759460D02*
D03*
Y734060D02*
D03*
X2207590D02*
D03*
Y759460D02*
D03*
Y784860D02*
D03*
Y810260D02*
D03*
Y835660D02*
D03*
Y861060D02*
D03*
Y886460D02*
D03*
X1738300Y863600D02*
D03*
Y838200D02*
D03*
Y812800D02*
D03*
Y787400D02*
D03*
Y762000D02*
D03*
Y736600D02*
D03*
X1814830D02*
D03*
Y762000D02*
D03*
Y787400D02*
D03*
Y812800D02*
D03*
Y838200D02*
D03*
Y863600D02*
D03*
Y889000D02*
D03*
X1321740Y857250D02*
D03*
Y831850D02*
D03*
Y806450D02*
D03*
Y781050D02*
D03*
Y755650D02*
D03*
Y730250D02*
D03*
X1398270D02*
D03*
Y755650D02*
D03*
Y781050D02*
D03*
Y806450D02*
D03*
Y831850D02*
D03*
Y857250D02*
D03*
Y882650D02*
D03*
X919150Y855980D02*
D03*
Y830580D02*
D03*
Y805180D02*
D03*
Y779780D02*
D03*
Y754380D02*
D03*
Y728980D02*
D03*
X995680D02*
D03*
Y754380D02*
D03*
Y779780D02*
D03*
Y805180D02*
D03*
Y830580D02*
D03*
Y855980D02*
D03*
Y881380D02*
D03*
X590880Y810260D02*
D03*
X514350D02*
D03*
Y861060D02*
D03*
Y835660D02*
D03*
Y784860D02*
D03*
Y759460D02*
D03*
Y734060D02*
D03*
X590880D02*
D03*
Y759460D02*
D03*
Y784860D02*
D03*
Y835660D02*
D03*
Y861060D02*
D03*
Y886460D02*
D03*
D22*
X2085340Y1032910D02*
D03*
X1672590D02*
D03*
X1271270Y1031240D02*
D03*
X872490Y1032910D02*
D03*
X469900Y1031240D02*
D03*
X1901190Y1032910D02*
D03*
X2313940D02*
D03*
X1499870Y1031240D02*
D03*
X1101090Y1032910D02*
D03*
X698500Y1031240D02*
D03*
D23*
X316230Y720090D02*
D03*
Y911060D02*
D03*
Y861060D02*
D03*
Y770890D02*
D03*
D24*
X2034540Y1032910D02*
D03*
X1621790D02*
D03*
X1220470Y1031240D02*
D03*
X821690Y1032910D02*
D03*
X419100Y1031240D02*
D03*
D25*
X783590Y906780D02*
D03*
X394970Y901700D02*
D03*
X1985010Y915670D02*
D03*
X1574800Y910590D02*
D03*
X1176020Y901700D02*
D03*
D26*
X783590Y881380D02*
D03*
Y855980D02*
D03*
X394970Y876300D02*
D03*
Y850900D02*
D03*
X1985010Y864870D02*
D03*
Y890270D02*
D03*
X1574800Y859790D02*
D03*
Y885190D02*
D03*
X1176020Y850900D02*
D03*
Y876300D02*
D03*
D28*
X534670Y995680D02*
D03*
X680720Y815340D02*
D03*
X684315Y907765D02*
D03*
X508000Y1021080D02*
D03*
X2297430Y864870D02*
D03*
X2275840Y886460D02*
D03*
X2020570Y661670D02*
D03*
X2000250Y828040D02*
D03*
X1945640Y886460D02*
D03*
X1901190Y802640D02*
D03*
X1916430Y821690D02*
D03*
X1891030Y906780D02*
D03*
X1720850Y982980D02*
D03*
X1687830Y1016000D02*
D03*
X1617980Y844550D02*
D03*
Y904240D02*
D03*
X1875790Y889000D02*
D03*
X1487170Y810260D02*
D03*
X1464310Y882650D02*
D03*
X1200150Y819150D02*
D03*
X1160780D02*
D03*
X1189990Y807720D02*
D03*
X1132840Y864870D02*
D03*
X1096010Y789940D02*
D03*
X1062990Y881380D02*
D03*
X1113790Y819150D02*
D03*
X1085850Y902970D02*
D03*
X919480Y986790D02*
D03*
X889000Y1017270D02*
D03*
X855980Y607060D02*
D03*
X782320D02*
D03*
X388620Y615950D02*
D03*
X467360D02*
D03*
X735330Y863600D02*
D03*
X679450Y842010D02*
D03*
X692150Y877570D02*
D03*
X656590Y886460D02*
D03*
D29*
X1801814Y751524D02*
X1841574D01*
X1842770Y752720D01*
X1762760Y712470D02*
X1801814Y751524D01*
X1527810Y712470D02*
X1762760D01*
X1482544Y757736D02*
X1527810Y712470D01*
X1463938Y757736D02*
X1482544D01*
X1463938Y757736D02*
X1463938Y757736D01*
X1437576Y757736D02*
X1463938D01*
X1426210Y746370D02*
X1437576Y757736D01*
X1002485Y746370D02*
X1023620D01*
X995571Y739456D02*
X1002485Y746370D01*
X978216Y739456D02*
X995571D01*
X948690Y709930D02*
X978216Y739456D01*
X678226Y709930D02*
X948690D01*
X637976Y750180D02*
X678226Y709930D01*
X618490Y750180D02*
X637976D01*
X2218066Y734316D02*
X2235200Y751450D01*
X2218066Y671206D02*
Y734316D01*
X2184400Y637540D02*
X2218066Y671206D01*
X1912620Y637540D02*
X2184400D01*
X1842770Y707390D02*
X1912620Y637540D01*
X1842770Y707390D02*
Y752720D01*
X1426210Y692150D02*
Y746370D01*
X1384300Y650240D02*
X1426210Y692150D01*
X1261156Y650240D02*
X1384300D01*
X1238296Y673100D02*
X1261156Y650240D01*
X1110936Y673100D02*
X1238296D01*
X1037666Y746370D02*
X1110936Y673100D01*
X1023620Y746370D02*
X1037666D01*
X508000Y1021080D02*
X508635D01*
X534035Y995680D01*
X534670D01*
X680720Y815340D02*
X732790D01*
X746760Y829310D01*
Y878702D01*
X736462Y889000D02*
X746760Y878702D01*
X703079Y889000D02*
X736462D01*
X684315Y907765D02*
X703079Y889000D01*
X2275840Y886460D02*
X2297430Y864870D01*
X1958340Y661670D02*
X2020570D01*
X1901190Y718820D02*
X1958340Y661670D01*
X1901190Y718820D02*
Y802640D01*
X1964690Y828040D02*
X2000250D01*
X1945640Y847090D02*
X1964690Y828040D01*
X1945640Y847090D02*
Y886460D01*
X1901190Y802640D02*
X1924059D01*
X1935480Y814062D01*
X1891030Y906780D02*
X1935480Y862330D01*
Y814062D02*
Y862330D01*
X1875790Y889000D02*
X1916430Y848360D01*
Y821690D02*
Y848360D01*
X1687830Y1016000D02*
X1720850Y982980D01*
X1617980Y844550D02*
Y904240D01*
X1487170Y810260D02*
Y859790D01*
X1464310Y882650D02*
X1487170Y859790D01*
X1160780Y819150D02*
X1200150D01*
X1146810Y807720D02*
X1189990D01*
X1132840Y821690D02*
X1146810Y807720D01*
X1132840Y821690D02*
Y864870D01*
X1096010Y789940D02*
Y848360D01*
X1062990Y881380D02*
X1096010Y848360D01*
X1113790Y819150D02*
Y875030D01*
X1085850Y902970D02*
X1113790Y875030D01*
X889000Y1017270D02*
X919480Y986790D01*
X782320Y607060D02*
X855980D01*
X388620Y615950D02*
X467360D01*
X713740Y842010D02*
X735330Y863600D01*
X679450Y842010D02*
X713740D01*
X683260Y886460D02*
X692150Y877570D01*
X656590Y886460D02*
X683260D01*
D30*
X2211070Y549910D02*
D03*
X2185670D02*
D03*
X2114550Y548640D02*
D03*
X2089150D02*
D03*
X1830070Y547370D02*
D03*
X1804670D02*
D03*
X1725930D02*
D03*
X1700530D02*
D03*
X1418590Y548640D02*
D03*
X1393190D02*
D03*
X1328420Y547370D02*
D03*
X1303020D02*
D03*
X1010920Y538480D02*
D03*
X985520D02*
D03*
X922020Y537210D02*
D03*
X896620D02*
D03*
X607060Y538480D02*
D03*
X581660D02*
D03*
X514350D02*
D03*
X488950D02*
D03*
D31*
X316230Y961060D02*
D03*
M02*
